<svg width="545" height="481" viewBox="0 0 545 481" fill="none" xmlns="http://www.w3.org/2000/svg">
<path d="M315.011 88.3138C309.465 88.3197 304.147 90.7475 300.226 95.0643C296.304 99.3812 294.099 105.234 294.093 111.339V119.568C294.032 122.636 294.528 125.685 295.552 128.539C296.576 131.392 298.107 133.992 300.056 136.185C302.005 138.378 304.332 140.12 306.901 141.31C309.47 142.499 312.229 143.112 315.016 143.112C317.803 143.112 320.562 142.499 323.131 141.31C325.7 140.12 328.027 138.378 329.976 136.185C331.925 133.992 333.456 131.392 334.48 128.539C335.504 125.685 336 122.636 335.938 119.568V111.339C335.93 105.233 333.723 99.3802 329.799 95.0637C325.876 90.7471 320.558 88.3197 315.011 88.3138ZM330.701 119.535C330.701 124.119 329.047 128.515 326.103 131.756C323.158 134.997 319.165 136.818 315.001 136.818C310.836 136.818 306.843 134.997 303.898 131.756C300.954 128.515 299.3 124.119 299.3 119.535V111.306C299.3 106.722 300.954 102.326 303.898 99.0849C306.843 95.8437 310.836 94.0228 315.001 94.0228C319.165 94.0228 323.158 95.8437 326.103 99.0849C329.047 102.326 330.701 106.722 330.701 111.306V119.535Z" fill="#535461"/>
<path opacity="0.1" d="M335.938 111.799V119.29C336 122.394 335.504 125.479 334.48 128.366C333.456 131.254 331.925 133.884 329.976 136.103C328.027 138.322 325.7 140.085 323.131 141.288C320.562 142.492 317.803 143.112 315.016 143.112C312.229 143.112 309.47 142.492 306.901 141.288C304.332 140.085 302.005 138.322 300.056 136.103C298.107 133.884 296.576 131.254 295.552 128.366C294.528 125.479 294.032 122.394 294.093 119.29V111.799H299.32V119.29C299.32 123.928 300.974 128.376 303.919 131.656C306.863 134.935 310.857 136.778 315.021 136.778C319.185 136.778 323.178 134.935 326.123 131.656C329.067 128.376 330.722 123.928 330.722 119.29V111.799H335.938Z" fill="black"/>
<path d="M631.133 112.917H0V422.696H631.133V112.917Z" fill="#535461"/>
<path d="M616.814 124.1H11.0146V405.921H616.814V124.1Z" fill="white"/>
<g opacity="0.2">
<path opacity="0.2" d="M341.451 154.295H49.5654V360.069H341.451V154.295Z" fill="#6C63FF"/>
</g>
<path opacity="0.2" d="M62.1814 228.724V182.754H186.747V228.724H62.1814Z" fill="#6C63FF" stroke="#FFD037"/>
<g opacity="0.2">
<path opacity="0.2" d="M507.206 360.096H478.549V374.276H507.206V360.096Z" fill="#6C63FF"/>
</g>
<g opacity="0.2">
<path opacity="0.2" d="M557.677 360.096H529.02V374.276H557.677V360.096Z" fill="#6C63FF"/>
</g>
<path d="M153.102 297.442H61.6814V346.649H153.102V297.442Z" fill="#CCCCCC"/>
<path d="M254.436 297.442H175.131V346.649H254.436V297.442Z" fill="#CCCCCC"/>
<path d="M290.784 182.254H215.885V230.342H290.784V182.254Z" fill="#CCCCCC"/>
<path d="M330.436 297.442H276.465V346.649H330.436V297.442Z" fill="#CCCCCC"/>
<path d="M442.784 157.65H363.48V194.555H442.784V157.65Z" fill="#6C63FF"/>
<g opacity="0.9">
<path opacity="0.2" d="M442.784 209.094H363.48V249.728H442.784V209.094Z" fill="#6C63FF"/>
</g>
<path d="M363.833 175.897C364.029 175.702 364.029 175.386 363.833 175.19L360.651 172.008C360.456 171.813 360.139 171.813 359.944 172.008C359.749 172.204 359.749 172.52 359.944 172.715L362.773 175.544L359.944 178.372C359.749 178.567 359.749 178.884 359.944 179.079C360.139 179.275 360.456 179.275 360.651 179.079L363.833 175.897ZM341.451 176.044L363.48 176.044L363.48 175.044L341.451 175.044L341.451 176.044Z" fill="#CCCCCC"/>
<path d="M363.93 225.656C363.811 225.405 363.513 225.297 363.265 225.415L359.218 227.332C358.969 227.449 358.864 227.748 358.983 227.999C359.102 228.25 359.399 228.358 359.648 228.24L363.245 226.536L364.966 230.168C365.085 230.419 365.382 230.527 365.63 230.409C365.879 230.292 365.984 229.993 365.865 229.742L363.93 225.656ZM330.906 319.979L363.95 226.039L363.01 225.698L329.966 319.638L330.906 319.979Z" fill="#CCCCCC"/>
<g opacity="0.2">
<path d="M442.784 297.442H363.48V346.649H442.784V297.442Z" fill="#6C63FF"/>
</g>
<g opacity="0.2">
<path opacity="0.2" d="M507.206 236.223H478.549V345.904H507.206V236.223Z" fill="#6C63FF"/>
</g>
<g opacity="0.2">
<path opacity="0.2" d="M557.677 236.223H529.02V345.904H557.677V236.223Z" fill="#6C63FF"/>
</g>
<path d="M299.596 228.665L285.277 235.375L299.596 263.333L312.813 257.741L299.596 228.665Z" fill="#535461"/>
<path d="M666.15 381.576C666.15 381.576 682.641 353.981 678.259 310.689C673.877 267.397 658.021 197.328 658.021 197.328C658.021 197.328 664.905 158.073 627.567 152.559C627.567 152.559 604.36 148.167 587.765 137.548C581.594 133.591 576.343 128.803 573.504 123.038C573.504 123.038 573.284 123.685 572.856 124.872C572.489 124.278 572.151 123.666 571.845 123.038C571.845 123.038 571.754 123.276 571.611 123.698L565.271 113.647C565.271 113.647 564.403 114.583 562.938 116.126C560.388 112.402 558.216 108.425 556.455 104.255C558.032 103.867 559.579 103.365 561.084 102.751C562.523 102.267 563.82 101.423 564.856 100.298C565.765 99.014 566.352 97.5244 566.568 95.9578C567.578 90.9442 567.867 85.8075 567.423 80.7094C567.073 76.7522 566.283 72.795 566.555 68.7718C566.84 64.4849 568.331 60.343 568.539 56.0428C568.902 48.4714 565.207 41.2693 560.643 35.2675C557.92 31.6928 554.861 28.3688 552.501 24.5435C550.453 21.2194 548.962 17.5524 546.758 14.3207C541.572 6.80199 532.924 2.36992 524.056 0.800231C515.189 -0.76946 506.061 0.206661 497.181 1.69721C489.402 3.01628 481.623 4.92891 473.844 5.39058C467.05 5.7863 461.515 3.45155 455.291 8.02872C453.23 9.57484 451.518 11.5519 450.271 13.8271C449.023 16.1023 448.268 18.6228 448.057 21.2194C447.956 22.1034 448.022 22.9988 448.252 23.8575C448.619 24.7473 449.052 25.6072 449.548 26.4297C452.31 31.9698 448.109 38.552 448.654 44.7384C448.985 47.474 450.216 50.0153 452.146 51.9499C454.076 53.8846 456.591 55.0991 459.285 55.3965C459.038 55.9241 458.766 56.4385 458.533 56.9794C455.089 64.8941 453.541 73.5271 454.014 82.1691C454.487 90.8111 456.969 99.2156 461.255 106.692C465.541 114.169 471.509 120.504 478.67 125.178C485.83 129.852 493.978 132.73 502.444 133.578L504.856 135.464C510.301 139.751 516.42 144.882 522.319 150.462L522.203 150.554L521.243 150C519.447 151.445 517.559 152.767 515.59 153.957C510.132 157.36 501.329 161.779 491.424 162.281C491.424 162.281 473.688 171.844 467.582 203.383C458.818 211.376 440.058 225.807 415.269 229.566C380.433 234.843 337.481 236.571 337.481 236.571C337.481 236.571 337.131 237.204 336.638 238.364L332.671 237.626C332.671 237.626 332.671 238.114 332.502 238.945L330.947 238.233C318.643 232.758 294.062 224.778 290.95 246.767C286.776 276.261 314.417 272.871 314.417 272.871C319.882 270.759 325.483 269.027 331.18 267.687L332.723 267.384C332.985 268.153 333.351 268.881 333.812 269.547H337.572C338.878 272.297 340.454 274.904 342.278 277.33L429.894 275.378C429.894 275.378 444.868 272.054 458.688 274.164C452.66 320.015 445.542 370.298 445.542 370.298C445.542 370.298 430.633 449.93 441.069 458.253C447.127 456.197 453.3 454.514 459.557 453.214C459.652 458.135 460.164 463.038 461.087 467.869L467.764 512.335C467.764 512.335 470.356 557.764 479.03 584.884L486.679 621.95L493.084 649.967L496.688 697.519C501.637 717.664 505.215 738.131 507.397 758.777C510.781 790.725 529.152 842.353 531.602 849.146C525.327 858.182 512.44 873.509 496.273 875.092C473.196 877.361 472.638 891.515 488.766 896.606C504.895 901.698 538.836 896.606 538.836 896.606L586.702 884.563C585.263 893.546 584.511 900.643 585.561 901.408C588.621 903.676 635.074 915.917 636.746 896.316C636.876 894.698 636.992 893.128 637.096 891.607C637.788 879.05 636.138 866.474 632.234 854.541C631.858 853.367 631.521 852.18 631.223 850.993C631.912 850.209 632.545 849.376 633.116 848.5C633.116 848.5 636.461 795.579 638.963 776.61C639.157 775.094 639.287 773.247 639.352 771.163C640.506 748.422 632.351 688.602 632.351 688.602C632.351 688.602 622.277 649.69 622.653 631.803C622.711 630.317 622.96 628.845 623.392 627.424C623.392 627.424 623.392 627.068 623.263 626.474C623.263 626.224 623.379 625.96 623.457 625.722C623.457 625.722 618.349 590.107 619.062 568.923C619.162 565.763 619.596 562.623 620.359 559.558C621.169 555.534 621.582 551.438 621.59 547.33C622.238 532.82 621.486 507.758 620.449 484.252C620.566 483.856 620.683 483.461 620.773 482.999C620.983 481.127 620.765 479.231 620.138 477.459C620.06 475.942 619.996 474.438 619.918 472.948C620.346 471.457 620.696 469.874 621.007 468.239H621.681V468.331C621.681 468.331 665.268 466.207 675.29 454.322C675.29 454.322 665.165 422.309 659.551 396.283L666.15 381.576ZM478.317 281.999L477.63 281.749C478.732 277.791 480.041 273.188 481.519 268.36C480.262 273.584 479.173 278.332 478.317 281.999ZM522.553 150.765L522.747 150.95L522.54 150.831L522.553 150.765ZM577.004 837.367C574.658 829.149 565.336 795.645 565.634 779.671C565.7 778.282 565.939 776.908 566.347 775.582C567.212 772.687 567.649 769.677 567.644 766.651C568.577 749.978 562.302 720.102 562.302 720.102C562.302 720.102 548.262 679.804 549.338 647.803C549.338 646.999 549.428 646.194 549.48 645.39C549.714 642.356 549.895 639.071 550.025 635.602V635.536C550.556 623.176 550.44 608.297 550.09 594.421L550.012 593.906C549.532 575.532 548.638 558.99 548.262 552.448C549.558 561.906 557.855 620.776 561.434 630.405C561.434 630.405 563.391 657.565 572.285 680.53L582.035 740.231C582.035 740.231 584.537 811.276 588.699 831.365C590.566 840.308 592.147 846.336 593.327 850.267C591.642 858.274 588.919 871.689 587.091 882.795C586.015 875.554 582.229 847.959 577.017 837.367H577.004Z" fill="url(#paint0_linear)"/>
<path d="M578.742 136.677C578.742 136.677 541.52 229.698 548.145 199.821C552.527 180.035 524.199 153.746 504.609 138.3C494.639 130.386 486.938 125.36 486.938 125.36C486.938 125.36 556.818 42.4696 551.866 78.2296C550.507 88.0236 551.826 98.009 555.677 107.091C563.391 125.742 578.742 136.677 578.742 136.677Z" fill="#BE7C5E"/>
<path d="M340.981 268.822C339.01 268.307 335.795 268.637 332.463 269.363C326.819 270.689 321.271 272.403 315.855 274.494C315.855 274.494 288.461 277.857 292.596 248.627C295.669 226.836 320.03 234.75 332.23 240.158C336.379 242.018 339.127 243.575 339.127 243.575L340.981 268.822Z" fill="#BE7C5E"/>
<path opacity="0.1" d="M340.981 268.822C339.01 268.307 335.795 268.637 332.463 269.363C329.481 261.712 331.75 243.575 332.23 240.158C336.379 242.018 339.127 243.575 339.127 243.575L340.981 268.822Z" fill="black"/>
<path d="M341.098 240.91L333.929 239.591C333.929 239.591 330.259 264.654 335.057 271.249H343.302L341.098 240.91Z" fill="#CBCDDA"/>
<path d="M484.89 286.642C484.89 286.642 462.98 273.307 460.361 290.138C457.742 306.969 454.293 335.725 454.293 335.725L448.226 372.329L440.369 445.669L441.471 458.148C441.471 458.148 464.808 450.154 470.279 452.964C475.75 455.773 480.21 422.111 480.21 422.111L489.285 387.327L490.659 313.565L484.89 286.642Z" fill="#4C4C78"/>
<path opacity="0.1" d="M484.89 286.642C484.89 286.642 462.98 273.307 460.361 290.138C457.742 306.969 454.293 335.725 454.293 335.725L448.226 372.329L440.369 445.669L441.471 458.148C441.471 458.148 464.808 450.154 470.279 452.964C475.75 455.773 480.21 422.111 480.21 422.111L489.285 387.327L490.659 313.565L484.89 286.642Z" fill="black"/>
<path d="M473.079 200.243C473.079 200.243 450.339 226.335 415.814 231.585C381.289 236.834 338.687 238.536 338.687 238.536C338.687 238.536 327.939 258.098 343.445 278.926L430.308 276.974C430.308 276.974 449.535 272.726 464.432 276.974L473.079 200.243Z" fill="#4C4C78"/>
<path opacity="0.05" d="M473.079 200.243C473.079 200.243 450.339 226.335 415.814 231.585C381.289 236.834 338.687 238.536 338.687 238.536C338.687 238.536 327.939 258.098 343.445 278.926L430.308 276.974C430.308 276.974 449.535 272.726 464.432 276.974L473.079 200.243Z" fill="black"/>
<path opacity="0.1" d="M551.995 106.286C543.516 124.753 528.775 138.366 507.397 138.366C506.45 138.366 505.53 138.366 504.609 138.3C494.639 130.386 486.938 125.36 486.938 125.36C486.938 125.36 556.818 42.4696 551.865 78.2296C550.336 89.1778 548.585 98.0684 551.995 106.286Z" fill="black"/>
<path d="M560.656 82.4769C560.648 93.1957 557.517 103.671 551.658 112.58C545.799 121.488 537.476 128.429 527.74 132.525C518.004 136.621 507.294 137.688 496.962 135.591C486.63 133.494 477.142 128.327 469.696 120.744C462.25 113.161 457.181 103.502 455.131 92.9887C453.08 82.4751 454.139 71.5788 458.174 61.6774C462.209 51.7761 469.039 43.3144 477.801 37.3621C486.562 31.4098 496.861 28.2342 507.396 28.2368C514.399 28.2229 521.335 29.6167 527.806 32.3383C534.277 35.0598 540.156 39.0554 545.105 44.0955C550.054 49.1357 553.976 55.121 556.644 61.7077C559.313 68.2944 560.676 75.3526 560.656 82.4769Z" fill="#BE7C5E"/>
<path d="M593.211 413.695C593.211 413.695 474.402 424.366 470.045 408.933C465.689 393.5 482.168 351.712 482.168 351.712L476.8 293.37L476.606 291.14C476.606 291.14 491.489 228.023 490.945 222.984C490.426 218.447 514.904 165.486 519.934 154.656C520.53 153.403 520.841 152.717 520.841 152.717L521.788 153.271L522.203 153.522L528.024 156.978L551.01 151.438L578.716 136.677L581.309 298.145L593.211 413.695Z" fill="#CBCDDA"/>
<path opacity="0.1" d="M531.459 154.67C531.459 154.67 523.331 152.427 520.154 160.698C518.911 164.253 517.438 167.721 515.746 171.079L512.583 190.284L506.788 220.623L502.509 354.838L504.441 378.674L515.059 359.468L516.991 234.012V218.407C517.613 204.915 520.607 191.647 525.833 179.231L527.311 175.709L536.542 163.639L531.459 154.67Z" fill="black"/>
<path d="M529.813 152.981C529.813 152.981 521.671 150.739 518.508 159.009C517.262 162.566 515.785 166.034 514.087 169.39L510.923 188.609L505.128 218.948L500.863 353.163L502.794 377.012L513.412 357.74L515.344 232.363V216.719C515.978 203.229 518.973 189.962 524.186 177.542L525.677 174.02L534.908 161.964L529.813 152.981Z" fill="#4C4C78"/>
<path opacity="0.1" d="M564.545 118.342C564.545 118.342 536.425 148.681 526.494 152.282C526.494 152.282 531.459 175.287 536.425 179.772C536.425 179.772 565.933 149.156 571.157 146.676L575.539 135.767L564.545 118.342Z" fill="black"/>
<path d="M564.545 116.614C564.545 116.614 536.425 146.953 526.494 150.554C526.494 150.554 531.459 173.559 536.425 178.044C536.425 178.044 565.933 147.428 571.157 144.948L575.539 134.053L564.545 116.614Z" fill="#CBCDDA"/>
<path opacity="0.1" d="M522.488 152.717L522.202 153.509L513.192 178.083L497.077 224.448C497.077 224.448 496.934 224.923 496.649 225.767C493.978 234.209 479.626 280.021 476.8 293.33L476.605 291.101C476.605 291.101 491.489 227.983 490.944 222.945C490.426 218.407 514.903 165.446 519.934 154.617C520.737 154.063 521.36 153.588 521.788 153.232L522.488 152.717Z" fill="black"/>
<path d="M520.841 152.704L511.532 178.083L495.417 224.448C495.417 224.448 495.274 224.923 494.989 225.767C492.163 234.763 476.048 286.115 474.751 295.507C473.286 305.822 453.022 361.579 453.022 361.579L441.445 458.121C431.073 449.93 445.801 371.063 445.801 371.063C445.801 371.063 462.344 254.101 466.259 215.189C470.175 176.276 491.294 164.906 491.294 164.906C501.044 164.404 509.834 160.025 515.24 156.661C517.192 155.472 519.064 154.15 520.841 152.704Z" fill="#4C4C78"/>
<path opacity="0.1" d="M637.589 773.841C635.112 792.637 631.806 845.07 631.806 845.07C620.229 862.733 594.585 853.196 594.585 853.196C594.585 853.196 591.836 847.92 587.7 827.949C583.565 807.978 581.088 737.632 581.088 737.632L571.43 678.538C562.614 655.81 560.682 628.888 560.682 628.888C556.793 618.507 547.445 550.351 547.445 550.351C547.445 550.351 551.334 611.49 548.832 643.754C546.33 676.019 561.499 719.429 561.499 719.429C561.499 719.429 570.055 760.109 565.635 772.733C561.214 785.356 576.667 837.512 576.667 837.512C575.371 852.668 531.472 846.495 531.472 846.495C531.472 846.495 510.82 790.105 507.202 756.165C505.035 735.716 501.487 715.442 496.584 695.488L493.006 648.358L486.653 620.499L479.082 583.763C470.525 556.841 467.919 511.821 467.919 511.821L461.294 467.645C456.964 445.801 462.591 420.159 466.325 406.744C467.945 400.927 469.242 397.378 469.242 397.378C473.04 400.122 494.795 403.341 506.049 405.952C512.207 407.396 518.541 407.912 524.847 407.482C553.299 405.184 581.444 399.933 608.846 391.812C610.7 391.245 611.685 390.915 611.685 390.915L612.269 395.967L613.643 407.997L616.093 429.353C616.093 429.353 623.535 543.228 619.127 558.621C614.719 574.015 622.161 625.894 622.161 625.894C618.025 638.201 630.977 688.22 630.977 688.22C630.977 688.22 640.078 755.044 637.589 773.841Z" fill="black"/>
<path d="M637.589 772.192C635.112 790.988 631.806 843.422 631.806 843.422C620.229 861.097 594.585 851.547 594.585 851.547C594.585 851.547 591.836 846.271 587.7 826.313C583.565 806.356 581.088 735.983 581.088 735.983L571.43 676.81C562.679 654.082 560.682 627.094 560.682 627.094C556.793 616.713 547.445 548.557 547.445 548.557C547.445 548.557 551.334 609.696 548.832 641.96C546.33 674.225 561.499 717.688 561.499 717.688C561.499 717.688 570.055 758.368 565.635 770.991C561.214 783.615 576.667 835.784 576.667 835.784C575.371 850.927 531.472 844.754 531.472 844.754C531.472 844.754 510.82 788.43 507.202 754.477C505.035 734.027 501.487 713.754 496.584 693.799L493.006 646.682L486.653 618.916L479.082 582.18C470.525 555.244 467.919 510.225 467.919 510.225L461.294 466.049C456.964 444.205 462.591 418.562 466.325 405.148C467.945 399.344 469.242 395.795 469.242 395.795C473.04 398.539 494.795 401.744 506.049 404.356C512.206 405.807 518.541 406.322 524.847 405.886C553.299 403.588 581.444 398.337 608.846 390.216L611.685 389.332L612.269 394.371L613.643 406.414L616.093 427.77C616.093 427.77 623.535 541.632 619.127 557.038C614.719 572.445 622.161 624.311 622.161 624.311C618.025 636.605 630.977 686.624 630.977 686.624C630.977 686.624 640.078 753.369 637.589 772.192Z" fill="#474463"/>
<path opacity="0.1" d="M560.655 82.477C560.672 91.955 558.24 101.271 553.603 109.491C545.305 110.982 536.476 109.333 530.266 103.754C526.014 99.9414 523.265 94.7311 519.609 90.3122C517.243 87.5967 514.7 85.0452 511.999 82.6748C510.235 80.8872 508.21 79.3877 505.996 78.2296C504.883 77.6573 503.655 77.3526 502.407 77.3388C501.16 77.3251 499.926 77.6028 498.801 78.1504C495.871 79.8124 494.911 83.519 493.213 86.4737C491.936 89.0103 489.75 90.951 487.107 91.8951C485.785 92.3252 484.363 92.3125 483.049 91.859C481.735 91.4055 480.599 90.5351 479.807 89.3757C478.005 86.2231 479.328 81.303 476.307 79.3772C475.51 78.9768 474.687 78.6331 473.844 78.3483C469.954 76.5544 469.5 71.2385 469.163 66.8856C468.995 64.7487 468.541 62.3348 466.778 61.1872C465.015 60.0396 462.694 60.62 460.594 60.6596C459.972 60.6845 459.35 60.6358 458.74 60.5145C463.691 49.159 472.326 39.8787 483.199 34.2269C494.072 28.5752 506.523 26.8951 518.468 29.4679C530.413 32.0407 541.127 38.7103 548.817 48.3601C556.506 58.01 560.704 70.0543 560.707 82.477H560.655Z" fill="#3F3D56"/>
<path d="M455.473 11.9859C453.426 13.5227 451.727 15.4883 450.49 17.7501C449.253 20.012 448.508 22.5175 448.304 25.0975C448.205 25.9596 448.271 26.8329 448.498 27.6697C448.86 28.5577 449.294 29.4136 449.795 30.2286C452.517 35.7291 448.355 42.2454 448.887 48.379C449.248 51.2767 450.629 53.9429 452.775 55.8834C454.92 57.8238 457.685 58.9068 460.555 58.9316C462.656 58.9316 464.963 58.2984 466.739 59.4592C468.516 60.62 468.956 63.0207 469.125 65.1576C469.462 69.5105 469.89 74.8263 473.792 76.6203C474.633 76.9118 475.456 77.2554 476.256 77.6492C479.289 79.575 477.967 84.5083 479.769 87.6477C480.56 88.8071 481.697 89.6775 483.011 90.131C484.324 90.5845 485.747 90.5972 487.068 90.1671C489.706 89.2268 491.888 87.2905 493.162 84.7589C494.834 81.791 495.832 78.1636 498.762 76.4356C499.886 75.883 501.12 75.6014 502.368 75.6129C503.616 75.6243 504.844 75.9284 505.958 76.5016C508.172 77.6644 510.197 79.1683 511.96 80.96C514.665 83.3269 517.207 85.8786 519.571 88.5974C523.227 93.0031 525.975 98.2134 530.228 102.026C538.24 109.188 550.505 109.94 560.384 105.811C561.809 105.327 563.096 104.494 564.13 103.384C565.032 102.108 565.615 100.628 565.829 99.0708C566.832 94.1052 567.12 89.0175 566.685 83.9675C566.334 80.0103 565.544 76.0531 565.816 72.0959C566.088 67.8485 567.579 63.7462 567.787 59.4988C568.15 51.9801 564.481 44.8439 560.008 38.8949C557.311 35.3466 554.277 32.0621 551.944 28.2632C549.908 24.9656 548.43 21.3381 546.252 18.146C541.144 10.6932 532.535 6.27435 523.745 4.73104C514.955 3.18773 505.919 4.13747 497.116 5.62802C489.441 6.94708 481.714 8.82017 473.935 9.28184C467.128 9.7699 461.644 7.43513 455.473 11.9859Z" fill="#333333"/>
<path opacity="0.1" d="M520.841 152.704L511.532 178.083L495.417 224.448C495.417 224.448 495.274 224.923 494.989 225.767V225.833L515.266 156.635C517.209 155.453 519.071 154.14 520.841 152.704Z" fill="black"/>
<path opacity="0.1" d="M671.984 454.362C662.053 466.141 618.828 468.252 618.828 468.252L576.045 399.66C576.045 399.66 565.919 392.511 546.9 360.312C527.881 328.114 528.503 303.315 529.566 284.796C530.629 266.276 542.531 213.052 542.531 213.052C544.385 201.074 571.053 125.993 571.053 125.993C573.854 131.678 579.066 136.427 585.159 140.344C601.624 150.897 624.611 155.224 624.611 155.224C661.638 160.698 654.806 199.61 654.806 199.61C654.806 199.61 655.22 350.868 652.939 368.966C650.657 387.063 671.984 454.362 671.984 454.362Z" fill="black"/>
<path opacity="0.1" d="M621.5 405.557L613.643 406.374L537.89 414.078C525.725 415.321 513.446 414.707 501.459 412.257L466.325 405.108C467.945 399.304 469.242 395.756 469.242 395.756C473.04 398.5 494.795 401.705 506.049 404.317C512.206 405.767 518.541 406.283 524.848 405.847C553.299 403.548 581.444 398.298 608.846 390.176L612.269 394.331L621.5 405.557Z" fill="black"/>
<g opacity="0.1">
<path opacity="0.1" d="M470.032 396.177C469.782 396.052 469.54 395.911 469.306 395.756C469.306 395.756 469.306 395.835 469.228 395.953L470.032 396.177Z" fill="black"/>
</g>
<path d="M673.631 454.362C663.713 466.141 620.475 468.252 620.475 468.252L577.692 399.66C577.692 399.66 567.566 392.511 548.534 360.312C529.502 328.114 530.15 303.315 531.2 284.796C532.25 266.276 544.165 213.052 544.165 213.052C546.019 201.074 572.687 125.993 572.687 125.993C575.475 131.678 580.686 136.427 586.793 140.344C603.258 150.897 626.245 155.224 626.245 155.224C663.259 160.698 656.427 199.61 656.427 199.61C656.427 199.61 656.841 350.868 654.56 368.966C652.278 387.063 673.631 454.362 673.631 454.362Z" fill="#4C4C78"/>
<path opacity="0.1" d="M580.609 163.217L571.3 166.739L577.497 171.158L531.213 284.756C532.289 266.289 544.178 213.012 544.178 213.012C546.032 201.035 572.7 125.953 572.7 125.953C575.487 131.639 580.699 136.387 586.806 140.305L580.609 163.217Z" fill="black"/>
<path d="M115.299 297.796C115.494 297.991 115.811 297.991 116.006 297.796L119.188 294.614C119.383 294.419 119.383 294.102 119.188 293.907C118.993 293.711 118.676 293.711 118.481 293.907L115.653 296.735L112.824 293.907C112.629 293.711 112.312 293.711 112.117 293.907C111.922 294.102 111.922 294.419 112.117 294.614L115.299 297.796ZM115.153 226.987L115.153 297.442L116.153 297.442L116.153 226.987L115.153 226.987Z" fill="#E0E0E0"/>
<path d="M175.485 322.399C175.68 322.204 175.68 321.887 175.485 321.692L172.303 318.51C172.107 318.315 171.791 318.315 171.596 318.51C171.4 318.705 171.4 319.022 171.596 319.217L174.424 322.046L171.596 324.874C171.4 325.069 171.4 325.386 171.596 325.581C171.791 325.776 172.107 325.776 172.303 325.581L175.485 322.399ZM153.102 322.546H175.131V321.546H153.102V322.546Z" fill="#CCCCCC"/>
<path d="M276.818 321.281C277.014 321.086 277.014 320.769 276.818 320.574L273.636 317.392C273.441 317.196 273.125 317.196 272.929 317.392C272.734 317.587 272.734 317.904 272.929 318.099L275.758 320.927L272.929 323.756C272.734 323.951 272.734 324.268 272.929 324.463C273.125 324.658 273.441 324.658 273.636 324.463L276.818 321.281ZM254.436 321.427H276.465V320.427H254.436V321.427Z" fill="#E0E0E0"/>
<path d="M186.894 204.267C186.698 204.462 186.698 204.779 186.894 204.974L190.076 208.156C190.271 208.351 190.587 208.351 190.783 208.156C190.978 207.961 190.978 207.644 190.783 207.449L187.954 204.62L190.783 201.792C190.978 201.597 190.978 201.28 190.783 201.085C190.587 200.89 190.271 200.89 190.076 201.085L186.894 204.267ZM215.885 204.12L187.247 204.12L187.247 205.12L215.885 205.12L215.885 204.12Z" fill="#E0E0E0"/>
<path d="M363.833 324.636C364.029 324.441 364.029 324.124 363.833 323.929L360.651 320.747C360.456 320.551 360.14 320.551 359.944 320.747C359.749 320.942 359.749 321.259 359.944 321.454L362.773 324.282L359.944 327.111C359.749 327.306 359.749 327.622 359.944 327.818C360.14 328.013 360.456 328.013 360.651 327.818L363.833 324.636ZM329.335 324.782H363.48V323.782H329.335V324.782Z" fill="#CCCCCC"/>
<defs>
<linearGradient id="paint0_linear" x1="484.721" y1="907.33" x2="484.721" y2="-0.0175767" gradientUnits="userSpaceOnUse">
<stop stop-color="#808080" stop-opacity="0.25"/>
<stop offset="0.54" stop-color="#808080" stop-opacity="0.12"/>
<stop offset="1" stop-color="#808080" stop-opacity="0.1"/>
</linearGradient>
</defs>
</svg>
