<svg width="444" height="549" viewBox="0 0 444 549" fill="none" xmlns="http://www.w3.org/2000/svg">
<path d="M163.981 138.888L244.296 129.285H294.056L321.992 138.888L336.833 153.729L345.563 177.3V195.632L328.103 244.52L305.405 268.091L287.072 282.931L270.485 299.518L256.518 312.613L244.296 321.343L214.614 299.518L185.805 275.074L157.87 244.52L145.648 195.632C139.96 174.718 138.371 164.271 145.648 153.729L163.981 138.888Z" fill="black"/>
<path fill-rule="evenodd" clip-rule="evenodd" d="M200.832 191.898L200.646 218.33C161.837 219.926 130.473 233.923 113.347 245.393L195.408 275.947C199.7 305.32 216.538 302.974 245.104 323.089L295.802 275.947L384.847 251.393C372.939 245.861 366.514 222.695 286.622 214.838L282.358 191.151L245.104 225.203L200.832 191.898Z" fill="black"/>
<path fill-rule="evenodd" clip-rule="evenodd" d="M285.069 197.869L285.504 211.37C280.97 222.052 274.672 231.319 267.244 239.68C261.382 245.918 252.138 252.665 243.114 252.746C233.8 252.618 226.876 245 218.331 239.898C210.307 230.706 204.627 220.34 200.07 209.41L201.81 196.562C201.81 196.562 214.853 210.499 214.853 211.805C214.853 213.111 220.288 218.556 223.549 222.476C226.81 226.395 222.027 227.92 231.158 229.444C240.288 230.968 244.201 232.275 247.897 231.622C251.592 230.969 248.984 233.582 252.679 229.662C256.375 225.742 253.766 229.226 256.81 225.307C259.853 221.387 258.114 222.04 262.462 219.209C266.81 216.378 268.984 214.854 271.592 212.241C274.201 209.627 272.462 212.458 275.723 208.103C278.984 203.748 276.81 205.272 278.984 203.748C281.157 202.223 282.679 200.917 282.679 200.917L285.069 197.869Z" fill="#230707"/>
<path fill-rule="evenodd" clip-rule="evenodd" d="M295.276 83.0989L297.162 121.086C298.915 115.595 304.562 116.015 307.095 118.283C307.992 120.72 307.556 126.861 306.754 134.423C306.112 140.467 305.748 147.145 303.621 151.732C300.85 158.378 296.412 161.141 292.861 164.271C292.281 179.332 288.882 185.621 287.384 196.159C282.979 208.156 273.308 218.341 261.458 230.484C257.486 233.533 252.053 235.667 244.77 236.643C237.016 236.223 230.25 234.222 224.566 230.484C213.461 221.251 207.186 210.553 199.753 199.687C196.052 187.789 190.497 179.689 188.553 167.13C181.777 164.707 178.899 159.11 175.267 152.392C171.461 142.837 172.853 134.622 173.291 124.784C175.633 121.411 177.573 120.348 180.208 124.894L177.573 112.136C174.858 98.1247 174.086 85.0534 188.113 79.1392L225.445 63.0805L281.222 61.1009C287.669 67.0755 296.029 71.5775 295.276 83.0989Z" fill="#2D0A0A"/>
<path fill-rule="evenodd" clip-rule="evenodd" d="M295.03 153.398C298.328 147.695 300.319 143.817 301.785 144.066C303.203 144.306 305.201 125.399 304.269 126.644C304.269 123.25 302.381 122.27 302.018 124.311C300.924 130.453 297.903 133.8 297.903 133.8C299.162 141.246 296.511 147.293 295.108 153.788L295.03 153.398Z" fill="#020202"/>
<path fill-rule="evenodd" clip-rule="evenodd" d="M178.205 129.183C175.863 129.016 176.906 149.847 179.413 150.851C180.497 151.285 185.232 157.01 185.232 157.01C183.661 148.507 180.915 138.828 178.205 129.183Z" fill="#020202"/>
<path fill-rule="evenodd" clip-rule="evenodd" d="M245.841 139.74C255.631 132.589 273.188 125.613 275.486 125.988C276.838 125.832 282.771 126.395 282.623 126.459L285.807 127.212C286.299 127.969 286.243 128.727 285.587 129.238C285.1 129.846 283.704 130.093 282.403 130.415L278.67 129.944C273.551 130.681 265.893 133.459 261.213 137.292L245.841 139.74Z" fill="#060606"/>
<path fill-rule="evenodd" clip-rule="evenodd" d="M227.517 139.358C216.965 133.377 198.703 128.175 196.458 128.709C195.095 128.668 189.253 129.668 189.408 129.717L186.324 130.68C185.92 131.434 186.061 132.144 186.771 132.575C187.326 133.111 188.743 133.234 190.073 133.436L193.736 132.697C198.914 132.989 206.85 135.008 211.942 138.258L227.517 139.358Z" fill="#060606"/>
<path fill-rule="evenodd" clip-rule="evenodd" d="M297.121 115.325L289.357 139.357C284.551 135.232 259.488 139.059 245.568 141.768L241.065 144.568L233.146 144.723L229.73 141.457C217.035 140.443 203.809 140.037 189.669 140.679L187.495 142.39L181.594 121.858C181.594 121.858 179.265 123.257 179.42 123.88C179.576 124.502 187.96 152.034 187.96 152.034C188.33 153.322 189.86 153.648 190.379 154.799C190.917 159.868 194.217 163.307 198.364 165.567C208.302 167.393 218.239 167.051 228.178 165.567C231.919 160.872 233.418 155.728 235.165 150.634H241.377C243.169 155.284 245.278 159.775 247.898 164.011C260.062 166.775 272.225 166.429 284.388 162.144C287.828 157.857 288.136 153.87 288.658 150.167L292.307 146.745L298.829 118.591L297.121 115.325Z" fill="#080707"/>
<path fill-rule="evenodd" clip-rule="evenodd" d="M229.731 148.964L227.206 147.424C215.943 144.82 203.772 145.814 191.953 146.278C191.305 152.962 193.138 159.213 199.207 164.142C205.561 165.449 214.43 165.977 225.998 163.592C230.108 159.613 230.249 154.391 229.731 148.963L229.731 148.964Z" fill="#F4ECEC"/>
<path fill-rule="evenodd" clip-rule="evenodd" d="M225.796 150.822L223.83 149.722C215.059 147.862 205.581 148.572 196.377 148.904C195.873 153.679 197.3 158.145 202.026 161.666C206.974 162.6 213.881 162.977 222.89 161.273C226.09 158.43 226.2 154.7 225.797 150.822L225.796 150.822Z" fill="#FBF4F4"/>
<path fill-rule="evenodd" clip-rule="evenodd" d="M222.344 151.986L220.84 151.161C214.133 149.765 206.885 150.298 199.846 150.547C199.461 154.128 200.552 157.477 204.167 160.118C207.95 160.819 213.232 161.101 220.121 159.823C222.568 157.691 222.652 154.894 222.344 151.985L222.344 151.986Z" fill="#F9F8F8"/>
<path fill-rule="evenodd" clip-rule="evenodd" d="M218.891 153.149L217.85 152.599C213.206 151.669 208.189 152.023 203.316 152.189C203.049 154.577 203.805 156.81 206.307 158.57C208.926 159.037 212.583 159.226 217.352 158.374C219.046 156.952 219.104 155.087 218.891 153.149L218.891 153.149Z" fill="white"/>
<path fill-rule="evenodd" clip-rule="evenodd" d="M247.218 148.767L249.071 146.792C260.333 144.189 283.663 141.567 287.253 144.054C287.188 151.309 287.539 157.267 282.788 161.14C276.434 162.447 264.227 164.997 252.659 162.612C249.326 158.866 246.7 154.195 247.218 148.767L247.218 148.767Z" fill="#F4ECEC"/>
<path fill-rule="evenodd" clip-rule="evenodd" d="M252.203 149.855L253.656 148.177C262.482 145.964 280.767 143.735 283.58 145.849C283.529 152.016 283.804 157.081 280.081 160.373C275.101 161.485 265.535 163.652 256.468 161.625C253.856 158.44 251.798 154.469 252.204 149.856L252.203 149.855Z" fill="#FBF4F4"/>
<path fill-rule="evenodd" clip-rule="evenodd" d="M257.427 150.63L258.476 149.287C264.851 147.517 278.056 145.734 280.088 147.425C280.051 152.359 280.25 156.41 277.561 159.044C273.964 159.933 267.055 161.668 260.507 160.045C258.621 157.498 257.134 154.321 257.428 150.63L257.427 150.63Z" fill="#F9F8F8"/>
<path fill-rule="evenodd" clip-rule="evenodd" d="M260.905 152.179L261.551 151.508C265.474 150.623 273.6 149.731 274.85 150.577C274.828 153.044 274.95 155.07 273.295 156.386C271.082 156.831 266.83 157.698 262.801 156.887C261.639 155.613 260.725 154.025 260.905 152.179L260.905 152.179Z" fill="white"/>
<path fill-rule="evenodd" clip-rule="evenodd" d="M242.55 536.099L236.439 323.089L276.596 290.788L308.438 262.456L330.837 235.839L335.009 214.721L355.096 226.799L383.977 235.51L402.921 247.331L412.859 248.576L437.341 260.917C465.375 282.551 464.981 389.093 489.721 444.97C488.083 459.291 484.967 473.612 481.699 487.933C467.848 508.501 446.391 523.991 428.118 541.607L242.55 536.099Z" fill="#AD1A1A"/>
<path d="M260.882 333.565L266.993 538.112H76.1743L6.87942 489.676C-0.475775 474.543 0.582158 452.292 0.582158 452.292L35.524 307.035L46.9997 271.582L75.3898 255.103L87.1573 248.012C88.7351 243.514 97.1046 240.52 104.601 238.999C105.095 236.235 117.028 231.76 126.347 229.541C135.667 227.321 137.753 221.794 137.753 221.794H143.902L159.615 248.885C207.59 292.656 231.119 312.11 260.882 333.565Z" fill="#AD1A1A"/>
<path fill-rule="evenodd" clip-rule="evenodd" d="M47.49 269.952C46.3984 271.973 45.8102 273.995 45.5878 276.016C59.4936 289.567 69.2208 305.781 74.109 325.079L79.028 363.267H82.1023L76.5685 322.615C73.7607 304.347 62.1154 286.995 47.4902 269.952L47.49 269.952Z" fill="#A61A1A"/>
<path fill-rule="evenodd" clip-rule="evenodd" d="M437.429 261.222C438.521 263.244 440.63 263.741 440.853 265.762C426.947 279.313 412.655 298.141 407.765 317.439L405.89 354.538L400.859 355.409L405.306 314.321C408.114 296.053 422.803 278.266 437.428 261.222L437.429 261.222Z" fill="#911919" fill-opacity="0.25"/>
<path d="M296.675 120.555C277.17 116.484 264.852 115.558 241.677 117.063C243.921 118.192 244.931 121.591 246.042 135.396C259.929 133.169 280.961 137.142 280.961 137.142C316.047 137.53 332.468 141.507 339.452 163.332C346.436 185.156 347.309 167.697 347.309 167.697C344.036 154.158 341.05 147.145 334.214 135.396C325.206 126.239 317.132 122.904 296.675 120.555Z" fill="#B02828"/>
<path d="M183.186 124.047C217.882 121.085 235.153 119.405 241.677 116.19C247.093 120.945 248.644 134.154 246.915 135.396C246.915 135.396 203.596 136.198 189.297 138.888C172.557 142.415 163.2 146.237 146.521 153.729C141.324 154.282 138.464 156.213 133.426 162.459L137.791 149.364C155.448 133.266 165.379 127.086 183.186 124.047Z" fill="#A60D0D"/>
<path d="M138.664 148.491C141.07 144.238 145.171 134.523 150.013 103.095C154.854 71.6681 159.095 67.1329 170.091 54.2078C189.23 28.0825 202.827 15.1299 231.201 0.08255C231.201 0.08255 240.718 20.9716 239.931 63.8109C245.558 100.025 244.238 107.661 244.296 116.19C234.076 119.982 216.572 121.451 184.932 124.047C165.818 130.639 155.359 139.338 138.664 148.491Z" fill="#A10D0D"/>
<path d="M293.183 43.732C266.12 13.1775 234.823 -0.239238 230.328 0.95547C230.328 0.95547 236.912 36.9696 239.931 67.3027C242.213 97.1131 237.709 105.847 241.677 117.063C262.129 116.144 280.272 118.288 296.675 122.301C320.584 125.245 326.98 127.661 335.087 136.269C316.323 77.5519 320.246 74.2866 293.183 43.732Z" fill="#AD1A1A"/>
<path d="M317.627 244.52L311.516 255.869L304.532 263.726C304.532 263.726 281.834 276.476 264.374 298.645C246.915 320.814 250.495 320.117 226.836 303.01C203.176 285.903 197.154 277.693 197.154 277.693L176.202 261.107L164.853 244.52L156.997 232.298L150.013 216.584L148.267 206.981C148.267 206.981 144.775 196.505 143.902 187.775C143.029 179.045 142.639 166.27 143.902 152.856L139.537 154.602L134.299 166.824L140.41 198.251L143.902 210.473L148.267 223.568L156.997 244.52L169.218 266.345L197.154 289.915L230.328 316.105C243.423 332.692 250.147 334.78 269.612 304.756L286.199 289.915L308.024 273.329L334.214 237.536L345.563 216.584L349.055 184.283L346.436 166.824L342.944 173.808V191.267L337.706 210.473L327.23 228.806L317.627 244.52Z" fill="#B21616"/>
<path d="M132.553 162.459C132.123 153.872 139.416 146.616 146.521 144.999V153.729C141.414 159.875 139.585 164.009 141.283 174.681C141.283 174.681 146.265 202.428 152.632 219.203C158.312 234.17 170.964 255.869 170.964 255.869L177.948 271.583L166.599 264.599L152.632 241.028C148.287 234.094 145.858 230.548 141.283 213.092C139.817 206.158 138.579 201.4 135.172 190.394C133.042 182.439 132.444 176.383 132.553 162.459Z" fill="#B00808"/>
<path d="M189.297 276.82C178.907 269.745 171.278 259.167 152.632 221.822L165.726 263.726C172.406 275.042 179.744 275.3 183.186 278.566C186.629 281.833 191.862 287.881 198.9 293.407C202.922 296.566 209.376 299.518 209.376 299.518L225.09 313.486C225.09 313.486 233.82 323.962 240.804 325.708C247.788 327.454 244.296 315.232 244.296 315.232L234.693 308.248L225.09 302.137L209.376 294.28L198.9 286.423L189.297 276.82Z" fill="#C31D1D"/>
<path fill-rule="evenodd" clip-rule="evenodd" d="M59.8085 307.407H419.744C425.645 307.407 430.395 312.344 430.395 318.476V521.97C430.395 528.102 425.645 533.038 419.744 533.038H59.8085C53.9075 533.038 49.1567 528.102 49.1567 521.97V318.476C49.1567 312.344 53.9075 307.407 59.8085 307.407Z" fill="white" fill-opacity="0.5"/>
<path fill-rule="evenodd" clip-rule="evenodd" d="M47.8727 535.011V541.392C47.8727 545.595 53.2816 548.979 59.9982 548.979H418.12C424.836 548.979 430.243 545.595 430.243 541.392V535.011H47.8755H47.8727Z" fill="#E3DBDB"/>
<path fill-rule="evenodd" clip-rule="evenodd" d="M242.275 390.506C237.194 392.333 234.426 398.579 228.354 398.937C222.166 400.209 215.813 399.348 209.552 399.673C207.881 418.848 211.099 441.906 228.747 453.088C234.875 456.875 242.236 461.038 249.297 457.238C265.786 452.239 274.463 434.855 275.095 418.576C274.971 412.96 276.603 406.916 275.137 401.534C270.694 397.103 263.398 401.251 257.911 399.116C251.828 398.901 248.186 393.951 243.812 390.734C243.32 390.563 242.794 390.481 242.275 390.505V390.506Z" fill="#424242"/>
<path fill-rule="evenodd" clip-rule="evenodd" d="M241.782 398.341C236.359 404.254 228.17 406.124 220.435 405.857C218.623 406.262 214.799 404.699 215.739 407.713C216.609 425.749 216.89 444.833 242.664 452.162C268.266 446.557 268.755 425.628 269.173 407.691C270.019 404.45 265.312 406.454 263.332 405.833C255.629 406.031 247.648 403.66 242.436 397.704L241.984 398.145L241.782 398.341Z" fill="#E3DBDB"/>
</svg>
