<svg width="1280" height="641" viewBox="0 0 1280 641" fill="none" xmlns="http://www.w3.org/2000/svg">
<path opacity="0.1" d="M195.5 303C195.5 303 175.5 -14.5 -55.0001 0.999908C-285.5 16.4998 -161 457 -161 457L1420 501.5L1310 165C1310 165 948 588 731 303C514 18 195.5 303 195.5 303Z" fill="#C4C4C4"/>
<path opacity="0.3" d="M222 91C100.4 29.4 -28 65.3333 -77 91V480.5L1403.5 551C1403.5 551 1573 714 1483 600C1394.54 487.946 1269.82 285.372 1118.5 203C955 114 763.5 156 763.5 156C763.5 156 571 173.3 425 326.5C408 273.667 343.6 152.6 222 91Z" fill="#E5E5E5"/>
</svg>
