<svg width="1280" height="729" viewBox="0 0 1280 729" fill="none" xmlns="http://www.w3.org/2000/svg">
<g clip-path="url(#clip0)">
<path opacity="0.1" d="M738.573 191.959C648.706 191.463 562.568 169.403 480.216 144.974C397.864 120.544 316.244 93.3307 228.227 81.3707C171.62 73.7097 107.109 73.9439 62.3194 100.082C19.2217 125.242 6.14179 167.24 -0.46986 206.083C-5.46087 235.307 -8.04243 266.007 8.30743 292.889C19.6519 311.546 39.3435 326.992 53.1548 344.794C101.186 406.73 70.3652 485.2 21.6025 547.907C-1.34472 577.325 -27.9634 605.503 -45.4033 636.643C-62.8432 667.783 -70.3727 703.208 -53.6499 734.169C-37.0706 764.868 1.16513 787.328 42.3553 802.801C126.026 834.203 223.867 841.465 319.156 844.648C530.141 851.702 741.814 841.589 952.914 831.489C1031.05 827.741 1109.51 823.966 1186.16 812.198C1228.72 805.64 1272.6 795.76 1303.06 773.701C1341.78 745.674 1350.39 699.571 1323.14 666.226C1277.47 610.27 1154.79 598.958 1122.35 538.524C1104.48 505.248 1121 467.343 1144.95 435.541C1196.33 367.322 1283.77 306.475 1286.52 229.81C1288.42 177.147 1244.33 125.477 1177.6 102.135C1107.55 77.5815 1011.6 83.0931 961.519 127.461C910.002 173.138 817.984 192.4 738.573 191.959Z" fill="#6C63FF" fill-opacity="0.3"/>
<path opacity="0.1" d="M985.26 711.351C988.78 718.501 963.876 726.188 933.03 728.404C905.393 730.395 882.673 727.153 879.797 721.337C876.922 715.522 894.523 708.467 921.562 705.285C951.74 701.757 981.74 704.272 985.26 711.351Z" fill="#6C63FF"/>
<path d="M260.03 333.151L640.186 198.687V663.216L260.03 655.303V333.151Z" fill="white"/>
<path opacity="0.2" d="M260.03 333.151L640.186 198.687V663.216L260.03 655.303V333.151Z" fill="#6C63FF"/>
<path d="M-1 409.864L215.879 333.151V655.303H-1V409.864Z" fill="white"/>
<path opacity="0.2" d="M-1 409.864L215.879 333.151V655.303H-1V409.864Z" fill="#6C63FF"/>
<path d="M640.186 198.687L1020.33 333.151V655.303L640.186 663.216V198.687Z" fill="white"/>
<path opacity="0.5" d="M640.186 198.687L1020.33 333.151V655.303L640.186 663.216V198.687Z" fill="#6C63FF"/>
<path d="M1285.29 410.829L1065.68 333.151V655.303H1285.29V410.829Z" fill="white"/>
<path opacity="0.5" d="M1285.29 410.829L1065.68 333.151V655.303H1285.29V410.829Z" fill="#6C63FF"/>
<path d="M125.381 465.792C123.841 465.792 122.588 467.889 122.588 470.476V528.775C122.67 534.528 121.312 540.209 118.639 545.305C116.145 549.679 112.326 552.455 108.675 552.455H106.288C102.708 552.455 99.1999 549.786 96.4554 545.079C93.5939 539.997 92.1014 534.26 92.1238 528.43V453.207C92.049 449.049 93.1225 444.95 95.2263 441.361C97.2191 438.215 99.8324 436.475 102.577 436.475C105.321 436.475 107.839 438.215 109.737 441.337C111.749 444.982 112.762 449.094 112.672 453.255V523.496C112.672 528.621 110.286 533.149 107.469 533.149C105.083 533.149 102.41 529.288 102.41 523.496V483.382C102.41 480.808 101.157 478.699 99.6176 478.699C98.0782 478.699 96.8134 480.808 96.8134 483.382V523.448C96.8134 534.103 101.396 542.135 107.469 542.135C110.429 542.135 113.161 540.3 115.13 536.951C117.332 532.798 118.414 528.145 118.269 523.448V453.207C118.391 446.726 116.781 440.328 113.603 434.676C110.644 429.73 106.694 427.025 102.481 427.025C98.2692 427.025 94.3194 429.73 91.3243 434.676C88.1383 440.338 86.5312 446.75 86.6705 453.243V528.454C86.6705 537.07 88.8661 545.817 92.5175 551.848C96.169 557.878 101.109 561.382 106.169 561.382H108.615C113.567 561.382 118.531 557.878 122.23 551.752C124.145 548.518 125.588 545.026 126.514 541.384C127.583 537.258 128.121 533.013 128.113 528.752V470.356C128.113 467.77 126.92 465.673 125.333 465.673L125.381 465.792Z" fill="white"/>
<path d="M659.613 595.596C659.613 595.596 666.689 604.844 656.343 618.8C645.998 632.755 637.454 644.553 640.914 653.229C640.914 653.229 656.522 627.309 669.219 627.011C681.915 626.713 673.574 611.184 659.613 595.596Z" fill="#6C63FF"/>
<path opacity="0.1" d="M659.613 595.596C660.227 596.494 660.713 597.473 661.057 598.504C673.443 613.044 680.042 626.606 668.133 626.951C657.036 627.273 643.73 647.08 640.544 652.085C640.642 652.49 640.766 652.888 640.914 653.277C640.914 653.277 656.522 627.356 669.219 627.058C681.915 626.761 673.574 611.184 659.613 595.596Z" fill="black"/>
<path d="M672.763 607.383C672.763 610.636 672.393 613.27 671.94 613.27C671.486 613.27 671.128 610.636 671.128 607.383C671.128 604.129 671.582 605.655 672.035 605.655C672.488 605.655 672.763 604.129 672.763 607.383Z" fill="#FFD037"/>
<path d="M677.274 611.268C674.422 612.817 671.928 613.759 671.713 613.365C671.498 612.972 673.634 611.387 676.486 609.79C679.338 608.193 678.216 609.373 678.431 609.79C678.646 610.207 680.137 609.707 677.274 611.268Z" fill="#FFD037"/>
<path d="M622.227 595.596C622.227 595.596 615.151 604.844 625.497 618.8C635.843 632.755 644.363 644.553 640.914 653.229C640.914 653.229 625.318 627.309 612.61 627.011C599.901 626.713 608.254 611.184 622.227 595.596Z" fill="#6C63FF"/>
<path opacity="0.1" d="M622.227 595.596C621.613 596.494 621.127 597.473 620.784 598.504C608.385 613.044 601.786 626.606 613.707 626.951C624.793 627.273 638.11 647.08 641.296 652.085C641.194 652.49 641.067 652.888 640.914 653.277C640.914 653.277 625.318 627.356 612.61 627.058C599.901 626.761 608.254 611.184 622.227 595.596Z" fill="black"/>
<path d="M609.077 607.383C609.077 610.636 609.436 613.27 609.889 613.27C610.342 613.27 610.712 610.636 610.712 607.383C610.712 604.129 610.247 605.655 609.805 605.655C609.364 605.655 609.077 604.129 609.077 607.383Z" fill="#FFD037"/>
<path d="M604.555 611.268C607.419 612.817 609.913 613.759 610.128 613.365C610.342 612.972 608.206 611.387 605.354 609.79C602.502 608.193 603.624 609.373 603.409 609.79C603.195 610.207 601.655 609.707 604.555 611.268Z" fill="#FFD037"/>
<path opacity="0.1" d="M640.914 723.923C681.774 723.923 714.898 718.849 714.898 712.59C714.898 706.331 681.774 701.256 640.914 701.256C600.054 701.256 566.931 706.331 566.931 712.59C566.931 718.849 600.054 723.923 640.914 723.923Z" fill="#6C63FF"/>
<path d="M679.004 640.775L678.646 643.659L678.145 647.735L677.942 649.427L677.441 653.515L677.226 655.207L676.737 659.283L671.069 705.642C670.567 709.777 663.801 713.007 655.627 713.007H626.213C618.039 713.007 611.285 709.777 610.772 705.642L605.104 659.283L604.603 655.207L604.4 653.515L603.899 649.427L603.684 647.735L603.195 643.659L602.837 640.775C602.55 638.392 606.214 636.449 610.844 636.449H671.009C675.639 636.449 679.29 638.428 679.004 640.775Z" fill="#444053"/>
<path d="M678.646 643.659L678.145 647.735H603.684L603.195 643.659H678.646Z" fill="#9D9CB5"/>
<path d="M677.942 649.439L677.441 653.515H604.4L603.899 649.439H677.942Z" fill="#9D9CB5"/>
<path d="M677.226 655.219L676.737 659.295H605.104L604.603 655.219H677.226Z" fill="#9D9CB5"/>
<path d="M497.076 389.044L485.68 404.167C485.585 404.308 485.451 404.418 485.294 404.484C485.137 404.55 484.964 404.568 484.797 404.537L473.019 401.724C472.797 401.64 472.603 401.494 472.459 401.305C472.315 401.115 472.228 400.888 472.208 400.652L470.108 385.075C470.045 384.658 470.143 384.232 470.382 383.884L481.754 368.784C482.18 368.178 482.386 367.445 482.338 366.706C482.291 365.967 481.992 365.267 481.492 364.721C479.338 362.573 476.464 361.3 473.425 361.145C473.259 361.127 473.091 361.127 472.924 361.145C469.75 361.384 462.948 363.731 457.698 371.108C452.602 378.259 447.268 391.439 451.994 406.169C452.555 407.945 453.187 410.293 451.302 412.783C449.416 415.274 400.647 475.946 400.647 475.946C396.077 481.154 396.411 490.783 400.647 496.384C401.548 497.663 402.733 498.716 404.11 499.46C405.487 500.205 407.018 500.62 408.582 500.674C410.106 500.647 411.597 500.227 412.912 499.457C414.226 498.687 415.32 497.592 416.088 496.277C416.088 496.277 461.6 432.161 463.819 429.241C464.118 428.753 464.529 428.343 465.019 428.047C465.51 427.75 466.064 427.575 466.635 427.537C467.424 427.578 468.181 427.856 468.807 428.336C471.228 429.987 474.098 430.856 477.029 430.826C483.831 430.826 490.978 426.655 495.346 420.887C499.849 415.088 502.468 408.052 502.852 400.723C503.003 396.723 502.067 392.758 500.143 389.247C500.016 388.959 499.814 388.711 499.558 388.528C499.302 388.345 499.001 388.234 498.687 388.208C498.374 388.181 498.059 388.239 497.775 388.375C497.492 388.512 497.25 388.722 497.076 388.984V389.044ZM411.16 489.091C410.885 489.509 410.51 489.852 410.07 490.089C409.629 490.327 409.137 490.451 408.636 490.451C408.135 490.451 407.642 490.327 407.202 490.089C406.761 489.852 406.387 489.509 406.112 489.091C405.445 488.105 405.089 486.943 405.089 485.754C405.089 484.565 405.445 483.402 406.112 482.417C406.387 481.999 406.761 481.656 407.202 481.418C407.642 481.181 408.135 481.057 408.636 481.057C409.137 481.057 409.629 481.181 410.07 481.418C410.51 481.656 410.885 481.999 411.16 482.417C411.828 483.401 412.187 484.563 412.189 485.752C412.191 486.941 411.837 488.104 411.172 489.091H411.16Z" fill="white"/>
<path d="M900.537 418.277C897.386 381.906 872.697 353.566 842.662 353.566C822.782 353.566 805.277 365.948 794.764 384.861C791.537 383.19 787.958 382.311 784.323 382.299C769.144 382.299 756.877 398.983 756.603 417.789C741.09 423.938 730.876 442.815 730.876 462.622C730.876 486.898 746.675 508.325 766.149 508.325H894.355C913.842 508.325 929.641 486.874 929.641 462.622C929.641 441.004 917.064 421.948 900.537 418.277ZM871.576 409.935L819.68 474.885C819.012 475.707 817.293 477.543 815.169 477.543C814.26 477.437 813.383 477.136 812.601 476.661C811.818 476.186 811.148 475.548 810.635 474.79L788.857 447.678C788.556 447.282 788.393 446.798 788.393 446.301C788.393 445.804 788.556 445.321 788.857 444.925L795.767 436.32C795.891 436.147 796.053 436.003 796.241 435.902C796.43 435.801 796.639 435.744 796.852 435.736C797.066 435.743 797.276 435.8 797.464 435.901C797.652 436.002 797.815 436.146 797.938 436.32L815.181 457.772L862.531 398.34C862.657 398.168 862.82 398.026 863.007 397.925C863.195 397.824 863.403 397.766 863.617 397.756C863.832 397.757 864.043 397.811 864.232 397.912C864.422 398.014 864.583 398.161 864.702 398.34L871.492 407.099C871.825 407.486 872.015 407.975 872.03 408.484C872.045 408.994 871.885 409.494 871.576 409.9V409.935Z" fill="white"/>
<path d="M1214.81 475.874C1221.33 475.874 1226.61 468.837 1226.61 460.155C1226.61 451.474 1221.33 444.436 1214.81 444.436C1208.29 444.436 1203.01 451.474 1203.01 460.155C1203.01 468.837 1208.29 475.874 1214.81 475.874Z" fill="white"/>
<path d="M1214.81 481.94C1213.51 481.934 1212.22 481.725 1210.98 481.321L1199.33 497.135C1199.24 497.268 1199.18 497.429 1199.18 497.594C1199.18 497.759 1199.24 497.92 1199.33 498.053L1217.84 524.271C1218.45 525.158 1218.78 526.209 1218.78 527.286C1218.78 528.363 1218.45 529.414 1217.84 530.301C1217.58 530.659 1217.24 530.953 1216.85 531.159C1216.45 531.366 1216.02 531.48 1215.58 531.493C1215.13 531.481 1214.7 531.367 1214.31 531.16C1213.92 530.954 1213.58 530.66 1213.32 530.301L1194.88 504.083C1194.84 504.024 1194.79 503.975 1194.73 503.942C1194.67 503.908 1194.6 503.891 1194.53 503.891C1194.45 503.891 1194.39 503.908 1194.32 503.942C1194.26 503.975 1194.21 504.024 1194.17 504.083L1189.67 510.184C1185.91 515.261 1180.92 514.499 1175.55 514.534C1170.18 514.57 1164.97 511.519 1161.15 506.371L1156.83 500.508C1156.79 500.449 1156.74 500.4 1156.68 500.367C1156.61 500.333 1156.54 500.316 1156.47 500.316C1156.4 500.316 1156.33 500.333 1156.27 500.367C1156.21 500.4 1156.15 500.449 1156.11 500.508L1137.68 526.726C1137.42 527.084 1137.08 527.378 1136.68 527.584C1136.29 527.791 1135.85 527.905 1135.41 527.918C1134.97 527.906 1134.53 527.792 1134.14 527.585C1133.75 527.378 1133.41 527.084 1133.16 526.726C1132.54 525.839 1132.22 524.788 1132.22 523.711C1132.22 522.634 1132.54 521.582 1133.16 520.696L1151.66 494.477C1151.74 494.338 1151.79 494.18 1151.79 494.019C1151.79 493.857 1151.74 493.699 1151.66 493.56L1125.18 457.665C1124.86 457.235 1124.35 457.533 1124.35 458.117V529.955C1124.35 535.724 1127.93 540.443 1132.21 540.443L1218.75 544.018C1223.08 544.018 1226.61 539.251 1226.61 533.531V475.219C1223.64 479.354 1219.47 481.94 1214.81 481.94Z" fill="white"/>
<path d="M1198.46 460.155C1198.45 456.562 1199.13 453 1200.48 449.668L1132.19 446.093C1131.26 446.115 1130.35 446.332 1129.51 446.728C1128.67 447.124 1127.93 447.691 1127.32 448.393L1165.9 500.71C1166.95 502.308 1168.37 503.63 1170.05 504.563C1171.72 505.497 1173.59 506.015 1175.5 506.073C1179.08 506.073 1182.57 507.753 1185.12 504.285L1204.91 477.447C1200.98 473.455 1198.46 467.198 1198.46 460.155Z" fill="white"/>
<path opacity="0.1" d="M1285.13 662.525C1290.58 662.525 1295 661.778 1295 660.856C1295 659.935 1290.58 659.188 1285.13 659.188C1279.68 659.188 1275.26 659.935 1275.26 660.856C1275.26 661.778 1279.68 662.525 1285.13 662.525Z" fill="#6C63FF"/>
<path d="M1079.9 648.986C1079.9 648.986 1063.07 647.973 1065.05 659.712C1064.95 660.309 1065.04 660.924 1065.31 661.467C1065.58 662.011 1066.01 662.456 1066.55 662.739C1066.55 662.739 1066.55 661.869 1068.28 662.167C1068.88 662.269 1069.49 662.297 1070.1 662.25C1070.93 662.198 1071.72 661.875 1072.35 661.333C1072.35 661.333 1077.12 659.378 1078.91 651.656C1078.91 651.656 1080.28 649.975 1080.22 649.535L1077.38 650.726C1077.92 651.902 1078 653.241 1077.58 654.468C1077.58 654.468 1077.5 650.798 1076.95 650.893C1076.84 650.893 1075.47 651.596 1075.47 651.596C1075.47 651.596 1077.14 655.171 1075.89 657.758C1075.89 657.758 1076.37 653.36 1074.95 651.799L1072.95 652.991C1072.95 652.991 1074.9 656.673 1073.59 659.688C1073.59 659.688 1073.92 655.076 1072.54 653.277L1070.72 654.695C1070.72 654.695 1072.56 658.27 1071.44 660.808C1071.44 660.808 1071.3 655.446 1070.33 655.04C1069.64 655.619 1069.03 656.279 1068.5 657.007C1068.5 657.007 1069.7 659.64 1068.98 661.035C1068.98 661.035 1068.5 657.46 1068.11 657.46C1067.29 658.672 1066.7 660.026 1066.37 661.452C1066.45 659.952 1066.92 658.498 1067.73 657.233C1066.83 657.396 1066.01 657.809 1065.34 658.425C1065.34 658.425 1065.59 656.745 1068.16 656.601C1068.63 655.905 1069.18 655.265 1069.8 654.695C1068.42 654.576 1067.03 654.738 1065.71 655.171C1065.71 655.171 1067.07 653.586 1070.27 654.301L1072.06 652.848C1070.48 652.592 1068.87 652.592 1067.29 652.848C1067.29 652.848 1068.92 651.453 1072.55 652.466L1074.49 651.274C1072.99 650.944 1071.46 650.811 1069.92 650.881C1069.92 650.881 1071.73 649.904 1075.07 650.953L1076.45 650.333C1076.45 650.333 1074.36 649.928 1073.74 649.856C1073.12 649.785 1073.1 649.618 1073.1 649.618C1074.43 649.4 1075.79 649.552 1077.04 650.059C1078.02 649.788 1078.98 649.429 1079.9 648.986Z" fill="#6C63FF"/>
<path opacity="0.1" d="M1068.31 665.826C1074.89 665.826 1080.22 664.924 1080.22 663.812C1080.22 662.7 1074.89 661.798 1068.31 661.798C1061.74 661.798 1056.4 662.7 1056.4 663.812C1056.4 664.924 1061.74 665.826 1068.31 665.826Z" fill="#6C63FF"/>
<path d="M974.341 531.505C974.341 531.505 975.714 530.182 975.26 529.288C975.128 529.011 975.059 528.707 975.059 528.4C975.059 528.093 975.128 527.79 975.26 527.512C975.26 527.512 972.181 515.428 971.036 514.212C970.284 513.327 969.705 512.308 969.329 511.209C969.449 510.973 969.506 510.711 969.497 510.446C969.446 509.228 969.03 508.053 968.303 507.074C967.408 505.752 966.915 504.2 966.883 502.605C966.871 502.406 966.871 502.207 966.883 502.009C966.541 501.112 965.987 500.311 965.268 499.674C964.549 499.037 963.687 498.583 962.754 498.35C963.148 495.788 963.685 493.226 963.852 490.652C964.389 482.584 961.382 474.754 958.423 467.198C957.776 465.325 956.907 463.537 955.833 461.871C954.51 460.13 952.833 458.689 950.912 457.641C948.991 456.594 946.87 455.964 944.688 455.793C943.082 455.592 941.452 455.751 939.915 456.258C938.398 456.938 937.006 457.869 935.798 459.011C934.521 460.084 933.245 461.18 932.063 462.348L931.92 462.491L931.502 462.932L931.335 463.099L930.942 463.54L930.798 463.695C930.631 463.897 930.452 464.1 930.285 464.314C930.13 464.517 929.975 464.708 929.832 464.91L929.689 465.113L929.378 465.554L929.235 465.78C929.128 465.935 929.044 466.09 928.949 466.245L928.818 466.459C928.698 466.686 928.567 466.912 928.448 467.151L928.018 468.104V468.235L927.767 468.867C927.445 469.629 927.135 470.392 926.741 471.119L926.67 471.238L925.81 472.275C925.418 472.79 925.09 473.35 924.832 473.944L924.748 474.134C924.748 474.218 924.689 474.313 924.653 474.396L924.569 474.611C924.547 474.704 924.519 474.795 924.486 474.885C924.486 474.956 924.486 475.028 924.486 475.111L924.414 475.374C924.414 475.457 924.414 475.528 924.414 475.612C924.414 475.695 924.414 475.791 924.355 475.874V476.124V476.387C924.355 476.482 924.355 476.577 924.355 476.685C924.355 476.792 924.355 476.828 924.355 476.887C924.355 476.947 924.355 477.221 924.355 477.388C924.355 477.554 924.355 477.519 924.355 477.59C924.349 477.697 924.349 477.805 924.355 477.912C924.349 477.983 924.349 478.055 924.355 478.126C924.349 478.226 924.349 478.325 924.355 478.424V478.639C924.355 478.746 924.355 478.842 924.355 478.937C924.349 479.008 924.349 479.08 924.355 479.151L924.426 479.461C924.426 479.461 924.426 479.592 924.426 479.652L924.534 479.986C924.534 479.986 924.534 480.093 924.593 480.141C924.653 480.188 924.713 480.474 924.784 480.629C925.151 481.428 925.599 482.186 926.121 482.893C926.467 483.37 926.825 483.835 927.183 484.312L927.696 485.027C928.043 485.501 928.358 485.999 928.639 486.516C929.476 488.113 929.883 489.9 929.818 491.702C929.753 493.503 929.219 495.257 928.269 496.789L927.839 497.445C927.603 497.808 927.437 498.212 927.35 498.636C927.308 499.005 927.347 499.378 927.465 499.73C927.582 500.082 927.775 500.404 928.03 500.674L926.968 500.948C926.097 501.187 925.5 501.377 925.5 501.377C924.778 501.314 924.051 501.314 923.328 501.377C922.325 501.694 921.424 502.269 920.715 503.046C920.715 503.046 916.157 503.594 914.665 502.271C913.174 500.948 907.947 500.495 907.947 500.495C907.947 500.495 906.467 497.611 904.868 496.718C903.269 495.824 899.403 494.167 899.284 493.285C898.951 492.352 898.45 491.488 897.804 490.735C897.019 490.567 896.22 490.471 895.418 490.449L895.167 490.02L891.981 484.526C891.981 484.526 887.983 479.866 885.824 479.426C883.664 478.985 888.866 484.371 889.117 484.621C888.379 484.095 887.462 483.882 886.568 484.029C885.673 484.177 884.873 484.673 884.344 485.408C882.649 487.291 887.148 491.712 889.94 494.155L890.394 494.549C890.414 494.793 890.45 495.036 890.501 495.276C891.754 501.818 898.699 507.479 898.699 507.479C898.699 507.479 899.499 511.138 902.124 512.032C904.212 512.735 915.429 517.811 921.276 518.824C920.787 520.088 920.214 523.019 922.636 527.334C922.636 527.334 923.209 534.985 921.956 535.986C920.703 536.987 920.763 548.07 920.763 548.07C920.763 548.07 915.99 567.364 920.763 571.464C921.066 571.723 921.408 571.932 921.777 572.083C921.777 572.381 921.861 572.691 921.896 573.013C922.111 574.944 922.183 576.946 921.67 577.78C920.476 579.663 922.064 584.764 922.064 584.764C922.064 584.764 917.457 610.827 919.51 620.027C920.806 626.902 921.413 633.888 921.324 640.883C921.324 640.883 920.644 648.975 924.176 653.861C924.564 655.016 924.793 656.219 924.856 657.436C925.088 659.773 925.704 662.057 926.682 664.193C927.481 665.742 929.068 672.297 927.708 674.061C926.347 675.825 929.187 695.143 929.187 695.143C929.187 695.143 926.908 701.101 929.187 704.236L929.259 704.319C927.907 704.303 926.563 704.111 925.262 703.747C922.708 702.889 924.617 706.131 927.648 708.347C926.324 711.35 924.51 715.378 923.901 716.689C921.264 717.142 916.037 717.881 912.971 717.154C908.758 716.165 914.796 722.922 920.488 724.15C924.508 724.899 928.598 725.195 932.684 725.032L936.359 720.98C939.329 721.378 942.33 721.49 945.321 721.313L944.998 725.079H947.158V721.17C948.519 721.039 949.927 720.86 951.383 720.598C951.383 720.598 951.466 716.475 951.203 712.578L952.528 712.697L952.731 710.54L957.421 711.386L961.633 676.826C961.633 676.826 962.098 663.967 963.124 656.757C964.151 649.547 960.953 625.366 960.953 625.366C960.953 625.366 960.726 624.174 960.499 621.934C960.272 619.694 960.499 606.62 960.499 606.62C960.499 606.62 962.206 599.47 961.871 598.862C961.537 598.254 961.979 595.203 961.979 595.203C969.139 580.628 960.332 567.459 957.265 563.551C957.442 563.386 957.549 563.16 957.564 562.919C957.581 562.836 957.581 562.751 957.564 562.669C957.08 561.436 956.506 560.241 955.845 559.093L957.635 556.817C958.256 557.711 958.697 558.378 958.697 558.378C958.697 558.378 960.63 554.052 962.576 552.42C964.521 550.787 973.852 535.235 973.852 535.235C973.852 535.235 976.024 533.781 974.878 532.565C973.733 531.35 974.341 531.505 974.341 531.505ZM945.631 654.159C945.478 653.656 945.199 653.2 944.819 652.836C944.819 652.836 944.485 650.452 944.366 647.39C945.046 649.773 945.738 651.501 945.738 651.501L945.631 654.159ZM951.001 710.85C951.001 710.635 951.001 710.421 951.001 710.218H951.168L951.001 710.85ZM952.409 553.087V552.944C952.383 552.638 952.438 552.331 952.568 552.054C952.698 551.776 952.898 551.536 953.149 551.359C953.279 551.278 953.385 551.164 953.454 551.027C953.524 550.89 953.554 550.737 953.542 550.584C953.487 550.083 953.297 549.605 952.993 549.202C953.22 549.369 953.924 549.75 954.401 548.368C954.473 548.152 954.509 547.927 954.509 547.7C954.395 546.545 953.924 545.454 953.16 544.578L958.315 533.733C958.879 533.901 959.453 534.032 960.034 534.126C958.685 538.298 957.576 543.267 957.576 543.267L953.59 552.026C953.86 552.131 954.098 552.303 954.282 552.527L952.409 553.087Z" fill="url(#paint0_linear)"/>
<path d="M935.261 704.045C935.261 704.045 928.567 704.867 925.309 703.747C922.051 702.627 926.312 708.514 930.715 709.956C933.823 710.866 937.027 711.41 940.261 711.577L945.428 706.714L950.917 707.143L949.963 712.518L951.669 712.673L952.325 705.642L935.261 704.045Z" fill="#444053"/>
<path opacity="0.1" d="M935.261 704.045C935.261 704.045 928.567 704.867 925.309 703.747C922.051 702.627 926.312 708.514 930.715 709.956C933.823 710.866 937.027 711.41 940.261 711.577L945.428 706.714L950.917 707.143L949.963 712.518L951.669 712.673L952.325 705.642L935.261 704.045Z" fill="black"/>
<path d="M925.596 716.332C925.596 716.332 917.553 718.083 913.484 717.094C909.415 716.105 915.25 722.815 920.751 724.018C924.629 724.768 928.582 725.064 932.529 724.9L938.256 718.417L944.963 718.31L944.414 724.948H946.514V716.332H925.596Z" fill="#444053"/>
<path opacity="0.1" d="M925.596 716.332C925.596 716.332 917.553 718.083 913.484 717.094C909.415 716.105 915.25 722.815 920.751 724.018C924.629 724.768 928.582 725.064 932.529 724.9L938.256 718.417L944.963 718.31L944.414 724.948H946.514V716.332H925.596Z" fill="black"/>
<path d="M955.308 563.634C955.308 563.634 969.067 578.912 960.821 596.168C960.821 596.168 960.38 599.255 960.702 599.803C961.024 600.351 959.389 607.502 959.389 607.502C959.389 607.502 959.163 620.468 959.389 622.673C959.616 624.877 959.831 626.069 959.831 626.069C959.831 626.069 962.91 650.035 961.919 657.186C960.929 664.336 960.487 677.088 960.487 677.088L956.418 711.386L935.285 707.429L944.831 660.368L945.165 652.025C945.165 652.025 941.204 641.812 942.958 636.64C944.712 631.468 942.516 565.624 942.516 565.624L955.308 563.634Z" fill="#444053"/>
<path opacity="0.02" d="M955.308 563.634C955.308 563.634 969.067 578.912 960.821 596.168C960.821 596.168 960.38 599.255 960.702 599.803C961.024 600.351 959.389 607.502 959.389 607.502C959.389 607.502 959.163 620.468 959.389 622.673C959.616 624.877 959.831 626.069 959.831 626.069C959.831 626.069 962.91 650.035 961.919 657.186C960.929 664.336 960.487 677.088 960.487 677.088L956.418 711.386L935.285 707.429L944.831 660.368L945.165 652.025C945.165 652.025 941.204 641.812 942.958 636.64C944.712 631.468 942.516 565.624 942.516 565.624L955.308 563.634Z" fill="black"/>
<path d="M945.189 637.51C942.803 642.122 944.306 653.336 944.306 653.336C947.492 656.089 945.738 680.055 945.738 680.055C945.738 680.055 947.934 703.687 949.318 706.44C950.702 709.193 950.511 720.503 950.511 720.503C934.33 723.47 923.758 717.095 923.758 717.095C923.758 717.095 928.937 705.332 929.044 704.784C929.104 704.474 929.796 705.308 929.999 705.559L929.044 704.236C926.837 701.161 929.044 695.226 929.044 695.226C929.044 695.226 926.288 676.158 927.612 674.335C928.937 672.511 927.397 666.088 926.622 664.551C925.674 662.424 925.078 660.158 924.856 657.841C924.792 656.646 924.571 655.464 924.199 654.326C920.787 649.487 921.443 641.467 921.443 641.467C921.534 634.538 920.947 627.617 919.689 620.802C917.708 611.673 922.159 585.836 922.159 585.836C922.159 585.836 920.679 580.783 921.777 578.912C922.278 578.078 922.207 576.1 921.992 574.145C921.729 571.762 921.228 569.545 921.228 569.545L951.287 564.254C951.919 565.302 952.48 566.315 953.029 567.293C962.969 585.633 956.263 592.438 956.263 592.438L949.879 612.007C949.879 612.007 947.612 632.886 945.189 637.51Z" fill="#444053"/>
<path d="M897.589 494.048L893.294 497.623C893.294 497.623 892.446 496.956 891.325 495.943C888.628 493.56 884.284 489.138 885.919 487.279C886.165 486.92 886.482 486.614 886.849 486.38C887.217 486.145 887.627 485.987 888.057 485.915C888.487 485.843 888.927 485.858 889.351 485.959C889.775 486.06 890.174 486.246 890.525 486.504C890.286 486.242 885.298 480.915 887.351 481.344C889.403 481.773 893.317 486.397 893.317 486.397L896.396 491.843L897.589 494.048Z" fill="#EFB7B9"/>
<path d="M955.094 553.421L950.034 554.958L953.876 561.656L958.28 555.947L955.094 553.421Z" fill="#EFB7B9"/>
<path d="M943.209 490.425C951.17 490.425 957.623 483.98 957.623 476.029C957.623 468.078 951.17 461.633 943.209 461.633C935.247 461.633 928.794 468.078 928.794 476.029C928.794 483.98 935.247 490.425 943.209 490.425Z" fill="#EFB7B9"/>
<path d="M934.724 481.285C934.724 481.285 947.85 502.057 935.393 503.82C922.935 505.584 952.098 518.217 952.098 518.217L962.993 507.229C962.993 507.229 951.657 487.66 953.447 480.188C955.237 472.716 934.724 481.285 934.724 481.285Z" fill="#EFB7B9"/>
<path opacity="0.1" d="M953.065 567.293C950.159 568.178 947.197 568.867 944.199 569.354C944.199 569.354 927.97 576.505 922.064 574.121C921.801 571.738 921.3 569.521 921.3 569.521L951.287 564.254C951.955 565.302 952.54 566.315 953.065 567.293Z" fill="black"/>
<path d="M967.993 512.949L965.057 519.015L961.752 525.832L961.275 526.809L957.349 535.282L952.361 546.008C952.361 546.008 954.127 548.094 953.554 549.75C952.982 551.407 952.23 550.62 952.134 550.525C952.218 550.656 953.328 552.086 952.337 552.718C952.045 552.971 951.829 553.299 951.713 553.668C951.598 554.036 951.586 554.429 951.681 554.803C951.681 554.803 955.75 561.513 956.526 563.932C957.301 566.351 944.199 568.437 944.199 568.437C944.199 568.437 925.596 576.684 920.966 572.608C916.336 568.532 920.966 549.416 920.966 549.416C920.966 549.416 920.966 538.429 922.159 537.439C923.352 536.45 922.815 528.859 922.815 528.859C919.629 523.031 921.825 519.73 921.825 519.73L920.942 504.786C920.942 504.786 922.374 503.248 923.472 503.141C924.17 503.07 924.874 503.07 925.572 503.141C925.572 503.141 926.145 502.938 926.992 502.712C928.758 502.212 931.681 501.52 932.72 502.033C934.259 502.807 944.175 500.841 944.175 500.841C948.443 500.217 952.741 499.819 957.051 499.649C958.523 499.562 959.999 499.723 961.418 500.126C962.375 500.341 963.263 500.794 963.999 501.441C964.735 502.089 965.296 502.911 965.63 503.832C965.466 505.62 965.934 507.408 966.955 508.885C968.745 511.745 967.993 512.949 967.993 512.949Z" fill="#FF6484"/>
<path opacity="0.1" d="M897.589 494.048L893.294 497.623C893.294 497.623 892.446 496.956 891.325 495.943C890.979 492.237 894.141 491.748 896.372 491.844L897.589 494.048Z" fill="black"/>
<path d="M922.839 504.714L920.966 504.822C920.966 504.822 916.562 505.37 915.13 504.047C913.699 502.724 908.639 502.295 908.639 502.295C908.639 502.295 907.207 499.435 905.668 498.553C904.128 497.671 900.382 496.027 900.274 495.145C899.956 494.222 899.471 493.365 898.842 492.618C898.842 492.618 890.585 490.64 891.802 497.123C893.019 503.606 899.725 509.219 899.725 509.219C899.725 509.219 900.501 512.794 903.031 513.724C905.56 514.653 921.956 522.305 924.605 520.326C927.254 518.348 922.839 504.714 922.839 504.714Z" fill="#FF6484"/>
<path opacity="0.1" d="M966.979 508.85C965.958 507.372 965.49 505.584 965.654 503.797C965.32 502.876 964.759 502.053 964.023 501.406C963.286 500.758 962.399 500.306 961.442 500.09C960.745 499.883 960.03 499.743 959.306 499.673C960.249 499.895 961.123 500.348 961.848 500.991C962.573 501.634 963.126 502.446 963.459 503.356C963.286 505.144 963.755 506.935 964.783 508.409C966.537 511.269 965.774 512.485 965.774 512.485L962.838 518.539L959.521 525.379L959.055 526.356L955.129 534.83L950.141 545.555C950.141 545.555 951.896 547.641 951.335 549.297C950.774 550.954 950.022 550.167 949.915 550.072C950.01 550.203 951.108 551.633 950.13 552.265C949.838 552.518 949.621 552.846 949.503 553.214C949.385 553.582 949.371 553.975 949.461 554.35C949.461 554.35 953.542 561.06 954.306 563.479C955.07 565.898 941.979 567.984 941.979 567.984C941.979 567.984 929.056 573.704 922.075 573.263C928.042 575.587 944.187 568.425 944.187 568.425C944.187 568.425 957.313 566.339 956.514 563.92C955.714 561.501 951.669 554.791 951.669 554.791C951.574 554.417 951.586 554.024 951.702 553.656C951.817 553.288 952.033 552.959 952.325 552.706C953.28 552.074 952.206 550.644 952.122 550.513C952.218 550.608 953.029 551.276 953.542 549.738C954.055 548.201 952.349 545.996 952.349 545.996L957.337 535.271L961.263 526.797L961.74 525.82L965.046 519.003L967.981 512.937C967.981 512.937 968.745 511.71 966.979 508.85Z" fill="black"/>
<path d="M965.988 511.305L967.969 512.949C968.328 514.038 968.891 515.049 969.628 515.929C970.726 517.12 973.697 529.109 973.697 529.109C973.571 529.386 973.506 529.687 973.506 529.991C973.506 530.295 973.571 530.596 973.697 530.873C974.138 531.755 972.814 533.078 972.814 533.078C972.814 533.078 972.157 532.851 973.255 534.067C974.353 535.282 972.265 536.701 972.265 536.701C972.265 536.701 963.244 552.086 961.37 553.743C959.497 555.399 957.623 559.701 957.623 559.701C957.623 559.701 953.709 553.552 952.779 553.433L956.633 544.745C956.633 544.745 959.27 532.661 961.251 530.444C963.232 528.227 960.261 520.66 960.261 520.66L965.988 511.305Z" fill="#FF6484"/>
<path opacity="0.1" d="M967.253 533.721C965.606 535.7 962.695 536.105 960.093 535.831C959.712 535.831 959.342 535.735 958.96 535.664C958.399 535.557 957.838 535.425 957.289 535.271C955.324 534.704 953.474 533.797 951.824 532.589C951.478 532.276 951.072 532.037 950.631 531.886C950.106 531.824 949.576 531.925 949.11 532.174C948.645 532.424 948.268 532.81 948.029 533.28C947.469 534.174 947.206 535.223 946.633 536.117C946.01 536.957 945.193 537.636 944.253 538.096C943.312 538.557 942.275 538.785 941.228 538.762C939.131 538.704 937.059 538.302 935.094 537.571C936.852 535.699 938.194 533.478 939.032 531.052C939.392 529.441 939.497 527.785 939.342 526.142C938.865 518.36 936.156 510.161 929.796 505.632C928.698 504.845 927.409 503.916 927.004 502.736C928.77 502.235 931.693 501.544 932.731 502.057C934.271 502.831 944.187 500.865 944.187 500.865C948.455 500.241 952.753 499.843 957.063 499.673C958.535 499.586 960.011 499.747 961.43 500.15C960.716 503.383 960.595 506.718 961.072 509.994C961.524 512.015 962.255 513.964 963.244 515.786C963.817 516.87 964.437 517.955 965.022 519.039C966.704 522.042 968.303 525.057 968.602 528.442C968.856 530.31 968.372 532.203 967.253 533.721Z" fill="black"/>
<path opacity="0.1" d="M945.488 549.214C946.328 548.992 947.199 548.915 948.065 548.988C948.789 549.203 949.452 549.587 949.998 550.108H944.342C942.886 550.108 940.691 550.191 939.569 549.166C940.547 548.177 944.056 549.381 945.488 549.214Z" fill="black"/>
<path d="M925.882 474.337C925.023 475.516 924.482 476.896 924.31 478.344C924.139 479.793 924.343 481.261 924.903 482.607C925.81 484.741 927.553 486.397 928.627 488.447C929.434 490.037 929.825 491.806 929.762 493.588C929.7 495.37 929.186 497.107 928.269 498.636C927.85 499.176 927.549 499.797 927.385 500.46C927.123 502.14 928.865 503.344 930.249 504.321C936.598 508.85 939.306 517.049 939.796 524.831C939.96 526.473 939.859 528.131 939.497 529.741C938.662 532.168 937.32 534.39 935.559 536.26C937.526 536.986 939.597 537.388 941.693 537.451C942.741 537.469 943.777 537.237 944.717 536.775C945.657 536.313 946.473 535.634 947.099 534.794C947.671 533.912 947.934 532.863 948.495 531.958C948.732 531.486 949.109 531.099 949.574 530.849C950.04 530.6 950.571 530.5 951.096 530.563C951.536 530.718 951.941 530.957 952.289 531.266C954.716 533.048 957.567 534.166 960.559 534.508C963.124 534.806 966.036 534.377 967.719 532.398C968.841 530.868 969.324 528.963 969.067 527.083C968.494 520.421 962.85 515.166 961.549 508.635C960.487 503.332 962.396 497.909 962.742 492.523C963.268 484.538 960.356 476.756 957.504 469.284C956.872 467.431 956.031 465.656 954.998 463.992C953.738 462.291 952.127 460.879 950.275 459.852C948.422 458.824 946.371 458.204 944.259 458.034C942.696 457.828 941.107 457.987 939.617 458.499C938.143 459.171 936.795 460.09 935.631 461.216C932.91 463.599 930.106 465.983 928.471 469.296C927.827 470.63 927.409 472.061 926.693 473.348" fill="#925978"/>
<g opacity="0.1">
<path opacity="0.1" d="M928.483 471.429C929.187 470.13 929.677 468.7 930.249 467.377C930.867 466.139 931.637 464.982 932.54 463.933C930.894 465.458 929.526 467.256 928.495 469.248C927.875 470.547 927.457 471.93 926.777 473.193L927.648 472.454C927.426 472.759 927.222 473.077 927.039 473.407C927.598 472.808 928.083 472.144 928.483 471.429Z" fill="black"/>
<path opacity="0.1" d="M962.337 532.649C959.344 532.299 956.494 531.178 954.067 529.395C953.713 529.094 953.31 528.856 952.874 528.692C952.349 528.637 951.819 528.741 951.355 528.992C950.891 529.243 950.513 529.629 950.273 530.098C950.158 530.287 950.054 530.482 949.962 530.682C950.337 530.514 950.757 530.476 951.156 530.575C951.596 530.73 952.001 530.969 952.349 531.278C954.776 533.06 957.626 534.178 960.618 534.52C963.184 534.818 966.096 534.389 967.778 532.41C967.989 532.156 968.173 531.881 968.327 531.588C966.509 532.61 964.396 532.984 962.337 532.649Z" fill="black"/>
<path opacity="0.1" d="M943.423 535.58C941.332 535.516 939.264 535.114 937.302 534.389C939.055 532.511 940.392 530.286 941.228 527.858C941.593 526.252 941.698 524.598 941.538 522.96C941.061 515.178 938.364 506.967 931.992 502.45C930.607 501.461 928.877 500.257 929.128 498.577C929.306 497.917 929.61 497.298 930.023 496.753C930.94 495.226 931.454 493.491 931.517 491.711C931.579 489.931 931.188 488.164 930.381 486.576C929.307 484.526 927.564 482.858 926.646 480.736C926.163 479.562 925.948 478.296 926.014 477.029C926.08 475.762 926.426 474.525 927.028 473.407C926.723 473.727 926.4 474.03 926.061 474.313C925.814 474.654 925.547 474.981 925.261 475.29C924.659 476.406 924.313 477.641 924.249 478.907C924.185 480.173 924.404 481.437 924.892 482.607C925.798 484.741 927.541 486.397 928.615 488.447C929.422 490.037 929.813 491.806 929.75 493.588C929.688 495.37 929.174 497.107 928.257 498.636C927.838 499.176 927.537 499.797 927.374 500.46C927.111 502.14 928.853 503.344 930.237 504.321C936.586 508.85 939.294 517.049 939.784 524.831C939.948 526.473 939.847 528.131 939.485 529.741C938.65 532.168 937.308 534.39 935.548 536.26C937.514 536.986 939.586 537.388 941.681 537.451C942.729 537.469 943.765 537.237 944.705 536.775C945.645 536.313 946.462 535.634 947.087 534.794C947.158 534.675 947.23 534.555 947.29 534.436C946.13 535.163 944.792 535.559 943.423 535.58Z" fill="black"/>
</g>
<path d="M83.7708 677.588C81.2961 677.267 78.9239 676.4 76.8259 675.05L76.6111 674.895C76.7833 674.647 76.9049 674.368 76.9691 674.073C76.6743 673.506 76.5189 672.877 76.5156 672.238C76.5247 671.631 76.4026 671.029 76.1577 670.474V667.494C75.4514 666.498 75.0987 665.294 75.1553 664.074C75.0718 661.607 74.9763 649.499 74.9763 649.499C74.8381 648.865 74.8098 648.212 74.8928 647.569C74.9763 646.162 74.9763 645.638 74.9763 645.638C74.6817 644.822 74.5916 643.946 74.7138 643.088C74.7902 642.275 74.5604 641.464 74.0694 640.811L75.4298 634.138C75.4298 634.138 76.1815 611.113 73.9859 604.165C73.9859 604.165 73.9859 604.165 73.9859 604.082C74.1649 599.613 71.4442 592.164 72.9835 586.968C74.5229 581.772 74.7138 580.652 74.7138 580.652C74.7138 580.652 67.9121 563.622 66.1937 559.582C65.2054 556.964 64.0083 554.43 62.6139 552.003C62.5025 551.852 62.3951 551.709 62.2917 551.574L62.1127 551.359C62.4867 550.744 62.7115 550.05 62.769 549.333C62.8645 548.141 62.6855 546.64 63.6043 545.758C63.9544 545.474 64.3299 545.223 64.726 545.007C65.4256 544.549 65.9822 543.904 66.3324 543.146C66.6827 542.387 66.8124 541.546 66.7069 540.717C66.4402 539.409 65.8166 538.201 64.905 537.225C65.0053 536.643 65.0572 536.053 65.0601 535.461C65.0574 534.12 64.7797 532.794 64.244 531.564C63.7084 530.334 62.9262 529.227 61.9457 528.311V527.763C61.9595 526.547 61.5785 525.359 60.8598 524.378L61.1104 524.557L60.6808 524.188C60.473 523.973 60.236 523.788 59.9767 523.639C57.9575 522.263 55.5978 521.468 53.1562 521.341C50.7146 521.215 48.2853 521.763 46.1347 522.924C45.0573 523.491 44.1323 524.309 43.4378 525.308C42.0178 527.501 42.3758 530.325 41.636 532.816C40.8962 535.306 39.2494 537.142 37.8533 539.215C36.4571 541.289 35.2997 543.744 35.8247 546.163C36.2066 547.927 37.4476 549.5 37.4237 551.288C37.3653 552.235 36.9745 553.133 36.3198 553.821C35.6652 554.51 34.7886 554.946 33.8439 555.054H33.3069C35.0815 556.126 37.0852 556.763 39.154 556.913C39.154 557.08 39.0585 557.235 39.0227 557.401C37.3998 563.694 35.9082 571.702 35.9082 571.702C35.9082 571.702 36.9106 579.782 34.8224 586.099C32.7341 592.415 33.0086 605.417 33.0086 605.417C33.0086 605.417 38.8079 602.425 39.1778 604.356C39.5477 606.287 39.1778 606.811 39.1778 606.811C40.0158 607.253 40.8761 607.65 41.7553 608.003V608.777L41.4928 612.233C41.4 612.949 41.5117 613.676 41.815 614.331C42.3162 615.296 41.815 617.906 41.815 617.906C41.815 617.906 41.3854 618.168 41.815 619.408C42.0057 620.412 41.8893 621.45 41.4809 622.387C41.4809 622.387 40.9678 628.965 40.8723 630.372C40.4516 632.212 39.8438 634.005 39.0585 635.723C39.0585 635.723 40.6098 637.653 39.0585 637.927C37.5072 638.201 37.3402 640.549 37.3402 640.549C37.3402 640.549 35.5264 642.051 35.5264 642.575C30.0454 648.664 26.4877 656.235 25.3 664.336C25.3 664.336 23.3907 666.088 23.6652 667.757C23.8203 668.698 23.51 669.02 23.2117 669.127C23.5458 669.127 23.9157 669.389 23.7487 670.212C23.4862 671.618 22.7583 674.597 22.7583 674.597H22.8895C21.3979 676.313 19.2381 679.185 18.904 681.748V682.057L18.0687 683.881L25.2284 687.039L25.8608 686.074C25.8608 686.074 29.0349 689.649 32.6625 690.459C33.2858 690.596 33.9217 690.668 34.5598 690.674C36.5802 690.631 38.5766 690.227 40.4546 689.482C40.4546 689.482 43.0799 686.241 36.2781 685.621C36.2781 685.621 32.2926 681.056 32.6983 679.126C32.8261 678.313 32.9098 677.493 32.9489 676.671C32.9489 676.492 32.9489 676.313 32.9489 676.146L33.4143 676.218L33.4978 674.74C33.6 674.619 33.6769 674.478 33.724 674.327C33.7712 674.175 33.7876 674.016 33.7723 673.858C33.7723 673.251 33.2233 673.155 33.7723 672.81C34.3212 672.464 34.3092 672.81 34.3092 671.94C34.3092 671.07 33.9513 671.32 34.7627 670.438C35.5741 669.556 34.6792 667.983 34.6792 667.983C35.1813 667.608 35.599 667.133 35.9053 666.587C36.2116 666.041 36.3996 665.436 36.4571 664.813C36.3736 662.978 42.531 651.299 43.7958 650.858C45.0607 650.417 45.1562 648.129 45.1562 648.129C45.1562 648.129 46.8864 648.486 47.4234 648.129C48.2744 647.177 49.0335 646.148 49.6907 645.054C49.6907 645.054 56.5759 627.678 56.6714 621.1L57.1248 619.61C57.1248 619.61 59.75 623.031 59.3801 625.486C59.0102 627.941 61.3967 629.704 61.3967 629.704V637.165C61.6591 638.464 61.8029 639.784 61.8263 641.109C61.7428 642.301 62.9003 643.564 62.4588 644.625C62.2203 645.576 62.2203 646.57 62.4588 647.521C62.4588 647.521 62.3633 649.976 62.4588 650.679C62.5542 651.382 62.1008 659.45 64.4635 662.966C64.4635 662.966 65.4539 665.504 64.4635 667.173C63.4731 668.841 65.3584 670.51 65.3584 670.51C65.3584 670.51 64.1652 672.44 65.3584 673.846C66.0384 674.732 66.3427 675.849 66.2057 676.957C65.7284 678.744 65.3823 681.08 66.2057 682.713L66.4205 685.228L73.3654 684.691V683.297C76.3577 684.031 79.4573 684.224 82.5178 683.869C83.7007 683.762 84.8491 683.414 85.8918 682.847C86.9345 682.279 87.8494 681.503 88.5797 680.568C88.5797 680.568 91.372 675.741 83.7708 677.588Z" fill="url(#paint1_linear)"/>
<path d="M87.279 680.615C86.5775 681.539 85.691 682.306 84.6761 682.868C83.6611 683.43 82.54 683.775 81.3842 683.881C78.4261 684.236 75.4276 684.038 72.542 683.297V684.703L65.8358 685.227L65.6329 682.725C64.8573 681.08 65.2152 678.697 65.6926 676.909C65.909 676.065 66.1841 675.236 66.5159 674.43C66.5159 674.43 72.2914 669.532 74.2126 673.238C74.6302 673.997 75.2085 674.656 75.9071 675.169C77.9228 676.506 80.2156 677.37 82.6133 677.696C89.9878 675.813 87.279 680.615 87.279 680.615Z" fill="#FF6484"/>
<path opacity="0.1" d="M69.4514 675.812C69.4514 675.812 69.4514 680.353 72.7687 680.269C76.0861 680.186 76.5395 678.458 75.4894 677.29C74.7735 676.463 74.1567 675.555 73.6518 674.585L69.4514 675.812Z" fill="black"/>
<path d="M40.8126 689.529C39.0082 690.27 37.083 690.674 35.1326 690.721C34.5149 690.714 33.8994 690.646 33.2949 690.518C29.7986 689.732 26.7319 686.145 26.7319 686.145L26.1233 687.11L19.2023 683.964L19.9898 682.129V681.807C20.312 679.304 22.3764 676.432 23.8322 674.728C24.6556 673.774 25.2999 673.155 25.2999 673.155L33.6529 674.347C33.6529 674.347 33.6529 675.419 33.6529 676.73C33.6236 677.552 33.5439 678.372 33.4143 679.185C33.0682 681.104 36.9106 685.644 36.9106 685.644C43.3543 686.264 40.8126 689.529 40.8126 689.529Z" fill="#FF6484"/>
<path d="M24.1902 669.222C24.0495 669.26 23.9013 669.26 23.7606 669.222C23.9026 669.196 24.0482 669.196 24.1902 669.222Z" fill="#444053"/>
<path opacity="0.1" d="M33.5575 674.418C33.5575 674.418 33.5575 675.491 33.5575 676.802L23.7845 675.24C23.7845 675.24 23.7845 675.05 23.8919 674.74C24.6556 673.775 25.2999 673.155 25.2999 673.155L33.5575 674.418Z" fill="black"/>
<path opacity="0.1" d="M75.9309 675.121C74.4512 678.542 65.6567 677.731 65.6567 677.731C65.7063 677.456 65.7263 677.176 65.7164 676.897C65.9329 676.053 66.208 675.224 66.5398 674.418C66.5398 674.418 72.3153 669.52 74.2364 673.226C74.6583 673.972 75.2362 674.619 75.9309 675.121Z" fill="black"/>
<path d="M76.0742 674.156C75.2031 678.077 65.6568 677.207 65.6568 677.207C65.8437 676.042 65.5604 674.851 64.8692 673.894C63.6759 672.488 64.8692 670.569 64.8692 670.569C64.8692 670.569 63.0316 668.912 63.9981 667.244C64.9647 665.575 63.9981 663.049 63.9981 663.049C61.7309 659.557 62.1605 651.513 62.065 650.822C61.9695 650.131 62.065 647.676 62.065 647.676C61.8333 646.728 61.8333 645.739 62.065 644.792C62.4946 643.743 61.3729 642.515 61.4684 641.3C61.4566 639.993 61.3328 638.689 61.0984 637.403V629.978C60.4619 629.486 59.9537 628.848 59.6172 628.117C59.2806 627.387 59.1256 626.586 59.1653 625.783C59.5114 623.328 56.9697 619.932 56.9697 619.932L56.5401 621.41C56.4446 627.964 49.7981 645.244 49.7981 645.244C49.1649 646.326 48.4339 647.347 47.6144 648.295C47.0893 648.653 45.4307 648.295 45.4307 648.295C45.4307 648.295 45.3352 650.571 44.118 651C42.9009 651.429 36.9584 663.061 37.0299 664.896C36.9828 665.529 36.8022 666.146 36.4999 666.704C36.1976 667.263 35.7805 667.751 35.2758 668.138C35.2758 668.138 36.1469 669.711 35.3594 670.581C34.5718 671.451 34.9298 671.189 34.9298 672.07C34.9298 672.952 34.9298 672.595 34.4047 672.94C33.8797 673.286 34.4047 673.381 34.4047 673.989C34.4283 674.302 34.3347 674.612 34.1422 674.859L34.0587 676.325L23.8203 674.692C23.8203 674.692 24.5124 671.713 24.7749 670.319C24.9301 669.496 24.5721 669.282 24.2499 669.234C24.5363 669.127 24.8346 668.805 24.6914 667.876C24.4289 666.207 26.2665 664.467 26.2665 664.467C27.3257 656.427 30.7001 648.867 35.9799 642.706C35.9799 642.182 37.7221 640.692 37.7221 640.692C37.7221 640.692 37.901 638.308 39.3926 638.07C40.8842 637.832 39.3926 635.889 39.3926 635.889C40.1459 634.174 40.7294 632.39 41.1348 630.562C41.2303 629.168 41.7195 622.613 41.7195 622.613C42.1145 621.677 42.2265 620.645 42.0417 619.646C41.636 618.454 42.0417 618.156 42.0417 618.156C42.0417 618.156 42.5429 615.534 42.0417 614.581C41.7526 613.922 41.6495 613.197 41.7434 612.483L41.9821 609.051L42.352 603.927C42.352 603.927 69.5588 599.291 72.5301 603.045C72.8593 603.509 73.0982 604.03 73.2341 604.582C75.3582 611.494 74.6303 634.376 74.6303 634.376L73.3177 641.014C73.7974 641.666 74.0184 642.473 73.9382 643.278C73.8232 644.133 73.9131 645.003 74.2007 645.816C74.2007 645.816 74.2007 646.341 74.1052 647.735C74.0288 648.379 74.061 649.032 74.2007 649.666C74.2007 649.666 74.2842 661.714 74.3678 664.169C74.314 665.38 74.653 666.575 75.3343 667.578V670.545C75.5707 671.098 75.6886 671.695 75.6804 672.297C75.6645 672.939 75.7993 673.576 76.0742 674.156Z" fill="#444053"/>
<path opacity="0.1" d="M35.1326 690.697C34.5149 690.69 33.8994 690.622 33.2949 690.495C29.7986 689.708 26.7319 686.121 26.7319 686.121L26.1233 687.086L19.2023 683.94L19.9898 682.105V681.783L27.1495 685.358C27.1495 685.358 32.8773 688.135 35.1326 690.697Z" fill="black"/>
<path opacity="0.1" d="M81.3842 683.881C78.4261 684.235 75.4276 684.037 72.542 683.297V684.703L65.8358 685.227L65.6329 682.725C67.757 682.725 71.1817 682.808 72.6614 682.725C75.6079 682.714 78.5423 683.103 81.3842 683.881Z" fill="black"/>
<path opacity="0.1" d="M27.6149 666.97C27.9622 666.947 28.3107 666.992 28.6411 667.101C28.9843 667.311 29.3113 667.546 29.6196 667.804C29.8498 667.929 30.0693 668.072 30.2759 668.233C30.5265 668.483 30.6339 668.853 30.8845 669.103C31.3618 669.568 32.0778 669.473 32.746 669.687C32.8176 669.687 32.8892 669.687 32.9012 669.818C32.9017 669.853 32.8919 669.888 32.8728 669.918C32.8536 669.947 32.8261 669.971 32.7938 669.985C32.6384 670.071 32.464 670.115 32.2866 670.115C32.1093 670.115 31.9348 670.071 31.7795 669.985C31.4732 669.809 31.1923 669.593 30.9442 669.341C30.4584 668.911 29.9012 668.568 29.2974 668.328C28.4741 667.995 27.0421 667.911 26.5171 667.137C26.8648 666.996 27.2409 666.938 27.6149 666.97Z" fill="black"/>
<path opacity="0.1" d="M26.9109 668.805C27.0933 668.857 27.2695 668.929 27.4359 669.02L28.3309 669.472C27.696 669.516 27.062 669.375 26.5052 669.067C26.3028 668.993 26.1072 668.901 25.9205 668.793C26.2486 668.737 26.5842 668.741 26.9109 668.805Z" fill="black"/>
<path opacity="0.1" d="M28.1041 670.342C28.2943 670.318 28.4868 670.318 28.6769 670.342C29.0203 670.468 29.3362 670.658 29.6077 670.903C30.2648 671.426 31.0821 671.708 31.9227 671.701C31.7654 671.771 31.5929 671.8 31.4215 671.785H29.5361C29.3303 671.814 29.1214 671.814 28.9156 671.785C28.6452 671.725 28.3842 671.629 28.1399 671.498C27.8178 671.355 26.4932 670.974 26.4813 670.533C26.4693 670.092 27.782 670.342 28.1041 670.342Z" fill="black"/>
<path opacity="0.1" d="M70.8953 672.571C71.471 672.618 72.0498 672.618 72.6255 672.571C73.2376 672.548 73.8317 672.358 74.3438 672.023C74.845 671.641 74.7376 671.236 74.1052 671.212C73.5065 671.236 72.9185 671.378 72.3749 671.629C72.0938 671.747 71.8225 671.886 71.5635 672.047C71.4442 672.166 71.0146 672.583 70.8953 672.571Z" fill="black"/>
<path opacity="0.1" d="M73.0313 673.524C73.0313 673.739 72.7568 673.858 72.5539 673.93C72.0612 674.122 71.5422 674.238 71.0146 674.275C70.8834 674.275 70.5134 674.275 70.5612 674.073C70.6089 673.87 71.1578 673.93 71.2891 673.906C71.8781 673.82 72.4603 673.692 73.0313 673.524Z" fill="black"/>
<path opacity="0.1" d="M43.7123 638.845C42.8359 638.233 41.7981 637.893 40.7291 637.868C41.8118 637.802 42.8787 638.152 43.7123 638.845Z" fill="black"/>
<path opacity="0.1" d="M42.9008 635.317C43.688 635.323 44.4591 635.541 45.1323 635.949L44.3924 635.734C43.9035 635.579 43.3996 635.475 42.8889 635.424C42.6025 635.424 42.3042 635.424 42.0178 635.424C41.7314 635.424 41.3496 635.341 41.0154 635.329C41.6002 635.329 42.2565 635.293 42.9008 635.317Z" fill="black"/>
<path opacity="0.1" d="M45.5857 636.998C45.8363 636.998 46.1346 637.153 46.1824 637.403C45.5578 637.104 44.9066 636.865 44.2373 636.688C43.8674 636.569 42.7338 636.068 42.4713 636.414C43.4139 636.688 44.4998 636.783 45.5857 636.998Z" fill="black"/>
<path opacity="0.1" d="M47.9723 629.239C49.1184 628.853 50.1513 628.19 50.9793 627.309C50.9695 627.701 50.8631 628.084 50.6695 628.425C50.476 628.766 50.2012 629.054 49.8696 629.263C49.1994 629.68 48.4531 629.959 47.674 630.086C46.8977 630.221 46.1405 630.449 45.4187 630.765C45.0726 630.932 43.9987 631.957 43.6526 631.957C43.3066 631.957 43.9151 631.206 44.0703 631.087C45.2741 630.285 46.5886 629.662 47.9723 629.239Z" fill="black"/>
<path opacity="0.1" d="M69.4514 640.573C69.0815 640.442 64.559 641.312 64.8334 640.442C65.0124 639.906 66.4801 640.108 66.8381 640.12C67.7265 640.145 68.6067 640.297 69.4514 640.573Z" fill="black"/>
<path d="M64.5231 536.105C64.523 536.838 64.443 537.569 64.2845 538.286C63.7292 540.778 62.2389 542.964 60.12 544.393C58.0011 545.822 55.4145 546.386 52.8919 545.97C50.3693 545.553 48.1023 544.187 46.5569 542.153C45.0115 540.118 44.3051 537.57 44.5829 535.032C44.8607 532.493 46.1016 530.158 48.0505 528.505C49.9994 526.852 52.5082 526.007 55.0614 526.144C57.6146 526.282 60.0181 527.391 61.7779 529.243C63.5376 531.096 64.52 533.551 64.5231 536.105Z" fill="#FBBEBE"/>
<path d="M59.7142 540.204C59.7142 540.204 56.4804 549.643 58.318 551.562C60.1557 553.48 45.1084 554.625 45.1084 554.625C45.1084 554.625 51.397 543.351 50.7884 540.55C50.1799 537.749 59.7142 540.204 59.7142 540.204Z" stroke="#6C63FF" stroke-miterlimit="10"/>
<path opacity="0.1" d="M73.1863 604.559C73.1984 604.777 73.1984 604.996 73.1863 605.214C73.0073 609.671 65.0481 618.669 63.2105 617.131C61.3728 615.594 48.8911 612.674 48.8911 612.674C48.8911 612.674 47.0535 609.79 45.1323 609.79C44.0364 609.699 42.9636 609.425 41.9581 608.98L42.328 603.855C42.328 603.855 69.5349 599.22 72.5062 602.974C72.8324 603.453 73.0633 603.992 73.1863 604.559Z" fill="black"/>
<path d="M73.1864 604.427C73.1028 606.656 71.0623 610.029 68.807 612.65C66.5517 615.272 64.1293 617.131 63.2105 616.393C62.5366 615.954 61.806 615.609 61.0387 615.368C56.8981 613.854 48.8673 611.935 48.8673 611.935C48.8673 611.935 47.0296 609.051 45.1084 609.051C43.1872 609.051 39.5 607.133 39.5 607.133C39.5 607.133 39.858 606.608 39.5 604.69C39.142 602.771 33.5336 605.738 33.5336 605.738C33.5336 605.738 33.2711 592.808 35.2758 586.516C37.2805 580.223 36.3259 572.215 36.3259 572.215C36.3259 572.215 37.7697 564.302 39.3329 558.033C40.2756 554.279 41.2661 551.121 42.0178 550.632C44.0345 549.321 54.5234 550.632 54.5234 550.632C56.5462 550.659 58.5644 550.834 60.5614 551.157C61.0776 551.362 61.5188 551.719 61.8263 552.181L62.1366 552.622C63.5117 555.035 64.6813 557.558 65.6329 560.166C67.3035 564.182 73.8665 581.129 73.8665 581.129C73.8665 581.129 73.6875 582.321 72.1959 587.421C70.7043 592.522 73.3653 599.97 73.1864 604.427Z" fill="#65617D"/>
<path d="M65.6687 609.576L68.807 612.65C68.807 612.65 71.6948 622.601 67.9359 621.72C64.1771 620.838 61.0388 615.368 61.0388 615.368L65.6687 609.576Z" fill="#FBBEBE"/>
<path opacity="0.1" d="M73.6279 581.88C66.1818 581.796 64.2606 571.392 64.2606 571.392C64.2606 571.392 63.7355 561.084 62.769 559.165C62.1935 557.288 61.9 555.336 61.8979 553.373C63.273 555.785 64.4426 558.309 65.3942 560.917C67.0648 564.933 73.6279 581.88 73.6279 581.88Z" fill="black"/>
<path d="M73.8904 581.093C66.4443 581.01 64.5232 570.606 64.5232 570.606C64.5232 570.606 63.9981 560.297 63.0316 558.379C62.4561 556.502 62.1625 554.55 62.1605 552.587C63.5356 554.999 64.7052 557.522 65.6568 560.13C67.3274 564.147 73.8904 581.093 73.8904 581.093Z" fill="#65617D"/>
<path opacity="0.1" d="M60.5614 555.447C60.5614 555.447 58.3777 549.488 54.7979 555.447C52.5388 559.584 51.2802 564.192 51.1226 568.901L50.5021 585.324C51.0758 586.382 51.4481 587.538 51.5999 588.732C51.5999 589.924 53.7478 593.499 53.7478 593.499C53.7478 593.499 54.2728 600.399 56.2776 601.543L58.2107 607.216C58.2107 607.216 58.2942 610.97 59.6068 612.46C59.9895 613.002 60.2441 613.623 60.3516 614.277C60.4591 614.932 60.4166 615.602 60.2273 616.237L68.0075 613.52C68.0075 613.52 67.1245 613.842 68.0075 611.494C68.8905 609.147 67.4825 606.084 67.4825 606.084C67.4825 606.084 62.4946 595.251 61.8741 593.678C61.2535 592.105 60.3944 590.269 60.6808 588.434C60.9672 586.599 60.7524 567.114 61.2058 564.146C61.6593 561.179 60.5614 555.447 60.5614 555.447Z" fill="black"/>
<path d="M61.3729 554.624C61.3729 554.624 59.1891 548.666 55.5974 554.624C53.3448 558.764 52.0866 563.37 51.922 568.079L51.3135 584.501C51.8837 585.561 52.2557 586.716 52.4113 587.91C52.4113 589.101 54.5473 592.677 54.5473 592.677C54.5473 592.677 55.0723 599.577 57.089 600.709L59.0101 606.394C59.0101 606.394 59.1056 610.148 60.4182 611.637C60.8009 612.179 61.0555 612.801 61.163 613.455C61.2705 614.109 61.228 614.78 61.0387 615.415L68.807 612.698C68.807 612.698 67.9359 613.02 68.807 610.66C69.6781 608.3 68.2581 605.226 68.2581 605.226C68.2581 605.226 63.2821 594.393 62.6616 592.82C62.0411 591.247 61.1819 589.411 61.4683 587.576C61.7547 585.741 61.5399 566.256 61.9814 563.276C62.4229 560.297 61.3729 554.624 61.3729 554.624Z" fill="#FF6484"/>
<path opacity="0.1" d="M61.528 606C61.8598 606.043 62.1823 606.139 62.4826 606.286C62.7213 606.406 62.9242 606.596 63.1628 606.727C63.435 606.884 63.7437 606.966 64.0578 606.966C63.708 606.984 63.3575 606.984 63.0077 606.966C62.7895 606.981 62.5705 606.952 62.3633 606.882C62.1669 606.79 61.9825 606.674 61.8144 606.537C61.6003 606.378 61.3679 606.246 61.1223 606.143C60.9314 606.072 60.7285 606.048 60.6569 605.857C60.9507 605.881 61.242 605.929 61.528 606Z" fill="black"/>
<path opacity="0.1" d="M64.4873 608.348C64.8215 608.348 65.1437 608.276 65.4778 608.253C65.9602 608.235 66.4433 608.259 66.9216 608.324C66.2193 608.683 65.4257 608.824 64.6425 608.729C64.4197 608.67 64.1851 608.67 63.9623 608.729C63.7237 608.825 63.0077 609.635 62.948 608.92C62.8884 608.205 64.0816 608.36 64.4873 608.348Z" fill="black"/>
<path opacity="0.1" d="M60.466 525.618L59.1891 524.688C59.3265 524.733 59.4586 524.793 59.5829 524.867C59.8515 525.012 60.0936 525.201 60.2989 525.427L60.7046 525.796L60.466 525.618Z" fill="black"/>
<path opacity="0.1" d="M61.8502 552.145C61.6181 552.669 61.2466 553.118 60.7762 553.444C60.4946 553.636 60.1716 553.759 59.8335 553.802C59.3593 553.848 58.8806 553.8 58.4254 553.659C57.8431 553.503 57.2695 553.316 56.7071 553.099C55.6052 552.637 54.4777 552.239 53.3301 551.907C52.4716 551.646 51.5615 551.603 50.6822 551.782C49.8029 551.961 48.9822 552.356 48.2945 552.932C47.1847 554.052 46.9222 555.792 45.8244 556.912C44.3447 558.414 41.9343 558.319 39.858 558.021L39.3687 557.949C40.3114 554.195 41.3018 551.037 42.0536 550.548C44.0702 549.238 54.5592 550.548 54.5592 550.548C56.582 550.575 58.6001 550.75 60.5972 551.073C61.1156 551.293 61.5532 551.667 61.8502 552.145Z" fill="black"/>
<path opacity="0.1" d="M44.5834 536.105C44.5758 534.143 45.1493 532.222 46.2317 530.584C47.3141 528.947 48.8572 527.665 50.6668 526.901C52.4764 526.137 54.4719 525.924 56.4023 526.289C58.3326 526.655 60.1118 527.582 61.5161 528.954C61.5161 530.682 61.17 532.529 61.6593 534.138C62.2632 535.66 63.1545 537.052 64.2845 538.238C63.7403 540.619 62.3396 542.717 60.3485 544.134C58.3573 545.551 55.9144 546.189 53.4836 545.925C51.0528 545.662 48.8034 544.517 47.1627 542.706C45.5219 540.896 44.6041 538.547 44.5834 536.105Z" fill="black"/>
<path d="M60.7046 525.272C58.77 523.518 56.3316 522.418 53.7356 522.127C51.1395 521.836 48.5176 522.369 46.242 523.651C45.1956 524.225 44.3032 525.042 43.6407 526.034C42.2684 528.215 42.6145 531.04 41.8985 533.507C41.1825 535.973 39.5955 537.821 38.247 539.882C36.8986 541.944 35.777 544.387 36.2901 546.794C36.66 548.546 37.8652 550.119 37.8413 551.907C37.7937 552.903 37.3714 553.844 36.659 554.542C35.9467 555.24 34.9967 555.644 33.999 555.673C35.7681 556.761 37.7738 557.407 39.846 557.556C41.9343 557.854 44.3447 557.949 45.8125 556.448C46.9103 555.327 47.1728 553.587 48.2826 552.467C48.9703 551.891 49.791 551.496 50.6703 551.317C51.5496 551.138 52.4597 551.181 53.3182 551.442C55.0604 551.847 56.6713 552.634 58.4135 553.146C58.8687 553.287 59.3474 553.336 59.8216 553.289C61.3132 553.087 62.2082 551.43 62.3036 549.929C62.3991 548.737 62.2201 547.247 63.1031 546.354C63.4406 546.07 63.8042 545.818 64.189 545.603C64.8716 545.134 65.412 544.488 65.7509 543.733C66.0898 542.978 66.2141 542.145 66.1102 541.324C65.6925 538.369 62.5303 536.557 61.6473 533.65C61.1581 531.981 61.528 530.194 61.5041 528.466C61.4802 526.737 60.812 524.747 59.1772 524.163" fill="#444053"/>
<path opacity="0.1" d="M65.9551 541.325C65.5494 538.369 62.3752 536.558 61.4922 533.65C61.003 531.981 61.3848 530.194 61.349 528.466C61.3715 527.258 61.0032 526.075 60.2989 525.093L60.5495 525.272C60.4183 525.141 60.2751 525.022 60.1319 524.902C59.9302 524.691 59.7015 524.506 59.4517 524.354L58.9982 524.044L59.2369 524.271L58.9863 524.092C59.6922 525.073 60.0606 526.257 60.0364 527.465C60.0364 529.193 59.6904 531.04 60.1796 532.637C61.0268 535.509 64.2368 537.404 64.6425 540.324C64.745 541.144 64.6201 541.977 64.2813 542.731C63.9426 543.486 63.4029 544.133 62.7213 544.602C62.3365 544.818 61.9729 545.069 61.6354 545.353C60.7524 546.235 60.9314 547.736 60.8359 548.928C60.7166 550.43 59.8574 552.086 58.3658 552.289C57.8877 552.331 57.4059 552.282 56.9458 552.146C55.2155 551.693 53.5927 550.847 51.8505 550.441C50.9923 550.178 50.0816 550.134 49.2019 550.313C48.3222 550.492 47.5015 550.889 46.8148 551.466C45.717 552.575 45.4426 554.326 44.3447 555.447C42.8651 556.936 40.4546 556.853 38.3783 556.555C37.0116 556.401 35.6666 556.093 34.3689 555.637C34.1943 555.655 34.0184 555.655 33.8439 555.637C35.6144 556.722 37.6193 557.368 39.6909 557.52C41.7792 557.818 44.1896 557.914 45.6574 556.412C46.7552 555.292 47.0296 553.552 48.1274 552.432C48.8152 551.856 49.6359 551.461 50.5152 551.282C51.3945 551.103 52.3046 551.146 53.1631 551.407C54.9053 551.812 56.5282 552.599 58.2584 553.111C58.7173 553.253 59.2003 553.302 59.6784 553.254C61.17 553.051 62.065 551.395 62.1485 549.893C62.244 548.702 62.065 547.212 62.948 546.318C63.2855 546.034 63.6491 545.783 64.0339 545.567C64.7107 545.102 65.2473 544.461 65.5859 543.713C65.9245 542.965 66.0521 542.139 65.9551 541.325Z" fill="black"/>
<path opacity="0.1" d="M104.355 683.654C106.264 690.006 80.5966 694.118 50.3708 692.95C23.2713 691.913 2.01897 686.932 0.455769 681.724C-1.10743 676.516 17.3646 672.273 44.1418 672.19C74.0097 672.19 102.446 677.302 104.355 683.654Z" fill="#6C63FF"/>
</g>
<defs>
<linearGradient id="paint0_linear" x1="929.641" y1="725.079" x2="929.641" y2="455.686" gradientUnits="userSpaceOnUse">
<stop stop-color="#808080" stop-opacity="0.25"/>
<stop offset="0.54" stop-color="#808080" stop-opacity="0.12"/>
<stop offset="1" stop-color="#808080" stop-opacity="0.1"/>
</linearGradient>
<linearGradient id="paint1_linear" x1="7310.28" y1="123083" x2="7310.28" y2="99010.3" gradientUnits="userSpaceOnUse">
<stop stop-color="#808080" stop-opacity="0.25"/>
<stop offset="0.54" stop-color="#808080" stop-opacity="0.12"/>
<stop offset="1" stop-color="#808080" stop-opacity="0.1"/>
</linearGradient>
<clipPath id="clip0">
<rect x="-1" width="1296" height="729" fill="white"/>
</clipPath>
</defs>
</svg>
