<svg width="240" height="201" viewBox="0 0 240 201" fill="none" xmlns="http://www.w3.org/2000/svg">
<path d="M186.033 75.0491H34V200.108H186.033V75.0491Z" fill="url(#paint0_linear)"/>
<path d="M69.0826 55.1622C69.0826 43.871 73.568 33.0424 81.552 25.0583C89.5361 17.0743 100.365 12.5889 111.656 12.5889C122.947 12.5889 133.776 17.0743 141.76 25.0583C149.744 33.0424 154.229 43.871 154.229 55.1622V82.4055H166.147V55.1622C166.235 47.9502 164.891 40.7924 162.192 34.1039C159.493 27.4153 155.493 21.329 150.425 16.1979C145.356 11.0667 139.319 6.99275 132.664 4.21225C126.009 1.43175 118.868 0 111.656 0C104.443 0 97.3026 1.43175 90.6476 4.21225C83.9926 6.99275 77.9557 11.0667 72.887 16.1979C67.8183 21.329 63.8187 27.4153 61.1199 34.1039C58.4211 40.7924 57.0769 47.9502 57.1652 55.1622V82.4055H69.0826V55.1622Z" fill="url(#paint1_linear)"/>
<path d="M70.7822 54.6145C70.7822 43.7753 75.088 33.3802 82.7525 25.7157C90.4169 18.0513 100.812 13.7455 111.651 13.7455C122.49 13.7455 132.886 18.0513 140.55 25.7157C148.214 33.3802 152.52 43.7753 152.52 54.6145V80.7707H163.964V54.6145C163.964 40.7404 158.452 27.4345 148.642 17.6241C138.831 7.8136 125.525 2.30212 111.651 2.30212C97.7771 2.30212 84.4713 7.8136 74.6608 17.6241C64.8503 27.4345 59.3389 40.7404 59.3389 54.6145V80.7707H70.7822V54.6145Z" fill="white"/>
<path d="M182.763 79.136H40.5391V195.204H182.763V79.136Z" fill="#009688"/>
<path d="M182.763 79.136H40.5391V195.204H182.763V79.136Z" fill="white"/>
<path d="M182.763 102.023H40.5391V172.317H182.763V102.023Z" fill="#F55F44"/>
<path d="M122.089 123.896C122.097 122.189 121.686 120.507 120.892 118.996C120.099 117.486 118.947 116.193 117.537 115.231C116.127 114.269 114.503 113.668 112.807 113.48C111.111 113.293 109.394 113.524 107.809 114.154C106.223 114.784 104.815 115.794 103.711 117.094C102.606 118.395 101.837 119.946 101.471 121.613C101.106 123.28 101.155 125.011 101.615 126.655C102.074 128.298 102.93 129.804 104.107 131.04V153.289C104.107 155.301 104.906 157.23 106.328 158.652C107.751 160.075 109.68 160.874 111.692 160.874C113.704 160.874 115.633 160.075 117.055 158.652C118.478 157.23 119.277 155.301 119.277 153.289V131.04C121.093 129.105 122.099 126.549 122.089 123.896Z" fill="url(#paint2_linear)"/>
<path opacity="0.2" d="M120.642 125.727C120.645 124.258 120.288 122.812 119.603 121.513C118.917 120.215 117.924 119.104 116.711 118.278C115.497 117.452 114.099 116.935 112.64 116.774C111.18 116.612 109.704 116.811 108.339 117.352C106.974 117.893 105.762 118.76 104.809 119.877C103.857 120.995 103.192 122.328 102.874 123.762C102.556 125.195 102.593 126.684 102.983 128.1C103.374 129.515 104.105 130.814 105.112 131.882V151.066C105.112 152.8 105.801 154.463 107.027 155.689C108.254 156.916 109.917 157.605 111.651 157.605C113.386 157.605 115.049 156.916 116.275 155.689C117.501 154.463 118.19 152.8 118.19 151.066V131.882C119.761 130.217 120.638 128.016 120.642 125.727Z" fill="black"/>
<path opacity="0.1" d="M207.672 158.493L206.712 159.869C206.712 159.869 206.319 162.301 200.321 159.22C194.323 156.139 53.2819 95.0778 53.2819 95.0778L52.3516 92.1926L207.672 158.493Z" fill="black"/>
<path d="M188.587 193.297C188.39 192.986 188.143 192.711 187.854 192.484C186.378 191.089 185.692 189.042 185.328 187.036C184.963 185.03 184.858 182.983 184.274 181.021C183.956 180.015 183.559 179.036 183.085 178.093C182.747 177.37 182.322 175.955 181.704 175.449C181.582 175.344 181.436 175.273 181.278 175.243C180.986 174.622 180.57 174.068 180.056 173.615C179.09 172.74 177.911 172.044 177.266 170.913C177.089 170.521 176.87 170.148 176.614 169.802C176.179 169.322 175.49 169.126 175.088 168.62C174.564 167.965 174.682 167.026 174.75 166.192C174.818 165.357 174.75 164.358 174.027 163.919C173.595 163.652 173.038 163.679 172.589 163.442C171.913 163.105 171.646 162.254 171.66 161.494C171.673 160.734 171.91 159.994 171.97 159.234C172.16 156.816 170.566 154.412 171.18 152.068C171.413 151.18 171.947 150.41 172.342 149.582C172.48 149.307 172.593 149.02 172.68 148.724C173.733 149.142 174.841 149.409 175.969 149.518C174.108 145.344 174.581 140.494 173.713 136.009L173.825 135.857C174.701 134.701 175.199 133.302 175.25 131.851C175.25 130.183 174.47 128.623 174.118 126.988C173.818 125.6 173.831 124.148 173.443 122.784C173.174 121.936 172.816 121.118 172.376 120.345C171.955 119.564 171.512 118.795 171.048 118.038C170.616 116.606 170.183 115.175 169.748 113.743C169.14 111.733 168.516 109.69 167.333 107.954C166.901 107.319 166.769 106.029 166.104 105.644C165.564 105.364 164.951 105.257 164.348 105.337C163.409 104.81 162.585 104.05 162.467 103.01C162.455 102.782 162.478 102.555 162.534 102.334H162.649C164.135 102.199 164.888 100.889 165.662 99.7404C166.911 97.8829 166.435 95.3702 165.662 93.2561C165.47 92.5888 165.123 91.9765 164.649 91.4695C163.564 90.4563 161.849 90.6792 160.451 90.1895C159.981 90.0274 159.542 89.7808 159.063 89.666C158.134 89.4499 157.161 89.7538 156.31 90.1827C155.459 90.6117 154.665 91.1655 153.774 91.5033C152.882 91.841 151.781 92.1078 151.562 93.023C151.5 93.3313 151.526 93.6506 151.636 93.945C151.841 94.5323 152.202 95.0529 152.68 95.4513C152.3 96.234 152.095 97.0897 152.078 97.9595C152.061 98.8292 152.233 99.6923 152.582 100.489C152.931 101.286 153.448 101.998 154.099 102.575C154.75 103.152 155.518 103.582 156.351 103.834C156.607 104.246 156.847 104.664 157.067 105.093C157.458 105.85 157.789 106.741 157.654 107.552C157.41 107.812 157.184 108.088 156.979 108.379C156.01 109.73 155.459 111.314 154.952 112.895C154.272 114.913 153.727 116.974 153.321 119.065C152.497 120.818 151.491 122.493 150.893 124.334C149.823 124.335 148.757 124.192 147.725 123.908L144.875 123.263C143.882 123.037 142.848 122.794 142.072 122.138C141.66 121.801 141.339 121.352 140.92 121.017C140.501 120.683 139.66 120.291 139.201 120.568C139.117 120.619 139.039 120.679 138.968 120.747C138.549 119.899 138.151 119.058 137.664 118.238C136.965 117.089 135.925 116.039 134.608 115.82C133.803 115.69 132.98 115.882 132.315 116.353C131.545 116.9 131.062 118.042 131.639 118.812C131.783 118.983 131.94 119.143 132.109 119.291C132.5 119.742 132.849 120.227 133.152 120.74C134.241 122.268 135.869 123.326 137.708 123.699L137.59 124.036C137.35 124.739 136.84 125.587 136.969 126.316L149.647 130.656C150.46 130.986 151.323 131.177 152.2 131.22C152.542 131.217 152.882 131.172 153.213 131.085V131.733V131.76C153.247 136.215 152.538 140.639 152.406 145.09C152.382 145.904 152.406 146.779 152.919 147.414C153.493 148.11 154.513 148.248 155.402 148.089C155.616 148.053 155.825 148.006 156.03 147.948C156.33 149.068 156.547 150.209 156.678 151.362L157.516 157.394C157.624 158.011 157.668 158.638 157.647 159.265C157.55 160.68 156.803 161.946 156.263 163.253C155.722 164.56 155.402 166.124 156.111 167.347C156.334 167.725 156.641 168.046 156.84 168.437C157.094 169.044 157.209 169.699 157.178 170.356C157.23 172.175 157.279 173.996 157.327 175.82C157.179 175.796 157.028 175.826 156.901 175.905C156.199 176.452 156.276 179.056 156.226 179.863C156.172 181.214 156.226 182.592 156.151 183.956C156.064 185.795 155.768 187.618 155.27 189.39C155.148 189.966 154.882 190.502 154.497 190.947C154.102 191.29 153.63 191.535 153.122 191.66C151.439 192.186 149.68 192.426 147.918 192.369C147.205 192.345 146.462 192.278 145.8 192.548C145.138 192.818 144.604 193.561 144.844 194.236C145.05 194.804 145.675 195.074 146.239 195.287C147.528 195.74 148.771 196.313 149.954 196.996C150.409 197.306 150.889 197.578 151.389 197.81C151.869 197.982 152.364 198.104 152.869 198.174L158.857 199.208C160.083 199.417 161.558 199.545 162.339 198.532C162.761 197.985 162.821 197.242 162.801 196.546C162.767 195.196 162.497 193.821 162.673 192.47C162.806 191.671 163.017 190.888 163.301 190.13C163.898 188.358 164.497 186.587 165.098 184.817C165.699 183.041 166.307 181.247 166.54 179.383C166.624 178.708 166.618 177.938 166.101 177.516C165.97 177.408 165.818 177.33 165.655 177.286C165.635 175.658 165.422 174.027 165.513 172.399C165.537 171.994 165.577 171.588 165.611 171.18C165.924 171.477 166.204 171.808 166.445 172.166C167.023 173.071 167.236 174.267 168.117 174.868C168.867 175.381 169.978 175.354 170.505 176.097C170.674 176.382 170.801 176.691 170.883 177.012C171.189 177.809 171.648 178.537 172.234 179.157C172.435 179.898 172.715 180.616 173.068 181.298C173.566 182.35 174.061 183.398 174.554 184.442C175.061 185.57 175.625 186.671 176.243 187.742C176.715 188.416 177.095 189.15 177.374 189.924C177.85 191.592 177.074 193.422 175.844 194.652C174.615 195.881 172.994 196.587 171.396 197.246C171.228 197.302 171.074 197.395 170.944 197.516C170.805 197.68 170.732 197.889 170.738 198.103C170.738 198.883 171.379 199.552 172.116 199.792C172.868 199.994 173.657 200.023 174.422 199.876C178.739 199.353 183.041 198.299 186.857 196.202C187.428 195.931 187.934 195.541 188.34 195.057C188.536 194.813 188.663 194.521 188.706 194.211C188.749 193.901 188.708 193.586 188.587 193.297Z" fill="url(#paint3_linear)"/>
<path d="M170.346 117.562C171.066 118.668 171.742 119.8 172.372 120.96C172.814 121.727 173.173 122.538 173.443 123.381C173.834 124.732 173.824 126.174 174.118 127.552C174.456 129.173 175.246 130.72 175.246 132.382C175.195 133.821 174.696 135.209 173.821 136.353C172.948 137.488 171.948 138.519 170.842 139.427C168.292 132.82 166.867 125.832 166.627 118.754C166.594 117.775 166.587 116.765 166.945 115.85C167.164 115.276 168.218 113.702 168.897 114.32C169.143 114.546 169.208 115.566 169.359 115.907C169.644 116.484 169.974 117.038 170.346 117.562Z" fill="#2F2E41"/>
<path opacity="0.1" d="M170.346 117.562C171.066 118.668 171.742 119.8 172.372 120.96C172.814 121.727 173.173 122.538 173.443 123.381C173.834 124.732 173.824 126.174 174.118 127.552C174.456 129.173 175.246 130.72 175.246 132.382C175.195 133.821 174.696 135.209 173.821 136.353C172.948 137.488 171.948 138.519 170.842 139.427C168.292 132.82 166.867 125.832 166.627 118.754C166.594 117.775 166.587 116.765 166.945 115.85C167.164 115.276 168.218 113.702 168.897 114.32C169.143 114.546 169.208 115.566 169.359 115.907C169.644 116.484 169.974 117.038 170.346 117.562Z" fill="black"/>
<path d="M81.3073 71.4863C78.6358 74.1544 78.315 75.3297 76.7108 75.8599C75.1066 76.3901 69.3348 79.379 71.1484 82.6921L76.0252 85.914L76.1671 86.0086L76.9134 88.2511L69.5375 101.382C69.5375 101.382 57.3793 95.8229 56.1871 104.047C54.995 112.27 55.7515 114.516 55.4306 118.907C55.1098 123.297 55.5353 124.567 54.4647 124.567C53.3941 124.567 52.972 121.683 52.972 121.683C52.972 121.683 52.9044 121.551 52.7862 121.304C51.1955 117.998 40.3984 93.7256 57.6934 77.0419C57.6934 77.0419 65.7043 76.5151 67.6327 67.3289C68.9633 60.9797 73.6172 61.5268 76.7108 62.8203C77.7163 63.2145 78.6532 63.765 79.4869 64.4515C80.2372 65.1618 80.9045 65.9549 81.4761 66.8156C82.3576 68.207 82.8372 69.9531 81.3073 71.4863Z" fill="#444053"/>
<path opacity="0.1" d="M76.1668 86.0086L76.9132 88.2511L69.5372 101.382C69.5372 101.382 57.3791 95.8229 56.1869 104.047C54.9947 112.27 55.7512 114.516 55.4304 118.907C55.1095 123.297 55.5351 124.567 54.4645 124.567C53.3939 124.567 52.9717 121.683 52.9717 121.683C52.9717 121.683 52.9042 121.551 52.786 121.304C52.249 117.198 49.5269 93.1752 59.3953 94.4518C59.3953 94.4518 67.4028 98.1938 68.6828 96.701C69.6959 95.519 74.1945 88.7205 76.0249 85.9309L76.1668 86.0086Z" fill="black"/>
<path opacity="0.1" d="M81.4754 66.7953L76.5986 72.3374C76.5986 72.3374 70.935 79.916 69.7597 79.5951C69.4078 79.5184 69.0492 79.4765 68.6891 79.4702C68.297 79.4401 67.9215 79.2996 67.6061 79.0649C67.2906 78.8301 67.0481 78.5108 66.9067 78.1439C66.7653 77.777 66.7308 77.3775 66.8072 76.9918C66.8835 76.6061 67.0677 76.2499 67.3382 75.9646C69.27 73.9382 72.8296 70.0915 73.0626 69.237C73.2957 68.3826 75.5618 64.6372 76.6966 62.8033C77.702 63.1976 78.6389 63.7481 79.4727 64.4346C80.2275 65.1431 80.8994 65.9351 81.4754 66.7953Z" fill="black"/>
<path d="M219.457 146.529C218.63 148.184 214.391 154.391 212.537 157.103L211.669 158.38C211.669 158.38 211.332 160.622 205.796 157.843C200.261 155.064 70.2057 100.186 70.2057 100.186L69.3242 97.5385L75.741 87.9302L218.285 143.003C218.285 143.003 220.528 144.391 219.457 146.529Z" fill="#F55F44"/>
<path d="M134.09 121.257C132.77 121.041 131.304 121.146 130.277 122.003C129.657 122.529 129.264 123.275 129.183 124.084C129.095 125.019 129.639 126.13 130.578 126.201C130.804 126.204 131.03 126.189 131.253 126.157C131.846 126.155 132.439 126.205 133.023 126.306C134.173 126.414 135.333 126.245 136.404 125.812C137.475 125.38 138.427 124.697 139.18 123.82C139.987 122.807 138.923 122.368 137.971 122.166C136.667 121.889 135.394 121.466 134.09 121.257Z" fill="#FBBEBE"/>
<path d="M156.678 151.757L157.515 157.708C157.622 158.322 157.665 158.946 157.643 159.569C157.546 160.97 156.799 162.227 156.262 163.524C155.725 164.82 155.398 166.374 156.11 167.576C156.33 167.951 156.637 168.272 156.836 168.66C157.089 169.261 157.205 169.911 157.174 170.562L157.404 179.005C160.011 179.183 162.627 179.168 165.232 178.961C165.334 178.966 165.434 178.935 165.516 178.873C165.585 178.786 165.619 178.677 165.614 178.566C165.729 176.59 165.384 174.611 165.496 172.635C165.536 171.913 165.637 171.193 165.651 170.467C165.691 167.526 164.239 164.645 164.678 161.737C164.816 161.003 164.997 160.278 165.219 159.565C166.607 154.499 166.313 149.177 166.006 143.946C166.011 143.861 165.987 143.778 165.938 143.709C165.888 143.659 165.825 143.625 165.756 143.611C164.278 143.168 162.716 143.087 161.2 143.375C159.685 143.663 158.261 144.312 157.049 145.266C156.681 145.563 155.752 145.85 155.509 146.205C155.171 146.698 155.614 147.191 155.81 147.715C156.243 149.027 156.534 150.382 156.678 151.757Z" fill="#3F3D56"/>
<path opacity="0.1" d="M156.678 151.757L157.515 157.708C157.622 158.322 157.665 158.946 157.643 159.569C157.546 160.97 156.799 162.227 156.262 163.524C155.725 164.82 155.398 166.374 156.11 167.576C156.33 167.951 156.637 168.272 156.836 168.66C157.089 169.261 157.205 169.911 157.174 170.562L157.404 179.005C160.011 179.183 162.627 179.168 165.232 178.961C165.334 178.966 165.434 178.935 165.516 178.873C165.585 178.786 165.619 178.677 165.614 178.566C165.729 176.59 165.384 174.611 165.496 172.635C165.536 171.913 165.637 171.193 165.651 170.467C165.691 167.526 164.239 164.645 164.678 161.737C164.816 161.003 164.997 160.278 165.219 159.565C166.607 154.499 166.313 149.177 166.006 143.946C166.011 143.861 165.987 143.778 165.938 143.709C165.888 143.659 165.825 143.625 165.756 143.611C164.278 143.168 162.716 143.087 161.2 143.375C159.685 143.663 158.261 144.312 157.049 145.266C156.681 145.563 155.752 145.85 155.509 146.205C155.171 146.698 155.614 147.191 155.81 147.715C156.243 149.027 156.534 150.382 156.678 151.757Z" fill="black"/>
<path d="M172.338 149.964C171.943 150.784 171.413 151.548 171.176 152.429C170.561 154.756 172.152 157.157 171.963 159.542C171.902 160.295 171.669 161.028 171.652 161.781C171.635 162.534 171.912 163.372 172.581 163.719C173.03 163.949 173.594 163.925 174.016 164.189C174.729 164.624 174.81 165.614 174.739 166.445C174.668 167.276 174.55 168.204 175.077 168.853C175.479 169.356 176.168 169.552 176.6 170.028C176.857 170.37 177.076 170.739 177.252 171.129C177.897 172.257 179.076 172.946 180.041 173.831C181.007 174.716 181.825 176.013 181.392 177.239C181.075 178.137 180.183 178.691 179.325 179.113C177.76 179.887 176.108 180.47 174.405 180.852C174.222 180.908 174.029 180.918 173.841 180.883C173.651 180.813 173.481 180.697 173.348 180.545C172.351 179.569 171.321 178.546 170.862 177.232C170.78 176.913 170.653 176.609 170.484 176.327C169.957 175.587 168.846 175.614 168.096 175.104C167.218 174.506 167.005 173.321 166.431 172.426C165.857 171.531 165.016 170.997 164.405 170.21C163.371 168.9 163.118 167.151 162.378 165.655C162.064 165.02 161.662 164.425 161.412 163.763C161.16 162.97 161.005 162.149 160.95 161.318C160.474 157.373 159.261 153.402 160.024 149.498C160.193 148.64 160.453 147.809 160.561 146.924C160.747 145.394 160.453 143.827 160.68 142.301C160.685 142.109 160.734 141.921 160.822 141.751C160.91 141.581 161.036 141.433 161.19 141.318C161.372 141.236 161.57 141.196 161.77 141.2C163.773 141.093 165.78 141.138 167.775 141.335C168.788 141.433 169.923 141.639 170.531 142.466C171.048 143.175 171.021 144.124 171.186 144.986C171.392 146.046 171.929 146.624 172.493 147.454C173.057 148.285 172.753 149.106 172.338 149.964Z" fill="#3F3D56"/>
<path d="M164.547 177.407C165.081 177.407 165.672 177.374 166.084 177.711C166.597 178.134 166.604 178.907 166.523 179.566C166.286 181.416 165.682 183.196 165.077 184.969L163.28 190.241C162.996 190.993 162.786 191.772 162.652 192.565C162.477 193.916 162.747 195.266 162.781 196.617C162.781 197.293 162.737 198.043 162.315 198.586C161.551 199.569 160.062 199.454 158.836 199.262L152.855 198.249C152.35 198.181 151.854 198.06 151.376 197.887C150.876 197.657 150.396 197.387 149.94 197.08C148.757 196.404 147.513 195.838 146.225 195.391C145.665 195.182 145.036 194.915 144.834 194.351C144.594 193.676 145.128 192.933 145.79 192.663C146.452 192.392 147.191 192.46 147.907 192.48C149.668 192.536 151.425 192.299 153.108 191.778C153.615 191.653 154.085 191.41 154.479 191.069C154.88 190.618 155.153 190.069 155.27 189.478C155.779 187.718 156.083 185.904 156.175 184.074C156.246 182.723 156.198 181.372 156.252 180.021C156.286 179.221 156.208 176.644 156.911 176.094C157.448 175.682 159.657 176.82 160.383 176.985C161.748 177.298 163.147 177.44 164.547 177.407Z" fill="#F55F44"/>
<path d="M184.25 181.163C184.834 183.098 184.925 185.145 185.303 187.134C185.681 189.123 186.35 191.153 187.826 192.538C188.113 192.766 188.361 193.04 188.559 193.348C188.684 193.637 188.726 193.955 188.681 194.267C188.636 194.579 188.506 194.872 188.306 195.114C187.898 195.595 187.392 195.983 186.823 196.253C183.01 198.333 178.718 199.383 174.391 199.903C173.627 200.047 172.84 200.018 172.088 199.819C171.352 199.569 170.7 198.907 170.713 198.13C170.706 197.917 170.778 197.709 170.916 197.546C171.047 197.426 171.203 197.335 171.372 197.279C172.966 196.624 174.584 195.912 175.816 194.702C177.049 193.493 177.823 191.663 177.346 190.022C177.064 189.253 176.682 188.525 176.208 187.857C175.591 186.795 175.027 185.703 174.52 184.584L173.034 181.467C172.598 180.555 172.159 179.616 172.085 178.61C173.951 178.693 175.815 178.395 177.563 177.732C178.378 177.399 179.138 176.944 179.815 176.381C180.389 175.901 180.913 175.006 181.686 175.631C182.308 176.131 182.699 177.539 183.064 178.252C183.538 179.188 183.934 180.162 184.25 181.163Z" fill="#F55F44"/>
<path d="M162.473 103.759C162.622 105.056 163.878 105.911 165.077 106.424L157.489 108.845C157.978 107.907 157.583 106.758 157.097 105.806C156.701 105.052 156.249 104.328 155.746 103.641C155.672 103.536 155.587 103.405 155.641 103.283C155.689 103.204 155.765 103.145 155.854 103.118C157.414 102.422 159.022 101.703 160.727 101.449C161.22 101.378 162.153 101.183 162.521 101.682C162.889 102.182 162.402 103.162 162.473 103.759Z" fill="#FBBEBE"/>
<path opacity="0.1" d="M162.473 103.759C162.622 105.056 163.878 105.911 165.077 106.424L157.489 108.845C157.978 107.907 157.583 106.758 157.097 105.806C156.701 105.052 156.249 104.328 155.746 103.641C155.672 103.536 155.587 103.405 155.641 103.283C155.689 103.204 155.765 103.145 155.854 103.118C157.414 102.422 159.022 101.703 160.727 101.449C161.22 101.378 162.153 101.183 162.521 101.682C162.889 102.182 162.402 103.162 162.473 103.759Z" fill="black"/>
<path d="M158.062 104.81C161.349 104.81 164.013 102.146 164.013 98.8591C164.013 95.5726 161.349 92.9083 158.062 92.9083C154.776 92.9083 152.111 95.5726 152.111 98.8591C152.111 102.146 154.776 104.81 158.062 104.81Z" fill="#FBBEBE"/>
<path d="M152.905 147.829C153.482 148.522 154.499 148.657 155.387 148.505C157.464 148.167 159.163 146.637 161.196 146.087C163.688 145.411 166.326 146.279 168.68 147.343C171.034 148.407 173.374 149.707 175.948 149.89C173.621 144.702 174.952 138.461 172.726 133.229C172.182 131.95 171.422 130.717 171.301 129.332C171.149 127.613 172.007 125.955 172.138 124.246C172.26 122.723 171.801 121.206 171.361 119.754C170.819 117.971 170.276 116.188 169.734 114.405C169.126 112.409 168.501 110.379 167.322 108.663C166.887 108.032 166.755 106.752 166.093 106.37C164.647 105.536 162.456 106.586 160.889 106.644C159.322 106.701 157.893 107.816 156.978 109.075C156.008 110.406 155.458 111.99 154.951 113.557C154.145 115.89 153.542 118.289 153.151 120.727C153.101 121.092 153.057 121.456 153.023 121.824C152.685 125.293 153.178 128.782 153.205 132.267V132.291C153.239 136.711 152.53 141.105 152.398 145.523C152.385 146.33 152.405 147.211 152.905 147.829Z" fill="#2F2E41"/>
<path opacity="0.1" d="M153.216 132.27C154.381 131.976 155.435 131.223 156.34 130.399C157.124 129.698 157.82 128.904 158.413 128.035C159.161 126.867 159.761 125.611 160.2 124.296C161.45 120.78 162.245 117.117 162.564 113.398C162.652 112.385 162.679 111.297 162.074 110.494C161.735 110.058 161.258 109.75 160.722 109.62C160.185 109.49 159.62 109.546 159.119 109.778C158.322 110.166 157.805 110.953 157.326 111.706C156.377 113.199 155.421 114.712 154.81 116.373C154.54 117.11 154.34 117.866 154.077 118.606C153.809 119.335 153.5 120.049 153.152 120.744C153.101 121.108 153.057 121.473 153.023 121.841C152.709 125.31 153.189 128.785 153.216 132.27Z" fill="black"/>
<path d="M162.058 109.842C162.662 110.646 162.635 111.743 162.551 112.743C162.232 116.462 161.438 120.125 160.187 123.641C159.751 124.968 159.151 126.234 158.4 127.41C157.806 128.278 157.109 129.072 156.326 129.775C155.178 130.821 153.78 131.757 152.223 131.77C151.347 131.729 150.484 131.541 149.67 131.213L136.988 126.897C136.86 126.174 137.37 125.33 137.61 124.634L138.285 122.632C138.478 122.078 138.7 121.48 139.204 121.179C139.707 120.879 140.504 121.291 140.923 121.625C141.341 121.96 141.659 122.399 142.071 122.74C142.851 123.388 143.881 123.631 144.874 123.854L147.721 124.492C148.753 124.775 149.819 124.917 150.889 124.915C151.683 122.49 153.192 120.355 154.047 117.951C154.31 117.214 154.509 116.455 154.783 115.718C155.391 114.057 156.35 112.547 157.299 111.051C157.775 110.301 158.292 109.514 159.092 109.123C159.595 108.888 160.162 108.831 160.701 108.962C161.24 109.093 161.719 109.403 162.058 109.842Z" fill="#2F2E41"/>
<path d="M159.96 100.203C159.915 99.8117 159.794 99.433 159.602 99.0886C159.503 98.9162 159.351 98.78 159.169 98.6998C158.987 98.6196 158.784 98.5997 158.589 98.6428C157.995 98.8286 157.796 99.7472 157.174 99.7776C156.755 99.7979 156.455 99.3723 156.323 98.9738C156.191 98.5753 156.121 98.1194 155.806 97.839C155.588 97.6755 155.337 97.5604 155.07 97.5013C153.628 97.0454 152.139 96.2045 151.659 94.7691C151.546 94.4777 151.519 94.1601 151.581 93.8539C151.801 92.9454 152.932 92.6718 153.794 92.3442C154.655 92.0166 155.482 91.456 156.327 91.0305C157.171 90.6049 158.15 90.3044 159.079 90.5205C159.55 90.6687 160.014 90.8412 160.467 91.0372C161.865 91.5236 163.577 91.2973 164.662 92.3071C165.135 92.808 165.483 93.4147 165.675 94.0768C166.431 96.1774 166.911 98.6699 165.658 100.514C164.885 101.652 164.135 102.952 162.649 103.091C160.92 103.236 160.234 101.669 159.96 100.203Z" fill="#2F2E41"/>
<g opacity="0.1">
<path opacity="0.1" d="M157.319 98.2579C157.187 97.8594 157.116 97.4034 156.805 97.1231C156.587 96.9596 156.336 96.8445 156.069 96.7854C154.624 96.3295 153.138 95.4885 152.655 94.0532C152.545 93.7611 152.519 93.444 152.58 93.138C152.613 92.9937 152.674 92.8572 152.759 92.7361C152.209 92.9759 151.729 93.2933 151.594 93.8539C151.532 94.1602 151.559 94.4778 151.672 94.7692C152.151 96.2045 153.641 97.0454 155.083 97.5013C155.349 97.5604 155.6 97.6756 155.819 97.8391C156.133 98.1194 156.201 98.5719 156.336 98.9738C156.471 99.3757 156.768 99.7979 157.187 99.7776C157.606 99.7574 157.808 99.3757 158.075 99.0549C157.707 99.0076 157.44 98.6294 157.319 98.2579Z" fill="black"/>
<path opacity="0.1" d="M163.641 102.365C161.905 102.523 161.219 100.943 160.939 99.4872C160.902 99.0969 160.787 98.718 160.601 98.3727C160.501 98.2007 160.35 98.0648 160.167 97.9847C159.985 97.9045 159.782 97.8843 159.588 97.927C159.28 98.0764 159.021 98.3107 158.842 98.6024C158.997 98.6173 159.146 98.6677 159.279 98.7497C159.411 98.8317 159.523 98.9431 159.605 99.0752C159.796 99.4196 159.918 99.7983 159.963 100.19C160.237 101.645 160.922 103.229 162.665 103.067C163.354 102.991 163.989 102.661 164.448 102.142C164.193 102.261 163.92 102.336 163.641 102.365Z" fill="black"/>
</g>
<path d="M185.068 53.8154C182.846 50.863 179.626 49 176.043 49C172.459 49 169.239 50.863 167.018 53.8154C167.509 55.0203 168.236 56.1149 169.155 57.035C170.292 58.1713 171.692 59.0086 173.231 59.4725C174.77 59.9363 176.4 60.0122 177.975 59.6935C179.551 59.3748 181.023 58.6712 182.26 57.6456C183.498 56.62 184.462 55.3042 185.068 53.8154Z" fill="black"/>
<path d="M165.396 55.289C165.535 55.3901 165.686 55.4755 165.844 55.5435C167.549 58.9922 171.082 61.6315 175.136 61.853V78.2055C172.069 78.0223 169.613 76.4774 167.549 74.0671C167.371 74.202 167.239 74.3242 167.117 74.4387C166.945 74.601 166.825 74.8102 166.772 75.0402C166.719 75.2702 166.736 75.5107 166.819 75.7316C166.931 76.0358 166.96 76.3643 166.903 76.6835C166.846 77.0026 166.705 77.3008 166.495 77.5476C166.285 77.7944 166.013 77.9809 165.707 78.0879C165.401 78.1949 165.072 78.2186 164.754 78.1566C164.436 78.0945 164.14 77.949 163.897 77.7348C163.653 77.5207 163.471 77.2457 163.369 76.938C163.267 76.6303 163.249 76.3011 163.316 75.984C163.383 75.6669 163.534 75.3733 163.752 75.1335C163.817 75.0615 163.889 74.995 163.966 74.935C164.01 74.8947 164.058 74.8596 164.111 74.8306C164.391 73.8177 165.055 72.904 166.134 72.0666C164.92 69.991 164.177 67.6736 163.958 65.2787C163.801 65.2802 163.643 65.2904 163.487 65.3093C163.275 65.3378 163.075 65.424 162.908 65.5587C162.741 65.6934 162.615 65.8712 162.543 66.0728C162.425 66.3854 162.225 66.6599 161.962 66.8665C161.7 67.0731 161.386 67.204 161.054 67.245C160.723 67.286 160.387 67.2355 160.082 67.099C159.777 66.9625 159.516 66.7452 159.325 66.4706C159.135 66.196 159.024 65.8747 159.003 65.5413C158.983 65.208 159.054 64.8754 159.209 64.5796C159.364 64.2838 159.597 64.036 159.883 63.8632C160.168 63.6903 160.496 63.5989 160.83 63.5989C160.904 63.6002 160.978 63.6053 161.051 63.6142C161.325 63.4175 161.628 63.2662 161.95 63.1663C162.578 62.9697 163.231 62.8643 163.889 62.8532C163.954 61.1553 164.275 59.477 164.841 57.8749C164.43 57.6412 164.042 57.3684 163.683 57.0605C163.333 56.7479 163.046 56.3712 162.838 55.9508C162.728 55.7383 162.559 55.5617 162.352 55.4417C162.193 55.3458 162.047 55.2285 161.919 55.0931C161.693 54.8491 161.538 54.5481 161.47 54.2224C161.402 53.8966 161.425 53.5586 161.535 53.2447C161.645 52.9308 161.839 52.653 162.096 52.4412C162.352 52.2294 162.662 52.0916 162.991 52.0428C163.32 51.9939 163.656 52.0358 163.963 52.164C164.27 52.2921 164.536 52.5016 164.733 52.7699C164.93 53.0383 165.049 53.3552 165.079 53.6865C165.109 54.0179 165.048 54.3511 164.902 54.6502C165.016 54.8978 165.185 55.1163 165.396 55.289Z" fill="black"/>
<path d="M24.8717 92.1494C27.2942 94.9395 30.636 96.5734 34.2108 96.3234C37.7856 96.0734 40.8674 93.9902 42.8779 90.89C42.3039 89.7224 41.5024 88.6812 40.5206 87.8274C39.3073 86.7733 37.8521 86.0357 36.2846 85.6803C34.7171 85.325 33.0861 85.3629 31.5368 85.7908C29.9876 86.2187 28.5683 87.0232 27.4053 88.1326C26.2424 89.2421 25.372 90.622 24.8717 92.1494Z" fill="black"/>
<path d="M44.3917 89.3069C44.2455 89.2158 44.0897 89.1411 43.9271 89.0843C41.9854 85.763 38.2772 83.3765 34.2172 83.4385L33.0763 67.1258C36.1485 67.0947 38.7064 68.4644 40.9336 70.7248C41.102 70.5778 41.2255 70.4467 41.3393 70.3239C41.499 70.1501 41.6038 69.933 41.6406 69.6999C41.6774 69.4667 41.6446 69.2279 41.5462 69.0134C41.4133 68.7177 41.3613 68.3921 41.3958 68.0697C41.4302 67.7474 41.5498 67.4401 41.7422 67.1792C41.9346 66.9183 42.1929 66.7134 42.4907 66.5853C42.7885 66.4572 43.115 66.4106 43.4367 66.4503C43.7584 66.49 44.0637 66.6145 44.3214 66.8112C44.5791 67.0078 44.7799 67.2694 44.9031 67.5693C45.0263 67.8691 45.0676 68.1963 45.0226 68.5173C44.9777 68.8383 44.8482 69.1416 44.6473 69.396C44.587 69.4725 44.5203 69.5437 44.4479 69.609C44.4067 69.6523 44.3606 69.6907 44.3105 69.7232C44.1019 70.7533 43.503 71.7111 42.4849 72.6217C43.8413 74.6075 44.7441 76.8674 45.1293 79.2412C45.2862 79.2288 45.4423 79.2076 45.5968 79.1779C45.8066 79.1347 46.0004 79.0346 46.1571 78.8887C46.3139 78.7427 46.4275 78.5565 46.4855 78.3503C46.5809 78.0303 46.7621 77.7425 47.0094 77.518C47.2567 77.2936 47.5607 77.1411 47.8885 77.0771C48.2162 77.0131 48.5553 77.0401 48.8688 77.155C49.1824 77.2699 49.4586 77.4684 49.6674 77.729C49.8762 77.9897 50.0097 78.3025 50.0534 78.6336C50.0971 78.9646 50.0494 79.3014 49.9154 79.6073C49.7815 79.9132 49.5663 80.1766 49.2934 80.369C49.0204 80.5614 48.7 80.6754 48.3668 80.6987C48.2929 80.7026 48.2188 80.7026 48.1449 80.6989C47.8858 80.9142 47.5937 81.0863 47.2799 81.2084C46.6669 81.4483 46.0228 81.599 45.367 81.656C45.4208 83.3543 45.2177 85.051 44.7648 86.6886C45.1913 86.8931 45.5972 87.1381 45.9768 87.4203C46.3477 87.7077 46.6601 88.0634 46.8972 88.4683C47.022 88.6726 47.2026 88.837 47.4176 88.9422C47.5834 89.0267 47.7368 89.1336 47.8736 89.2598C48.1163 89.4874 48.2923 89.7769 48.3826 90.0971C48.4728 90.4173 48.474 90.756 48.3859 91.0768C48.2978 91.3976 48.1238 91.6883 47.8827 91.9175C47.6416 92.1467 47.3424 92.3057 47.0175 92.3774C46.6927 92.4491 46.3544 92.4308 46.0392 92.3244C45.724 92.218 45.4438 92.0275 45.2289 91.7736C45.0139 91.5196 44.8724 91.2118 44.8195 90.8834C44.7667 90.5549 44.8045 90.2183 44.9288 89.9097C44.7979 89.6706 44.6142 89.4645 44.3917 89.3069Z" fill="black"/>
<path d="M230.068 149.815C227.846 146.863 224.626 145 221.043 145C217.459 145 214.239 146.863 212.018 149.815C212.509 151.02 213.236 152.115 214.155 153.035C215.292 154.171 216.692 155.009 218.231 155.472C219.77 155.936 221.4 156.012 222.975 155.693C224.551 155.375 226.023 154.671 227.26 153.646C228.498 152.62 229.462 151.304 230.068 149.815Z" fill="black"/>
<path d="M210.396 151.289C210.535 151.39 210.686 151.476 210.844 151.544C212.549 154.992 216.082 157.632 220.136 157.853V174.206C217.069 174.022 214.613 172.477 212.549 170.067C212.371 170.202 212.239 170.324 212.117 170.439C211.945 170.601 211.825 170.81 211.772 171.04C211.719 171.27 211.736 171.511 211.819 171.732C211.931 172.036 211.96 172.364 211.903 172.683C211.846 173.003 211.705 173.301 211.495 173.548C211.285 173.794 211.013 173.981 210.707 174.088C210.401 174.195 210.072 174.219 209.754 174.157C209.436 174.095 209.14 173.949 208.897 173.735C208.653 173.521 208.471 173.246 208.369 172.938C208.267 172.63 208.249 172.301 208.316 171.984C208.383 171.667 208.534 171.373 208.752 171.134C208.817 171.061 208.889 170.995 208.966 170.935C209.01 170.895 209.058 170.86 209.111 170.831C209.391 169.818 210.055 168.904 211.134 168.067C209.92 165.991 209.177 163.674 208.958 161.279C208.801 161.28 208.643 161.29 208.487 161.309C208.275 161.338 208.075 161.424 207.908 161.559C207.741 161.693 207.615 161.871 207.543 162.073C207.425 162.385 207.225 162.66 206.962 162.867C206.7 163.073 206.386 163.204 206.054 163.245C205.723 163.286 205.387 163.235 205.082 163.099C204.777 162.962 204.516 162.745 204.325 162.471C204.135 162.196 204.024 161.875 204.003 161.541C203.983 161.208 204.054 160.875 204.209 160.58C204.364 160.284 204.597 160.036 204.883 159.863C205.168 159.69 205.496 159.599 205.83 159.599C205.904 159.6 205.978 159.605 206.051 159.614C206.325 159.417 206.628 159.266 206.95 159.166C207.578 158.97 208.231 158.864 208.889 158.853C208.954 157.155 209.275 155.477 209.841 153.875C209.43 153.641 209.042 153.368 208.683 153.06C208.333 152.748 208.046 152.371 207.838 151.951C207.728 151.738 207.559 151.562 207.352 151.442C207.193 151.346 207.047 151.229 206.919 151.093C206.693 150.849 206.538 150.548 206.47 150.222C206.402 149.897 206.425 149.559 206.535 149.245C206.645 148.931 206.839 148.653 207.096 148.441C207.352 148.229 207.662 148.092 207.991 148.043C208.32 147.994 208.656 148.036 208.963 148.164C209.27 148.292 209.536 148.502 209.733 148.77C209.93 149.038 210.049 149.355 210.079 149.687C210.109 150.018 210.048 150.351 209.902 150.65C210.016 150.898 210.185 151.116 210.396 151.289Z" fill="black"/>
<defs>
<linearGradient id="paint0_linear" x1="69523.6" y1="64790.7" x2="69523.6" y2="45656.6" gradientUnits="userSpaceOnUse">
<stop stop-color="#808080" stop-opacity="0.25"/>
<stop offset="0.54" stop-color="#808080" stop-opacity="0.12"/>
<stop offset="1" stop-color="#808080" stop-opacity="0.1"/>
</linearGradient>
<linearGradient id="paint1_linear" x1="66674.9" y1="46537.7" x2="66674.9" y2="38297.1" gradientUnits="userSpaceOnUse">
<stop stop-color="#808080" stop-opacity="0.25"/>
<stop offset="0.54" stop-color="#808080" stop-opacity="0.12"/>
<stop offset="1" stop-color="#808080" stop-opacity="0.1"/>
</linearGradient>
<linearGradient id="paint2_linear" x1="12851.2" y1="31470.2" x2="12851.2" y2="28717.6" gradientUnits="userSpaceOnUse">
<stop stop-color="#808080" stop-opacity="0.25"/>
<stop offset="0.54" stop-color="#808080" stop-opacity="0.12"/>
<stop offset="1" stop-color="#808080" stop-opacity="0.1"/>
</linearGradient>
<linearGradient id="paint3_linear" x1="161.866" y1="200.432" x2="157.396" y2="89.6165" gradientUnits="userSpaceOnUse">
<stop stop-color="#808080" stop-opacity="0.25"/>
<stop offset="0.54" stop-color="#808080" stop-opacity="0.12"/>
<stop offset="1" stop-color="#808080" stop-opacity="0.1"/>
</linearGradient>
</defs>
</svg>
