<svg width="240" height="200" viewBox="0 0 240 200" fill="none" xmlns="http://www.w3.org/2000/svg">
<path d="M60.3951 146H40.4785V147.992H60.3951V146Z" fill="#B0BEC5"/>
<path d="M67.6275 170.2H47.7109V172.192H67.6275V170.2Z" fill="#B0BEC5"/>
<path d="M73.8504 181.9H63.6445V184.139H73.8504V181.9Z" fill="#B0BEC5"/>
<path d="M79.0789 194.097H68.873V195.591H79.0789V194.097Z" fill="#B0BEC5"/>
<g opacity="0.5">
<path opacity="0.5" d="M120.001 0.013916L42.6709 47.6022C42.6709 47.6022 42.6709 145.752 120.001 199.288C197.33 145.752 197.33 47.6022 197.33 47.6022L120.001 0.013916Z" fill="url(#paint0_linear)"/>
</g>
<path d="M119.999 2.99023L44.9785 49.1571C44.9785 49.1571 44.9785 144.375 119.999 196.306C195.02 144.367 195.02 49.1571 195.02 49.1571L119.999 2.99023Z" fill="#F55F44"/>
<path opacity="0.04" d="M120.448 2.99023L119.166 3.77744V195.41C119.592 195.711 120.017 196.014 120.448 196.312C195.466 144.375 195.466 49.1571 195.466 49.1571L120.448 2.99023Z" fill="#009688"/>
<g opacity="0.7">
<path opacity="0.7" d="M101.839 96.5425L115.98 109.505L133.513 84.2142L140.584 90.1085L115.98 121.291L95.9443 98.8985L101.839 96.5425Z" fill="url(#paint1_linear)"/>
</g>
<path d="M105.177 97.3213L116.649 107.836L132.902 83.936L138.637 88.7177L116.649 117.396L100.396 99.2323L105.177 97.3213Z" fill="white"/>
<path d="M63.4214 142.403C63.4214 142.403 50.5424 143.9 54.4367 151.688C56.908 156.754 58.8892 162.045 60.3533 167.488L67.1655 166.064C67.1655 166.064 64.4701 153.335 62.0751 151.839L68.5146 150.64L63.4214 142.403Z" fill="#FDA57D"/>
<path opacity="0.05" d="M62.0757 151.839L68.5152 150.64L63.422 142.403C63.422 142.403 63.2718 142.42 63.0103 142.462L68.0673 150.64L61.6278 151.839C64.0256 153.335 66.721 166.064 66.721 166.064L60.3232 167.399L60.3483 167.488L67.1605 166.064C67.1605 166.064 64.4707 153.335 62.0757 151.839Z" fill="black"/>
<path d="M64.4508 164.623C64.4508 164.623 60.473 167.477 54.4369 167.249C54.4369 167.249 51.2269 168.709 55.7693 169.872C60.3117 171.035 67.6413 170.214 68.2171 169.316C68.7929 168.417 67.9779 165.382 66.6371 164.139C65.2964 162.896 64.4508 164.623 64.4508 164.623Z" fill="#009688"/>
<path d="M74.9544 160.673C74.9544 160.673 74.6539 166.515 76.7513 170.707L78.2478 190.926H83.0406C83.0406 190.926 83.0406 181.04 85.2882 175.8C87.5357 170.559 84.0893 164.718 84.0893 164.718L83.7888 158.726L74.9544 160.673Z" fill="#FDA57D"/>
<path d="M77.9496 104.211C81.3402 104.211 84.0887 101.463 84.0887 98.0723C84.0887 94.6818 81.3402 91.9332 77.9496 91.9332C74.5591 91.9332 71.8105 94.6818 71.8105 98.0723C71.8105 101.463 74.5591 104.211 77.9496 104.211Z" fill="#FDA57D"/>
<path d="M81.2431 101.218H73.7549V107.958H81.2431V101.218Z" fill="#FDA57D"/>
<path d="M81.2437 189.427C81.2437 189.427 76.7513 191.374 70.9099 189.878C70.9099 189.878 67.4662 190.626 71.6581 192.723C75.8501 194.821 83.1908 195.569 83.9391 194.818C84.6873 194.067 84.5399 190.923 83.4912 189.427C82.4426 187.93 81.2437 189.427 81.2437 189.427Z" fill="#009688"/>
<path d="M62.1506 120.164L53.3245 142.926C53.3245 142.926 46.5845 144.723 50.031 148.019C50.031 148.019 49.4302 144.873 54.2229 145.772C54.2229 145.772 55.572 148.019 55.572 148.768C55.572 149.516 57.1103 146.264 56.49 144.673C58.09 139.983 60.6273 135.668 63.9475 131.989C63.9475 131.989 67.6916 125.399 67.5414 120.907L62.1506 120.164Z" fill="#FDA57D"/>
<path d="M91.802 112.075C91.802 112.075 96.5948 114.323 98.9898 113.574C100.687 113.043 102.534 109.658 103.468 107.733C103.68 107.293 103.999 106.914 104.395 106.63C104.792 106.345 105.254 106.165 105.738 106.106C107.518 105.892 110.013 105.914 109.324 107.889C108.275 110.885 104.831 111.783 104.831 111.783L99.8882 118.665H91.2012L91.802 112.075Z" fill="#FDA57D"/>
<path d="M76.8264 103.839C80.2999 103.839 83.1157 101.023 83.1157 97.5494C83.1157 94.0759 80.2999 91.2601 76.8264 91.2601C73.3529 91.2601 70.5371 94.0759 70.5371 97.5494C70.5371 101.023 73.3529 103.839 76.8264 103.839Z" fill="#3D213C"/>
<path d="M80.1201 94.5536C82.6841 94.5536 84.7627 93.3805 84.7627 91.9333C84.7627 90.4861 82.6841 89.313 80.1201 89.313C77.5561 89.313 75.4775 90.4861 75.4775 91.9333C75.4775 93.3805 77.5561 94.5536 80.1201 94.5536Z" fill="#3D213C"/>
<path opacity="0.05" d="M74.9795 162.943V163.697L83.9809 162.545V161.686L74.9795 162.943Z" fill="black"/>
<path opacity="0.05" d="M62.3976 142.565L61.7939 142.687L64.7008 151.349L65.0652 151.282L62.3976 142.565Z" fill="black"/>
<path opacity="0.05" d="M94.2725 113.035L94.8677 113.216L95.0597 118.665H94.2725V113.035Z" fill="black"/>
<path opacity="0.05" d="M61.8752 120.868L61.6777 121.383L66.9962 124.709L67.1465 124.128L61.8752 120.868Z" fill="black"/>
<path opacity="0.05" d="M68.0273 139.124L67.1455 139.474C67.1455 139.474 81.9132 146.631 86.7811 140.362L86.6198 139.805C86.6198 139.805 82.1441 145.802 68.0273 139.124Z" fill="black"/>
<path opacity="0.5" d="M45.9777 13.3408C45.7508 13.2375 45.5692 13.0553 45.4669 12.828C45.3645 12.6008 45.3483 12.344 45.4214 12.1057C45.4327 12.0686 45.4402 12.0304 45.4436 11.9917C45.4507 11.8816 45.4221 11.7721 45.3619 11.6797C45.3018 11.5872 45.2134 11.5166 45.1099 11.4785C45.0064 11.4403 44.8933 11.4366 44.7875 11.468C44.6818 11.4993 44.5889 11.5639 44.5229 11.6523C44.5001 11.6831 44.4814 11.7168 44.4673 11.7524C44.367 11.9823 44.1858 12.1673 43.9582 12.2724C43.7305 12.3775 43.4722 12.3954 43.2322 12.3227C43.1954 12.3099 43.157 12.3025 43.1182 12.3004C43.008 12.2899 42.8974 12.3153 42.8029 12.373C42.7084 12.4306 42.6352 12.5173 42.5941 12.6201C42.5531 12.7229 42.5464 12.8362 42.5752 12.943C42.604 13.0499 42.6667 13.1445 42.7538 13.2128C42.7846 13.2356 42.8182 13.2543 42.8539 13.2684C43.0837 13.3687 43.2687 13.5499 43.3738 13.7775C43.479 14.0052 43.4969 14.2635 43.4241 14.5035C43.4125 14.5405 43.405 14.5788 43.4019 14.6175C43.3948 14.7276 43.4235 14.837 43.4836 14.9295C43.5437 15.022 43.6321 15.0926 43.7356 15.1307C43.8392 15.1689 43.9522 15.1726 44.058 15.1412C44.1637 15.1099 44.2566 15.0453 44.3226 14.9569C44.3455 14.9261 44.3642 14.8924 44.3782 14.8568C44.4785 14.6269 44.6597 14.4419 44.8874 14.3368C45.115 14.2317 45.3733 14.2138 45.6133 14.2865C45.6504 14.2979 45.6887 14.3054 45.7273 14.3088C45.8374 14.3159 45.9469 14.2872 46.0393 14.2271C46.1318 14.1669 46.2024 14.0785 46.2405 13.975C46.2787 13.8715 46.2824 13.7585 46.251 13.6527C46.2197 13.5469 46.1551 13.4541 46.0667 13.388C46.0389 13.3689 46.0091 13.3531 45.9777 13.3408Z" fill="#4D8AF0"/>
<path opacity="0.5" d="M5.36575 103.744C5.13633 103.643 4.9517 103.462 4.84666 103.235C4.74162 103.007 4.72343 102.749 4.79552 102.509C4.8069 102.472 4.81435 102.434 4.81777 102.395C4.82487 102.285 4.79622 102.175 4.73607 102.083C4.67593 101.991 4.58752 101.92 4.48402 101.882C4.38051 101.844 4.26745 101.84 4.16168 101.871C4.05591 101.903 3.96309 101.967 3.89705 102.056C3.87421 102.086 3.85551 102.12 3.84142 102.156C3.74113 102.386 3.55997 102.571 3.33232 102.676C3.10466 102.781 2.84634 102.799 2.60637 102.726C2.56958 102.713 2.53119 102.706 2.49232 102.704C2.38338 102.697 2.27503 102.725 2.18309 102.783C2.09116 102.842 2.02045 102.929 1.9813 103.031C1.94216 103.133 1.93662 103.245 1.9655 103.35C1.99438 103.455 2.05617 103.548 2.14183 103.616C2.17264 103.639 2.20631 103.658 2.24197 103.672C2.46925 103.775 2.65119 103.957 2.75363 104.184C2.85607 104.412 2.87196 104.669 2.7983 104.907C2.78662 104.944 2.77916 104.982 2.77605 105.021C2.76895 105.131 2.7976 105.24 2.85774 105.333C2.91789 105.425 3.0063 105.496 3.1098 105.534C3.21331 105.572 3.32637 105.576 3.43214 105.545C3.53791 105.513 3.63073 105.449 3.69677 105.36C3.7196 105.329 3.73831 105.296 3.7524 105.26C3.85269 105.03 4.03385 104.845 4.26151 104.74C4.48916 104.635 4.74748 104.617 4.98745 104.69C5.02459 104.701 5.06281 104.709 5.1015 104.712C5.21158 104.719 5.32101 104.691 5.41349 104.63C5.50596 104.57 5.57653 104.482 5.61468 104.378C5.65283 104.275 5.65652 104.162 5.6252 104.056C5.59387 103.95 5.52922 103.857 5.44086 103.791C5.41748 103.773 5.39232 103.757 5.36575 103.744Z" fill="#4D8AF0"/>
<path opacity="0.5" d="M208.178 72.3227C209.1 72.3227 209.847 71.5754 209.847 70.6537C209.847 69.7319 209.1 68.9847 208.178 68.9847C207.256 68.9847 206.509 69.7319 206.509 70.6537C206.509 71.5754 207.256 72.3227 208.178 72.3227Z" fill="#F55F44"/>
<path opacity="0.5" d="M33.7696 191.655C34.6913 191.655 35.4386 190.908 35.4386 189.986C35.4386 189.064 34.6913 188.317 33.7696 188.317C32.8478 188.317 32.1006 189.064 32.1006 189.986C32.1006 190.908 32.8478 191.655 33.7696 191.655Z" fill="#F55F44"/>
<path opacity="0.5" d="M236.551 136.579C237.473 136.579 238.22 135.831 238.22 134.91C238.22 133.988 237.473 133.241 236.551 133.241C235.629 133.241 234.882 133.988 234.882 134.91C234.882 135.831 235.629 136.579 236.551 136.579Z" fill="#F55F44"/>
<path opacity="0.5" d="M195.909 21.4075C195.679 21.3068 195.495 21.1255 195.39 20.898C195.285 20.6705 195.266 20.4125 195.338 20.1725C195.35 20.1353 195.357 20.0971 195.361 20.0584C195.368 19.9484 195.339 19.8389 195.279 19.7464C195.219 19.654 195.13 19.5834 195.027 19.5453C194.923 19.5071 194.81 19.5034 194.705 19.5347C194.599 19.5661 194.506 19.6307 194.44 19.7191C194.417 19.7499 194.398 19.7836 194.384 19.8192C194.284 20.049 194.103 20.234 193.875 20.3392C193.648 20.4443 193.389 20.4622 193.149 20.3895C193.113 20.3767 193.074 20.3692 193.035 20.3672C192.926 20.3601 192.818 20.388 192.726 20.4469C192.634 20.5058 192.563 20.5925 192.524 20.6944C192.485 20.7963 192.48 20.9081 192.508 21.0133C192.537 21.1186 192.599 21.2119 192.685 21.2796C192.716 21.3024 192.749 21.3211 192.785 21.3352C193.015 21.4355 193.2 21.6167 193.305 21.8443C193.41 22.072 193.428 22.3303 193.355 22.5703C193.343 22.6073 193.336 22.6456 193.333 22.6843C193.326 22.7944 193.354 22.9038 193.415 22.9963C193.475 23.0888 193.563 23.1593 193.667 23.1975C193.77 23.2356 193.883 23.2393 193.989 23.208C194.095 23.1767 194.188 23.112 194.254 23.0237C194.276 22.9929 194.295 22.9592 194.309 22.9235C194.41 22.6937 194.591 22.5087 194.818 22.4036C195.046 22.2985 195.304 22.2806 195.544 22.3533C195.581 22.3647 195.62 22.3721 195.658 22.3755C195.768 22.3826 195.878 22.354 195.97 22.2938C196.063 22.2337 196.133 22.1453 196.172 22.0418C196.21 21.9383 196.213 21.8252 196.182 21.7195C196.151 21.6137 196.086 21.5209 195.998 21.4548C195.97 21.4357 195.94 21.4198 195.909 21.4075Z" fill="#4D8AF0"/>
<path opacity="0.5" d="M223.725 196.095C223.495 195.994 223.311 195.813 223.206 195.585C223.1 195.358 223.082 195.099 223.154 194.86C223.166 194.822 223.173 194.784 223.177 194.745C223.184 194.635 223.155 194.526 223.095 194.433C223.035 194.341 222.946 194.27 222.843 194.232C222.739 194.194 222.626 194.19 222.521 194.222C222.415 194.253 222.322 194.318 222.256 194.406C222.233 194.437 222.214 194.471 222.2 194.506C222.098 194.734 221.915 194.915 221.688 195.018C221.461 195.12 221.204 195.136 220.965 195.063C220.928 195.05 220.89 195.042 220.851 195.04C220.739 195.028 220.625 195.054 220.529 195.113C220.432 195.173 220.358 195.262 220.318 195.368C220.278 195.474 220.274 195.59 220.307 195.698C220.34 195.807 220.408 195.901 220.501 195.967C220.531 195.989 220.565 196.008 220.601 196.022C220.831 196.123 221.016 196.304 221.121 196.531C221.226 196.759 221.244 197.017 221.171 197.257C221.159 197.294 221.152 197.333 221.149 197.371C221.142 197.481 221.17 197.591 221.231 197.683C221.291 197.776 221.379 197.846 221.483 197.885C221.586 197.923 221.699 197.926 221.805 197.895C221.911 197.864 222.003 197.799 222.07 197.711C222.092 197.68 222.111 197.646 222.125 197.611C222.225 197.381 222.407 197.196 222.634 197.091C222.862 196.985 223.12 196.968 223.36 197.04C223.397 197.052 223.436 197.059 223.474 197.063C223.584 197.07 223.694 197.041 223.786 196.981C223.879 196.921 223.949 196.832 223.987 196.729C224.026 196.625 224.029 196.512 223.998 196.406C223.967 196.301 223.902 196.208 223.814 196.142C223.786 196.123 223.756 196.107 223.725 196.095Z" fill="#4D8AF0"/>
<path opacity="0.5" d="M3.41849 50.8929C3.18907 50.7921 3.00444 50.6109 2.8994 50.3834C2.79436 50.1559 2.77616 49.8978 2.84825 49.6578C2.85963 49.6207 2.86709 49.5825 2.87051 49.5438C2.8776 49.4337 2.84895 49.3243 2.78881 49.2318C2.72867 49.1393 2.64026 49.0688 2.53675 49.0306C2.43325 48.9925 2.32019 48.9888 2.21442 49.0201C2.10864 49.0514 2.01582 49.1161 1.94978 49.2044C1.92695 49.2352 1.90825 49.2689 1.89415 49.3046C1.79386 49.5344 1.61271 49.7194 1.38505 49.8245C1.1574 49.9296 0.899076 49.9475 0.659101 49.8748C0.622319 49.8621 0.583925 49.8546 0.545053 49.8526C0.436115 49.8455 0.327765 49.8734 0.235828 49.9323C0.143891 49.9911 0.073186 50.0778 0.0340386 50.1798C-0.00510886 50.2817 -0.0106441 50.3934 0.0182365 50.4987C0.0471171 50.604 0.108902 50.6973 0.194568 50.7649C0.225377 50.7878 0.259043 50.8065 0.294707 50.8206C0.521984 50.9233 0.703928 51.1055 0.806367 51.3329C0.908806 51.5603 0.92469 51.8173 0.851035 52.0556C0.839359 52.0927 0.831893 52.1309 0.828782 52.1697C0.821682 52.2797 0.850337 52.3892 0.910479 52.4816C0.970621 52.5741 1.05903 52.6447 1.16254 52.6828C1.26604 52.721 1.3791 52.7247 1.48487 52.6933C1.59064 52.662 1.68346 52.5974 1.7495 52.509C1.77234 52.4782 1.79104 52.4445 1.80514 52.4089C1.90543 52.1791 2.08659 51.994 2.31424 51.8889C2.5419 51.7838 2.80021 51.7659 3.04019 51.8386C3.07732 51.85 3.11555 51.8575 3.15423 51.8609C3.26432 51.868 3.37375 51.8393 3.46622 51.7792C3.5587 51.7191 3.62927 51.6306 3.66742 51.5271C3.70557 51.4236 3.70925 51.3106 3.67793 51.2048C3.64661 51.099 3.58195 51.0062 3.49359 50.9402C3.47022 50.9219 3.44506 50.9061 3.41849 50.8929Z" fill="#4D8AF0"/>
<path opacity="0.5" d="M22.086 80.6676C23.0077 80.6676 23.755 79.9203 23.755 78.9986C23.755 78.0768 23.0077 77.3296 22.086 77.3296C21.1642 77.3296 20.417 78.0768 20.417 78.9986C20.417 79.9203 21.1642 80.6676 22.086 80.6676Z" fill="#47E6B1"/>
<path opacity="0.5" d="M237.386 94.0195C238.308 94.0195 239.055 93.2723 239.055 92.3505C239.055 91.4287 238.308 90.6815 237.386 90.6815C236.464 90.6815 235.717 91.4287 235.717 92.3505C235.717 93.2723 236.464 94.0195 237.386 94.0195Z" fill="#47E6B1"/>
<g opacity="0.5">
<path opacity="0.5" d="M163.116 0H162.281V4.72879H163.116V0Z" fill="#47E6B1"/>
<path opacity="0.5" d="M165.062 2.78164V1.94714L160.334 1.94714V2.78164L165.062 2.78164Z" fill="#47E6B1"/>
</g>
<g opacity="0.5">
<path opacity="0.5" d="M166.175 185.257H165.341V189.986H166.175V185.257Z" fill="#47E6B1"/>
<path opacity="0.5" d="M168.122 188.039V187.204H163.393V188.039H168.122Z" fill="#47E6B1"/>
</g>
<g opacity="0.5">
<path opacity="0.5" d="M8.17824 195.271H7.34375V200H8.17824V195.271Z" fill="#47E6B1"/>
<path opacity="0.5" d="M10.125 198.053V197.218H5.39621V198.053H10.125Z" fill="#47E6B1"/>
</g>
<g opacity="0.5">
<path opacity="0.5" d="M198.165 110.153H197.33V114.882H198.165V110.153Z" fill="#47E6B1"/>
<path opacity="0.5" d="M200.111 112.935V112.1H195.383V112.935H200.111Z" fill="#47E6B1"/>
</g>
<path opacity="0.5" d="M221.31 34.2197L223.101 35.8609L225.641 32.1279L226.536 32.8762L223.101 37.3546L220.562 34.5174L221.31 34.2197Z" fill="#47E6B1"/>
<path d="M60.7988 140.376L64.9713 152.27C66.9704 151.619 68.9936 151.042 71.0408 150.54C72.0647 150.259 73.1263 150.14 74.1869 150.189C73.3524 150.342 73.4831 150.89 73.2523 151.719C73.0214 152.548 73.0909 153.424 73.141 154.284C73.3142 157.173 73.1987 160.072 72.7961 162.937C77.2123 161.985 81.7138 161.484 86.2314 161.441C85.6001 159.013 85.1831 156.534 84.9852 154.033C84.9101 153.378 84.9101 152.716 84.9852 152.061C85.1187 151.177 85.497 150.348 85.8197 149.51C86.5503 147.583 86.9836 145.555 87.1048 143.497C87.1936 142.704 87.1072 141.902 86.8517 141.146C86.4567 140.159 85.5749 139.43 84.6014 139.001C83.612 138.612 82.5707 138.37 81.5109 138.284C77.5082 137.789 73.586 137.886 69.5694 137.925C68.0283 137.925 67.2745 138.417 65.8865 139.085C65.433 139.299 60.9991 140.951 60.7988 140.376Z" fill="#009688"/>
<path d="M68.5617 108.49C66.1334 109.805 64.2057 111.861 62.3225 113.883L57.6299 118.915C59.9183 119.986 62.1469 121.18 64.3058 122.492C65.1014 122.976 65.9303 123.524 66.3114 124.376C66.6925 125.227 66.5534 126.192 66.3809 127.096C65.6993 130.682 64.5675 134.169 63.0124 137.471C66.7898 138.306 70.6313 139.14 73.9998 141.032C74.851 141.51 75.7078 142.067 76.6813 142.145C77.2662 142.163 77.8504 142.092 78.4143 141.936L86.9595 140.017C87.2305 139.98 87.4873 139.873 87.705 139.708C87.8577 139.548 87.976 139.359 88.0527 139.152C89.5576 135.858 91.0986 132.406 90.9373 128.787C90.8594 127.082 90.406 125.352 90.7954 123.691C91.1848 122.031 92.9011 120.481 94.4922 121.104L95.1932 113.102C95.2738 112.2 95.2905 111.154 94.5868 110.576C94.0972 110.181 93.4157 110.161 92.8176 109.964C91.8719 109.652 91.1487 108.896 90.3142 108.35C88.036 106.857 85.093 107.035 82.3781 107.268C80.0694 107.466 77.7801 107.825 75.4852 107.491C73.0012 107.146 70.8288 107.263 68.5617 108.49Z" fill="#009688"/>
<defs>
<linearGradient id="paint0_linear" x1="120.001" y1="199.288" x2="120.001" y2="0.013916" gradientUnits="userSpaceOnUse">
<stop stop-color="#808080" stop-opacity="0.25"/>
<stop offset="0.54" stop-color="#808080" stop-opacity="0.12"/>
<stop offset="1" stop-color="#808080" stop-opacity="0.1"/>
</linearGradient>
<linearGradient id="paint1_linear" x1="15493.1" y1="13780.3" x2="22656.9" y2="13780.3" gradientUnits="userSpaceOnUse">
<stop stop-color="#808080" stop-opacity="0.25"/>
<stop offset="0.54" stop-color="#808080" stop-opacity="0.12"/>
<stop offset="1" stop-color="#808080" stop-opacity="0.1"/>
</linearGradient>
</defs>
</svg>
