<svg width="240" height="200" viewBox="0 0 240 200" fill="none" xmlns="http://www.w3.org/2000/svg">
<path d="M85.0268 0L12 44.734C12 44.734 12 136.997 85.0268 187.316C158.054 136.989 158.054 44.734 158.054 44.734L85.0268 0Z" fill="#F55F44"/>
<path opacity="0.04" d="M85.4631 0L84.2148 0.762773V186.448C84.6291 186.739 85.0434 187.033 85.4631 187.321C158.487 136.997 158.487 44.734 158.487 44.734L85.4631 0Z" fill="#009688"/>
<path opacity="0.1" d="M64.3385 53.9312H18.3662V55.155H64.3385V53.9312Z" fill="#009688"/>
<path opacity="0.1" d="M64.3385 59.9165H18.3662V61.1404H64.3385V59.9165Z" fill="#009688"/>
<path d="M89.6156 133.28H84.9189V185.765H89.6156V133.28Z" fill="#D6D6E3"/>
<path d="M226.802 138.791V90.3785C226.802 89.0291 227.339 87.7352 228.293 86.7813C229.248 85.8274 230.542 85.2915 231.891 85.2915C233.239 85.294 234.531 85.831 235.483 86.7847C236.435 87.7383 236.97 89.0308 236.971 90.3785V148.97C236.971 150.32 236.435 151.614 235.48 152.569C234.526 153.523 233.231 154.059 231.882 154.059H200.361C199.011 154.059 197.717 153.523 196.762 152.569C195.808 151.614 195.271 150.32 195.271 148.97C195.271 147.62 195.808 146.326 196.762 145.371C197.717 144.417 199.011 143.881 200.361 143.881H221.712C223.062 143.881 224.357 143.344 225.311 142.39C226.266 141.436 226.802 140.141 226.802 138.791Z" fill="#AEBEE1"/>
<path d="M226.802 138.791V90.3785C226.802 89.0291 227.339 87.7352 228.293 86.7813C229.248 85.8274 230.542 85.2915 231.891 85.2915C233.239 85.294 234.531 85.831 235.483 86.7847C236.435 87.7383 236.97 89.0308 236.971 90.3785V148.97C236.971 150.32 236.435 151.614 235.48 152.569C234.526 153.523 233.231 154.059 231.882 154.059H200.361C199.011 154.059 197.717 153.523 196.762 152.569C195.808 151.614 195.271 150.32 195.271 148.97C195.271 147.62 195.808 146.326 196.762 145.371C197.717 144.417 199.011 143.881 200.361 143.881H221.712C223.062 143.881 224.357 143.344 225.311 142.39C226.266 141.436 226.802 140.141 226.802 138.791Z" fill="#535461"/>
<path d="M195.279 148.697C195.349 147.396 195.915 146.172 196.861 145.276C197.806 144.38 199.059 143.881 200.362 143.881H221.713C223.063 143.881 224.357 143.344 225.312 142.39C226.266 141.436 226.802 140.141 226.802 138.791V90.3785C226.802 89.0704 227.304 87.8122 228.207 86.865C229.109 85.9178 230.341 85.3543 231.648 85.2915V148.697H195.279Z" fill="#D6D6E3"/>
<path d="M37.993 140.425V92.0118C37.993 90.664 37.4585 89.3713 36.5066 88.4172C35.5547 87.4631 34.2633 86.9255 32.9156 86.9224C31.5658 86.9224 30.2713 87.4586 29.3168 88.413C28.3624 89.3675 27.8262 90.662 27.8262 92.0118V150.603C27.8246 151.273 27.9551 151.936 28.2101 152.555C28.4652 153.173 28.8398 153.736 29.3126 154.21C29.7853 154.684 30.3469 155.06 30.9652 155.316C31.5834 155.573 32.2462 155.705 32.9156 155.705H64.4339C65.7837 155.705 67.0782 155.168 68.0327 154.214C68.9871 153.26 69.5233 151.965 69.5233 150.615C69.5233 149.265 68.9871 147.971 68.0327 147.017C67.0782 146.062 65.7837 145.526 64.4339 145.526H43.0848C42.4152 145.526 41.7522 145.394 41.1337 145.138C40.5151 144.882 39.9533 144.506 39.4803 144.032C39.0073 143.558 38.6324 142.995 38.3772 142.376C38.122 141.757 37.9914 141.094 37.993 140.425Z" fill="#AEBEE1"/>
<path d="M37.993 140.425V92.0118C37.993 90.664 37.4585 89.3713 36.5066 88.4172C35.5547 87.4631 34.2633 86.9255 32.9156 86.9224C31.5658 86.9224 30.2713 87.4586 29.3168 88.413C28.3624 89.3675 27.8262 90.662 27.8262 92.0118V150.603C27.8246 151.273 27.9551 151.936 28.2101 152.555C28.4652 153.173 28.8398 153.736 29.3126 154.21C29.7853 154.684 30.3469 155.06 30.9652 155.316C31.5834 155.573 32.2462 155.705 32.9156 155.705H64.4339C65.7837 155.705 67.0782 155.168 68.0327 154.214C68.9871 153.26 69.5233 151.965 69.5233 150.615C69.5233 149.265 68.9871 147.971 68.0327 147.017C67.0782 146.062 65.7837 145.526 64.4339 145.526H43.0848C42.4152 145.526 41.7522 145.394 41.1337 145.138C40.5151 144.882 39.9533 144.506 39.4803 144.032C39.0073 143.558 38.6324 142.995 38.3772 142.376C38.122 141.757 37.9914 141.094 37.993 140.425Z" fill="#535461"/>
<path d="M69.5173 150.33C69.4474 149.03 68.8815 147.805 67.9361 146.909C66.9906 146.013 65.7377 145.514 64.4351 145.514H43.086C42.4174 145.514 41.7554 145.383 41.1376 145.127C40.5199 144.872 39.9585 144.497 39.4857 144.024C39.0128 143.552 38.6377 142.99 38.3818 142.373C38.1259 141.755 37.9942 141.093 37.9942 140.425V92.0119C37.9939 90.7058 37.4916 89.4498 36.591 88.5038C35.6905 87.5578 34.4607 86.9942 33.1562 86.9297V150.33H69.5173Z" fill="#D6D6E3"/>
<path d="M182.535 133.28H177.839V186.988H182.535V133.28Z" fill="#D6D6E3"/>
<path opacity="0.1" d="M89.6156 133.28H84.9189V137.16H89.6156V133.28Z" fill="black"/>
<path opacity="0.1" d="M182.535 133.28H177.839V137.16H182.535V133.28Z" fill="black"/>
<path opacity="0.1" d="M101.694 101.319C101.619 102.146 101.524 102.984 101.409 103.834H100.745V101.319H101.694Z" fill="black"/>
<path d="M120.937 127.444C120.952 128.294 120.339 128.991 119.579 128.991H105.245V127.496H117.172C117.687 127.496 118.008 126.874 117.75 126.376L106.934 104.377C106.857 104.219 106.739 104.084 106.591 103.989C106.443 103.893 106.272 103.841 106.096 103.836H100.745V101.321H107.501C107.625 101.324 107.744 101.361 107.848 101.428C107.951 101.495 108.035 101.589 108.088 101.7L120.487 125.65C120.773 126.205 120.927 126.819 120.937 127.444Z" fill="#535461"/>
<path d="M94.6115 123.453L94.4151 123.784L92.5781 122.558L98.2615 78.856H99.7248C99.7248 78.856 99.7847 79.0571 99.8829 79.4403C100.862 83.2173 105.674 104.607 94.6115 123.453Z" fill="#535461"/>
<path opacity="0.1" d="M99.8805 79.4403L94.6115 123.453L94.4151 123.784L92.5781 122.558L98.2615 78.856H99.7248C99.7248 78.856 99.7823 79.0643 99.8805 79.4403Z" fill="black"/>
<path d="M96.3074 78.4035L90.916 123.417L94.3641 123.83L99.7556 78.8165L96.3074 78.4035Z" fill="#D6D6E3"/>
<path d="M79.0997 127.46C79.099 127.569 79.0557 127.673 78.979 127.749C78.9024 127.826 78.7986 127.869 78.6901 127.87H78.077C77.9684 127.87 77.8642 127.827 77.7874 127.75C77.7106 127.673 77.6675 127.569 77.6675 127.46C77.6655 127.444 77.6655 127.428 77.6675 127.412C77.6797 127.314 77.7275 127.223 77.802 127.156C77.8765 127.09 77.9726 127.054 78.0722 127.053H78.6853C78.7764 127.054 78.8645 127.085 78.936 127.142C79.0075 127.198 79.0583 127.276 79.0805 127.365C79.091 127.396 79.0975 127.428 79.0997 127.46Z" fill="#E3EDF9"/>
<path d="M80.9361 127.46C80.9355 127.569 80.8921 127.673 80.8155 127.749C80.7388 127.826 80.635 127.869 80.5266 127.87H79.9135C79.8048 127.87 79.7007 127.827 79.6239 127.75C79.5471 127.673 79.5039 127.569 79.5039 127.46C79.5041 127.422 79.5098 127.384 79.5207 127.348C79.5388 127.281 79.5743 127.221 79.6237 127.173C79.6611 127.135 79.7059 127.105 79.7552 127.084C79.8046 127.063 79.8576 127.053 79.9111 127.053H80.5242C80.6032 127.053 80.6807 127.075 80.7474 127.118C80.8141 127.16 80.8671 127.221 80.9002 127.293C80.9235 127.346 80.9358 127.403 80.9361 127.46Z" fill="#E3EDF9"/>
<path d="M82.569 127.46C82.5684 127.569 82.525 127.673 82.4483 127.749C82.3717 127.826 82.2679 127.869 82.1594 127.87H81.5463C81.4377 127.87 81.3335 127.827 81.2567 127.75C81.1799 127.673 81.1368 127.569 81.1368 127.46C81.1357 127.402 81.148 127.344 81.1727 127.29C81.2059 127.22 81.2583 127.16 81.324 127.117C81.3896 127.075 81.4658 127.052 81.5439 127.051H82.1571C82.2109 127.05 82.2643 127.061 82.3142 127.081C82.364 127.102 82.4093 127.132 82.4474 127.17C82.4854 127.208 82.5156 127.253 82.5361 127.303C82.5565 127.353 82.5669 127.406 82.5666 127.46H82.569Z" fill="#E3EDF9"/>
<path d="M84.4085 127.46C84.4078 127.569 84.3645 127.673 84.2878 127.749C84.2111 127.826 84.1073 127.869 83.9989 127.87H83.3858C83.3109 127.87 83.2375 127.849 83.1735 127.81C83.1095 127.772 83.0574 127.716 83.0228 127.649C82.9882 127.583 82.9726 127.508 82.9774 127.434C82.9823 127.359 83.0076 127.287 83.0505 127.226L83.0984 127.173C83.1359 127.135 83.1806 127.105 83.23 127.084C83.2793 127.063 83.3323 127.053 83.3858 127.053H83.9989C84.0548 127.054 84.1099 127.066 84.1609 127.089C84.212 127.111 84.2579 127.144 84.2959 127.185C84.3679 127.259 84.4083 127.357 84.4085 127.46Z" fill="#E3EDF9"/>
<path opacity="0.1" d="M79.0877 127.362C79.096 127.394 79.1 127.427 79.0997 127.461C79.099 127.569 79.0557 127.673 78.979 127.749C78.9024 127.826 78.7986 127.869 78.6901 127.87H78.077C77.9684 127.87 77.8642 127.827 77.7874 127.75C77.7106 127.673 77.6675 127.569 77.6675 127.461C77.6655 127.445 77.6655 127.429 77.6675 127.413L79.0877 127.362Z" fill="black"/>
<path opacity="0.1" d="M80.9026 127.297C80.9242 127.348 80.9356 127.403 80.9361 127.458C80.9355 127.566 80.8921 127.67 80.8155 127.747C80.7388 127.823 80.635 127.867 80.5266 127.867H79.9135C79.8048 127.867 79.7007 127.824 79.6239 127.747C79.5471 127.671 79.5039 127.566 79.5039 127.458C79.5041 127.42 79.5098 127.382 79.5207 127.345L80.9026 127.297Z" fill="black"/>
<path opacity="0.1" d="M82.5097 127.242C82.55 127.307 82.5715 127.382 82.5719 127.458C82.5713 127.566 82.5279 127.67 82.4513 127.747C82.3746 127.823 82.2708 127.867 82.1624 127.867H81.5493C81.4406 127.867 81.3365 127.824 81.2597 127.747C81.1829 127.671 81.1397 127.566 81.1397 127.458C81.1387 127.399 81.151 127.341 81.1756 127.288L82.5097 127.242Z" fill="black"/>
<path opacity="0.1" d="M84.4085 127.46C84.4078 127.569 84.3645 127.673 84.2878 127.749C84.2111 127.826 84.1073 127.869 83.9989 127.87H83.3858C83.3109 127.87 83.2375 127.849 83.1735 127.81C83.1095 127.772 83.0574 127.716 83.0228 127.65C82.9882 127.583 82.9726 127.508 82.9774 127.434C82.9823 127.359 83.0076 127.287 83.0505 127.226L84.2959 127.183C84.3684 127.257 84.4089 127.357 84.4085 127.46Z" fill="black"/>
<path d="M88.0826 129.094H76.2393V128.555C76.2391 128.315 76.332 128.086 76.4982 127.913C76.6645 127.741 76.8911 127.641 77.1302 127.633L86.6288 127.305C86.8175 127.298 87.0056 127.33 87.1819 127.397C87.3582 127.465 87.519 127.568 87.6549 127.699C87.7907 127.83 87.8988 127.987 87.9727 128.161C88.0466 128.335 88.0848 128.522 88.085 128.71L88.0826 129.094Z" fill="#D6D6E3"/>
<path d="M146.514 127.444C146.5 128.294 147.113 128.991 147.872 128.991H162.213V127.496H150.272C149.757 127.496 149.436 126.874 149.695 126.376L160.51 104.377C160.587 104.219 160.706 104.084 160.853 103.989C161.001 103.893 161.173 103.841 161.349 103.836H166.701V101.321H159.95C159.829 101.326 159.711 101.363 159.609 101.43C159.508 101.496 159.426 101.588 159.373 101.697L146.974 125.647C146.684 126.203 146.527 126.818 146.514 127.444Z" fill="#535461"/>
<path d="M172.842 123.453L173.038 123.784L174.875 122.558L169.192 78.856H167.729C167.729 78.856 167.669 79.0571 167.571 79.4403C166.589 83.2173 161.768 104.607 172.842 123.453Z" fill="#535461"/>
<path opacity="0.1" d="M167.571 79.4403L172.84 123.453L173.037 123.784L174.874 122.558L169.193 78.856H167.729C167.729 78.856 167.669 79.0643 167.571 79.4403Z" fill="black"/>
<path d="M171.149 78.3995L167.701 78.8125L173.093 123.826L176.541 123.413L171.149 78.3995Z" fill="#D6D6E3"/>
<path d="M188.353 127.46C188.353 127.569 188.397 127.673 188.473 127.749C188.55 127.826 188.654 127.869 188.762 127.87H189.375C189.484 127.87 189.588 127.827 189.665 127.75C189.742 127.673 189.785 127.569 189.785 127.46C189.787 127.444 189.787 127.428 189.785 127.412C189.773 127.314 189.725 127.223 189.65 127.156C189.576 127.09 189.48 127.054 189.38 127.053H188.767C188.676 127.054 188.588 127.085 188.516 127.142C188.445 127.198 188.394 127.276 188.372 127.365C188.361 127.396 188.355 127.428 188.353 127.46Z" fill="#E3EDF9"/>
<path d="M186.515 127.46C186.516 127.569 186.559 127.673 186.636 127.749C186.713 127.826 186.817 127.869 186.925 127.87H187.538C187.592 127.87 187.645 127.859 187.695 127.839C187.744 127.818 187.79 127.788 187.828 127.75C187.866 127.712 187.896 127.667 187.916 127.617C187.937 127.567 187.948 127.514 187.948 127.46C187.947 127.422 187.942 127.384 187.931 127.348C187.913 127.281 187.877 127.221 187.828 127.173C187.79 127.135 187.746 127.105 187.696 127.084C187.647 127.063 187.594 127.053 187.54 127.053H186.915C186.836 127.053 186.759 127.075 186.692 127.118C186.626 127.16 186.572 127.221 186.539 127.293C186.52 127.346 186.512 127.403 186.515 127.46Z" fill="#E3EDF9"/>
<path d="M184.882 127.46C184.882 127.569 184.926 127.673 185.002 127.749C185.079 127.826 185.183 127.869 185.291 127.87H185.905C186.013 127.87 186.117 127.827 186.194 127.75C186.271 127.673 186.314 127.569 186.314 127.46C186.315 127.402 186.303 127.344 186.278 127.29C186.245 127.22 186.193 127.16 186.127 127.117C186.061 127.075 185.985 127.052 185.907 127.051H185.294C185.24 127.05 185.187 127.061 185.137 127.081C185.087 127.102 185.042 127.132 185.003 127.17C184.965 127.208 184.935 127.253 184.915 127.303C184.894 127.353 184.884 127.406 184.884 127.46H184.882Z" fill="#E3EDF9"/>
<path d="M183.042 127.46C183.043 127.569 183.086 127.673 183.163 127.749C183.239 127.826 183.343 127.869 183.452 127.87H184.065C184.14 127.87 184.213 127.849 184.277 127.81C184.341 127.772 184.393 127.716 184.428 127.649C184.462 127.583 184.478 127.508 184.473 127.434C184.468 127.359 184.443 127.287 184.4 127.226L184.352 127.173C184.315 127.135 184.27 127.105 184.22 127.084C184.171 127.063 184.118 127.053 184.065 127.053H183.452C183.396 127.054 183.341 127.066 183.29 127.089C183.238 127.111 183.193 127.144 183.155 127.185C183.083 127.259 183.042 127.357 183.042 127.46Z" fill="#E3EDF9"/>
<path opacity="0.1" d="M188.365 127.362C188.356 127.394 188.352 127.427 188.353 127.461C188.353 127.569 188.397 127.673 188.473 127.749C188.55 127.826 188.654 127.869 188.762 127.87H189.375C189.484 127.87 189.588 127.827 189.665 127.75C189.742 127.673 189.785 127.569 189.785 127.461C189.787 127.445 189.787 127.429 189.785 127.413L188.365 127.362Z" fill="black"/>
<path opacity="0.1" d="M186.549 127.297C186.528 127.348 186.516 127.403 186.516 127.458C186.516 127.566 186.56 127.67 186.636 127.747C186.713 127.823 186.817 127.867 186.925 127.867H187.538C187.592 127.867 187.645 127.857 187.695 127.836C187.745 127.816 187.79 127.785 187.828 127.747C187.866 127.709 187.896 127.664 187.917 127.615C187.937 127.565 187.948 127.512 187.948 127.458C187.948 127.42 187.942 127.382 187.931 127.345L186.549 127.297Z" fill="black"/>
<path opacity="0.1" d="M184.942 127.242C184.902 127.307 184.88 127.382 184.88 127.458C184.881 127.566 184.924 127.67 185.001 127.747C185.077 127.823 185.181 127.867 185.289 127.867H185.903C186.011 127.867 186.115 127.824 186.192 127.747C186.269 127.671 186.312 127.566 186.312 127.458C186.313 127.399 186.301 127.341 186.276 127.288L184.942 127.242Z" fill="black"/>
<path opacity="0.1" d="M183.042 127.46C183.043 127.569 183.086 127.673 183.163 127.749C183.239 127.826 183.343 127.869 183.452 127.87H184.065C184.14 127.87 184.213 127.849 184.277 127.81C184.341 127.772 184.393 127.716 184.428 127.65C184.462 127.583 184.478 127.508 184.473 127.434C184.468 127.359 184.443 127.287 184.4 127.226L183.155 127.183C183.082 127.257 183.042 127.357 183.042 127.46Z" fill="black"/>
<path d="M179.369 129.094H191.212V128.555C191.212 128.315 191.119 128.086 190.953 127.913C190.787 127.741 190.56 127.641 190.321 127.633L180.822 127.305C180.634 127.298 180.446 127.33 180.269 127.397C180.093 127.465 179.932 127.568 179.796 127.699C179.66 127.83 179.552 127.987 179.479 128.161C179.405 128.335 179.366 128.522 179.366 128.71L179.369 129.094Z" fill="#D6D6E3"/>
<path d="M228.941 135.586C234.466 126.215 232.464 107.311 232.686 106.949C232.885 106.631 232.124 97.7284 227.046 95.5537C226.129 93.7359 225.226 91.6882 225.226 91.6882C225.137 91.7717 225.039 91.8448 224.934 91.9061C224.894 91.7976 224.855 91.6874 224.816 91.5756C224.752 91.3864 224.692 91.1924 224.632 90.9984C224.774 91.0438 224.919 91.0806 225.066 91.1086C225.453 91.2031 225.86 91.1669 226.225 91.0056C226.349 90.9389 226.461 90.8524 226.558 90.7493C226.958 90.4835 227.178 90.0045 227.365 89.5518L228.843 86.012C229.508 84.4145 230.179 82.8075 230.533 81.1142C231.061 78.5661 230.857 75.9207 229.944 73.4837C229.595 72.5544 229.111 71.6252 228.289 71.0695C226.644 69.9535 224.354 70.7247 222.474 70.0708C221.856 69.8553 221.298 69.4912 220.68 69.2709C219.346 68.7919 217.84 69.0481 216.556 69.6445C215.272 70.2409 214.233 71.1893 213.11 72.0395C212.556 72.4634 211.673 72.9017 211.021 73.4765C210.389 73.9699 209.903 74.5663 209.996 75.3518C210.102 76.2499 211.048 76.7888 211.929 76.9996C212.075 77.0331 212.226 77.0595 212.374 77.0858C211.328 78.1455 210.575 79.4581 210.186 80.8957C209.798 82.3333 209.789 83.8469 210.16 85.2891C210.531 86.7313 211.268 88.0529 212.302 89.1252C213.335 90.1975 214.628 90.984 216.056 91.408C216.505 92.2519 216.894 93.1267 217.22 94.0257C217.263 94.1487 217.305 94.2724 217.346 94.3969C215.895 94.8089 214.76 95.1514 214.532 95.3406C213.845 95.9106 215.284 100.902 215.284 100.902C214.918 101.366 214.544 101.896 214.166 102.463C211.296 106.822 209.479 111.788 208.859 116.97C208.619 118.864 208.308 120.802 207.912 122.644L190.747 119.202L190.712 119.626L190.302 119.525L189.013 119.207L188.963 119.497L188.767 119.403C185.574 117.906 180.195 115.995 176.552 117.966C172.708 120.036 181.005 122.785 186.329 124.248C184.564 124.335 182.875 124.759 181.539 125.75C177.678 128.643 188.597 130.15 193.753 130.684L193.962 130.705V130.815L195.748 130.981L196.167 131.019L196.208 131.656C196.208 131.656 198.766 132.075 202.184 132.583C198.282 133.558 193.461 134.233 190.113 134.628C186.563 135.045 183.541 137.517 182.588 140.963C182.28 141.951 182.25 143.005 182.501 144.01C183.498 147.49 182.281 173.09 182.006 178.603L175.695 182.236C175.695 182.236 165.875 183.434 172.416 185.736C173.005 185.937 173.608 186.097 174.219 186.215C173.357 186.77 173.432 187.496 175.973 188.387C182.518 190.681 197.734 188.286 197.734 188.286C197.734 188.286 197.401 185.589 196.86 183.348L197.027 183.362C197.027 183.362 195.456 177.516 197.839 174.568C200.222 171.619 197.439 149.18 197.439 149.18C197.439 149.18 201.611 147.454 214.082 147.341C224.141 149.923 229.044 140.681 228.974 135.902C228.953 135.795 228.948 135.685 228.941 135.586Z" fill="url(#paint0_linear)"/>
<path d="M191.765 121.063L190.7 125.374C190.7 125.374 189.742 125.159 188.305 124.79C183.438 123.53 173.173 120.505 177.288 118.285C180.835 116.369 186.058 118.232 189.16 119.686C190.295 120.22 191.148 120.699 191.528 120.924C191.689 121.015 191.765 121.063 191.765 121.063Z" fill="#72351C"/>
<path opacity="0.1" d="M191.466 122.28L190.7 125.393C190.7 125.393 189.742 125.178 188.305 124.809L189.169 119.705C190.305 120.239 191.157 120.718 191.538 120.943L191.466 122.28Z" fill="black"/>
<path d="M191.468 125.688L188.493 124.953L189.418 119.501L191.796 120.088L191.468 125.688Z" fill="#D9DFE8"/>
<path opacity="0.1" d="M191.468 125.688L190.185 125.372L190.668 119.811L191.796 120.088L191.468 125.688Z" fill="black"/>
<path d="M220.17 103.11C220.17 103.11 214.458 99.8098 211.919 109.277C209.38 118.745 209.141 123.106 209.141 123.106L191.102 119.499L190.529 126.088C190.529 126.088 209.816 132.315 212.242 131.862C214.669 131.41 222.541 118.211 222.541 118.211C222.541 118.211 229.697 107.982 220.17 103.11Z" fill="#009688"/>
<g opacity="0.1">
<path opacity="0.1" d="M191.765 121.063L190.7 125.374C190.7 125.374 189.742 125.159 188.305 124.79C183.438 123.53 173.173 120.505 177.288 118.285C180.835 116.369 186.058 118.232 189.16 119.686C190.295 120.22 191.148 120.699 191.528 120.924C191.689 121.015 191.765 121.063 191.765 121.063Z" fill="black"/>
<path opacity="0.1" d="M191.466 122.28L190.7 125.394C190.7 125.394 189.742 125.178 188.305 124.809L189.169 119.706C190.305 120.24 191.157 120.719 191.538 120.944L191.466 122.28Z" fill="black"/>
<path opacity="0.1" d="M191.469 125.688L188.494 124.953L189.419 119.502L191.797 120.089L191.469 125.688Z" fill="black"/>
<path opacity="0.1" d="M191.468 125.688L190.185 125.372L190.668 119.811L191.796 120.089L191.468 125.688Z" fill="black"/>
<path opacity="0.1" d="M220.17 103.35C220.17 103.35 214.458 100.05 211.919 109.517C209.38 118.985 209.141 123.346 209.141 123.346L191.102 119.739L190.529 126.328C190.529 126.328 209.816 132.555 212.242 132.102C214.669 131.649 222.541 118.45 222.541 118.45C222.541 118.45 229.697 108.221 220.17 103.35Z" fill="black"/>
</g>
<path d="M183.838 176.469L176.474 180.711C176.474 180.711 166.932 181.879 173.288 184.107C179.645 186.334 194.422 184.009 194.422 184.009C194.422 184.009 193.6 177.37 192.456 176.443C191.311 175.516 183.838 176.469 183.838 176.469Z" fill="#68739D"/>
<path d="M212.542 128.881C212.542 128.881 208.877 130.797 202.368 132.452C198.552 133.41 193.777 134.09 190.476 134.478C188.787 134.662 187.19 135.343 185.889 136.436C184.587 137.529 183.64 138.984 183.167 140.616C182.865 141.579 182.836 142.607 183.083 143.586C184.168 147.377 182.549 178.196 182.549 178.196L193.734 179.231C193.734 179.231 192.208 173.552 194.524 170.69C196.84 167.828 194.136 146.043 194.136 146.043C194.136 146.043 198.188 144.367 210.297 144.257C221.516 147.131 226.138 134.851 224.406 131.41C222.675 127.968 212.542 128.881 212.542 128.881Z" fill="#6394E2"/>
<g opacity="0.1">
<path opacity="0.1" d="M183.838 176.469L176.474 180.711C176.474 180.711 166.932 181.879 173.288 184.107C179.645 186.334 194.422 184.009 194.422 184.009C194.422 184.009 193.6 177.37 192.456 176.443C191.311 175.516 183.838 176.469 183.838 176.469Z" fill="black"/>
<path opacity="0.1" d="M212.543 128.881C212.543 128.881 208.878 130.797 202.369 132.452C198.553 133.41 193.778 134.09 190.477 134.478C188.788 134.662 187.191 135.343 185.89 136.436C184.588 137.529 183.641 138.984 183.168 140.616C182.866 141.579 182.837 142.607 183.084 143.586C184.169 147.377 182.55 178.196 182.55 178.196L193.734 179.231C193.734 179.231 192.209 173.552 194.525 170.69C196.841 167.828 194.137 146.043 194.137 146.043C194.137 146.043 198.189 144.367 210.298 144.257C221.517 147.131 226.139 134.851 224.407 131.41C222.676 127.968 212.543 128.881 212.543 128.881Z" fill="black"/>
</g>
<path d="M187.291 179.044L179.927 183.285C179.927 183.285 170.39 184.445 176.741 186.682C183.093 188.919 197.875 186.583 197.875 186.583C197.875 186.583 197.054 179.944 195.909 179.018C194.764 178.091 187.291 179.044 187.291 179.044Z" fill="#68739D"/>
<path d="M213.74 146.831C201.631 146.942 197.578 148.618 197.578 148.618C197.578 148.618 200.282 170.413 197.966 173.265C195.65 176.118 197.176 181.806 197.176 181.806L185.991 180.771C185.991 180.771 186.01 180.407 186.041 179.756C186.31 174.4 187.49 149.54 186.52 146.161C186.276 145.185 186.305 144.161 186.604 143.201C187.075 141.566 188.021 140.109 189.322 139.013C190.623 137.918 192.221 137.234 193.912 137.048C197.209 136.662 201.985 135.992 205.8 135.022L205.987 134.974C212.382 133.331 215.974 131.451 215.974 131.451C215.974 131.451 226.108 130.541 227.839 133.982C228.083 134.528 228.204 135.121 228.194 135.719C228.28 140.363 223.514 149.339 213.74 146.831Z" fill="#6394E2"/>
<path d="M196.871 126.435L196.462 130.866C196.462 130.866 195.477 130.797 194.014 130.643C189.016 130.124 178.413 128.663 182.161 125.853C185.385 123.439 190.826 124.493 194.11 125.47C195.307 125.829 196.227 126.177 196.637 126.342C196.787 126.399 196.871 126.435 196.871 126.435Z" fill="#72351C"/>
<path d="M226.619 97.4673C226.619 97.4673 225.12 98.6409 223.288 99.9294C221.278 100.384 218.946 100.76 217.264 101.005C217.865 99.0887 217.504 96.9332 216.826 95.0435C216.089 93.069 215.077 91.2081 213.82 89.5159L223.956 86.3521C223.161 88.3663 223.52 90.6631 224.195 92.6605C224.792 94.361 225.607 95.9768 226.619 97.4673Z" fill="#72351C"/>
<path opacity="0.1" d="M196.757 127.683L196.462 130.866C196.462 130.866 195.478 130.797 194.015 130.643L194.11 125.468C195.308 125.827 196.228 126.174 196.637 126.34L196.757 127.683Z" fill="black"/>
<path d="M197.266 131.053L194.215 130.77L194.315 125.243L196.756 125.468L197.266 131.053Z" fill="#D9DFE8"/>
<path opacity="0.1" d="M226.619 97.4677C226.619 97.4677 225.12 98.6412 223.288 99.9298C221.278 100.385 218.946 100.761 217.264 101.005C217.866 99.0891 217.504 96.9336 216.826 95.0439C219.303 94.3254 222.845 93.3962 224.198 92.6489C224.793 94.3534 225.607 95.9733 226.619 97.4677Z" fill="black"/>
<path d="M224.594 92.7686C224.594 92.7686 226.289 96.6173 227.357 98.3561C228.426 100.095 214.946 101.709 214.946 101.709C214.946 101.709 213.548 96.864 214.216 96.3084C214.884 95.7527 223.466 93.8942 224.594 92.7686Z" fill="#D9DFE8"/>
<path opacity="0.1" d="M228.212 135.721C227.645 136.721 226.939 137.636 226.114 138.437C220.16 144.094 210.401 138.197 205.996 134.974C212.391 133.331 215.983 131.451 215.983 131.451C215.983 131.451 226.117 130.541 227.848 133.982C228.096 134.528 228.22 135.122 228.212 135.721Z" fill="black"/>
<path d="M226.153 138.032C219.385 144.46 207.712 135.948 204.565 133.44C204.055 133.033 203.77 132.782 203.77 132.782C205.013 131.618 206.105 129.151 206.969 126.133C207.775 123.246 208.357 120.301 208.71 117.324C209.313 112.292 211.077 107.468 213.865 103.235C214.231 102.684 214.583 102.169 214.949 101.719C217.505 98.4685 221.799 96.404 221.799 96.404C230.862 93.7551 232.081 107.198 231.839 107.586C231.597 107.974 234.021 130.557 226.153 138.032Z" fill="#009688"/>
<path opacity="0.1" d="M227.03 119.655C227.03 119.655 221.203 133.881 218.872 134.693C217.538 135.156 210.413 134.279 204.565 133.443C204.055 133.036 203.77 132.785 203.77 132.785C205.013 131.621 206.105 129.154 206.969 126.136L214.502 126.495C214.502 126.495 214.082 122.151 215.189 112.408C216.295 102.665 222.429 105.079 222.429 105.079C232.577 108.478 227.03 119.655 227.03 119.655Z" fill="black"/>
<path opacity="0.1" d="M197.267 131.053L195.949 130.931L195.6 125.362L196.756 125.468L197.267 131.053Z" fill="black"/>
<path d="M222.282 104.452C222.282 104.452 216.148 102.04 215.042 111.78C213.935 121.521 214.354 125.868 214.354 125.868L195.978 124.989L196.392 131.589C196.392 131.589 216.393 134.873 218.723 134.063C221.053 133.254 226.88 119.025 226.88 119.025C226.88 119.025 232.42 107.848 222.282 104.452Z" fill="#009688"/>
<path opacity="0.1" d="M222.694 90.0286C222.426 88.5725 223.947 88.5916 224.493 87.2217L214.357 90.3855C215.061 91.33 215.689 92.3287 216.235 93.3721C216.761 93.5282 217.301 93.6325 217.847 93.6834C220.264 93.9133 221.018 91.5351 222.694 90.0286Z" fill="black"/>
<path d="M226.411 85.2426C226.837 80.638 223.449 76.5602 218.844 76.1347C214.24 75.7092 210.162 79.097 209.736 83.7016C209.311 88.3063 212.699 92.384 217.303 92.8096C221.908 93.2351 225.986 89.8473 226.411 85.2426Z" fill="#72351C"/>
<path opacity="0.1" d="M209.811 76.9086C209.914 77.7804 210.834 78.3121 211.689 78.5084C212.544 78.7048 213.471 78.7144 214.22 79.1719C215.418 79.9095 215.741 81.5477 215.59 82.956C215.506 83.7511 215.387 84.7259 216.038 85.1881C216.243 85.3134 216.471 85.395 216.709 85.4276C217.388 85.5652 218.086 85.5895 218.773 85.4995C219.176 85.4468 219.59 85.3558 219.971 85.4684C220.598 85.6504 220.969 86.3114 221.092 86.9509C221.214 87.5903 221.147 88.2561 221.245 88.9004C221.382 89.7071 221.76 90.4534 222.329 91.0408C222.899 91.6283 223.633 92.0294 224.435 92.1912C224.811 92.2826 225.207 92.2473 225.561 92.0906C226.016 91.8511 226.248 91.3409 226.444 90.8643L227.881 87.4251C228.528 85.8755 229.18 84.3116 229.524 82.6686C230.037 80.194 229.838 77.625 228.952 75.2584C228.612 74.3579 228.142 73.455 227.345 72.9137C225.747 71.8288 223.513 72.5784 221.698 71.9557C221.096 71.7473 220.555 71.3929 219.956 71.1797C218.661 70.7175 217.197 70.9618 215.949 71.5438C214.702 72.1257 213.693 73.043 212.596 73.8789C211.646 74.619 209.631 75.4021 209.811 76.9086Z" fill="black"/>
<path d="M210.032 76.7245C210.135 77.5963 211.055 78.128 211.91 78.3244C212.765 78.5208 213.692 78.5303 214.442 78.9878C215.639 79.7254 215.963 81.3636 215.812 82.7719C215.728 83.5671 215.608 84.5418 216.259 85.0041C216.464 85.1294 216.692 85.2109 216.93 85.2436C217.61 85.3811 218.307 85.4054 218.995 85.3154C219.397 85.2627 219.811 85.1717 220.192 85.2843C220.82 85.4663 221.191 86.1273 221.313 86.7668C221.435 87.4063 221.368 88.0721 221.466 88.7163C221.603 89.523 221.981 90.2693 222.551 90.8567C223.12 91.4442 223.854 91.8453 224.656 92.0071C225.032 92.0985 225.428 92.0632 225.782 91.9065C226.237 91.667 226.469 91.1568 226.666 90.6802L228.103 87.241C228.749 85.6914 229.401 84.1275 229.746 82.4845C230.258 80.0099 230.059 77.4409 229.173 75.0743C228.833 74.1738 228.364 73.2709 227.566 72.7296C225.969 71.6447 223.734 72.3943 221.919 71.7716C221.318 71.5633 220.776 71.2088 220.178 70.9956C218.882 70.5334 217.419 70.7777 216.171 71.3597C214.923 71.9417 213.915 72.859 212.818 73.6948C211.869 74.4349 209.855 75.218 210.032 76.7245Z" fill="#3F3D56"/>
<path opacity="0.1" d="M216.968 109.802C216.968 109.802 213.77 122.222 210.587 123.372C207.404 124.521 208.81 124.847 208.81 124.847" fill="black"/>
<path d="M217.12 155.302H213.645V178.143H217.12V155.302Z" fill="#D6D6E3"/>
<path opacity="0.1" d="M217.12 155.302H213.645V156.996H217.12V155.302Z" fill="black"/>
<path d="M206.69 155.182V155.661C206.69 155.809 206.719 155.955 206.776 156.091C206.832 156.227 206.915 156.351 207.019 156.456C207.124 156.56 207.248 156.643 207.384 156.699C207.52 156.756 207.666 156.785 207.814 156.785H222.945C223.093 156.785 223.239 156.756 223.375 156.699C223.512 156.643 223.635 156.56 223.74 156.456C223.844 156.351 223.927 156.227 223.983 156.091C224.04 155.955 224.069 155.809 224.069 155.661V155.182C224.069 155.035 224.04 154.889 223.983 154.752C223.927 154.616 223.844 154.492 223.74 154.388C223.635 154.284 223.512 154.201 223.375 154.145C223.239 154.088 223.093 154.059 222.945 154.059H207.814C207.666 154.059 207.52 154.088 207.384 154.145C207.248 154.201 207.124 154.284 207.019 154.388C206.915 154.492 206.832 154.616 206.776 154.752C206.719 154.889 206.69 155.035 206.69 155.182Z" fill="#D6D6E3"/>
<path opacity="0.1" d="M206.95 154.469H223.813C223.708 154.34 223.576 154.237 223.426 154.166C223.276 154.095 223.112 154.059 222.946 154.059H207.815C207.649 154.059 207.486 154.096 207.336 154.167C207.187 154.238 207.055 154.341 206.95 154.469Z" fill="black"/>
<path d="M228.342 176.9H202.426C201.698 176.9 201.108 177.49 201.108 178.218V178.313C201.108 179.041 201.698 179.631 202.426 179.631H228.342C229.07 179.631 229.659 179.041 229.659 178.313V178.218C229.659 177.49 229.07 176.9 228.342 176.9Z" fill="#D6D6E3"/>
<path d="M228.044 183.108C229.005 183.108 229.783 182.33 229.783 181.37C229.783 180.409 229.005 179.631 228.044 179.631C227.084 179.631 226.306 180.409 226.306 181.37C226.306 182.33 227.084 183.108 228.044 183.108Z" fill="#535461"/>
<path d="M202.72 183.108C203.681 183.108 204.459 182.33 204.459 181.37C204.459 180.409 203.681 179.631 202.72 179.631C201.76 179.631 200.981 180.409 200.981 181.37C200.981 182.33 201.76 183.108 202.72 183.108Z" fill="#535461"/>
<path d="M215.383 183.108C216.344 183.108 217.122 182.33 217.122 181.37C217.122 180.409 216.344 179.631 215.383 179.631C214.423 179.631 213.645 180.409 213.645 181.37C213.645 182.33 214.423 183.108 215.383 183.108Z" fill="#535461"/>
<path d="M236.964 127.247H213.725C212.601 127.247 211.689 128.159 211.689 129.283V129.431C211.689 130.556 212.601 131.467 213.725 131.467H236.964C238.088 131.467 239 130.556 239 129.431V129.283C239 128.159 238.088 127.247 236.964 127.247Z" fill="#D6D6E3"/>
<path opacity="0.1" d="M217.12 176.9C217.12 176.9 215.755 178.249 213.645 176.9H217.12Z" fill="black"/>
<path opacity="0.1" d="M239 129.4V129.733C239 130.194 238.817 130.635 238.491 130.961C238.166 131.287 237.724 131.47 237.263 131.47H213.426C212.965 131.47 212.524 131.287 212.198 130.961C211.872 130.635 211.689 130.194 211.689 129.733V129.4H239Z" fill="black"/>
<path d="M193.562 133.28H188.865V193.122H193.562V133.28Z" fill="#D6D6E3"/>
<path opacity="0.1" d="M193.562 133.28H188.865V137.16H193.562V133.28Z" fill="black"/>
<path d="M51.1548 156.936H47.6797V179.777H51.1548V156.936Z" fill="#D6D6E3"/>
<path opacity="0.1" d="M51.1548 156.936H47.6797V158.629H51.1548V156.936Z" fill="black"/>
<path d="M58.1038 156.818V157.297C58.1038 157.595 57.9854 157.881 57.7748 158.092C57.5641 158.302 57.2784 158.421 56.9805 158.421H41.8488C41.5509 158.421 41.2652 158.302 41.0546 158.092C40.8439 157.881 40.7256 157.595 40.7256 157.297V156.818C40.7281 156.522 40.8476 156.239 41.0579 156.03C41.2683 155.822 41.5526 155.705 41.8488 155.705H56.9805C57.128 155.705 57.2741 155.734 57.4104 155.79C57.5467 155.847 57.6705 155.929 57.7748 156.034C57.8791 156.138 57.9618 156.262 58.0183 156.398C58.0747 156.534 58.1038 156.68 58.1038 156.828V156.818Z" fill="#D6D6E3"/>
<path opacity="0.1" d="M57.8481 156.102H40.9824C41.0887 155.976 41.2215 155.875 41.3714 155.806C41.5213 155.738 41.6845 155.703 41.8494 155.705H56.9811C57.146 155.703 57.3092 155.738 57.4591 155.806C57.609 155.875 57.7418 155.976 57.8481 156.102Z" fill="black"/>
<path d="M62.3753 178.534H36.4589C35.7314 178.534 35.1416 179.123 35.1416 179.851V179.947C35.1416 180.674 35.7314 181.264 36.4589 181.264H62.3753C63.1028 181.264 63.6925 180.674 63.6925 179.947V179.851C63.6925 179.123 63.1028 178.534 62.3753 178.534Z" fill="#D6D6E3"/>
<path d="M36.7554 184.742C37.7157 184.742 38.4942 183.963 38.4942 183.003C38.4942 182.043 37.7157 181.264 36.7554 181.264C35.7951 181.264 35.0166 182.043 35.0166 183.003C35.0166 183.963 35.7951 184.742 36.7554 184.742Z" fill="#535461"/>
<path d="M62.0776 184.742C63.0379 184.742 63.8164 183.963 63.8164 183.003C63.8164 182.043 63.0379 181.264 62.0776 181.264C61.1173 181.264 60.3389 182.043 60.3389 183.003C60.3389 183.963 61.1173 184.742 62.0776 184.742Z" fill="#535461"/>
<path d="M49.4155 184.742C50.3758 184.742 51.1543 183.963 51.1543 183.003C51.1543 182.043 50.3758 181.264 49.4155 181.264C48.4552 181.264 47.6768 182.043 47.6768 183.003C47.6768 183.963 48.4552 184.742 49.4155 184.742Z" fill="#535461"/>
<path opacity="0.1" d="M47.6797 178.534C47.6797 178.534 49.0448 179.882 51.1548 178.534H47.6797Z" fill="black"/>
<path d="M136.335 109.773C136.335 109.773 132.436 102.686 133.861 96.5264C134.474 93.9465 134.235 91.2371 133.178 88.8049C132.67 87.6546 132.059 86.553 131.351 85.5142" stroke="#535461" stroke-width="2" stroke-miterlimit="10"/>
<path d="M132.216 81.6246C132.419 82.5538 131.329 85.6171 131.329 85.6171C131.329 85.6171 129.057 83.2939 128.851 82.3646C128.782 82.1375 128.76 81.8986 128.788 81.6629C128.816 81.4271 128.892 81.1997 129.012 80.9948C129.132 80.79 129.293 80.6121 129.485 80.4724C129.677 80.3327 129.895 80.2342 130.127 80.183C130.359 80.1319 130.599 80.1292 130.832 80.1752C131.065 80.2211 131.285 80.3147 131.48 80.4501C131.675 80.5854 131.84 80.7596 131.965 80.9618C132.089 81.1639 132.171 81.3895 132.204 81.6246H132.216Z" fill="#009688"/>
<path d="M136.127 86.158C135.794 87.049 133.214 89.0321 133.214 89.0321C133.214 89.0321 132.568 85.8467 132.903 84.9605C132.975 84.7399 133.091 84.536 133.243 84.3612C133.396 84.1864 133.582 84.0442 133.791 83.9432C134 83.8422 134.227 83.7844 134.459 83.7734C134.691 83.7624 134.922 83.7984 135.14 83.8791C135.357 83.9599 135.556 84.0838 135.725 84.2433C135.893 84.4029 136.028 84.5949 136.12 84.8077C136.213 85.0206 136.261 85.2499 136.263 85.482C136.264 85.714 136.219 85.944 136.129 86.158H136.127Z" fill="#009688"/>
<path d="M137.937 94.9768C137.2 95.5779 133.974 95.9827 133.974 95.9827C133.974 95.9827 135.025 92.9075 135.763 92.3064C135.938 92.1613 136.14 92.0523 136.357 91.9857C136.575 91.9191 136.803 91.8962 137.029 91.9184C137.256 91.9405 137.475 92.0073 137.676 92.1148C137.876 92.2223 138.053 92.3685 138.197 92.5448C138.34 92.7211 138.448 92.9241 138.512 93.1421C138.577 93.3601 138.598 93.5888 138.574 93.8149C138.55 94.041 138.481 94.2601 138.372 94.4595C138.263 94.6589 138.115 94.8347 137.937 94.9768Z" fill="#009688"/>
<path d="M137.806 101.956C137.18 102.674 134.069 103.618 134.069 103.618C134.069 103.618 134.584 100.409 135.209 99.6925C135.356 99.5142 135.536 99.3671 135.74 99.2599C135.944 99.1527 136.168 99.0876 136.398 99.0685C136.627 99.0493 136.859 99.0765 137.078 99.1484C137.297 99.2203 137.499 99.3354 137.673 99.487C137.847 99.6386 137.988 99.8235 138.089 100.031C138.19 100.238 138.248 100.464 138.26 100.694C138.273 100.924 138.238 101.154 138.16 101.371C138.081 101.588 137.96 101.787 137.803 101.956H137.806Z" fill="#009688"/>
<path d="M129.722 89.9831C130.532 90.4837 133.782 90.4621 133.782 90.4621C133.782 90.4621 132.345 87.5474 131.535 87.0468C131.343 86.9204 131.127 86.8339 130.901 86.7922C130.675 86.7505 130.443 86.7546 130.218 86.8042C129.993 86.8537 129.781 86.9478 129.593 87.0809C129.406 87.214 129.246 87.3833 129.125 87.5788C129.004 87.7744 128.923 87.9923 128.888 88.2196C128.852 88.4469 128.863 88.679 128.918 88.9022C128.974 89.1254 129.074 89.3352 129.212 89.5192C129.35 89.7032 129.523 89.8577 129.722 89.9735V89.9831Z" fill="#009688"/>
<path d="M129.675 98.1499C130.597 98.3894 133.694 97.4026 133.694 97.4026C133.694 97.4026 131.45 95.0507 130.528 94.816C130.093 94.7235 129.639 94.8028 129.261 95.0372C128.884 95.2716 128.611 95.643 128.501 96.0737C128.391 96.5043 128.451 96.9609 128.67 97.3479C128.889 97.7349 129.249 98.0222 129.675 98.1499Z" fill="#009688"/>
<path d="M130.712 106.092C131.579 106.48 134.8 106.035 134.8 106.035C134.8 106.035 132.985 103.338 132.118 102.95C131.701 102.763 131.227 102.75 130.8 102.913C130.373 103.076 130.029 103.402 129.842 103.819C129.656 104.236 129.643 104.71 129.806 105.137C129.969 105.564 130.295 105.908 130.712 106.094V106.092Z" fill="#009688"/>
<path d="M132.216 81.6246C132.419 82.5538 131.329 85.6171 131.329 85.6171C131.329 85.6171 129.057 83.2939 128.851 82.3646C128.782 82.1375 128.76 81.8986 128.788 81.6629C128.816 81.4271 128.892 81.1997 129.012 80.9948C129.132 80.79 129.293 80.6121 129.485 80.4724C129.677 80.3327 129.895 80.2342 130.127 80.183C130.359 80.1319 130.599 80.1292 130.832 80.1752C131.065 80.2211 131.285 80.3147 131.48 80.4501C131.675 80.5854 131.84 80.7596 131.965 80.9618C132.089 81.1639 132.171 81.3895 132.204 81.6246H132.216Z" fill="#009688"/>
<path d="M136.127 86.158C135.794 87.049 133.214 89.0321 133.214 89.0321C133.214 89.0321 132.568 85.8467 132.903 84.9605C132.975 84.7399 133.091 84.536 133.243 84.3612C133.396 84.1864 133.582 84.0442 133.791 83.9432C134 83.8422 134.227 83.7844 134.459 83.7734C134.691 83.7624 134.922 83.7984 135.14 83.8791C135.357 83.9599 135.556 84.0838 135.725 84.2433C135.893 84.4029 136.028 84.5949 136.12 84.8077C136.213 85.0206 136.261 85.2499 136.263 85.482C136.264 85.714 136.219 85.944 136.129 86.158H136.127Z" fill="#009688"/>
<path d="M137.937 94.9768C137.2 95.5779 133.974 95.9827 133.974 95.9827C133.974 95.9827 135.025 92.9075 135.763 92.3064C135.938 92.1613 136.14 92.0523 136.357 91.9857C136.575 91.9191 136.803 91.8962 137.029 91.9184C137.256 91.9405 137.475 92.0073 137.676 92.1148C137.876 92.2223 138.053 92.3685 138.197 92.5448C138.34 92.7211 138.448 92.9241 138.512 93.1421C138.577 93.3601 138.598 93.5888 138.574 93.8149C138.55 94.041 138.481 94.2601 138.372 94.4595C138.263 94.6589 138.115 94.8347 137.937 94.9768Z" fill="#009688"/>
<path d="M137.806 101.956C137.18 102.674 134.069 103.618 134.069 103.618C134.069 103.618 134.584 100.409 135.209 99.6925C135.356 99.5142 135.536 99.3671 135.74 99.2599C135.944 99.1527 136.168 99.0876 136.398 99.0685C136.627 99.0493 136.859 99.0765 137.078 99.1484C137.297 99.2203 137.499 99.3354 137.673 99.487C137.847 99.6386 137.988 99.8235 138.089 100.031C138.19 100.238 138.248 100.464 138.26 100.694C138.273 100.924 138.238 101.154 138.16 101.371C138.081 101.588 137.96 101.787 137.803 101.956H137.806Z" fill="#009688"/>
<path d="M129.722 89.9831C130.532 90.4837 133.782 90.4621 133.782 90.4621C133.782 90.4621 132.345 87.5474 131.535 87.0468C131.343 86.9204 131.127 86.8339 130.901 86.7922C130.675 86.7505 130.443 86.7546 130.218 86.8042C129.993 86.8537 129.781 86.9478 129.593 87.0809C129.406 87.214 129.246 87.3833 129.125 87.5788C129.004 87.7744 128.923 87.9923 128.888 88.2196C128.852 88.4469 128.863 88.679 128.918 88.9022C128.974 89.1254 129.074 89.3352 129.212 89.5192C129.35 89.7032 129.523 89.8577 129.722 89.9735V89.9831Z" fill="#009688"/>
<path d="M129.675 98.1499C130.597 98.3894 133.694 97.4026 133.694 97.4026C133.694 97.4026 131.45 95.0507 130.528 94.816C130.093 94.7235 129.639 94.8028 129.261 95.0372C128.884 95.2716 128.611 95.643 128.501 96.0737C128.391 96.5043 128.451 96.9609 128.67 97.3479C128.889 97.7349 129.249 98.0222 129.675 98.1499Z" fill="#009688"/>
<path d="M130.712 106.092C131.579 106.48 134.8 106.035 134.8 106.035C134.8 106.035 132.985 103.338 132.118 102.95C131.701 102.763 131.227 102.75 130.8 102.913C130.373 103.076 130.029 103.402 129.842 103.819C129.656 104.236 129.643 104.71 129.806 105.137C129.969 105.564 130.295 105.908 130.712 106.094V106.092Z" fill="#009688"/>
<path d="M134.75 129.429C134.189 129.429 133.634 129.314 133.119 129.092C132.604 128.869 132.14 128.543 131.756 128.134C131.372 127.725 131.076 127.242 130.886 126.714C130.696 126.186 130.616 125.625 130.652 125.065L131.799 106.887H137.7L138.847 125.065C138.883 125.625 138.803 126.186 138.613 126.714C138.423 127.242 138.127 127.725 137.743 128.134C137.359 128.543 136.895 128.869 136.38 129.092C135.866 129.314 135.311 129.429 134.75 129.429Z" fill="#009688"/>
<path opacity="0.7" d="M26.2651 40.064H22.9121V53.955H26.2651V40.064Z" fill="#009688"/>
<path opacity="0.8" d="M30.5757 40.064H27.2227V53.955H30.5757V40.064Z" fill="white"/>
<path opacity="0.8" d="M34.8872 40.064H31.5342V53.955H34.8872V40.064Z" fill="white"/>
<path opacity="0.8" d="M39.1968 40.064H35.8438V53.955H39.1968V40.064Z" fill="white"/>
<path opacity="0.5" d="M47.8198 40.064H44.4668V53.955H47.8198V40.064Z" fill="black"/>
<path opacity="0.8" d="M52.1304 40.064H48.7773V53.955H52.1304V40.064Z" fill="white"/>
<path opacity="0.7" d="M26.2651 42.6987H22.9121V43.4172H26.2651V42.6987Z" fill="#F5F5F5"/>
<path opacity="0.7" d="M26.2651 51.3208H22.9121V52.0393H26.2651V51.3208Z" fill="white"/>
<path opacity="0.1" d="M30.5757 42.6987H27.2227V43.4172H30.5757V42.6987Z" fill="#009688"/>
<path opacity="0.1" d="M30.5757 51.3208H27.2227V52.0393H30.5757V51.3208Z" fill="#009688"/>
<path opacity="0.1" d="M34.8872 42.6987H31.5342V43.4172H34.8872V42.6987Z" fill="#009688"/>
<path opacity="0.1" d="M34.8872 51.3208H31.5342V52.0393H34.8872V51.3208Z" fill="#009688"/>
<path opacity="0.1" d="M39.1968 42.6987H35.8438V43.4172H39.1968V42.6987Z" fill="#009688"/>
<path opacity="0.1" d="M39.1968 51.3208H35.8438V52.0393H39.1968V51.3208Z" fill="#009688"/>
<path d="M43.5093 42.6987H40.1562V43.4172H43.5093V42.6987Z" fill="#E0E0E0"/>
<path d="M43.5093 51.3208H40.1562V52.0393H43.5093V51.3208Z" fill="#E0E0E0"/>
<path opacity="0.6" d="M47.8198 42.6987H44.4668V43.4172H47.8198V42.6987Z" fill="white"/>
<path opacity="0.6" d="M47.8198 51.3208H44.4668V52.0393H47.8198V51.3208Z" fill="white"/>
<path opacity="0.1" d="M52.1304 42.6987H48.7773V43.4172H52.1304V42.6987Z" fill="#009688"/>
<path opacity="0.1" d="M52.1304 51.3208H48.7773V52.0393H52.1304V51.3208Z" fill="#009688"/>
<path opacity="0.8" d="M43.5093 40.064H40.1562V53.955H43.5093V40.064Z" fill="#FFCA28"/>
<path opacity="0.9" d="M55.284 40.0006L52.2412 41.4092L58.0766 54.0151L61.1195 52.6066L55.284 40.0006Z" fill="white"/>
<path opacity="0.1" d="M56.3924 42.3937L53.3496 43.8022L53.6514 44.4543L56.6942 43.0457L56.3924 42.3937Z" fill="#009688"/>
<path opacity="0.1" d="M60.0116 50.2169L56.9688 51.6255L57.2706 52.2775L60.3134 50.869L60.0116 50.2169Z" fill="#009688"/>
<path d="M85.0885 183.298L79.0028 179.415C78.9717 173.948 78.8855 148.563 80.0231 145.167C80.3165 144.184 80.3331 143.139 80.071 142.147C79.2806 138.695 76.397 136.118 72.9027 135.551C69.6072 135.014 64.8651 134.135 61.0474 133C64.4507 132.648 67.0014 132.344 67.0014 132.344L67.0685 131.714L69.2599 131.609V131.515L69.4683 131.503C74.5864 131.199 85.455 130.186 81.7619 127.154C80.4949 126.114 78.8424 125.623 77.0988 125.458C82.4301 124.242 90.7623 121.885 87.0477 119.669C83.5174 117.567 78.1119 119.219 74.8858 120.563L74.687 120.647L74.6511 120.357L73.3626 120.615L72.953 120.697L72.9339 120.275L54.8539 123.068C54.7122 120.996 54.466 118.933 54.1162 116.886C54.521 114.19 56.4035 110.257 55.7401 108.147C54.9689 105.697 51.8027 104.895 50.471 102.682C50.1214 102.104 49.7741 101.563 49.434 101.089C48.6897 100.077 47.8341 99.1528 46.8833 98.3323C46.9409 96.9093 47.2591 95.509 47.8222 94.2009C48.1831 93.3258 48.6057 92.4775 49.0867 91.6622C51.1941 91.1394 53.0227 89.8324 54.1994 88.0076C55.3761 86.1829 55.8124 83.978 55.4191 81.8427C56.5639 82.3336 57.9555 82.3839 58.6716 81.4259L58.3315 81.2942C58.365 81.2583 58.3985 81.2223 58.4273 81.1816C57.7303 80.9158 56.9903 80.614 56.4442 80.1302C56.3059 79.9749 56.1891 79.8017 56.0969 79.6153C55.7664 78.9447 55.8047 78.14 55.4886 77.4598C55.3398 77.1501 55.1286 76.8745 54.8683 76.6503C54.3137 76.0832 53.6121 75.6818 52.8421 75.4911C51.9775 75.2396 51.0674 75.1127 50.2387 74.7726C49.1094 73.4612 47.6185 72.5118 45.9524 72.0433C44.2864 71.5747 42.5192 71.6077 40.8718 72.1381L40.5725 72.2411C40.7804 71.2386 40.5864 70.1946 40.0324 69.3337C39.4783 68.4729 38.6084 67.8639 37.6099 67.6379C36.6114 67.4119 35.5641 67.5869 34.6933 68.1253C33.8226 68.6637 33.198 69.5224 32.9539 70.5166C33.0299 69.6438 33.3977 68.822 33.9982 68.1839C33.9359 68.2366 33.8712 68.2869 33.8113 68.342C33.4374 68.6936 33.1363 69.1154 32.9254 69.5834C32.7144 70.0514 32.5977 70.5563 32.5819 71.0694C32.5661 71.5825 32.6516 72.0936 32.8333 72.5737C33.0151 73.0538 33.2896 73.4933 33.6413 73.8673L33.7108 73.9343C33.9873 74.2727 34.3184 74.5624 34.6903 74.7917C34.0058 74.55 33.4021 74.1223 32.9469 73.5568C32.4917 72.9912 32.2031 72.31 32.1133 71.5896C32.1133 71.671 32.1133 71.7525 32.1133 71.8291C32.1432 72.3438 32.2746 72.8475 32.4999 73.3112C32.7253 73.7749 33.0401 74.1894 33.4264 74.5309C33.8126 74.8723 34.2626 75.1341 34.7504 75.3009C35.2382 75.4678 35.7542 75.5365 36.2686 75.5031L36.3764 75.4911L36.3189 75.5701C35.2051 77.2083 34.6772 79.1745 34.8206 81.1503C34.9641 83.126 35.7705 84.9954 37.1093 86.4554C37.2682 86.8196 37.4796 87.1585 37.7368 87.4613C37.8271 87.5648 37.9239 87.6623 38.0266 87.7535C38.6825 88.4456 39.5795 88.8589 40.5317 88.9079C40.6914 89.0979 40.8615 89.2808 41.0419 89.4564C40.884 90.1283 40.6775 90.7879 40.424 91.4299C39.9136 92.7084 39.2782 93.9334 38.5271 95.0871C33.3539 96.5576 32.8988 105.343 33.0857 105.675C33.3084 106.073 32.3145 119.868 36.1465 136.533C35.9884 141.296 38.7666 149.174 48.6293 147.097C60.9636 147.756 65.0088 149.645 65.0088 149.645C65.0088 149.645 63.8376 171.098 65.5093 174.221C66.5559 176.177 65.8135 179.051 65.0303 181.08C64.74 181.582 64.5085 182.115 64.3405 182.67C64.101 183.176 63.9262 183.482 63.9262 183.482H64.0939C63.4616 185.678 63.0137 188.33 63.0137 188.33C63.0137 188.33 77.9658 191.364 84.5425 189.379C87.0956 188.607 87.2009 187.894 86.3723 187.305C86.9826 187.215 87.586 187.083 88.1781 186.909C94.7596 184.924 85.0885 183.298 85.0885 183.298Z" fill="url(#paint1_linear)"/>
<path d="M52.5546 81.4594C52.5546 83.1647 52.049 84.8317 51.1016 86.2496C50.1542 87.6675 48.8076 88.7726 47.2321 89.4252C45.6566 90.0778 43.923 90.2485 42.2505 89.9158C40.578 89.5831 39.0417 88.762 37.8359 87.5561C36.6301 86.3503 35.8089 84.814 35.4762 83.1415C35.1435 81.469 35.3143 79.7354 35.9669 78.1599C36.6194 76.5845 37.7246 75.2379 39.1424 74.2905C40.5603 73.3431 42.2273 72.8374 43.9326 72.8374C45.0649 72.8374 46.186 73.0604 47.2321 73.4937C48.2782 73.927 49.2287 74.5621 50.0293 75.3627C50.8299 76.1634 51.465 77.1139 51.8983 78.1599C52.3316 79.206 52.5546 80.3272 52.5546 81.4594Z" fill="#444053"/>
<path d="M71.9766 121.966L72.8507 126.33C72.8507 126.33 73.8231 126.155 75.2625 125.851C80.1795 124.809 90.569 122.237 86.5454 119.837C83.0846 117.775 77.7845 119.397 74.6231 120.714C73.4639 121.193 72.5921 121.638 72.2017 121.847C72.0556 121.921 71.9766 121.966 71.9766 121.966Z" fill="#A36468"/>
<path opacity="0.1" d="M72.2227 123.197L72.8502 126.33C72.8502 126.33 73.8226 126.155 75.262 125.851L74.6225 120.713C73.4633 121.192 72.5916 121.638 72.2012 121.846L72.2227 123.197Z" fill="black"/>
<path d="M72.0726 126.6L75.076 125.999L74.3958 120.512L71.9912 120.994L72.0726 126.6Z" fill="#D9DFE8"/>
<path opacity="0.1" d="M72.0726 126.6L73.3683 126.339L73.1312 120.766L71.9912 120.994L72.0726 126.6Z" fill="black"/>
<path d="M44.3908 102.775C44.3908 102.775 50.237 99.7283 52.3614 109.301C54.4858 118.874 54.5169 123.238 54.5169 123.238L72.6998 120.428L72.9825 127.036C72.9825 127.036 53.4392 132.408 51.037 131.848C48.6348 131.287 41.342 117.753 41.342 117.753C41.342 117.753 34.6599 107.227 44.3908 102.775Z" fill="#009688"/>
<g opacity="0.1">
<path opacity="0.1" d="M71.9775 121.966L72.8517 126.33C72.8517 126.33 73.8241 126.155 75.2635 125.851C80.1805 124.809 90.57 122.237 86.5464 119.837C83.0856 117.775 77.7854 119.396 74.624 120.713C73.4648 121.192 72.5931 121.638 72.2027 121.846C72.0566 121.92 71.9775 121.966 71.9775 121.966Z" fill="#A36468"/>
<path opacity="0.1" d="M72.2237 123.197L72.8512 126.33C72.8512 126.33 73.8236 126.155 75.263 125.851L74.6235 120.713C73.4643 121.192 72.5925 121.638 72.2021 121.846L72.2237 123.197Z" fill="black"/>
<path opacity="0.1" d="M72.0726 126.6L75.076 125.999L74.3958 120.512L71.9912 120.994L72.0726 126.6Z" fill="black"/>
<path opacity="0.1" d="M72.0726 126.6L73.3683 126.339L73.1312 120.766L71.9912 120.994L72.0726 126.6Z" fill="black"/>
<path opacity="0.1" d="M44.8703 103.254C44.8703 103.254 50.7165 100.207 52.8409 109.78C54.9653 119.353 54.9964 123.717 54.9964 123.717L73.1793 120.907L73.4619 127.515C73.4619 127.515 53.9187 132.887 51.5165 132.327C49.1143 131.766 41.8214 118.232 41.8214 118.232C41.8214 118.232 35.1394 107.706 44.8703 103.254Z" fill="black"/>
</g>
<path d="M77.4631 177.669L84.6337 182.22C84.6337 182.22 94.1156 183.808 87.6658 185.755C81.2161 187.702 66.5586 184.725 66.5586 184.725C66.5586 184.725 67.6723 178.129 68.8578 177.255C70.0433 176.381 77.4631 177.669 77.4631 177.669Z" fill="#535461"/>
<path d="M50.8788 128.857C50.8788 128.857 54.4545 130.933 60.8851 132.873C64.6549 134.011 69.397 134.89 72.6734 135.424C74.3542 135.683 75.9199 136.436 77.1715 137.588C78.4232 138.739 79.3043 140.237 79.7028 141.89C79.96 142.862 79.9442 143.887 79.6572 144.85C78.4071 148.591 78.6609 179.451 78.6609 179.451L67.4427 179.99C67.4427 179.99 69.2174 174.383 67.0307 171.423C64.8441 168.463 68.5061 146.819 68.5061 146.819C68.5061 146.819 64.5328 144.965 52.4379 144.321C41.1024 146.716 37.0284 134.226 38.9109 130.864C40.7934 127.501 50.8788 128.857 50.8788 128.857Z" fill="#96A2D0"/>
<g opacity="0.1">
<path opacity="0.1" d="M77.4641 177.669L84.6347 182.22C84.6347 182.22 94.1166 183.808 87.6668 185.755C81.217 187.702 66.5596 184.725 66.5596 184.725C66.5596 184.725 67.6733 178.129 68.8588 177.255C70.0443 176.381 77.4641 177.669 77.4641 177.669Z" fill="black"/>
<path opacity="0.1" d="M50.8788 128.857C50.8788 128.857 54.4545 130.933 60.8851 132.873C64.6549 134.011 69.397 134.89 72.6734 135.424C74.3542 135.683 75.9199 136.436 77.1715 137.588C78.4232 138.739 79.3043 140.237 79.7028 141.89C79.96 142.862 79.9442 143.887 79.6572 144.85C78.4071 148.591 78.6609 179.451 78.6609 179.451L67.4427 179.99C67.4427 179.99 69.2174 174.383 67.0307 171.423C64.8441 168.463 68.5061 146.819 68.5061 146.819C68.5061 146.819 64.5328 144.965 52.4379 144.321C41.1024 146.716 37.0284 134.226 38.9109 130.864C40.7934 127.501 50.8788 128.857 50.8788 128.857Z" fill="black"/>
</g>
<path d="M73.8898 180.09L81.0605 184.641C81.0605 184.641 90.5424 186.229 84.0926 188.176C77.6428 190.123 62.9854 187.146 62.9854 187.146C62.9854 187.146 64.099 180.55 65.2846 179.676C66.4701 178.802 73.8898 180.09 73.8898 180.09Z" fill="#67647E"/>
<path d="M48.8768 146.74C60.9716 147.384 64.9449 149.238 64.9449 149.238C64.9449 149.238 63.7977 170.271 65.4239 173.332C67.1603 176.579 63.8719 182.409 63.8719 182.409L75.0902 181.87C75.0902 181.87 75.0902 181.506 75.0902 180.854C75.0566 175.494 74.9752 150.605 76.0889 147.269C76.3759 146.305 76.3916 145.281 76.1344 144.309C75.7356 142.656 74.8545 141.158 73.6029 140.007C72.3513 138.856 70.7857 138.102 69.105 137.842C65.8263 137.311 61.0865 136.432 57.3168 135.294L57.1324 135.237C50.8167 133.321 47.3128 131.278 47.3128 131.278C47.3128 131.278 39.8428 130.76 37.9723 134.123C37.7328 134.559 36.7005 135.416 36.6574 136.108C36.3772 140.74 39.0141 148.816 48.8768 146.74Z" fill="#96A2D0"/>
<path d="M66.6396 127.108L66.8528 131.554C66.8528 131.554 67.8395 131.527 69.3101 131.439C74.3276 131.139 84.9854 130.148 81.3642 127.175C78.2507 124.62 72.7661 125.434 69.4442 126.265C68.2251 126.572 67.2887 126.878 66.8815 127.025C66.7235 127.077 66.6396 127.108 66.6396 127.108Z" fill="#A36468"/>
<path d="M38.1855 96.857C38.1855 96.857 39.6226 98.0952 41.4044 99.4651C43.3923 100.006 45.7155 100.488 47.3752 100.806C46.8603 98.8544 47.3177 96.7348 48.0769 94.8691C48.9008 92.9284 49.9941 91.1135 51.3246 89.4779L41.3374 85.8687C42.0439 87.9164 41.5769 90.2036 40.8177 92.1603C40.1475 93.8333 39.2627 95.4121 38.1855 96.857Z" fill="#A36468"/>
<path opacity="0.1" d="M66.7002 128.361L66.8535 131.553C66.8535 131.553 67.8402 131.527 69.3108 131.438L69.4449 126.263C68.2258 126.569 67.2894 126.876 66.8822 127.022L66.7002 128.361Z" fill="black"/>
<path d="M66.0439 131.704L69.1024 131.558L69.2461 126.03L66.7984 126.148L66.0439 131.704Z" fill="#D9DFE8"/>
<path d="M36.8753 137.402C43.3419 144.124 55.4007 136.135 58.6436 133.768C59.1705 133.383 59.4651 133.146 59.4651 133.146C58.2676 131.927 56.3516 130.799 55.6163 127.745C54.9148 124.628 54.4394 121.465 54.1937 118.28C53.9949 115.753 56.6054 110.942 55.851 108.542C55.0966 106.142 51.9902 105.354 50.685 103.182C50.3425 102.617 50.0024 102.085 49.6671 101.62C47.2577 98.2672 43.0593 96.0087 43.0593 96.0087C34.1139 92.9551 33.4121 105.73 33.6349 106.128C33.8576 106.525 32.8349 120.608 36.8753 137.402Z" fill="#009688"/>
<path opacity="0.1" d="M36.8076 119.004C36.8076 119.004 42.0024 133.474 44.2944 134.387C45.6069 134.909 52.7656 134.346 58.6429 133.769C59.1698 133.383 59.4644 133.146 59.4644 133.146C58.2669 131.927 57.2921 129.415 56.5592 126.364L49.0174 126.39C49.0174 126.39 49.6281 122.079 48.9527 112.286C48.2773 102.493 42.0431 104.646 42.0431 104.646C31.7613 107.594 36.8076 119.004 36.8076 119.004Z" fill="black"/>
<path opacity="0.1" d="M66.0439 131.704L67.3636 131.642L67.96 126.093L66.7984 126.148L66.0439 131.704Z" fill="black"/>
<path d="M42.2205 104.023C42.2205 104.023 48.4475 101.884 49.1301 111.663C49.8127 121.442 49.2019 125.767 49.2019 125.767L67.6004 125.7L66.8939 132.277C66.8939 132.277 46.7758 134.672 44.4766 133.764C42.1774 132.856 36.9874 118.383 36.9874 118.383C36.9874 118.383 31.9363 106.971 42.2205 104.023Z" fill="#009688"/>
<path opacity="0.1" d="M42.448 89.6025C42.7809 88.1655 41.2505 88.12 40.7715 86.7285L50.7635 90.321C50.0192 91.2335 49.3481 92.2033 48.7565 93.2214C48.2243 93.354 47.6804 93.4342 47.1326 93.4609C44.7041 93.5806 44.055 91.1784 42.448 89.6025Z" fill="black"/>
<path d="M47.7029 92.6218C52.3218 92.3999 55.8864 88.4757 55.6645 83.8568C55.4426 79.2378 51.5184 75.6733 46.8995 75.8952C42.2805 76.117 38.716 80.0413 38.9379 84.6602C39.1597 89.2791 43.084 92.8437 47.7029 92.6218Z" fill="#A36468"/>
<path opacity="0.1" d="M42.9756 110.233C42.9756 110.233 45.6245 122.78 48.7524 124.062C51.8802 125.343 50.4624 125.616 50.4624 125.616" fill="black"/>
<path opacity="0.1" d="M53.8916 117.32C53.8916 117.32 51.6786 118.012 49.1016 114.705L53.8916 117.32Z" fill="black"/>
<path d="M37.2275 76.4297C39.3439 76.4297 41.0595 74.714 41.0595 72.5976C41.0595 70.4813 39.3439 68.7656 37.2275 68.7656C35.1112 68.7656 33.3955 70.4813 33.3955 72.5976C33.3955 74.714 35.1112 76.4297 37.2275 76.4297Z" fill="#444053"/>
<path d="M34.5352 74.6216C33.8691 73.9113 33.4983 72.974 33.4983 72.0002C33.4983 71.0265 33.8691 70.0892 34.5352 69.3789C34.4729 69.4292 34.4107 69.4795 34.3532 69.5346C33.6125 70.2308 33.1788 71.1926 33.1473 72.2086C33.1159 73.2246 33.4893 74.2115 34.1855 74.9521C34.8817 75.6927 35.8436 76.1265 36.8596 76.1579C37.8755 76.1894 38.8624 75.8159 39.603 75.1197C39.6629 75.0647 39.7156 75.0048 39.7683 74.9473C39.0179 75.5682 38.0593 75.8801 37.0873 75.8196C36.1153 75.7591 35.2028 75.3307 34.5352 74.6216Z" fill="#67647E"/>
<path d="M36.7246 76.0679C35.752 76.1264 34.7937 75.8123 34.0445 75.1895C33.2953 74.5666 32.8114 73.6817 32.6914 72.7148C32.6914 72.7939 32.6914 72.8729 32.6914 72.9543C32.7549 73.9688 33.2188 74.9164 33.981 75.5888C34.3584 75.9217 34.7977 76.177 35.2738 76.3402C35.7499 76.5033 36.2535 76.5711 36.7557 76.5397C37.258 76.5082 37.7492 76.3781 38.2012 76.1569C38.6532 75.9356 39.0572 75.6275 39.3902 75.2501C39.7231 74.8726 39.9784 74.4334 40.1416 73.9573C40.3047 73.4812 40.3725 72.9776 40.3411 72.4753C40.3411 72.3939 40.3243 72.3173 40.3147 72.2358C40.3167 73.2116 39.9463 74.1513 39.2792 74.8634C38.6121 75.5755 37.6984 76.0063 36.7246 76.0679Z" fill="#67647E"/>
<path opacity="0.1" d="M50.3873 75.9294C51.2807 76.37 52.3033 76.4922 53.2614 76.77C54.2194 77.0478 55.1965 77.5556 55.618 78.4609C55.927 79.1267 55.8911 79.9147 56.2144 80.5733C56.679 81.5313 57.752 81.972 58.7387 82.348C57.8909 83.4856 56.0707 83.1767 54.8828 82.4031C53.6948 81.6295 52.6722 80.4871 51.2903 80.1877C50.6085 80.0532 49.9018 80.1327 49.2668 80.4152C48.6319 80.6977 48.0998 81.1695 47.7432 81.766C47.3648 82.4294 47.2307 83.203 47.0439 83.9407C46.5649 85.8854 45.6069 87.8206 43.9304 88.9247C42.2539 90.0288 39.7559 90.0216 38.441 88.5103C37.6746 87.629 37.4184 86.4291 37.1908 85.2843C37.0613 84.7505 36.9993 84.2025 37.0064 83.6533C37.083 82.2785 37.9979 81.1074 38.9224 80.0871C40.0121 78.8896 41.1713 77.74 42.3305 76.5976C43.3316 75.6108 44.486 73.9391 45.9949 73.8217C47.7337 73.6828 48.9623 75.2324 50.3873 75.9294Z" fill="black"/>
<path d="M50.1481 75.6896C51.0414 76.1303 52.0641 76.2524 53.0221 76.5303C53.9801 76.8081 54.9573 77.3158 55.3788 78.2211C55.6877 78.8869 55.6518 79.6749 55.9751 80.3335C56.4398 81.2915 57.5127 81.7322 58.4995 82.1082C57.6517 83.2459 55.8314 82.9369 54.6435 82.1633C53.4556 81.3897 52.4329 80.2473 51.051 79.9479C50.3692 79.8135 49.6625 79.8929 49.0276 80.1755C48.3927 80.458 47.8605 80.9298 47.504 81.5263C47.1256 82.1897 46.9915 82.9633 46.8046 83.7009C46.3256 85.6457 45.3676 87.5808 43.6911 88.6849C42.0146 89.789 39.5166 89.7819 38.2018 88.2706C37.4354 87.3892 37.1791 86.1893 36.9516 85.0445C36.822 84.5107 36.76 83.9628 36.7672 83.4135C36.8438 82.0388 37.7587 80.8676 38.6832 79.8473C39.7729 78.6498 40.9321 77.5002 42.0913 76.3578C43.0924 75.3711 44.2468 73.6994 45.7556 73.582C47.4944 73.4431 48.723 74.9927 50.1481 75.6896Z" fill="#444053"/>
<path d="M51.0724 128.88H27.8336C26.7093 128.88 25.7979 129.792 25.7979 130.916V131.065C25.7979 132.189 26.7093 133.1 27.8336 133.1H51.0724C52.1967 133.1 53.1082 132.189 53.1082 131.065V130.916C53.1082 129.792 52.1967 128.88 51.0724 128.88Z" fill="#D6D6E3"/>
<path opacity="0.1" d="M25.7979 131.036V131.369C25.7979 131.83 25.9808 132.271 26.3064 132.597C26.6321 132.922 27.0737 133.105 27.5342 133.105H51.3718C51.8323 133.105 52.274 132.922 52.5996 132.597C52.9252 132.271 53.1082 131.83 53.1082 131.369V131.036H25.7979Z" fill="black"/>
<path d="M78.5892 133.28H73.8926V193.115H78.5892V133.28Z" fill="#D6D6E3"/>
<path opacity="0.1" d="M78.5892 133.28H73.8926V137.16H78.5892V133.28Z" fill="black"/>
<path d="M195.808 128.991H71.6455V136.751H195.808V128.991Z" fill="#D6D6E3"/>
<defs>
<linearGradient id="paint0_linear" x1="198.841" y1="191.085" x2="209.938" y2="67.7873" gradientUnits="userSpaceOnUse">
<stop stop-color="#808080" stop-opacity="0.25"/>
<stop offset="0.54" stop-color="#808080" stop-opacity="0.12"/>
<stop offset="1" stop-color="#808080" stop-opacity="0.1"/>
</linearGradient>
<linearGradient id="paint1_linear" x1="19261.4" y1="86851.9" x2="19261.4" y2="24202.2" gradientUnits="userSpaceOnUse">
<stop stop-color="#808080" stop-opacity="0.25"/>
<stop offset="0.54" stop-color="#808080" stop-opacity="0.12"/>
<stop offset="1" stop-color="#808080" stop-opacity="0.1"/>
</linearGradient>
</defs>
</svg>
