<svg width="240" height="200" viewBox="0 0 240 200" fill="none" xmlns="http://www.w3.org/2000/svg">
<g opacity="0.5">
<path opacity="0.5" d="M86.8408 145.689C86.754 140.816 84.763 136.17 81.294 132.746C78.1693 129.677 73.9676 126.155 69.4147 124.024H69.3869C67.4586 123.085 65.3925 122.461 63.267 122.175V114.613C64.8201 113.222 66.1035 111.556 67.0527 109.699V110.305C67.0527 110.305 74.3051 102.979 74.1387 94.3811C74.245 89.218 71.7628 83.5372 63.438 78.6652C44.1075 67.3868 36.7025 83.7868 35.2927 87.5817C35.2019 87.7654 35.1336 87.9594 35.0893 88.1595L35.0339 88.3351C35.0101 88.5131 35.0101 88.6934 35.0339 88.8713V88.9268C35.0278 89.0222 35.0278 89.1179 35.0339 89.2134C35.0339 90.4799 36.1109 91.6447 37.9367 92.5969C36.5015 94.7396 35.5754 97.1821 35.2293 99.7377C34.8833 102.293 35.1263 104.894 35.94 107.341C36.7536 109.789 38.1163 112.017 39.9237 113.857C41.7311 115.696 43.9354 117.098 46.3678 117.955V122.808L45.9934 122.101C45.9934 122.101 43.4095 123.65 40.0768 126.025C34.4931 130.005 26.8015 136.31 25.646 141.52C23.797 149.84 25.646 185.052 25.646 185.052L87.6127 185.977L86.8408 145.689ZM67.1451 109.639L67.1682 109.616L67.1451 109.639ZM35.1957 89.4768V89.5046V89.4768ZM35.3112 89.7496V89.7865V89.7496ZM35.4592 90.0177L35.4869 90.0639L35.4592 90.0177ZM35.6394 90.2811L35.6764 90.332L35.6394 90.2811ZM35.852 90.54L35.9029 90.5954L35.852 90.54ZM36.097 90.7942L36.1571 90.8543L36.097 90.7942ZM38.1956 92.1809L38.2603 92.2133L38.1956 92.1809ZM36.3744 91.0299L36.4483 91.0947L36.3744 91.0299ZM36.6794 91.2749L36.7673 91.3396L36.6794 91.2749ZM37.0169 91.5107L37.1186 91.58L37.0169 91.5107ZM37.382 91.7418L37.5022 91.8111L37.382 91.7418ZM37.7749 91.9636L37.909 92.0376L37.7749 91.9636Z" fill="url(#paint0_linear)"/>
</g>
<path d="M60.7104 114.98H46.8555V139.919H60.7104V114.98Z" fill="#72351C"/>
<path opacity="0.05" d="M46.8555 117.059C48.407 117.445 49.0743 117.751 50.8134 117.751C54.4695 117.752 57.9958 116.803 60.7104 115.089V114.98H46.8555V117.059Z" fill="black"/>
<path d="M52.3974 117.751C61.5797 117.751 69.0234 110.308 69.0234 101.125C69.0234 91.9432 61.5797 84.4995 52.3974 84.4995C43.2152 84.4995 35.7715 91.9432 35.7715 101.125C35.7715 110.308 43.2152 117.751 52.3974 117.751Z" fill="#72351C"/>
<path d="M51.012 95.5835C59.429 95.5835 66.2524 93.1023 66.2524 90.0415C66.2524 86.9807 59.429 84.4995 51.012 84.4995C42.5949 84.4995 35.7715 86.9807 35.7715 90.0415C35.7715 93.1023 42.5949 95.5835 51.012 95.5835Z" fill="black"/>
<path d="M53.7548 91.4263L67.5402 99.4845V109.438C67.5402 109.438 85.5235 91.9829 63.9454 79.8979C42.3674 67.8129 35.7715 89.1098 35.7715 89.1098C35.7715 89.1098 41.7643 93.7293 53.7548 91.4263Z" fill="black"/>
<path d="M67.6375 106.667C68.4026 106.667 69.0229 105.427 69.0229 103.896C69.0229 102.366 68.4026 101.125 67.6375 101.125C66.8723 101.125 66.252 102.366 66.252 103.896C66.252 105.427 66.8723 106.667 67.6375 106.667Z" fill="#72351C"/>
<g opacity="0.05">
<path opacity="0.05" d="M66.7724 100.071L57.7682 94.5939C55.3228 95.12 52.8275 95.3788 50.3262 95.3659C42.4221 95.3659 35.9971 92.9946 35.6411 90.0225V90.0733C35.6352 90.1657 35.6352 90.2583 35.6411 90.3506C35.6411 93.4384 42.2233 95.939 50.3447 95.939C52.8537 95.9537 55.3568 95.6948 57.8098 95.1671L66.8094 100.645L66.7724 100.071Z" fill="black"/>
<path opacity="0.05" d="M66.7744 110.259V110.846C66.7744 110.846 73.8234 103.718 73.6616 95.3516C73.4952 103.459 66.7744 110.259 66.7744 110.259Z" fill="black"/>
</g>
<path d="M47.0762 120.522C47.0762 120.522 29.9319 131.594 28.2192 139.898C26.5065 148.201 28.2192 183.331 28.2192 183.331L85.6489 184.255L84.918 144.054C84.835 139.19 82.9859 134.554 79.7668 131.139C75.4785 126.603 68.9932 121.063 62.5035 120.522L54.7899 136.21L47.0762 120.522Z" fill="#009688"/>
<path opacity="0.05" d="M38.5425 139.919C38.5425 139.919 32.8155 165.3 37.828 173.171L38.5425 139.919Z" fill="black"/>
<path opacity="0.05" d="M71.7949 139.919C71.7949 139.919 77.5219 165.3 72.5094 173.171L71.7949 139.919Z" fill="black"/>
<path d="M47 121.253L62 121L52.165 151L47 121.253Z" fill="white"/>
<path d="M55.1685 120.522H52.3975V123.293H55.1685V120.522Z" fill="black"/>
<path d="M46.6405 120.522L44.084 124.66L49.626 139.919L46.6405 120.522Z" fill="#13A89E"/>
<path d="M62.5534 123.293L66.2519 126.619L55.168 139.919L62.5534 123.293Z" fill="#13A89E"/>
<path opacity="0.1" d="M46.6405 120.522L44.084 124.66L49.626 139.919L46.6405 120.522Z" fill="white"/>
<path opacity="0.1" d="M62.5534 123.293L66.2519 126.619L55.168 139.919L62.5534 123.293Z" fill="#F55F44"/>
<path d="M53.72 120.522L44.084 161.326L50.1071 170.4L57.939 161.326L53.72 120.522Z" fill="black"/>
<g opacity="0.5">
<path opacity="0.5" d="M219.776 162.3H222.402L221.58 153.894H221.491C221.991 148.756 222.742 125.99 198.266 116.918L196.08 115.478L195.914 115.624V109.48C197.53 108.043 198.866 106.321 199.857 104.399V105.027C202.011 102.705 203.795 100.066 205.146 97.2022C203.879 99.5855 202.304 101.792 200.462 103.766V103.71C203.536 100.201 216.107 83.9135 196.075 72.2257C173.511 59.0645 169.252 81.1462 169.252 81.1462L171.051 83.5546C171.051 83.5546 166.683 92.3004 166.683 96.4277C166.684 100.053 167.809 103.588 169.902 106.548C171.995 109.508 174.953 111.747 178.371 112.956V118.198C176.742 118.793 154.098 127.553 154.098 153.889L150.943 162.295L151.996 162.767V186.195H203.47C203.47 186.195 206.625 161.237 205.571 152.831L208.726 154.933V162.29H209.425V162.474H209.222L209.425 163.154V185.671H219.757V163.164L219.875 162.484H219.757L219.776 162.3ZM161.38 164.226L161.455 162.3L161.38 164.226Z" fill="url(#paint1_linear)"/>
</g>
<path d="M196.556 109.233H176.739V134.712H196.556V109.233Z" fill="#FDA57D"/>
<path opacity="0.05" d="M176.739 115.605C178.958 116.786 179.913 117.726 182.4 117.726C187.63 117.728 192.674 114.82 196.556 109.564V109.233H176.739V115.605Z" fill="black"/>
<path d="M185.231 112.064C194.612 112.064 202.217 105.093 202.217 96.4936C202.217 87.8944 194.612 80.9233 185.231 80.9233C175.85 80.9233 168.245 87.8944 168.245 96.4936C168.245 105.093 175.85 112.064 185.231 112.064Z" fill="#FDA57D"/>
<path d="M183.857 88.3514L197.89 93.5611V103.571C197.89 103.571 216.211 86.0399 194.231 73.8732C174.481 62.9532 170.903 76.1073 168.418 78.6371C168.36 78.6958 168.315 78.7648 168.286 78.8401C168.256 78.9155 168.242 78.9956 168.246 79.076C168.249 79.1563 168.269 79.2353 168.304 79.3083C168.339 79.3814 168.39 79.4471 168.452 79.5016C170.893 81.681 172.979 90.4171 183.857 88.3514Z" fill="#4D4545"/>
<path d="M216.372 163.021H207.879V185.669H216.372V163.021Z" fill="#FDA57D"/>
<path d="M207.879 153.112V163.022H222.034L221.171 151.698L207.879 153.112Z" fill="white"/>
<path d="M154.091 163.021V185.669H161.701L162.584 164.682L154.091 163.021Z" fill="#FDA57D"/>
<path d="M186.287 126.587L180.407 119.693C180.407 119.693 156.922 127.57 156.922 153.173L164.014 161.05L163.002 185.669H204.537C204.537 185.669 207.578 160.066 206.566 152.189L209.606 154.161H221.762C221.762 154.161 226.436 126.587 197.061 117.726L186.287 126.587Z" fill="#F55F44"/>
<path d="M156.636 151.698L154.091 160.756L162.432 165.853L162.584 160.756L156.636 151.698Z" fill="white"/>
<path opacity="0.05" d="M173.907 122.83L178.57 131.88L185.231 127.131L178.798 120.557L173.907 122.83Z" fill="black"/>
<path d="M173.907 122.262L178.57 129.05L185.231 125.489L178.798 120.557L173.907 122.262Z" fill="white"/>
<path opacity="0.05" d="M195.686 117.726L199.386 119.992L188.902 129.05L185.231 126.125L195.686 117.726Z" fill="black"/>
<path d="M195.686 117.726L199.386 119.987L188.902 129.05L185.231 126.125L195.686 117.726Z" fill="white"/>
<path opacity="0.05" d="M162.584 160.19C162.571 152.021 165.553 144.07 171.077 137.542L162.584 160.19Z" fill="black"/>
<path opacity="0.05" d="M202.217 151.698V148.867L207.879 150.753L204.102 150.282L202.217 151.698Z" fill="black"/>
<path opacity="0.05" d="M154.091 163.021V163.457L162.584 165.852L162.366 165.497L154.091 163.021Z" fill="black"/>
<path opacity="0.05" d="M205.048 99.1075C203.744 101.339 202.124 103.405 200.229 105.253V95.0889L185.389 89.8061C174.266 91.8316 172.511 83.6928 169.392 81.086C169.259 80.9752 169.082 80.917 168.902 80.9239C168.721 80.9308 168.551 81.0023 168.428 81.1229C168.367 81.1825 168.319 81.2524 168.288 81.3288C168.257 81.4052 168.242 81.4865 168.246 81.5679C168.249 81.6494 168.27 81.7295 168.307 81.8036C168.345 81.8776 168.398 81.9442 168.464 81.9995C171.051 84.2049 173.252 93.0727 184.76 90.9688L199.6 96.2516V106.402C201.815 104.238 203.652 101.778 205.048 99.1075Z" fill="black"/>
<path d="M200.802 100.74C201.584 100.74 202.218 99.4726 202.218 97.9091C202.218 96.3456 201.584 95.0781 200.802 95.0781C200.02 95.0781 199.387 96.3456 199.387 97.9091C199.387 99.4726 200.02 100.74 200.802 100.74Z" fill="#FDA57D"/>
<g opacity="0.5">
<path opacity="0.5" d="M138.796 141.045L139.332 140.643L140.098 140.075L175.864 113.508L163.569 64.3331C163.569 64.3331 163.569 64.2742 163.569 64.1724C163.67 62.6724 164.244 51.063 157.97 53.1578C151.841 55.1989 154.113 63.776 154.552 65.2331L154.622 65.4474L162.444 106.801L137.586 121.297L134.135 120.912C138.067 115.519 140.155 109.001 140.087 102.327C140.087 86.8982 129.582 74.3888 116.617 74.3888C103.652 74.3888 93.1466 86.8982 93.1466 102.327C93.1466 113.883 99.0397 123.805 107.445 128.042L98.5468 132.494V132.542C95.9967 132.007 86.3214 132.167 90.243 167.676C91.2055 176.278 89.1591 184.948 84.4517 192.212L81.998 195.625L143.259 196H143.447C143.447 196 134.773 182.098 138.796 141.045Z" fill="url(#paint2_linear)"/>
</g>
<path d="M99.3313 130.38C99.3313 130.38 87.507 124.726 90.9541 163.584C91.8902 173.944 89.6162 184.349 84.5058 193.088L83.7793 194.325H94.7719L103.049 184.615L99.3313 130.38Z" fill="#3AD29F"/>
<path d="M164.193 66.0162C164.193 66.0162 164.193 65.9624 164.193 65.8604L154.829 66.9028L154.897 67.1178L163.018 107.774L135.165 123.159L136.3 142.939L176.916 114.368L164.193 66.0162Z" fill="#3AD29F"/>
<path d="M117.502 130.093C130.805 130.093 141.589 117.871 141.589 102.794C141.589 87.7172 130.805 75.4951 117.502 75.4951C104.199 75.4951 93.415 87.7172 93.415 102.794C93.415 117.871 104.199 130.093 117.502 130.093Z" fill="black"/>
<path d="M128.742 114.035H112.684V133.304H128.742V114.035Z" fill="#BE7C5E"/>
<path d="M117.036 132.434L112.413 125.897L98.5418 132.434V143.249C98.5418 143.249 93.5055 151.614 97.6091 161.246C96.4786 175.407 93.415 193.968 93.415 193.968L144.801 194.325C144.801 194.325 135.554 180.351 140.177 138.955L139.047 121.524L128.646 120.458L117.036 132.434Z" fill="#3AD29F"/>
<path opacity="0.05" d="M138.377 120.458L139.987 121.73L141.589 141.836L139.72 142.939L138.377 120.458Z" fill="black"/>
<path opacity="0.05" d="M112.684 116.461C114.478 116.905 115.258 117.246 117.272 117.246C121.509 117.247 125.596 116.147 128.742 114.16V114.035H112.684V116.461Z" fill="black"/>
<path d="M117.502 117.246C127.257 117.246 135.166 109.338 135.166 99.5823C135.166 89.8268 127.257 81.9185 117.502 81.9185C107.746 81.9185 99.8379 89.8268 99.8379 99.5823C99.8379 109.338 107.746 117.246 117.502 117.246Z" fill="#BE7C5E"/>
<path d="M133.559 104.4C134.446 104.4 135.165 102.962 135.165 101.188C135.165 99.4144 134.446 97.9766 133.559 97.9766C132.672 97.9766 131.953 99.4144 131.953 101.188C131.953 102.962 132.672 104.4 133.559 104.4Z" fill="#B37458"/>
<path d="M131.953 81.9185H103.049V97.9765H131.953V81.9185Z" fill="black"/>
<path d="M155.321 56.4222C149.333 58.0195 151.55 64.7202 151.977 65.8604L160.792 65.0319C160.909 63.8575 161.47 54.7866 155.321 56.4222Z" fill="#FDA57D"/>
<g opacity="0.05">
<path opacity="0.05" d="M95.3383 194.468C95.3383 194.468 98.2205 175.803 99.3134 161.563C95.4508 151.92 100.219 143.466 100.219 143.466V132.591L112.482 126.457L112.187 126.018L99.0455 132.591V143.466C99.0455 143.466 94.2775 151.904 98.1402 161.563C97.0687 175.803 94.165 194.468 94.165 194.468L142.868 194.827L95.3383 194.468Z" fill="black"/>
<path opacity="0.05" d="M117.75 132.564L128.599 120.633L127.533 120.516L117.252 131.82L117.75 132.564Z" fill="black"/>
</g>
<path opacity="0.05" d="M106.261 128.626L115.329 149.363L131.954 121.043L127.359 120.458L115.964 131.766L110.902 126.115L106.261 128.626Z" fill="black"/>
<path d="M106.261 128.624L115.329 149.363L131.954 121.048L127.359 120.458L115.964 131.77L110.902 126.114L106.261 128.624Z" fill="white"/>
<path d="M48.9209 32.0608C48.9205 31.0881 48.7309 30.2287 48.3473 29.4911C47.9706 28.7658 47.4064 28.1578 46.6496 27.6772C40.4029 23.7265 34.15 19.7879 27.9053 15.8333C26.2217 14.7672 24.5894 14.8061 22.9183 15.8874C20.4319 17.4958 7.98332 25.3183 4.27381 27.6749C2.74612 28.6449 2.00275 30.1294 2.00239 32.0589C2 40.004 2.00239 47.9488 2 55.894C2.00037 56.8452 2.18194 57.688 2.54858 58.4145C2.9255 59.1618 3.49757 59.7864 4.27179 60.278C7.98148 62.6346 20.4317 70.4565 22.9176 72.0653C24.5894 73.1472 26.2217 73.1859 27.9058 72.1195C34.1508 68.1646 40.404 64.2262 46.6516 60.2755C47.4259 59.7842 47.9979 59.1592 48.3749 58.4125C48.7409 57.6859 48.9229 56.8432 48.9233 55.8917C48.9233 55.8917 48.9233 40.006 48.9209 32.0608Z" fill="#5C8DBC"/>
<path d="M25.5337 43.8984L2.54883 58.4139C2.92575 59.1612 3.49782 59.7858 4.27204 60.2774C7.98173 62.634 20.432 70.456 22.9178 72.0647C24.5896 73.1466 26.222 73.1853 27.9061 72.1189C34.151 68.164 40.4042 64.2256 46.6519 60.275C47.4261 59.7836 47.9982 59.1586 48.3751 58.4119L25.5337 43.8984Z" fill="#1A4674"/>
<path d="M18.7256 48.1979C20.063 50.7588 22.5773 52.4861 25.4615 52.4861C28.3635 52.4861 30.8921 50.7369 32.2227 48.1486L25.5333 43.8984L18.7256 48.1979Z" fill="#1A4674"/>
<path d="M48.9204 32.0604C48.92 31.0878 48.7303 30.2283 48.3468 29.4907L25.5332 43.8987L48.3744 58.4121C48.7404 57.6856 48.9224 56.8428 48.9227 55.8914C48.9227 55.8914 48.9227 40.0056 48.9204 32.0604Z" fill="#1B598E"/>
<path d="M47.6655 44.9357H45.8806V46.8937H44.0953V44.9357H42.3106V42.9782H44.0953V41.0205H45.8806V42.9782H47.6655V44.9357ZM41.1524 44.9357H39.3677V46.8937H37.5828V44.9357H35.7979V42.9782H37.5828V41.0205H39.3677V42.9782H41.1524V44.9357Z" fill="white"/>
<path d="M32.2238 48.1487C30.8931 50.7371 28.3645 52.4864 25.4624 52.4864C22.5781 52.4864 20.0638 50.759 18.7263 48.198C18.0545 46.913 17.7016 45.4571 17.703 43.9757C17.703 39.2756 21.1771 35.4653 25.4624 35.4653C28.3281 35.4653 30.8292 37.1711 32.1733 39.7059L38.9554 35.4224C36.2597 30.3185 31.2269 26.8848 25.4624 26.8848C16.8563 26.8848 9.87988 34.5368 9.87988 43.9757C9.87988 47.0724 10.631 49.9763 11.9437 52.4811C14.6326 57.612 19.6798 61.0669 25.4624 61.0669C31.2557 61.0669 36.3108 57.5981 38.9958 52.4521L32.2238 48.1487Z" fill="white"/>
<path d="M208.248 15.0176C193.308 15.0176 194.241 21.5226 194.241 21.5226L194.257 28.2621H208.515V30.2854H188.595C188.595 30.2854 179.034 29.1968 179.034 44.3321C179.034 59.4678 187.379 58.931 187.379 58.931H192.359V51.9074C192.359 51.9074 192.09 43.5294 200.57 43.5294H214.711C214.711 43.5294 222.655 43.6583 222.655 35.8203V22.8607C222.655 22.8607 223.862 15.0176 208.248 15.0176ZM200.387 19.5497C200.724 19.5494 201.057 19.6158 201.369 19.7451C201.68 19.8744 201.963 20.0641 202.201 20.3033C202.439 20.5425 202.628 20.8265 202.757 21.1391C202.886 21.4516 202.952 21.7866 202.952 22.1249C202.952 22.4632 202.886 22.7982 202.757 23.1107C202.628 23.4233 202.439 23.7073 202.201 23.9465C201.963 24.1857 201.68 24.3754 201.369 24.5047C201.057 24.634 200.724 24.7004 200.387 24.7001C200.05 24.7004 199.716 24.634 199.405 24.5047C199.094 24.3754 198.811 24.1857 198.572 23.9465C198.334 23.7073 198.145 23.4233 198.016 23.1107C197.888 22.7982 197.822 22.4632 197.822 22.1249C197.822 21.7866 197.888 21.4516 198.016 21.1391C198.145 20.8265 198.334 20.5425 198.572 20.3033C198.811 20.0641 199.094 19.8744 199.405 19.7451C199.716 19.6158 200.05 19.5494 200.387 19.5497Z" fill="url(#paint3_linear)"/>
<path d="M208.671 73.7976C223.611 73.7976 222.679 67.2926 222.679 67.2926L222.662 60.5534H208.404V58.53H228.325C228.325 58.53 237.885 59.6186 237.885 44.4829C237.885 29.3474 229.54 29.8842 229.54 29.8842H224.56V36.9075C224.56 36.9075 224.829 45.2855 216.349 45.2855H202.208C202.208 45.2855 194.264 45.1567 194.264 52.9949V65.9548C194.264 65.9548 193.057 73.7976 208.671 73.7976H208.671ZM216.533 69.266C216.196 69.2663 215.862 69.1999 215.551 69.0706C215.239 68.9412 214.957 68.7516 214.718 68.5124C214.48 68.2732 214.291 67.9892 214.162 67.6766C214.034 67.364 213.967 67.029 213.968 66.6908C213.967 66.3525 214.033 66.0175 214.162 65.7049C214.291 65.3923 214.48 65.1082 214.718 64.869C214.956 64.6298 215.239 64.4401 215.551 64.3108C215.862 64.1815 216.196 64.1151 216.533 64.1154C216.87 64.1151 217.203 64.1815 217.514 64.3108C217.826 64.4401 218.109 64.6297 218.347 64.8689C218.585 65.1081 218.774 65.3921 218.903 65.7047C219.032 66.0173 219.098 66.3523 219.097 66.6905C219.098 67.0288 219.032 67.3638 218.903 67.6764C218.774 67.989 218.585 68.273 218.347 68.5121C218.109 68.7513 217.826 68.941 217.514 69.0703C217.203 69.1996 216.87 69.266 216.533 69.2657V69.266Z" fill="url(#paint4_linear)"/>
<g clip-path="url(#clip0)">
<path d="M105.89 35.0799L105.891 35.0788L105.129 37.6725L105.89 35.0799ZM109.806 40.7108L108.967 40.706L109.806 40.7108ZM109.591 44.5841H109.591L104.564 44.6016L109.591 44.5841ZM110.645 40.7156L109.805 40.7108L110.645 40.7156ZM110.031 44.2549L110.907 41.045L110.031 44.2555V44.2549ZM128.539 29.4731L126.908 36.8438L128.539 29.4731ZM124.346 29.4731L123.108 34.9793L124.346 29.4727V29.4731Z" fill="#131B28"/>
<path d="M128.26 29.1416H124.772C124.578 29.1416 124.386 29.2909 124.345 29.4728L123.107 34.9794L121.868 40.4862C121.827 40.6678 121.635 40.8167 121.442 40.8167H118.973C116.531 40.8167 116.813 39.1928 117.313 36.9683L117.328 36.9011L117.383 36.6207L117.393 36.5679L117.505 35.997L117.624 35.385C117.66 35.2005 117.715 34.9309 117.752 34.7615L118.315 32.1178L118.878 29.4741C118.917 29.2918 118.79 29.142 118.596 29.142H115.016C114.823 29.142 114.631 29.2918 114.591 29.4737L113.822 32.9841L113.052 36.4941C113.051 36.4956 113.051 36.4978 113.051 36.4993L112.979 36.8255C112.093 40.7165 112.328 44.4269 117.147 44.5431C117.226 44.5452 117.286 44.5459 117.286 44.5459H124.851C125.044 44.5459 125.236 44.3966 125.276 44.2143L126.907 36.8443L128.539 29.4737C128.579 29.2909 128.453 29.1418 128.26 29.1416ZM142.174 40.8547C142.368 40.8547 142.495 41.004 142.456 41.1863L142.117 42.7775L142.174 40.8547ZM141.779 44.3693L142.118 42.7773L141.779 44.3699L141.779 44.3693ZM141.354 44.7042L141.356 44.7038C140.329 44.7116 137.245 44.7343 134.926 44.7343C137.748 44.7343 141.354 44.7044 141.354 44.7042ZM132.846 38.8053C132.843 38.6311 133.049 38.3309 133.243 38.3309L132.807 38.3239C132.611 40.2216 132.846 38.8053 132.846 38.8053Z" fill="#131B28"/>
<path d="M135.245 44.7338C135.223 44.7338 135.2 44.7338 135.178 44.7342C135.2 44.7338 135.223 44.7338 135.245 44.7338ZM142.176 40.855C142.37 40.855 142.496 41.0044 142.457 41.1867L142.119 42.7778L142.063 43.0372L142.176 40.855ZM136.897 44.7301H136.883H136.897ZM136.04 44.7327H135.991H136.04ZM135.779 44.7334C135.752 44.7334 135.725 44.7334 135.697 44.7338C135.725 44.7334 135.752 44.7334 135.779 44.7334ZM135.513 44.7338H135.441H135.513ZM135.99 44.7327L135.779 44.7332L135.99 44.7327ZM136.883 44.7301C136.601 44.7312 136.319 44.7323 136.042 44.7329C136.319 44.7325 136.601 44.7312 136.883 44.7301ZM141.78 44.3705L142.064 43.0374L141.78 44.3714L141.78 44.3705ZM135.697 44.7338H135.513H135.697ZM135.177 44.7342H134.928H135.177ZM135.441 44.7338H135.245H135.441ZM84.4175 38.8456L84.9594 36.537L84.3398 39.1759L83.7454 41.8639L84.2664 39.5075C84.3064 39.3252 84.3748 39.0272 84.4175 38.8456ZM90.9024 29.103H87.0719C86.8779 29.103 86.6848 29.2517 86.6414 29.4329L86.278 30.9739L85.9148 32.5155C85.8721 32.6967 85.9955 32.8453 86.1892 32.8453H90.0495C90.2433 32.8453 90.4354 32.6967 90.4772 32.5148L90.8282 30.9739L91.1793 29.434V29.4336C91.2209 29.2519 91.0964 29.103 90.9024 29.103ZM90.0688 34.2291V34.2287L88.9454 39.2244L90.0688 34.2291ZM78.941 50.7821C78.941 50.7821 80.872 50.8059 82.0993 50.8059C81.1671 50.8059 79.6268 50.7895 78.9395 50.7816L78.941 50.7821ZM85.501 34.2284L84.9585 36.537L85.501 34.2284Z" fill="#131B28"/>
<path d="M89.7903 33.8975H85.9296C85.736 33.8975 85.5425 34.0462 85.4998 34.2281L84.9574 36.5366L84.4154 38.8452C84.3727 39.0268 84.3046 39.3248 84.2644 39.5071L83.7433 41.8635L83.2227 44.2199C83.1715 44.4398 83.1095 44.6573 83.0369 44.8716C83.0369 44.8716 82.3157 46.9343 81.1032 46.9109C81.0514 46.9098 81.0015 46.9094 80.9517 46.9081C80.3641 46.8974 79.9025 46.8895 79.9025 46.8895H79.9016C79.7083 46.8867 79.5141 47.0317 79.4689 47.2124L79.0685 48.8302L78.6685 50.4471C78.6237 50.6279 78.745 50.7772 78.9376 50.7803C79.6252 50.7881 81.1652 50.8047 82.0977 50.8047C85.1264 50.8047 86.723 49.1917 87.7465 44.5504L88.9442 39.2237L90.0677 34.2278C90.1086 34.0464 89.9836 33.8975 89.7903 33.8975ZM144.634 44.5449C144.44 44.5449 144.315 44.3956 144.356 44.2131L147.26 31.1377L144.634 44.5449ZM148.671 44.2129L149.845 38.6321L148.671 44.2129Z" fill="#131B28"/>
<path d="M144.4 44.3798C144.376 44.2888 144.39 44.0657 144.431 43.8831L145.81 37.6766L144.357 44.2141C144.316 44.3964 144.442 44.5457 144.636 44.5457H144.989C144.795 44.5455 144.423 44.4711 144.4 44.3798ZM148.443 44.4711C148.338 44.5121 148.093 44.5457 147.899 44.5457H148.252C148.445 44.5457 148.635 44.3964 148.674 44.2137L148.744 43.882C148.705 44.0641 148.549 44.4298 148.443 44.4711ZM149.261 41.4231L149.779 38.9599C149.779 38.9615 149.779 38.9637 149.778 38.9647L149.261 41.4231ZM160.721 32.0144L160.881 32.6497C160.925 32.8316 160.802 32.9792 160.609 32.9796L160.721 32.0144ZM148.743 43.882L149.26 41.4233L148.743 43.882ZM160.561 31.3636L160.72 32.0144L160.561 31.3636ZM149.779 38.9602C149.817 38.7779 149.881 38.4825 149.921 38.3019L150.475 35.8084L149.848 38.6329L149.779 38.9602ZM147.31 30.9243C147.271 31.1003 147.222 31.3225 147.189 31.4697L145.811 37.6766L147.263 31.1387L147.31 30.9243Z" fill="#131B28"/>
<path d="M160.878 32.6496L160.718 32.0143L160.56 31.3635L160.479 31.034C160.166 29.8631 159.245 29.1872 157.247 29.1872L154.135 29.1839L151.269 29.1807H148.045C147.851 29.1807 147.66 29.3293 147.62 29.5116H147.619L147.477 30.1592L147.309 30.924L147.262 31.1382L145.81 37.6761L144.431 43.8826C144.39 44.0651 144.377 44.2882 144.4 44.3793C144.423 44.4705 144.795 44.5452 144.989 44.5452H147.898C148.092 44.5452 148.337 44.5116 148.442 44.4705C148.548 44.4295 148.704 44.0638 148.742 43.8815L149.259 41.4227L149.777 38.9644L149.778 38.9596L149.847 38.6323L150.474 35.8079L151.028 33.3133C151.069 33.1321 151.26 32.9839 151.453 32.9834L160.607 32.9791C160.8 32.9791 160.922 32.8313 160.878 32.6496Z" fill="#131B28"/>
<path d="M172.662 26.9049C172.468 26.9062 172.151 26.9073 171.957 26.9073H169.027C168.833 26.9073 168.586 27.033 168.476 27.1867L161.997 36.3098C161.888 36.464 161.763 36.441 161.72 36.2598L161.243 34.2497C161.2 34.0679 161.006 33.9198 160.813 33.9198H156.647C156.454 33.9198 156.339 34.0659 156.392 34.2449L158.258 40.5291C158.311 40.7082 158.315 41.0025 158.267 41.1828L157.454 44.2243C157.405 44.4048 157.525 44.5526 157.719 44.5526H161.835C162.029 44.5526 162.227 44.4048 162.275 44.2243L163.089 41.1828C163.137 41.0025 163.271 40.7328 163.388 40.5842L173.906 27.1662C174.023 27.0175 173.96 26.8966 173.766 26.8979L172.662 26.9049ZM139.572 34.7752L139.571 34.7715C139.547 34.9735 139.353 35.1217 139.16 35.1217H133.879C133.696 35.1217 133.604 35.0023 133.631 34.8551C133.632 34.8508 133.633 34.847 133.635 34.8433C133.635 34.8433 133.634 34.8438 133.632 34.8449C133.633 34.839 133.633 34.8335 133.635 34.8278L133.659 34.7414C134.163 33.4526 135.191 32.6066 137.121 32.6066C139.295 32.6068 139.719 33.6277 139.572 34.7752ZM138.022 28.9167C131.244 28.9167 129.638 32.8712 128.737 36.8624C127.836 40.9304 127.914 44.7341 134.927 44.7341H135.177C135.199 44.7336 135.221 44.7336 135.244 44.7336H135.696C135.723 44.7332 135.75 44.7332 135.778 44.7332L135.989 44.7327H136.039C136.317 44.7323 136.598 44.731 136.881 44.7301H136.895C138.747 44.7231 140.605 44.7096 141.357 44.7039C141.55 44.7011 141.738 44.552 141.778 44.3714L142.061 43.0375L142.117 42.7779L142.456 41.1869C142.494 41.0044 142.367 40.8551 142.174 40.8551H135.868C133.36 40.8551 132.615 40.2145 132.89 38.3313H142.97L142.969 38.3324C142.971 38.3324 142.974 38.3313 142.976 38.3313C143.136 38.3284 143.284 38.2225 143.343 38.0813C143.354 38.054 143.363 38.0258 143.367 37.9966L143.366 37.9977C144.863 32.5715 144.433 28.9172 138.022 28.9172L138.022 28.9167ZM105.986 34.7545L105.891 35.0791L105.89 35.0802L105.129 37.6728L104.368 40.265C104.316 40.444 104.114 40.5905 103.92 40.5905H99.8918C96.8362 40.5905 96.0919 38.2935 96.8362 34.9049C97.5799 31.4392 99.0388 29.2848 102.046 29.0667C106.156 28.7689 106.978 31.5473 105.986 34.7545ZM108.749 40.3912C108.749 40.3912 110.648 35.9585 111.08 33.398C111.668 29.9706 109.882 25 102.986 25C96.1296 25 93.1522 29.7457 92.016 34.9047C90.8801 40.101 92.3685 44.6583 99.1863 44.621L104.565 44.6017L109.592 44.5843C109.785 44.5825 109.983 44.4349 110.033 44.2553L110.908 41.0448C110.957 40.8647 110.839 40.7165 110.645 40.7154L109.806 40.7108L108.967 40.706C108.802 40.7049 108.708 40.6025 108.728 40.4665C108.731 40.4405 108.738 40.4151 108.748 40.3907L108.749 40.3912Z" fill="#131B28"/>
<path d="M142.693 37.4244C142.693 37.4834 142.669 37.5399 142.625 37.5816C142.582 37.6233 142.523 37.6467 142.462 37.6467C142.4 37.6467 142.342 37.6233 142.298 37.5816C142.255 37.5399 142.23 37.4834 142.23 37.4244C142.23 37.3655 142.255 37.3089 142.298 37.2673C142.342 37.2256 142.4 37.2021 142.462 37.2021C142.523 37.2021 142.582 37.2256 142.625 37.2673C142.669 37.3089 142.693 37.3655 142.693 37.4244Z" fill="#131B28"/>
<path d="M56.3922 31.6608C54.499 34.2763 54.7345 37.6791 56.1808 40.4581C56.2151 40.5249 56.2514 40.5902 56.2868 40.6559C56.3096 40.6974 56.3307 40.7402 56.3545 40.781C56.3679 40.8055 56.3827 40.8297 56.3968 40.8531C56.4213 40.8972 56.4467 40.9395 56.4722 40.9826C56.5169 41.059 56.563 41.1345 56.6101 41.2103C56.6362 41.2517 56.6621 41.2934 56.6889 41.3349C56.7409 41.4159 56.7945 41.4958 56.8492 41.576C56.872 41.61 56.894 41.6441 56.9174 41.6773C56.9928 41.7853 57.07 41.893 57.1493 41.9993L57.1559 42.0078C57.1686 42.0248 57.1822 42.0412 57.1952 42.0582C57.264 42.1495 57.3349 42.2394 57.4067 42.3285C57.433 42.3608 57.4596 42.3936 57.4864 42.4259C57.575 42.5326 57.6651 42.6382 57.7565 42.7427C57.8472 42.8457 57.9397 42.9471 58.034 43.047C58.0381 43.0514 58.0413 43.0538 58.0445 43.0582C58.2338 43.2556 58.4294 43.4472 58.6312 43.6328C58.6616 43.6605 58.6916 43.6889 58.7216 43.7153C58.8224 43.8067 58.9249 43.8963 59.0291 43.9841C59.0466 43.9989 59.0646 44.0131 59.0818 44.0273C59.172 44.1026 59.2642 44.1773 59.3567 44.2504C59.3944 44.2799 59.4328 44.3087 59.4707 44.3378C59.5464 44.3961 59.6229 44.4535 59.7001 44.51L59.8226 44.5995C59.9077 44.6596 59.9934 44.719 60.0799 44.777C60.1117 44.7989 60.1419 44.82 60.1737 44.8408C60.1826 44.8467 60.1905 44.8528 60.1994 44.8585C60.2814 44.9128 60.3654 44.965 60.4492 45.0174C60.4854 45.0403 60.521 45.0643 60.5576 45.0866C60.6862 45.165 60.817 45.2423 60.949 45.3169C60.9846 45.3368 61.021 45.356 61.0571 45.3757C61.1543 45.4296 61.2517 45.4822 61.3508 45.5342C61.4042 45.5619 61.4594 45.5879 61.5132 45.6145C61.5832 45.6497 61.6524 45.6855 61.7235 45.7195C61.7394 45.727 61.7562 45.7344 61.7721 45.742C61.8005 45.7553 61.8294 45.768 61.858 45.782C61.9915 45.8437 62.1261 45.9033 62.2616 45.9608C62.39 46.0145 62.5194 46.0662 62.65 46.1158C62.6814 46.1282 62.713 46.1398 62.7445 46.1516C62.8812 46.2024 63.0187 46.251 63.157 46.2974C63.2922 46.3428 63.4285 46.3848 63.5659 46.426C63.5986 46.4352 63.6315 46.4452 63.6647 46.4544C63.8044 46.495 63.9427 46.5433 64.0865 46.5688C73.2429 48.1737 75.9025 41.2801 75.9025 41.2801C73.6688 44.0773 69.7038 44.8148 65.947 43.9937C65.8048 43.9627 65.6667 43.9201 65.5277 43.8806C65.3572 43.8319 65.1878 43.7797 65.0196 43.7238L64.9642 43.7046C64.8449 43.664 64.7262 43.6217 64.6083 43.5778C64.5751 43.5649 64.5417 43.5529 64.5085 43.54C64.3795 43.491 64.2514 43.4399 64.1242 43.3865C64.0983 43.3758 64.0731 43.3645 64.0474 43.354C63.9073 43.293 63.7679 43.2303 63.6295 43.1658C63.5452 43.1263 63.4621 43.0844 63.3787 43.0431C63.3231 43.0149 63.2665 42.9883 63.2113 42.9588C63.1102 42.9065 63.01 42.8525 62.9108 42.7968C62.8774 42.7787 62.8431 42.7612 62.8095 42.7425C62.6777 42.6676 62.5471 42.5908 62.4179 42.5119C62.3825 42.4901 62.3475 42.4669 62.3123 42.4442C62.2185 42.3863 62.1257 42.327 62.0338 42.2663C62.0031 42.2467 61.9738 42.2253 61.9439 42.2058C61.8553 42.1458 61.7678 42.0847 61.6806 42.0229C61.6411 41.9947 61.6022 41.9661 61.5638 41.9379C61.4483 41.8525 61.3337 41.7658 61.2202 41.6779C61.1204 41.5994 61.0218 41.5195 60.9244 41.4382L60.8917 41.412C60.7866 41.3229 60.683 41.2323 60.5808 41.1402C60.551 41.1129 60.5222 41.0865 60.4931 41.0592C60.4174 40.9902 60.3428 40.9199 60.2696 40.8485C60.2403 40.8203 60.2107 40.7926 60.1819 40.7644C60.0888 40.6728 59.9975 40.5797 59.9077 40.4856L59.8941 40.4719C59.7994 40.3721 59.7066 40.2707 59.6159 40.1676C59.5913 40.1392 59.5672 40.1121 59.5429 40.0844C59.4751 40.0059 59.4084 39.9266 59.3428 39.8464C59.3181 39.8174 59.2936 39.7881 59.2695 39.7586C59.1906 39.6604 59.1136 39.5624 59.0382 39.4628C56.9524 36.7285 56.2032 32.9567 57.87 29.8594" fill="#0868AC"/>
<path d="M62.2684 29.4575C60.8994 31.3512 60.9736 33.8864 62.0417 35.8893C62.2205 36.226 62.4228 36.5507 62.6472 36.8611C62.8523 37.1436 63.0797 37.4798 63.3521 37.7071C63.4509 37.8117 63.554 37.9134 63.6594 38.0136C63.686 38.0398 63.7132 38.0647 63.7403 38.0905C63.8425 38.1859 63.9465 38.2797 64.0542 38.3708C64.0587 38.3741 64.0626 38.3782 64.0669 38.3815C64.0682 38.3826 64.0694 38.383 64.0701 38.3843C64.1889 38.4845 64.3117 38.581 64.4367 38.6758C64.4644 38.6961 64.4916 38.7173 64.5198 38.7382C64.6447 38.8304 64.7724 38.921 64.9032 39.0074C64.9073 39.01 64.9105 39.0127 64.9144 39.0155C64.9721 39.0539 65.0309 39.0895 65.0895 39.1264C65.1174 39.1439 65.144 39.1626 65.1724 39.179C65.2658 39.2367 65.3602 39.2928 65.4566 39.3465C65.4704 39.3546 65.4834 39.3613 65.4968 39.369C65.5797 39.4148 65.6637 39.46 65.748 39.5037C65.7775 39.5196 65.8073 39.5336 65.8375 39.5484C65.8956 39.5779 65.954 39.6076 66.0131 39.6358C66.0219 39.6401 66.031 39.6438 66.0396 39.6475C66.1602 39.7047 66.2818 39.7598 66.406 39.8117C66.4326 39.8231 66.4601 39.8331 66.4869 39.8436C66.5864 39.8842 66.6865 39.9237 66.7874 39.9608C66.8301 39.9763 66.8735 39.9914 66.916 40.0062C67.0075 40.0388 67.0995 40.0687 67.1919 40.0986C67.234 40.1115 67.2748 40.1246 67.3169 40.137C67.4484 40.1763 67.5785 40.2259 67.7157 40.2479C74.7851 41.3736 76.4174 36.1419 76.4174 36.1419C74.9459 38.1787 72.0969 39.1502 69.0568 38.3917C68.8817 38.3474 68.708 38.2979 68.5362 38.2431C68.3994 38.2005 68.2638 38.1544 68.1296 38.1049C68.0284 38.0676 67.9279 38.0287 67.8282 37.9881C67.8011 37.9769 67.7736 37.9667 67.7471 37.9551C67.6228 37.9031 67.4999 37.8482 67.3784 37.7905C67.316 37.7612 67.2546 37.7302 67.1935 37.6999L67.0868 37.647C67.0081 37.606 66.9301 37.5637 66.8528 37.5202C66.8344 37.5102 66.8153 37.5003 66.7967 37.4899C66.7011 37.4359 66.6068 37.3807 66.5135 37.3235C66.4846 37.3058 66.4569 37.2868 66.428 37.2687C66.3664 37.2303 66.3051 37.1914 66.2443 37.1519C66.1148 37.0652 65.9874 36.9757 65.8622 36.8833C65.8334 36.8615 65.8045 36.8401 65.7761 36.8183C64.4453 35.8083 63.3905 34.4283 62.8889 32.8634C62.3633 31.2403 62.4767 29.4184 63.3873 27.9399" fill="#0868AC"/>
<path d="M67.2125 27.8111C66.4055 28.9527 66.3262 30.3707 66.8861 31.6318C67.4769 32.9701 68.6871 34.0202 70.0995 34.518C70.1576 34.539 70.216 34.5575 70.2749 34.5767C70.3005 34.5842 70.3262 34.5929 70.3523 34.6001C70.4354 34.6252 70.5179 34.6545 70.604 34.67C74.5074 35.3948 75.5661 32.7448 75.848 32.3546C74.9206 33.6382 73.3619 33.9462 71.4496 33.5002C71.2932 33.4617 71.1388 33.4158 70.9869 33.3629C70.7999 33.299 70.6165 33.2258 70.4375 33.1435C70.0977 32.9863 69.775 32.797 69.4742 32.5784C67.7629 31.3305 66.6999 28.9497 67.8165 27.0107L67.2125 27.8111ZM111.175 50.0485L110.05 52.5114H108.808L108.909 50.2733L107.995 52.5114H106.792L106.76 50.0485L106.893 49.4402H107.745L107.581 51.8732L108.527 49.4402H109.714L109.628 51.9033L110.566 49.4402H111.308L111.175 50.0485ZM113.135 50.7777C113.245 50.2967 113.214 50.2068 112.956 50.2068H112.565L112.315 51.3335L111.932 52.5118H111.205L111.799 49.8389L111.885 49.4481H112.549L112.635 49.6282C112.635 49.6282 113.018 49.4107 113.393 49.4107C114.19 49.4107 114.127 49.9884 113.955 50.7775L113.135 50.7777ZM115.495 49.0571C115.175 49.0571 114.972 48.9671 115.05 48.5918C115.136 48.2161 115.386 48.1259 115.699 48.1259C116.012 48.1259 116.222 48.2161 116.136 48.5918C116.058 48.9597 115.808 49.0571 115.495 49.0571ZM115.152 52.5118H114.433L114.573 51.3104L114.824 50.1991L114.324 50.0937L114.464 49.4407H115.831L115.152 52.5118ZM118.269 50.0921L117.371 50.1978L117.112 51.3691C117.042 51.6922 117.042 51.7824 117.339 51.7824H117.94L117.815 52.3978C117.815 52.3978 117.269 52.5557 117.034 52.5557C116.112 52.5557 116.12 52.0677 116.284 51.339L116.534 50.1902L116.034 50.0854L116.183 49.4319H116.706L117.003 48.658H117.714L117.542 49.4319H118.417L118.269 50.0921ZM120.136 50.1312C119.714 50.1312 119.495 50.3419 119.41 50.7172L120.613 50.6196C120.667 50.3644 120.613 50.1312 120.136 50.1312ZM119.293 51.2726C119.237 51.6486 119.386 51.7758 119.886 51.7758H121.144L121.019 52.3465C121.019 52.3465 120.261 52.5491 119.698 52.5491C118.3 52.5491 118.284 51.7913 118.464 50.9798C118.644 50.1838 118.964 49.3957 120.315 49.3957C121.62 49.3957 121.683 50.1539 121.362 51.2726H119.293ZM124.229 52.5112H123.511L123.651 51.3097L124.159 49.0267L123.658 48.9143L123.807 48.2608H125.175L124.229 52.5112ZM126.825 50.1312C126.403 50.1312 126.185 50.3419 126.098 50.7172L127.302 50.6196C127.356 50.3644 127.302 50.1312 126.825 50.1312ZM125.981 51.2726C125.927 51.6486 126.075 51.7758 126.575 51.7758H127.833L127.708 52.3465C127.708 52.3465 126.95 52.5491 126.387 52.5491C124.989 52.5491 124.973 51.7913 125.153 50.9798C125.333 50.1838 125.653 49.3957 127.005 49.3957C128.309 49.3957 128.372 50.1539 128.052 51.2726H125.981ZM131.348 50.1685C131.348 50.1685 130.434 50.176 130.184 50.176C129.652 50.176 129.598 50.3334 129.559 50.4984L129.527 50.6486L131.215 50.7692C131.215 50.7692 131.223 51.2872 131.152 51.58C131.051 52.0682 130.527 52.5636 129.582 52.5636C129.113 52.5636 128.355 52.3913 128.355 52.3913L128.488 51.7981H129.652C130.168 51.7981 130.239 51.6625 130.27 51.5278L130.309 51.3326L128.653 51.2121C128.653 51.2121 128.59 50.8139 128.676 50.4163C128.801 49.8751 129.316 49.4101 130.262 49.4101C130.731 49.4101 131.488 49.5747 131.488 49.5747L131.348 50.1685ZM134.489 50.1685C134.489 50.1685 133.575 50.176 133.325 50.176C132.794 50.176 132.739 50.3334 132.7 50.4984L132.668 50.6486L134.356 50.7692C134.356 50.7692 134.364 51.2872 134.294 51.58C134.192 52.0682 133.669 52.5636 132.724 52.5636C132.255 52.5636 131.497 52.3913 131.497 52.3913L131.63 51.7981H132.794C133.31 51.7981 133.38 51.6625 133.412 51.5278L133.45 51.3326L131.794 51.2121C131.794 51.2121 131.732 50.8139 131.817 50.4163C131.943 49.8751 132.458 49.4101 133.404 49.4101C133.872 49.4101 134.63 49.5747 134.63 49.5747L134.489 50.1685ZM135.473 53.0002H134.848L134.871 52.5494C134.644 52.5352 134.527 52.3773 134.582 52.1138C134.668 51.7385 134.91 51.6486 135.231 51.6486C135.543 51.6486 135.754 51.7385 135.668 52.1138L135.473 53.0002ZM139.652 50.1991C139.184 50.1991 139.02 50.4694 138.91 50.965C138.801 51.4608 138.832 51.7534 139.3 51.7534H139.949L140.308 50.1991H139.652ZM140.723 52.1136L140.636 52.5118L139.98 52.5042L139.886 52.3092C139.886 52.3092 139.308 52.5489 138.918 52.5489C137.918 52.5489 137.871 51.7608 138.05 50.9648C138.23 50.1537 138.621 49.3876 139.613 49.3876C139.973 49.3876 140.457 49.5603 140.457 49.5603L140.855 48.2613H141.574L140.723 52.1136ZM143.309 50.1685C142.7 50.1685 142.504 50.4984 142.395 50.9792C142.293 51.4674 142.341 51.7979 142.941 51.7979C143.567 51.7979 143.754 51.475 143.864 50.9792C143.973 50.5133 143.942 50.1685 143.309 50.1685ZM142.778 52.5566C141.489 52.5566 141.387 51.7833 141.559 50.9794C141.739 50.176 142.192 49.4101 143.481 49.4101C144.762 49.4101 144.88 50.176 144.7 50.9794C144.52 51.7981 144.067 52.5566 142.778 52.5566ZM150.091 52.5112L150.232 51.3246L150.303 50.9866C150.404 50.5364 150.467 50.2059 149.974 50.2059H149.592C149.607 50.4386 149.56 50.7017 149.498 50.9792L149.162 52.5112H148.435L148.576 51.3246L148.646 50.9866C148.748 50.5364 148.81 50.2059 148.319 50.2059H148.006L147.49 52.5112H146.654L147.334 49.4402H147.99L148.091 49.6278C148.091 49.6278 148.537 49.4022 148.896 49.4022C149.17 49.4022 149.373 49.5227 149.443 49.6725C149.599 49.5898 150.045 49.4022 150.365 49.4022C151.365 49.4022 151.334 50.183 151.154 50.9796L150.818 52.5114H150.091V52.5112ZM153.412 50.1685C152.802 50.1685 152.607 50.4984 152.498 50.9792C152.397 51.4674 152.444 51.7979 153.045 51.7979C153.67 51.7979 153.858 51.475 153.967 50.9792C154.076 50.5133 154.045 50.1685 153.412 50.1685ZM152.881 52.5566C151.591 52.5566 151.49 51.7833 151.662 50.9794C151.842 50.176 152.295 49.4101 153.584 49.4101C154.866 49.4101 154.983 50.176 154.803 50.9794C154.623 51.7981 154.17 52.5566 152.881 52.5566ZM156.974 50.7777C157.083 50.2967 157.052 50.2068 156.794 50.2068H156.403L156.153 51.3335L155.77 52.5118H155.044L155.637 49.8389L155.723 49.4481H156.388L156.473 49.6282C156.473 49.6282 156.856 49.4107 157.232 49.4107C158.028 49.4107 157.966 49.9884 157.794 50.7775L156.974 50.7777ZM159.772 50.1312C159.351 50.1312 159.132 50.3419 159.046 50.7172L160.249 50.6196C160.304 50.3644 160.249 50.1312 159.772 50.1312ZM158.928 51.2726C158.874 51.6486 159.022 51.7758 159.522 51.7758H160.78L160.655 52.3465C160.655 52.3465 159.897 52.5491 159.335 52.5491C157.937 52.5491 157.921 51.7913 158.1 50.9798C158.28 50.1838 158.6 49.3957 159.952 49.3957C161.256 49.3957 161.319 50.1539 160.999 51.2726H158.928ZM161.701 52.557C161.372 52.557 161.17 52.4671 161.256 52.0992C161.333 51.7228 161.576 51.6333 161.904 51.6333C162.209 51.6333 162.419 51.7228 162.342 52.0992C162.255 52.4594 162.006 52.557 161.701 52.557Z" fill="#0868AC"/>
</g>
<rect x="36" y="192" width="168" height="7" rx="3.5" fill="#E26049"/>
<defs>
<linearGradient id="paint0_linear" x1="53635.5" y1="34314.2" x2="62164.7" y2="34314.2" gradientUnits="userSpaceOnUse">
<stop stop-color="#808080" stop-opacity="0.25"/>
<stop offset="0.54" stop-color="#808080" stop-opacity="0.12"/>
<stop offset="1" stop-color="#808080" stop-opacity="0.1"/>
</linearGradient>
<linearGradient id="paint1_linear" x1="15259.4" y1="49027.8" x2="26071.8" y2="49027.8" gradientUnits="userSpaceOnUse">
<stop stop-color="#808080" stop-opacity="0.25"/>
<stop offset="0.54" stop-color="#808080" stop-opacity="0.12"/>
<stop offset="1" stop-color="#808080" stop-opacity="0.1"/>
</linearGradient>
<linearGradient id="paint2_linear" x1="49503.2" y1="75580.9" x2="65947.5" y2="75580.9" gradientUnits="userSpaceOnUse">
<stop stop-color="#808080" stop-opacity="0.25"/>
<stop offset="0.54" stop-color="#808080" stop-opacity="0.12"/>
<stop offset="1" stop-color="#808080" stop-opacity="0.1"/>
</linearGradient>
<linearGradient id="paint3_linear" x1="184.69" y1="20.3046" x2="213.971" y2="49.1775" gradientUnits="userSpaceOnUse">
<stop stop-color="#387EB8"/>
<stop offset="1" stop-color="#366994"/>
</linearGradient>
<linearGradient id="paint4_linear" x1="202.59" y1="38.9193" x2="234.029" y2="68.5203" gradientUnits="userSpaceOnUse">
<stop stop-color="#FFE052"/>
<stop offset="1" stop-color="#FFC331"/>
</linearGradient>
<clipPath id="clip0">
<rect x="55" y="25" width="119" height="28" fill="white"/>
</clipPath>
</defs>
</svg>
