<svg width="738" height="641" viewBox="0 0 738 641" fill="none" xmlns="http://www.w3.org/2000/svg">
<g clip-path="url(#clip0)">
<g opacity="0.1">
<path opacity="0.1" d="M195.076 53.942V677.437L144.385 678C133.567 678.125 122.795 676.549 112.447 673.327V129.796H112.531C137.427 98.5368 165.341 72.4528 195.076 53.942Z" fill="#6C63FF"/>
<path opacity="0.1" d="M1242.9 143.352H102.1C105.493 138.752 108.942 134.266 112.447 129.894V129.796H1240.07C1241.16 134.225 1242.11 138.743 1242.9 143.352Z" fill="#6C63FF"/>
<path opacity="0.1" d="M514.789 77.3711V673.902L501.485 674.048V76.7226C505.928 77.0163 510.37 77.1875 514.789 77.3711Z" fill="#6C63FF"/>
<path opacity="0.1" d="M1147.23 545.182C1145.08 549.807 1142.95 554.342 1140.85 558.787H17.3759C15.8351 554.309 14.3981 549.774 13.0648 545.182H1147.23Z" fill="#6C63FF"/>
</g>
<path d="M1033.58 652.895V668.8L851.651 670.512L849.711 670.549L780.567 671.198L778.914 671.222L757.898 671.406H757.275L629.164 672.617L418.868 674.611H418.689L365.219 675.125L364.644 675.137L127.057 677.364V659.012L182.921 624.756L295.009 623.801L297.404 623.789L298.194 623.777L300.589 623.74L354.406 623.287L356.813 623.275L357.579 623.263L359.974 623.251L377.23 623.104L377.685 623.092L420.257 622.725H420.605L752.796 619.862L760.927 619.801H761.742L767.945 619.739L813.031 619.36L815.427 619.323L817.642 619.299H818.792L832.815 619.189L835.593 619.152L839.317 619.128L850.993 619.018L869.518 618.858L871.913 618.834L876.081 618.81H876.859L966.326 618.027L1033.58 652.895Z" fill="#65617D"/>
<path opacity="0.2" d="M1033.58 652.895V668.8L851.651 670.512L849.711 670.549L780.567 671.198L778.914 671.222L757.898 671.406H757.275L629.164 672.617L418.868 674.611H418.689L365.219 675.125L364.644 675.137L127.057 677.364V659.012L182.921 624.756L295.009 623.801L297.404 623.789L298.194 623.777L300.589 623.74L354.406 623.287L356.813 623.275L357.579 623.263L359.974 623.251L377.23 623.104L377.685 623.092L420.257 622.725H420.605L752.796 619.862L760.927 619.801H761.742L767.945 619.739L813.031 619.36L815.427 619.323L817.642 619.299H818.792L832.815 619.189L835.593 619.152L839.317 619.128L850.993 619.018L869.518 618.858L871.913 618.834L876.081 618.81H876.859L966.326 618.027L1033.58 652.895Z" fill="black"/>
<path d="M354.585 591.734V621.697C354.586 623.116 354.193 624.506 353.451 625.706C352.709 626.906 351.649 627.866 350.394 628.475C349.46 628.937 348.438 629.188 347.4 629.209L305.607 630.114C304.491 630.141 303.384 629.903 302.374 629.417C301.097 628.819 300.015 627.859 299.257 626.65C298.499 625.442 298.097 624.037 298.098 622.602V591.734H354.585Z" fill="#3F3D56"/>
<path opacity="0.1" d="M354.585 591.734V621.697C354.586 623.116 354.193 624.506 353.451 625.706C352.709 626.906 351.649 627.866 350.394 628.475C349.46 628.937 348.438 629.188 347.4 629.209L305.607 630.114C304.491 630.141 303.384 629.903 302.374 629.417C301.097 628.819 300.015 627.859 299.257 626.65C298.499 625.442 298.097 624.037 298.098 622.602V591.734H354.585Z" fill="black"/>
<path d="M356.98 591.734V621.697C356.981 623.116 356.588 624.506 355.846 625.706C355.104 626.906 354.044 627.866 352.789 628.475C351.855 628.937 350.833 629.188 349.795 629.209L308.002 630.114C306.886 630.141 305.779 629.903 304.769 629.417C303.492 628.819 302.41 627.859 301.652 626.65C300.894 625.442 300.492 624.037 300.493 622.602V591.734H356.98Z" fill="#3F3D56"/>
<path opacity="0.1" d="M276.148 374.878H253.395V395.774H276.148V374.878Z" fill="black"/>
<path opacity="0.1" d="M356.98 591.722V597.803L300.493 599.344V591.722H356.98Z" fill="black"/>
<path d="M456.674 382.157V587.942C456.659 589.198 456.172 590.4 455.314 591.3C454.456 592.199 453.292 592.727 452.063 592.774L222.559 599.014H222.499C221.249 598.998 220.055 598.484 219.171 597.581C218.288 596.678 217.784 595.458 217.769 594.181V382.157C217.784 380.88 218.288 379.66 219.171 378.758C220.055 377.855 221.249 377.34 222.499 377.325H451.943C453.193 377.34 454.387 377.855 455.271 378.758C456.155 379.66 456.658 380.88 456.674 382.157Z" fill="#65617D"/>
<path opacity="0.1" d="M222.559 377.325V599.014H222.499C221.249 598.998 220.055 598.484 219.171 597.581C218.288 596.678 217.784 595.458 217.769 594.181V382.157C217.784 380.88 218.288 379.66 219.171 378.758C220.055 377.855 221.249 377.34 222.499 377.325H222.559Z" fill="black"/>
<path d="M233.037 390.465H445.597V571.841L233.037 576.735V390.465Z" fill="#D4DFEC"/>
<path d="M944.064 382.157V594.181C944.048 595.469 943.536 596.698 942.64 597.602C941.743 598.507 940.534 599.014 939.274 599.014L709.721 592.774C708.492 592.727 707.328 592.199 706.47 591.3C705.612 590.4 705.125 589.198 705.111 587.942V382.157C705.126 380.88 705.63 379.66 706.513 378.758C707.397 377.855 708.591 377.34 709.841 377.325H939.286C940.544 377.328 941.75 377.836 942.644 378.741C943.538 379.645 944.048 380.872 944.064 382.157Z" fill="#65617D"/>
<path d="M928.796 390.465H716.236V571.841L928.796 576.735V390.465Z" fill="#D4DFEC"/>
<path d="M699.171 382.157V587.942C699.157 589.198 698.67 590.4 697.812 591.3C696.953 592.199 695.79 592.727 694.561 592.774L465.056 599.014C463.796 599.014 462.587 598.507 461.69 597.602C460.794 596.698 460.282 595.469 460.266 594.181V382.157C460.282 380.88 460.785 379.66 461.669 378.758C462.553 377.855 463.747 377.34 464.997 377.325H694.441C695.691 377.34 696.885 377.855 697.769 378.758C698.652 379.66 699.156 380.88 699.171 382.157Z" fill="#65617D"/>
<path d="M475.535 390.465H688.094V571.841L475.535 576.735V390.465Z" fill="#D4DFEC"/>
<path d="M583.503 395.774C617.451 395.774 644.972 367.658 644.972 332.974C644.972 298.291 617.451 270.175 583.503 270.175C549.555 270.175 522.034 298.291 522.034 332.974C522.034 367.658 549.555 395.774 583.503 395.774Z" fill="#FBBEBE"/>
<path d="M644.984 461.437C644.984 461.437 525.83 476.118 537.207 461.437C541.326 456.127 542.464 440.393 542.236 422.47C542.165 417.026 541.973 411.385 541.698 405.77C540.38 378.854 537.207 352.55 537.207 352.55C537.207 352.55 641.391 302.388 629.416 342.15C624.626 358.214 626.194 380.775 629.835 401.953C630.901 408.131 632.134 414.187 633.427 419.937C636.584 433.963 640.441 447.814 644.984 461.437Z" fill="#A36041"/>
<path opacity="0.1" d="M644.984 461.437C644.984 461.437 525.83 476.118 537.207 461.437C541.326 456.127 542.464 440.393 542.236 422.47C560.403 414.542 583.515 420.451 583.515 420.451C607.849 415.496 623.452 416.463 633.427 419.937C636.584 433.963 640.441 447.814 644.984 461.437Z" fill="black"/>
<path d="M418.82 675.994V674.966L629.128 672.629L757.263 671.406H757.622L757.49 673.216L757.67 671.406H757.897V671.198L759.538 654.742L760.161 648.515L760.352 646.57L760.52 644.943L767.92 619.727L775.321 594.549L781.548 573.346L791.057 540.949C791.057 540.949 785.668 528.103 782.674 524.433C779.68 520.762 776.686 495.681 776.686 495.681C776.686 495.681 751.131 470.809 739.958 467.946C735.276 466.722 726.031 465.095 716.212 463.052C712.535 462.293 708.763 461.486 705.135 460.605C703.087 460.128 701.075 459.626 699.147 459.125C695.395 458.167 691.697 456.999 688.07 455.626C686.169 454.92 684.359 453.979 682.681 452.824C673.879 446.229 651.821 445.483 650.971 445.483C650.969 445.455 650.969 445.426 650.971 445.398V445.287C651.002 444.774 651.002 444.259 650.971 443.746C650.971 443.256 650.971 442.681 650.863 442.033C650.863 441.837 650.863 441.629 650.779 441.421C650.719 440.981 650.648 440.516 650.54 440.027C650.503 439.808 650.456 439.591 650.396 439.378C650.049 437.904 649.547 436.472 648.899 435.108C648.815 434.913 648.708 434.705 648.612 434.509C648.025 433.379 647.344 432.302 646.576 431.291C646.42 431.083 646.253 430.863 646.073 430.655C645.092 429.473 644.001 428.392 642.816 427.425C642.492 427.168 642.157 426.899 641.81 426.654C641.616 426.494 641.412 426.347 641.199 426.214L640.133 425.504L639.139 424.917C638.265 424.428 637.343 423.95 636.337 423.498C636.026 423.351 635.691 423.216 635.355 423.082C635.02 422.947 634.493 422.739 634.05 422.568H633.978L633.08 422.201C632.397 421.968 631.703 421.76 630.972 421.552L629.859 421.259L628.661 420.977L627.464 420.72C626.266 420.476 624.985 420.256 623.644 420.084L622.278 419.913L620.877 419.766L619.428 419.644L617.369 419.522L614.974 419.436C604.411 419.435 593.877 420.579 583.551 422.849C576.377 421.218 569.029 420.528 561.684 420.794H560.642L559.445 420.867H558.678L557.133 421.014C556.618 421.014 556.092 421.124 555.577 421.198C555.062 421.271 554.523 421.332 554.008 421.418L553.218 421.552C552.439 421.687 551.649 421.834 550.822 422.005C550.559 422.054 550.296 422.115 550.032 422.189C548.99 422.421 547.948 422.702 546.919 423.021C546.404 423.167 545.889 423.339 545.374 423.522C545.11 423.596 544.859 423.693 544.607 423.791L543.841 424.073L543.086 424.379L542.188 424.746C541.733 424.941 541.29 425.149 540.847 425.37C540.596 425.48 540.344 425.602 540.105 425.737C539.865 425.871 539.614 425.981 539.386 426.116C536.679 427.545 534.176 429.348 531.95 431.475L531.339 432.074L530.74 432.698C530.536 432.906 530.345 433.126 530.153 433.346C529.373 434.218 528.645 435.137 527.974 436.099C527.782 436.356 527.603 436.613 527.423 436.882C526.663 438.027 525.975 439.221 525.363 440.455C525.208 440.748 525.064 441.054 524.92 441.348C523.943 443.415 523.142 445.564 522.525 447.771C522.302 448.587 522.098 449.402 521.914 450.218C521.914 450.218 496.563 461.645 475.535 469.915C469.942 472.118 464.673 474.112 460.266 475.617C458.985 476.057 457.787 476.461 456.674 476.84C454.257 477.733 451.744 478.324 449.189 478.602C447.985 478.622 446.784 478.737 445.597 478.945C435.933 480.547 419.371 487.509 417.563 494.495C417.416 495.053 417.375 495.634 417.443 496.207C417.443 496.207 417.443 496.293 417.443 496.342C418.64 504.906 410.258 503.683 410.258 503.683C410.258 503.683 407.264 526.317 403.073 532.434C400.043 536.838 397.971 546.663 397.708 554.077C397.557 556.387 397.735 558.707 398.235 560.965C398.235 561.026 398.235 561.087 398.235 561.136C398.714 562.775 397.564 567.253 395.612 572.991C393.493 579.292 390.403 587.122 387.433 594.512C382.954 605.67 378.739 615.8 378.476 618.027C378.368 619.018 378.057 620.792 377.625 623.079C375.877 632.402 371.997 650.154 370.081 657.336C368.656 662.695 366.584 670.036 365.159 675.076C365.159 675.223 365.075 675.37 365.04 675.504L418.724 674.966V675.994H418.892H418.82Z" fill="#FF1744"/>
<path opacity="0.1" d="M438.412 531.785C438.412 531.785 506.67 567.877 531.219 563.595L438.412 531.785Z" fill="black"/>
<path opacity="0.1" d="M577.324 517.104C577.324 517.104 643.786 539.126 665.94 542.185C688.095 545.243 577.324 517.104 577.324 517.104Z" fill="black"/>
<path opacity="0.1" d="M651.043 446.242C616.315 452.775 550.93 451.368 522.669 450.377C533.027 412.45 583.539 425.345 583.539 425.345C646.061 412.597 650.851 439.048 651.043 446.242Z" fill="black"/>
<path d="M651.043 443.795C616.315 450.328 550.93 448.921 522.669 447.93C533.027 410.003 583.539 422.898 583.539 422.898C646.061 410.15 650.851 436.601 651.043 443.795Z" fill="#FF1744"/>
<path opacity="0.1" d="M629.835 401.953C628.075 402.756 626.277 403.467 624.446 404.081C611.537 408.633 598.52 413.221 584.928 414.885C571.336 416.548 557.074 415.08 545.218 408.156C543.973 407.437 542.774 406.64 541.626 405.77C540.308 378.854 537.135 352.55 537.135 352.55C537.135 352.55 641.319 302.388 629.344 342.15C624.578 358.214 626.194 380.775 629.835 401.953Z" fill="black"/>
<path d="M566.642 234.817C564.933 235.278 563.142 235.325 561.412 234.953C559.682 234.581 558.061 233.802 556.679 232.676L559.169 236.212C557.702 236.385 556.214 236.228 554.812 235.753C553.409 235.277 552.126 234.494 551.05 233.459C550.824 236.624 550.953 239.805 551.433 242.941C547.312 243.144 543.254 241.843 539.985 239.27C539.921 240.374 540.19 241.471 540.755 242.414C541.321 243.357 542.155 244.1 543.147 244.543C539.006 244.038 534.828 245.089 531.39 247.5C527.953 249.911 525.491 253.518 524.465 257.647L530.716 258.234C525.804 259.306 521.395 262.054 518.214 266.027C516.298 268.474 514.837 271.606 515.676 274.591C516.514 277.577 520.561 279.485 522.765 277.356C519.631 281.178 517.352 285.655 516.091 290.471C514.829 295.288 514.613 300.328 515.46 305.239C516.028 307.331 516.215 309.513 516.011 311.674C515.616 313.693 514.37 315.442 513.748 317.412C512.55 320.985 513.688 324.863 514.753 328.423L520.37 347.289C522.406 354.104 524.429 360.93 527.088 367.525C528.97 371.694 530.571 375.99 531.878 380.383C533.387 386.305 533.447 392.789 536.668 397.964C538.876 401.221 541.827 403.879 545.266 405.709C557.11 412.633 571.42 414.102 584.976 412.438C598.532 410.774 611.537 406.186 624.434 401.635C627.299 400.753 630.05 399.52 632.625 397.964C641.547 391.994 643.535 379.784 645.199 369.03C647.055 357.04 649.534 345.074 653.929 333.794C656.54 327.077 659.917 320.263 659.342 313.069C658.611 303.514 651.211 295.769 649.378 286.373C648.765 283.232 648.794 279.996 649.462 276.867C650.03 275.003 650.349 273.068 650.408 271.117C650.205 267.177 647.043 264.143 644.073 261.611C637.631 256.113 630.981 250.918 624.123 246.024C623.776 243.577 627.033 242.525 628.506 240.592C630.589 237.863 628.434 233.532 625.272 232.26C622.111 230.988 618.566 231.82 615.273 232.664C615.488 230.942 615.152 229.195 614.317 227.683C613.482 226.171 612.192 224.975 610.638 224.273C609.084 223.57 607.349 223.399 605.692 223.784C604.036 224.17 602.545 225.091 601.442 226.412C600.567 224.363 599.17 222.592 597.396 221.283C595.623 219.975 593.537 219.177 591.359 218.973C583.419 218.337 583.263 224.54 578.186 227.953C573.108 231.367 568.917 226.865 565.013 223.586C564.296 225.439 564.069 227.453 564.355 229.424C564.641 231.396 565.429 233.256 566.642 234.817Z" fill="#282736"/>
<path opacity="0.1" d="M762.855 592.468L762.736 594.218V594.34L762.532 597.154L760.939 619.8L759.011 647.083L758.46 654.767L757.263 671.21V671.418L629.128 672.641L418.856 674.966V675.993H418.688V674.966V674.623L419.227 657.054L420.257 622.724L421.143 593.619L421.227 590.719C421.279 588.969 421.681 587.248 422.406 585.662C423.131 584.075 424.165 582.656 425.445 581.492C426.725 580.327 428.223 579.442 429.85 578.889C431.476 578.336 433.195 578.128 434.903 578.276C440.555 578.766 447.896 579.365 456.674 580.002L460.266 580.271C510.957 583.868 604.639 588.517 699.171 582.718C701.159 582.607 703.159 582.485 705.159 582.338C719.816 581.396 734.462 580.185 748.964 578.668C750.797 578.472 752.65 578.688 754.393 579.303C756.135 579.918 757.725 580.915 759.049 582.225C760.373 583.535 761.4 585.125 762.058 586.884C762.716 588.644 762.988 590.529 762.855 592.407V592.468Z" fill="black"/>
<path d="M418.82 675.994V674.966L629.128 672.629L757.263 671.406H757.622V671.198L758.819 654.754L759.334 647.414L761.298 619.751L762.843 597.852V597.313C762.915 596.304 762.87 595.29 762.711 594.291C762.718 594.251 762.718 594.21 762.711 594.169C762.382 592.104 761.56 590.154 760.316 588.492C758.998 586.765 757.27 585.409 755.296 584.553C753.323 583.696 751.168 583.368 749.036 583.598C734.534 585.116 719.888 586.327 705.231 587.269C703.231 587.416 701.231 587.538 699.243 587.648C604.711 593.386 511.029 588.737 460.338 585.201L456.745 584.932C447.968 584.296 440.627 583.709 434.975 583.207C431.865 582.939 428.769 583.857 426.283 585.784C423.797 587.712 422.099 590.511 421.514 593.643C421.394 594.305 421.322 594.976 421.299 595.65L420.485 622.761L419.371 657.103L418.844 674.672V675.015V676.042L418.82 675.994Z" fill="#3F3D56"/>
<path opacity="0.1" d="M763.214 601.045L761.741 619.8L759.55 647.756L758.999 654.754L757.802 670.427L757.73 671.21V671.418L757.55 673.228L757.682 671.418H757.335L629.2 672.641L418.856 674.966V674.623L419.443 657.054L420.64 622.724L421.407 599.907C421.444 598.609 421.799 597.341 422.439 596.219C423.079 595.098 423.984 594.157 425.071 593.484C426.427 592.635 428.013 592.249 429.598 592.383C432.112 592.591 435.202 592.835 438.807 593.105C444.662 593.545 451.883 594.059 460.29 594.597C475.858 595.6 495.389 596.677 517.771 597.558C580.042 600.005 664.108 600.825 743.958 593.68C747.551 593.362 751.263 593.007 754.892 592.652C756.328 592.506 757.775 592.786 759.059 593.459C759.423 593.645 759.768 593.866 760.089 594.12C761.131 594.892 761.957 595.93 762.484 597.13C762.606 597.369 762.706 597.618 762.783 597.876C763.143 598.89 763.29 599.969 763.214 601.045Z" fill="black"/>
<path opacity="0.1" d="M356.98 617.794V621.697C356.981 623.116 356.588 624.506 355.846 625.706C355.104 626.906 354.044 627.866 352.789 628.475L304.769 629.417C303.492 628.819 302.41 627.859 301.652 626.651C300.894 625.442 300.492 624.037 300.493 622.602V618.932L356.98 617.794Z" fill="black"/>
<path d="M357.579 630.775L295.009 631.998V621.391L357.579 620.167V630.775Z" fill="#3F3D56"/>
<path opacity="0.1" d="M357.579 630.775L295.009 631.998V621.391L357.579 620.167V630.775Z" fill="black"/>
<path d="M359.974 630.775L297.404 631.998V621.391L359.974 620.167V630.775Z" fill="#3F3D56"/>
<g opacity="0.1">
<path opacity="0.1" d="M567.133 230.804C565.963 229.251 565.186 227.427 564.87 225.494C564.581 227.384 564.754 229.317 565.373 231.122C565.967 231.066 566.556 230.96 567.133 230.804Z" fill="black"/>
<path opacity="0.1" d="M551.924 238.928C551.698 237.428 551.551 235.917 551.481 234.401C551.481 235.906 551.481 237.423 551.481 238.94L551.924 238.928Z" fill="black"/>
<path opacity="0.1" d="M649.522 279.754C649.588 278.664 649.732 277.581 649.953 276.512C650.52 274.651 650.842 272.722 650.911 270.774C650.884 270.337 650.82 269.903 650.72 269.477C650.516 270.603 650.193 271.729 649.953 272.842C649.475 275.111 649.33 277.441 649.522 279.754Z" fill="black"/>
<path opacity="0.1" d="M624.614 241.95L625.919 242.916C627.019 242.103 628.049 241.194 628.997 240.2C629.447 239.563 629.726 238.817 629.806 238.036C629.886 237.254 629.764 236.465 629.452 235.747C629.332 236.026 629.18 236.289 628.997 236.53C627.524 238.463 624.266 239.527 624.614 241.95Z" fill="black"/>
<path opacity="0.1" d="M526.214 253.719C525.777 254.612 525.428 255.546 525.172 256.509C527.045 255.441 529.063 254.661 531.159 254.196L526.214 253.719Z" fill="black"/>
<path opacity="0.1" d="M542.728 240.408C541.941 239.965 541.188 239.462 540.476 238.903C540.446 239.387 540.482 239.873 540.584 240.347C541.299 240.312 542.016 240.333 542.728 240.408Z" fill="black"/>
<path opacity="0.1" d="M659.809 312.494C659.318 318.428 656.611 324.141 654.42 329.769C650.025 341.049 647.546 353.015 645.69 365.017C644.026 375.771 642.098 387.981 633.116 393.939C630.55 395.505 627.802 396.738 624.937 397.609C612.028 402.173 599.011 406.749 585.419 408.412C571.827 410.076 557.565 408.62 545.709 401.696C542.272 399.863 539.321 397.206 537.111 393.951C533.914 388.776 533.854 382.292 532.321 376.37C531.014 371.973 529.413 367.673 527.531 363.5C524.884 356.917 522.849 350.042 520.825 343.276C518.949 336.987 517.077 330.695 515.208 324.398C514.593 322.504 514.136 320.56 513.843 318.587C513.376 321.719 514.286 324.998 515.208 328.068C517.077 334.373 518.949 340.666 520.825 346.946C522.849 353.761 524.884 360.588 527.531 367.17C529.413 371.343 531.014 375.644 532.321 380.041C533.83 385.962 533.89 392.446 537.111 397.622C539.321 400.876 542.272 403.534 545.709 405.366C557.565 412.291 571.863 413.747 585.419 412.083C598.975 410.419 611.98 405.843 624.937 401.28C627.802 400.409 630.55 399.176 633.116 397.609C642.038 391.651 644.026 379.441 645.69 368.687C647.546 356.685 650.025 344.72 654.42 333.439C657.031 326.735 660.408 319.92 659.833 312.714C659.833 312.641 659.809 312.567 659.809 312.494Z" fill="black"/>
<path opacity="0.1" d="M516.478 307.759C516.478 307.759 516.478 307.674 516.478 307.625C516.694 305.467 516.507 303.288 515.927 301.201C515.688 299.859 515.532 298.502 515.46 297.14C515.322 299.727 515.479 302.322 515.927 304.872C516.119 305.826 516.334 306.793 516.478 307.759Z" fill="black"/>
<path opacity="0.1" d="M520.13 277.834C521.051 276.253 522.097 274.751 523.256 273.343C521.064 275.485 517.017 273.576 516.166 270.603C515.853 271.805 515.853 273.071 516.166 274.273C516.461 275.171 516.983 275.973 517.679 276.598C518.375 277.224 519.221 277.65 520.13 277.834Z" fill="black"/>
</g>
<path d="M238.294 419.473L359.974 418.249" stroke="#535461" stroke-width="2" stroke-miterlimit="10"/>
<path d="M238.294 434.729L359.974 433.518" stroke="#333333" stroke-width="2" stroke-miterlimit="10"/>
<path d="M238.294 449.998L359.974 448.774" stroke="#535461" stroke-width="2" stroke-miterlimit="10"/>
</g>
<defs>
<clipPath id="clip0">
<rect width="1247" height="678" fill="white"/>
</clipPath>
</defs>
</svg>
