<svg width="347" height="200" viewBox="0 0 347 200" fill="none" xmlns="http://www.w3.org/2000/svg">
<g clip-path="url(#clip0)">
<path d="M56.5 196.951C86.5995 196.951 111 192.259 111 186.471C111 180.683 86.5995 175.991 56.5 175.991C26.4005 175.991 2 180.683 2 186.471C2 192.259 26.4005 196.951 56.5 196.951Z" fill="#009688"/>
<path d="M55.5853 190.328C59.0879 190.328 61.9274 186.607 61.9274 182.016C61.9274 177.426 59.0879 173.705 55.5853 173.705C52.0826 173.705 49.2432 177.426 49.2432 182.016C49.2432 186.607 52.0826 190.328 55.5853 190.328Z" fill="#3F3D56"/>
<path d="M55.5853 180.176C59.0879 180.176 61.9274 176.455 61.9274 171.864C61.9274 167.274 59.0879 163.553 55.5853 163.553C52.0826 163.553 49.2432 167.274 49.2432 171.864C49.2432 176.455 52.0826 180.176 55.5853 180.176Z" fill="#3F3D56"/>
<path d="M55.5853 170.024C59.0879 170.024 61.9274 166.303 61.9274 161.712C61.9274 157.122 59.0879 153.401 55.5853 153.401C52.0826 153.401 49.2432 157.122 49.2432 161.712C49.2432 166.303 52.0826 170.024 55.5853 170.024Z" fill="#3F3D56"/>
<path d="M55.5853 159.872C59.0879 159.872 61.9274 156.151 61.9274 151.56C61.9274 146.97 59.0879 143.249 55.5853 143.249C52.0826 143.249 49.2432 146.97 49.2432 151.56C49.2432 156.151 52.0826 159.872 55.5853 159.872Z" fill="#3F3D56"/>
<path d="M55.5853 149.72C59.0879 149.72 61.9274 145.999 61.9274 141.408C61.9274 136.818 59.0879 133.097 55.5853 133.097C52.0826 133.097 49.2432 136.818 49.2432 141.408C49.2432 145.999 52.0826 149.72 55.5853 149.72Z" fill="#3F3D56"/>
<path d="M55.5853 139.556C59.0879 139.556 61.9274 135.835 61.9274 131.244C61.9274 126.654 59.0879 122.933 55.5853 122.933C52.0826 122.933 49.2432 126.654 49.2432 131.244C49.2432 135.835 52.0826 139.556 55.5853 139.556Z" fill="#3F3D56"/>
<path d="M55.5853 129.404C59.0879 129.404 61.9274 125.683 61.9274 121.092C61.9274 116.502 59.0879 112.781 55.5853 112.781C52.0826 112.781 49.2432 116.502 49.2432 121.092C49.2432 125.683 52.0826 129.404 55.5853 129.404Z" fill="#3F3D56"/>
<path d="M79.3378 51.6219C80.1961 50.5027 80.9794 49.3279 81.6823 48.1051L65.0123 45.3619L83.0422 45.5026C84.7703 41.737 85.7125 37.6585 85.8113 33.5164C85.91 29.3744 85.1633 25.2556 83.6167 21.4119L59.4439 34.0024L81.7175 17.5903C79.6317 13.9713 76.8225 10.821 73.4651 8.33607C70.1077 5.8511 66.2742 4.08472 62.2038 3.14718C58.1334 2.20964 53.9135 2.12106 49.8073 2.88695C45.7011 3.65284 41.7969 5.25678 38.3381 7.59866C34.8794 9.94055 31.9405 12.9702 29.7047 16.4984C27.4689 20.0266 25.9842 23.9778 25.3433 28.1053C24.7025 32.2328 24.9191 36.4482 25.9798 40.4882C27.0405 44.5283 28.9224 48.3064 31.5082 51.5868C30.1391 53.2985 28.9598 55.1537 27.9913 57.12L49.6436 68.374L26.5611 60.6252C24.9433 65.4295 24.5528 70.5621 25.425 75.5559C26.2972 80.5496 28.4045 85.246 31.555 89.2174C28.028 93.7011 25.8338 99.0868 25.2233 104.759C24.6129 110.431 25.6109 116.16 28.1031 121.292C30.5954 126.423 34.4814 130.75 39.3168 133.777C44.1521 136.804 49.7417 138.409 55.4464 138.409C61.1511 138.409 66.7407 136.804 71.5761 133.777C76.4114 130.75 80.2974 126.423 82.7897 121.292C85.2819 116.16 86.2799 110.431 85.6695 104.759C85.059 99.0868 82.8648 93.7011 79.3378 89.2174C83.5534 83.8607 85.8455 77.2421 85.8455 70.4255C85.8455 63.6089 83.5534 56.9904 79.3378 51.6337V51.6219Z" fill="#009688"/>
<path opacity="0.1" d="M25.0479 70.4604C25.049 77.2658 27.3408 83.8728 31.5541 89.2171C28.027 93.7008 25.8328 99.0865 25.2224 104.758C24.612 110.43 25.6099 116.16 28.1022 121.291C30.5945 126.423 34.4805 130.749 39.3158 133.776C44.1512 136.803 49.7408 138.409 55.4455 138.409C61.1502 138.409 66.7398 136.803 71.5751 133.776C76.4105 130.749 80.2965 126.423 82.7887 121.291C85.281 116.16 86.279 110.43 85.6685 104.758C85.0581 99.0865 82.8639 93.7008 79.3368 89.2171C83.3812 84.0356 25.0479 67.0021 25.0479 70.4604Z" fill="black"/>
<g opacity="0.8">
<path opacity="0.8" d="M337 0.771973H210.478V141.985H337V0.771973Z" fill="url(#paint0_linear)"/>
</g>
<path d="M334.906 95.0542H212.567V138.909H334.906V95.0542Z" fill="white"/>
<path d="M227.35 105.456H222.609V127.928H227.35V105.456Z" fill="#64FFDA"/>
<g opacity="0.7">
<path opacity="0.7" d="M236.709 105.456H231.968V127.928H236.709V105.456Z" fill="#64FFDA"/>
</g>
<g opacity="0.6">
<path opacity="0.6" d="M246.07 105.456H241.329V127.928H246.07V105.456Z" fill="#64FFDA"/>
</g>
<g opacity="0.5">
<path opacity="0.5" d="M255.427 105.456H250.687V127.928H255.427V105.456Z" fill="#64FFDA"/>
</g>
<g opacity="0.5">
<path opacity="0.5" d="M264.787 105.456H260.046V127.928H264.787V105.456Z" fill="#64FFDA"/>
</g>
<g opacity="0.4">
<path opacity="0.4" d="M274.145 105.456H269.404V127.928H274.145V105.456Z" fill="#64FFDA"/>
</g>
<g opacity="0.3">
<path opacity="0.3" d="M283.506 105.456H278.766V127.928H283.506V105.456Z" fill="#64FFDA"/>
</g>
<path d="M317.588 127.987C323.906 127.987 329.027 122.866 329.027 116.548C329.027 110.23 323.906 105.108 317.588 105.108C311.27 105.108 306.148 110.23 306.148 116.548C306.148 122.866 311.27 127.987 317.588 127.987Z" fill="#009688"/>
<path d="M334.906 49.4907H212.567V93.3457H334.906V49.4907Z" fill="white"/>
<path d="M227.35 59.8926H222.609V82.3649H227.35V59.8926Z" fill="#64FFDA"/>
<g opacity="0.7">
<path opacity="0.7" d="M236.709 59.8926H231.968V82.3649H236.709V59.8926Z" fill="#64FFDA"/>
</g>
<g opacity="0.6">
<path opacity="0.6" d="M246.07 59.8926H241.329V82.3649H246.07V59.8926Z" fill="#64FFDA"/>
</g>
<g opacity="0.5">
<path opacity="0.5" d="M255.427 59.8926H250.687V82.3649H255.427V59.8926Z" fill="#64FFDA"/>
</g>
<g opacity="0.5">
<path opacity="0.5" d="M264.787 59.8926H260.046V82.3649H264.787V59.8926Z" fill="#64FFDA"/>
</g>
<g opacity="0.4">
<path opacity="0.4" d="M274.145 59.8926H269.404V82.3649H274.145V59.8926Z" fill="#64FFDA"/>
</g>
<g opacity="0.3">
<path opacity="0.3" d="M283.506 59.8926H278.766V82.3649H283.506V59.8926Z" fill="#64FFDA"/>
</g>
<path d="M317.588 82.4266C323.906 82.4266 329.027 77.305 329.027 70.9872C329.027 64.6694 323.906 59.5479 317.588 59.5479C311.27 59.5479 306.148 64.6694 306.148 70.9872C306.148 77.305 311.27 82.4266 317.588 82.4266Z" fill="#009688"/>
<path d="M334.906 3.92725H212.567V47.7822H334.906V3.92725Z" fill="white"/>
<path d="M227.35 14.332H222.609V36.8044H227.35V14.332Z" fill="#64FFDA"/>
<g opacity="0.7">
<path opacity="0.7" d="M236.709 14.332H231.968V36.8044H236.709V14.332Z" fill="#64FFDA"/>
</g>
<g opacity="0.6">
<path opacity="0.6" d="M246.07 14.332H241.329V36.8044H246.07V14.332Z" fill="#64FFDA"/>
</g>
<g opacity="0.5">
<path opacity="0.5" d="M255.427 14.332H250.687V36.8044H255.427V14.332Z" fill="#64FFDA"/>
</g>
<g opacity="0.5">
<path opacity="0.5" d="M264.787 14.332H260.046V36.8044H264.787V14.332Z" fill="#64FFDA"/>
</g>
<g opacity="0.4">
<path opacity="0.4" d="M274.145 14.332H269.404V36.8044H274.145V14.332Z" fill="#64FFDA"/>
</g>
<g opacity="0.3">
<path opacity="0.3" d="M283.506 14.332H278.766V36.8044H283.506V14.332Z" fill="#64FFDA"/>
</g>
<path d="M317.587 37.756C324.398 37.756 329.919 32.2347 329.919 25.4239C329.919 18.6131 324.398 13.0918 317.587 13.0918C310.776 13.0918 305.255 18.6131 305.255 25.4239C305.255 32.2347 310.776 37.756 317.587 37.756Z" fill="url(#paint1_linear)"/>
<path d="M317.587 83.6242C324.398 83.6242 329.919 78.1029 329.919 71.2921C329.919 64.4812 324.398 58.96 317.587 58.96C310.776 58.96 305.255 64.4812 305.255 71.2921C305.255 78.1029 310.776 83.6242 317.587 83.6242Z" fill="url(#paint2_linear)"/>
<path d="M317.587 129.185C324.398 129.185 329.919 123.663 329.919 116.853C329.919 110.042 324.398 104.521 317.587 104.521C310.776 104.521 305.255 110.042 305.255 116.853C305.255 123.663 310.776 129.185 317.587 129.185Z" fill="url(#paint3_linear)"/>
<path d="M317.588 36.8631C323.906 36.8631 329.027 31.7415 329.027 25.4237C329.027 19.106 323.906 13.9844 317.588 13.9844C311.27 13.9844 306.148 19.106 306.148 25.4237C306.148 31.7415 311.27 36.8631 317.588 36.8631Z" fill="#009688"/>
<g opacity="0.8">
<path opacity="0.8" d="M247.099 199.446H31.9365V62.0778C31.9365 61.2662 32.0964 60.4625 32.407 59.7127C32.7176 58.9629 33.1728 58.2815 33.7467 57.7076C34.3206 57.1337 35.0019 56.6785 35.7518 56.3679C36.5016 56.0573 37.3053 55.8975 38.1169 55.8975H240.915C241.727 55.8975 242.53 56.0573 243.28 56.3679C244.03 56.6785 244.711 57.1337 245.285 57.7076C245.859 58.2815 246.314 58.9629 246.625 59.7127C246.936 60.4625 247.095 61.2662 247.095 62.0778L247.099 199.446Z" fill="url(#paint4_linear)"/>
</g>
<path d="M40.7135 58.1343H237.896C239.538 58.1343 241.112 58.7845 242.273 59.9418C243.434 61.0992 244.086 62.6689 244.086 64.3057V198.951H34.5234V64.3057C34.5234 62.6689 35.1756 61.0992 36.3365 59.9418C37.4973 58.7845 39.0718 58.1343 40.7135 58.1343Z" fill="white"/>
<path d="M237.433 67.0049H41.1758V194.516H237.433V67.0049Z" fill="#F5F5F5"/>
<path opacity="0.8" d="M237.433 72.5488H42.2852V187.864H237.433V72.5488Z" fill="#E0E0E0"/>
<path d="M237.433 67.0049H42.2852V72.5489H237.433V67.0049Z" fill="#F5F5F5"/>
<path d="M46.7201 71.4397C47.3325 71.4397 47.8289 70.695 47.8289 69.7765C47.8289 68.8579 47.3325 68.1133 46.7201 68.1133C46.1078 68.1133 45.6113 68.8579 45.6113 69.7765C45.6113 70.695 46.1078 71.4397 46.7201 71.4397Z" fill="#FF5252"/>
<path d="M50.6007 71.4397C51.5193 71.4397 52.2639 70.695 52.2639 69.7765C52.2639 68.8579 51.5193 68.1133 50.6007 68.1133C49.6821 68.1133 48.9375 68.8579 48.9375 69.7765C48.9375 70.695 49.6821 71.4397 50.6007 71.4397Z" fill="#FFFF00"/>
<path d="M55.0353 71.4397C55.9538 71.4397 56.6985 70.695 56.6985 69.7765C56.6985 68.8579 55.9538 68.1133 55.0353 68.1133C54.1167 68.1133 53.3721 68.8579 53.3721 69.7765C53.3721 70.695 54.1167 71.4397 55.0353 71.4397Z" fill="#69F0AE"/>
<g opacity="0.8">
<path opacity="0.8" d="M253.119 198.642C241.141 199.15 35.4525 198.947 28.2629 198.642C18.8398 196.1 19.0002 186.237 19.0002 186.237L113.329 185.885L113.646 188.887H154.029L155.594 186.237H260.144C260.144 186.237 262.221 195.287 253.119 198.642Z" fill="url(#paint5_linear)"/>
</g>
<path d="M258.298 187.864H155.79C156.193 188.119 156.456 188.435 156.545 188.773C156.635 189.11 156.547 189.455 156.294 189.766C156.041 190.076 155.632 190.338 155.118 190.52C154.605 190.702 154.008 190.796 153.4 190.791H114.284C113.677 190.796 113.08 190.702 112.566 190.52C112.052 190.338 111.644 190.076 111.391 189.766C111.137 189.455 111.05 189.11 111.139 188.773C111.229 188.435 111.491 188.119 111.894 187.864H20.1086C20.1086 187.864 19.9521 196.466 29.2578 198.683C36.3574 198.949 239.53 199.123 251.359 198.683C260.351 195.756 258.298 187.864 258.298 187.864Z" fill="#F5F5F5"/>
<path d="M41.7306 192.299C42.6491 192.299 43.3938 191.802 43.3938 191.19C43.3938 190.577 42.6491 190.081 41.7306 190.081C40.812 190.081 40.0674 190.577 40.0674 191.19C40.0674 191.802 40.812 192.299 41.7306 192.299Z" fill="#E0E0E0"/>
<path d="M45.6107 192.299C46.2231 192.299 46.7195 191.802 46.7195 191.19C46.7195 190.577 46.2231 190.081 45.6107 190.081C44.9984 190.081 44.502 190.577 44.502 191.19C44.502 191.802 44.9984 192.299 45.6107 192.299Z" fill="#E0E0E0"/>
<path d="M48.9379 192.299C49.5503 192.299 50.0467 191.802 50.0467 191.19C50.0467 190.577 49.5503 190.081 48.9379 190.081C48.3255 190.081 47.8291 190.577 47.8291 191.19C47.8291 191.802 48.3255 192.299 48.9379 192.299Z" fill="#E0E0E0"/>
<g opacity="0.7">
<path opacity="0.7" d="M133.434 77.4038L95.4678 100.768C95.4678 100.768 95.4678 148.959 133.434 175.241C171.4 148.955 171.4 100.768 171.4 100.768L133.434 77.4038Z" fill="url(#paint6_linear)"/>
</g>
<path d="M133.741 80.3105L97.7246 102.289C97.7246 102.289 97.7246 147.618 133.76 172.341C169.796 147.618 169.796 102.289 169.796 102.289L133.741 80.3105Z" fill="#F55F44"/>
<path opacity="0.05" d="M133.823 80.3105L133.206 80.7003V171.912L133.823 172.341C169.796 147.624 169.796 102.307 169.796 102.307L133.823 80.3105Z" fill="black"/>
<path d="M117.683 47.0462V8.23828H206.386" stroke="#3AD29F" stroke-width="2" stroke-miterlimit="10" stroke-dasharray="12 12"/>
<path d="M127.662 52.5904V17.1089H201.951" stroke="#3AD29F" stroke-width="2" stroke-miterlimit="10" stroke-dasharray="12 12"/>
<path d="M280.676 147.947V185.646H262.936" stroke="#3AD29F" stroke-width="2" stroke-miterlimit="10" stroke-dasharray="12 12"/>
<path d="M290.655 155.708V194.516H272.914" stroke="#3AD29F" stroke-width="2" stroke-miterlimit="10" stroke-dasharray="12 12"/>
</g>
<defs>
<linearGradient id="paint0_linear" x1="273.739" y1="141.985" x2="273.739" y2="0.771973" gradientUnits="userSpaceOnUse">
<stop stop-color="#808080" stop-opacity="0.25"/>
<stop offset="0.54" stop-color="#808080" stop-opacity="0.12"/>
<stop offset="1" stop-color="#808080" stop-opacity="0.1"/>
</linearGradient>
<linearGradient id="paint1_linear" x1="20109.1" y1="2976.25" x2="20109.1" y2="1000.15" gradientUnits="userSpaceOnUse">
<stop stop-color="#808080" stop-opacity="0.25"/>
<stop offset="0.54" stop-color="#808080" stop-opacity="0.12"/>
<stop offset="1" stop-color="#808080" stop-opacity="0.1"/>
</linearGradient>
<linearGradient id="paint2_linear" x1="20109.1" y1="6697.09" x2="20109.1" y2="4720.99" gradientUnits="userSpaceOnUse">
<stop stop-color="#808080" stop-opacity="0.25"/>
<stop offset="0.54" stop-color="#808080" stop-opacity="0.12"/>
<stop offset="1" stop-color="#808080" stop-opacity="0.1"/>
</linearGradient>
<linearGradient id="paint3_linear" x1="20109.1" y1="10393" x2="20109.1" y2="8416.85" gradientUnits="userSpaceOnUse">
<stop stop-color="#808080" stop-opacity="0.25"/>
<stop offset="0.54" stop-color="#808080" stop-opacity="0.12"/>
<stop offset="1" stop-color="#808080" stop-opacity="0.1"/>
</linearGradient>
<linearGradient id="paint4_linear" x1="102256" y1="112768" x2="102256" y2="60089.4" gradientUnits="userSpaceOnUse">
<stop stop-color="#808080" stop-opacity="0.25"/>
<stop offset="0.54" stop-color="#808080" stop-opacity="0.12"/>
<stop offset="1" stop-color="#808080" stop-opacity="0.1"/>
</linearGradient>
<linearGradient id="paint5_linear" x1="114780" y1="10772.4" x2="114780" y2="9992.41" gradientUnits="userSpaceOnUse">
<stop stop-color="#808080" stop-opacity="0.25"/>
<stop offset="0.54" stop-color="#808080" stop-opacity="0.12"/>
<stop offset="1" stop-color="#808080" stop-opacity="0.1"/>
</linearGradient>
<linearGradient id="paint6_linear" x1="34990.2" y1="70844.3" x2="34990.2" y2="46372.2" gradientUnits="userSpaceOnUse">
<stop stop-color="#808080" stop-opacity="0.25"/>
<stop offset="0.54" stop-color="#808080" stop-opacity="0.12"/>
<stop offset="1" stop-color="#808080" stop-opacity="0.1"/>
</linearGradient>
<clipPath id="clip0">
<rect width="346.17" height="200" fill="white"/>
</clipPath>
</defs>
</svg>
