<svg width="860" height="563" viewBox="0 0 860 563" fill="none" xmlns="http://www.w3.org/2000/svg">
<path d="M605.033 449.092C653.646 449.092 693.054 409.687 693.054 361.078C693.054 312.469 653.646 273.063 605.033 273.063C556.42 273.063 517.012 312.469 517.012 361.078C517.012 409.687 556.42 449.092 605.033 449.092Z" fill="url(#paint0_linear)"/>
<path d="M605.034 444.901C651.331 444.901 688.863 407.372 688.863 361.078C688.863 314.783 651.331 277.254 605.034 277.254C558.736 277.254 521.204 314.783 521.204 361.078C521.204 407.372 558.736 444.901 605.034 444.901Z" fill="#F5F5F5"/>
<g opacity="0.5">
<path opacity="0.5" d="M607.381 308.713C594.151 308.267 581.242 312.844 571.248 321.523C561.254 330.203 554.914 342.342 553.503 355.503H538.414C537.605 355.503 536.829 355.825 536.256 356.397C535.684 356.969 535.363 357.745 535.363 358.555V363.584C535.363 364.394 535.684 365.171 536.256 365.744C536.828 366.318 537.604 366.641 538.414 366.643H553.503C554.572 376.635 558.492 386.108 564.795 393.934C571.098 401.76 579.519 407.608 589.054 410.781C598.589 413.954 608.835 414.319 618.572 411.831C628.308 409.343 637.123 404.108 643.966 396.75C650.81 389.392 655.393 380.221 657.168 370.33C658.944 360.44 657.838 350.248 653.982 340.969C650.126 331.69 643.682 323.715 635.42 317.996C627.157 312.277 617.424 309.055 607.381 308.713Z" fill="url(#paint1_linear)"/>
</g>
<path d="M606.701 311.857C594.265 311.435 582.13 315.735 572.735 323.895C563.341 332.054 557.383 343.467 556.06 355.839H541.457C540.81 355.839 540.19 356.096 539.732 356.553C539.275 357.011 539.018 357.631 539.018 358.278V363.869C539.016 364.19 539.079 364.508 539.201 364.805C539.323 365.102 539.502 365.372 539.729 365.599C539.956 365.827 540.225 366.007 540.522 366.13C540.818 366.253 541.136 366.317 541.457 366.317H556.06C557.07 375.707 560.759 384.608 566.688 391.96C572.616 399.312 580.534 404.805 589.496 407.783C598.459 410.761 608.09 411.099 617.239 408.758C626.389 406.416 634.673 401.493 641.103 394.575C647.532 387.657 651.837 379.036 653.504 369.74C655.171 360.445 654.129 350.865 650.504 342.145C646.878 333.424 640.821 325.93 633.055 320.555C625.289 315.181 616.141 312.153 606.701 311.832V311.857Z" fill="white"/>
<path d="M605.033 395.655C624.131 395.655 639.613 380.174 639.613 361.078C639.613 341.981 624.131 326.501 605.033 326.501C585.935 326.501 570.454 341.981 570.454 361.078C570.454 380.174 585.935 395.655 605.033 395.655Z" fill="#795548"/>
<path opacity="0.2" d="M622.847 344.313C622.847 344.313 632.714 359.636 629.889 371.556C629.889 371.556 641.164 352.821 622.847 344.313Z" fill="white"/>
<path opacity="0.2" d="M627.038 383.081C628.774 383.081 630.182 381.674 630.182 379.938C630.182 378.202 628.774 376.795 627.038 376.795C625.302 376.795 623.895 378.202 623.895 379.938C623.895 381.674 625.302 383.081 627.038 383.081Z" fill="white"/>
<path d="M175.366 40.8519L0.990967 80.306L58.1071 332.705L232.482 293.251L175.366 40.8519Z" fill="url(#paint2_linear)"/>
<path d="M355.85 0.0193893L181.475 39.4735L238.591 291.872L412.966 252.418L355.85 0.0193893Z" fill="url(#paint3_linear)"/>
<g filter="url(#filter0_d)">
<path d="M174.166 44.3262L4.12451 82.7998L59.9992 329.713L230.04 291.239L174.166 44.3262Z" fill="#F55F44"/>
</g>
<g filter="url(#filter1_d)">
<path d="M353.487 3.75085L183.446 42.2245L239.32 289.137L409.362 250.664L353.487 3.75085Z" fill="#F5F5F5"/>
</g>
<path d="M142.619 79.5608L40.5144 102.663L44.3644 119.677L146.469 96.5743L142.619 79.5608Z" fill="#F5F5F5"/>
<path d="M168.938 116.84L32.804 147.641L33.766 151.893L169.9 121.091L168.938 116.84Z" fill="#F5F5F5"/>
<path d="M171.182 126.761L35.0479 157.563L36.0099 161.814L172.144 131.012L171.182 126.761Z" fill="#F5F5F5"/>
<path d="M173.434 136.683L37.3 167.485L38.2621 171.736L174.396 140.934L173.434 136.683Z" fill="#F5F5F5"/>
<path d="M104.771 162.654L39.5408 177.413L40.5028 181.665L105.733 166.906L104.771 162.654Z" fill="#F5F5F5"/>
<path d="M116.949 170.344L41.7927 187.349L42.7548 191.6L117.911 174.595L116.949 170.344Z" fill="#F5F5F5"/>
<path d="M180.169 166.473L44.0344 197.275L44.9965 201.527L181.131 170.725L180.169 166.473Z" fill="#F5F5F5"/>
<path d="M182.421 176.395L46.2864 207.197L47.2484 211.448L183.383 180.647L182.421 176.395Z" fill="#F5F5F5"/>
<path d="M174.741 188.566L48.5327 217.122L49.4948 221.373L175.703 192.817L174.741 188.566Z" fill="#F5F5F5"/>
<path d="M186.909 196.247L50.7747 227.049L51.7367 231.301L187.871 200.499L186.909 196.247Z" fill="#F5F5F5"/>
<path d="M123.923 220.934L53.0188 236.976L53.9808 241.228L124.885 225.185L123.923 220.934Z" fill="#F5F5F5"/>
<path opacity="0.3" d="M315.097 189.604L239.941 206.609L240.903 210.86L316.059 193.855L315.097 189.604Z" fill="#6C63FF"/>
<path opacity="0.3" d="M378.317 185.734L242.182 216.536L243.144 220.787L379.279 189.985L378.317 185.734Z" fill="#6C63FF"/>
<path opacity="0.3" d="M380.569 195.656L244.435 226.458L245.397 230.709L381.531 199.907L380.569 195.656Z" fill="#6C63FF"/>
<path opacity="0.3" d="M372.889 207.827L246.681 236.383L247.643 240.634L373.851 212.078L372.889 207.827Z" fill="#6C63FF"/>
<path opacity="0.3" d="M385.058 215.508L248.923 246.309L249.885 250.561L386.02 219.759L385.058 215.508Z" fill="#6C63FF"/>
<path opacity="0.3" d="M322.072 240.194L251.167 256.237L252.13 260.488L323.034 244.445L322.072 240.194Z" fill="#6C63FF"/>
<path d="M190.163 223.831L107.918 242.44L120.754 299.163L202.999 280.554L190.163 223.831Z" fill="#F5F5F5"/>
<path opacity="0.3" d="M287.531 34.8494L205.287 53.4581L218.123 110.181L300.367 91.572L287.531 34.8494Z" fill="#009688"/>
<path opacity="0.3" d="M368.028 94.1477L285.783 112.756L298.619 169.479L380.864 150.87L368.028 94.1477Z" fill="#6C63FF"/>
<path d="M408.815 61.0879L256.418 95.5693C250.349 96.9425 246.542 102.975 247.915 109.044L300.059 339.466C301.432 345.535 307.465 349.341 313.534 347.968L465.931 313.487C472 312.114 475.806 306.081 474.433 300.012L422.29 69.5896C420.917 63.5211 414.884 59.7147 408.815 61.0879Z" fill="url(#paint4_linear)"/>
<g filter="url(#filter2_d)">
<path d="M406.461 64.8193L258.397 98.3203C252.328 99.6935 248.521 105.726 249.895 111.795L300.796 336.732C302.17 342.8 308.203 346.606 314.272 345.233L462.335 311.732C468.404 310.359 472.211 304.326 470.838 298.258L419.936 73.3211C418.563 67.2525 412.53 63.4462 406.461 64.8193Z" fill="white"/>
</g>
<g opacity="0.5">
<path opacity="0.5" d="M188.233 454.415H185.718V468.665H188.233V454.415Z" fill="#47E6B1"/>
<path opacity="0.5" d="M194.101 462.798V460.283H179.85V462.798H194.101Z" fill="#47E6B1"/>
</g>
<g opacity="0.5">
<path opacity="0.5" d="M612.578 27.4606H610.063V41.7106H612.578V27.4606Z" fill="#47E6B1"/>
<path opacity="0.5" d="M618.446 35.8429V33.3282H604.195V35.8429H618.446Z" fill="#47E6B1"/>
</g>
<path opacity="0.3" d="M360.886 204.048L285.73 221.053L286.692 225.304L361.848 208.299L360.886 204.048Z" fill="#6C63FF"/>
<path opacity="0.3" d="M354.153 176.118L278.997 193.123L281.486 204.123L356.642 187.118L354.153 176.118Z" fill="#6C63FF"/>
<path opacity="0.3" d="M424.105 200.178L287.971 230.98L288.933 235.231L425.067 204.429L424.105 200.178Z" fill="#6C63FF"/>
<path opacity="0.3" d="M426.358 210.1L290.224 240.901L291.186 245.153L427.32 214.351L426.358 210.1Z" fill="#6C63FF"/>
<path opacity="0.3" d="M418.678 222.271L292.469 250.827L293.431 255.078L419.64 226.522L418.678 222.271Z" fill="#6C63FF"/>
<path opacity="0.3" d="M430.846 229.951L294.712 260.753L295.674 265.005L431.808 234.203L430.846 229.951Z" fill="#6C63FF"/>
<path opacity="0.3" d="M367.86 254.638L296.956 270.681L297.918 274.932L368.822 258.889L367.86 254.638Z" fill="#6C63FF"/>
<g opacity="0.5">
<path opacity="0.5" d="M537.131 209.357H534.616V223.607H537.131V209.357Z" fill="#47E6B1"/>
<path opacity="0.5" d="M542.999 217.74V215.225H528.748V217.74H542.999Z" fill="#47E6B1"/>
</g>
<g opacity="0.5">
<path opacity="0.5" d="M753.075 242.048H750.561V256.298H753.075V242.048Z" fill="#47E6B1"/>
<path opacity="0.5" d="M758.935 250.439V247.924H744.684V250.439H758.935Z" fill="#47E6B1"/>
</g>
<path opacity="0.5" d="M332.16 452.99C331.467 452.688 330.91 452.142 330.593 451.456C330.276 450.77 330.222 449.991 330.441 449.268C330.485 449.159 330.507 449.042 330.508 448.925C330.53 448.593 330.444 448.263 330.262 447.984C330.081 447.706 329.815 447.493 329.503 447.378C329.191 447.263 328.85 447.252 328.531 447.346C328.213 447.441 327.933 447.636 327.734 447.902C327.67 447.998 327.614 448.099 327.566 448.204C327.258 448.89 326.709 449.439 326.023 449.748C325.337 450.057 324.562 450.104 323.844 449.88C323.732 449.845 323.617 449.822 323.5 449.813C323.169 449.792 322.839 449.878 322.56 450.059C322.281 450.24 322.069 450.507 321.954 450.819C321.839 451.131 321.828 451.471 321.922 451.79C322.017 452.109 322.211 452.389 322.478 452.588C322.571 452.657 322.673 452.716 322.779 452.764C323.473 453.064 324.032 453.61 324.349 454.297C324.666 454.983 324.719 455.762 324.498 456.485C324.464 456.594 324.441 456.707 324.431 456.821C324.407 457.153 324.492 457.484 324.673 457.764C324.853 458.045 325.12 458.259 325.432 458.375C325.745 458.491 326.086 458.503 326.406 458.408C326.726 458.314 327.006 458.119 327.206 457.852C327.273 457.755 327.329 457.651 327.373 457.542C327.683 456.855 328.233 456.305 328.921 455.996C329.608 455.687 330.384 455.641 331.104 455.865C331.212 455.9 331.325 455.923 331.439 455.932C331.771 455.954 332.101 455.867 332.379 455.686C332.658 455.505 332.871 455.238 332.986 454.926C333.101 454.614 333.112 454.274 333.017 453.955C332.923 453.636 332.728 453.357 332.462 453.158C332.369 453.089 332.267 453.033 332.16 452.99Z" fill="#4D8AF0"/>
<path opacity="0.5" d="M454.718 557.476C454.033 557.166 453.485 556.617 453.176 555.932C452.868 555.247 452.82 554.472 453.042 553.754C453.077 553.643 453.099 553.527 453.109 553.411C453.13 553.079 453.044 552.749 452.863 552.47C452.681 552.192 452.415 551.979 452.103 551.864C451.791 551.749 451.45 551.738 451.132 551.832C450.813 551.927 450.533 552.122 450.334 552.388C450.267 552.482 450.211 552.583 450.166 552.69C449.867 553.385 449.322 553.944 448.635 554.262C447.948 554.579 447.168 554.631 446.444 554.408C446.333 554.374 446.217 554.351 446.101 554.341C445.769 554.32 445.439 554.406 445.16 554.587C444.882 554.768 444.669 555.035 444.554 555.347C444.439 555.659 444.428 555.999 444.522 556.318C444.617 556.637 444.812 556.917 445.078 557.116C445.171 557.187 445.272 557.246 445.38 557.292C446.065 557.601 446.613 558.15 446.922 558.836C447.23 559.521 447.278 560.295 447.056 561.013C447.021 561.125 446.999 561.24 446.989 561.357C446.968 561.689 447.054 562.019 447.235 562.297C447.417 562.576 447.683 562.789 447.995 562.903C448.307 563.018 448.648 563.03 448.967 562.935C449.285 562.841 449.565 562.646 449.764 562.38C449.833 562.284 449.889 562.18 449.932 562.07C450.24 561.383 450.789 560.834 451.475 560.525C452.16 560.216 452.936 560.169 453.654 560.393C453.766 560.427 453.881 560.45 453.997 560.46C454.329 560.482 454.659 560.395 454.938 560.214C455.216 560.033 455.429 559.766 455.544 559.454C455.659 559.142 455.67 558.802 455.576 558.483C455.481 558.164 455.286 557.885 455.02 557.686C454.929 557.602 454.828 557.532 454.718 557.476Z" fill="#4D8AF0"/>
<path opacity="0.5" d="M638.305 196.197C637.62 195.887 637.071 195.338 636.763 194.653C636.454 193.968 636.406 193.193 636.628 192.475C636.663 192.364 636.686 192.248 636.695 192.132C636.716 191.8 636.63 191.47 636.449 191.191C636.268 190.913 636.001 190.7 635.689 190.585C635.377 190.47 635.037 190.459 634.718 190.553C634.399 190.648 634.119 190.843 633.92 191.109C633.853 191.203 633.797 191.304 633.753 191.411C633.453 192.106 632.908 192.666 632.221 192.983C631.534 193.3 630.754 193.352 630.031 193.129C629.919 193.095 629.804 193.072 629.687 193.062C629.355 193.041 629.026 193.127 628.747 193.308C628.468 193.489 628.256 193.756 628.141 194.068C628.026 194.38 628.014 194.72 628.109 195.039C628.203 195.358 628.398 195.638 628.664 195.837C628.757 195.908 628.858 195.967 628.966 196.013C629.651 196.322 630.199 196.871 630.508 197.557C630.817 198.242 630.865 199.016 630.643 199.734C630.608 199.846 630.585 199.961 630.576 200.078C630.554 200.41 630.641 200.74 630.822 201.018C631.003 201.297 631.27 201.51 631.581 201.625C631.893 201.739 632.234 201.751 632.553 201.656C632.872 201.562 633.151 201.367 633.35 201.101C633.419 201.005 633.476 200.901 633.518 200.791C633.826 200.104 634.375 199.555 635.061 199.246C635.747 198.937 636.522 198.89 637.24 199.114C637.352 199.148 637.467 199.171 637.584 199.181C637.915 199.203 638.245 199.116 638.524 198.935C638.803 198.754 639.015 198.487 639.13 198.175C639.245 197.864 639.256 197.523 639.162 197.204C639.067 196.885 638.873 196.606 638.606 196.407C638.516 196.323 638.414 196.253 638.305 196.197Z" fill="#4D8AF0"/>
<path opacity="0.5" d="M765.725 331.153C765.04 330.843 764.492 330.294 764.183 329.609C763.875 328.924 763.827 328.149 764.049 327.431C764.084 327.319 764.106 327.204 764.116 327.087C764.137 326.756 764.051 326.426 763.869 326.147C763.688 325.868 763.422 325.656 763.11 325.541C762.798 325.426 762.457 325.415 762.138 325.509C761.82 325.604 761.54 325.798 761.341 326.065C761.274 326.159 761.218 326.26 761.173 326.366C760.874 327.061 760.328 327.621 759.641 327.938C758.954 328.256 758.174 328.308 757.451 328.085C757.339 328.05 757.224 328.028 757.108 328.018C756.776 327.996 756.446 328.083 756.167 328.264C755.889 328.445 755.676 328.712 755.561 329.023C755.446 329.335 755.435 329.676 755.529 329.995C755.624 330.314 755.819 330.593 756.085 330.792C756.177 330.864 756.279 330.923 756.387 330.968C757.072 331.278 757.62 331.827 757.929 332.512C758.237 333.198 758.285 333.972 758.063 334.69C758.028 334.802 758.006 334.917 757.996 335.034C757.975 335.365 758.061 335.695 758.242 335.974C758.424 336.253 758.69 336.465 759.002 336.58C759.314 336.695 759.655 336.706 759.973 336.612C760.292 336.518 760.572 336.323 760.771 336.056C760.84 335.961 760.896 335.856 760.939 335.746C761.247 335.06 761.796 334.511 762.481 334.202C763.167 333.893 763.942 333.846 764.661 334.07C764.772 334.104 764.888 334.127 765.004 334.137C765.336 334.158 765.666 334.072 765.944 333.891C766.223 333.709 766.436 333.443 766.551 333.131C766.666 332.819 766.677 332.478 766.583 332.16C766.488 331.841 766.293 331.561 766.027 331.362C765.936 331.279 765.835 331.209 765.725 331.153Z" fill="#4D8AF0"/>
<path opacity="0.5" d="M120.331 413.342C123.109 413.342 125.361 411.09 125.361 408.312C125.361 405.535 123.109 403.283 120.331 403.283C117.553 403.283 115.301 405.535 115.301 408.312C115.301 411.09 117.553 413.342 120.331 413.342Z" fill="#F55F44"/>
<path opacity="0.5" d="M439.889 47.5782C442.667 47.5782 444.919 45.3265 444.919 42.5488C444.919 39.7712 442.667 37.5194 439.889 37.5194C437.111 37.5194 434.859 39.7712 434.859 42.5488C434.859 45.3265 437.111 47.5782 439.889 47.5782Z" fill="#4D8AF0"/>
<path opacity="0.5" d="M418.932 415.563C421.71 415.563 423.961 413.311 423.961 410.534C423.961 407.756 421.71 405.504 418.932 405.504C416.154 405.504 413.902 407.756 413.902 410.534C413.902 413.311 416.154 415.563 418.932 415.563Z" fill="#47E6B1"/>
<path opacity="0.5" d="M708.981 541.298C711.759 541.298 714.011 539.046 714.011 536.269C714.011 533.491 711.759 531.239 708.981 531.239C706.204 531.239 703.952 533.491 703.952 536.269C703.952 539.046 706.204 541.298 708.981 541.298Z" fill="#F55F44"/>
<g opacity="0.5">
<path opacity="0.5" d="M658.239 239.07L726.773 9.33835C727.173 7.99835 728.089 6.87207 729.319 6.2072C730.549 5.54233 731.993 5.39337 733.333 5.7931L856.176 42.4349C857.516 42.8346 858.643 43.7503 859.308 44.9804C859.973 46.2106 860.122 47.6544 859.722 48.9945L791.187 278.726C790.788 280.064 789.874 281.188 788.646 281.852C787.417 282.516 785.976 282.665 784.638 282.266L661.779 245.619C660.442 245.218 659.319 244.303 658.655 243.076C657.992 241.848 657.842 240.408 658.239 239.07Z" fill="url(#paint5_linear)"/>
</g>
<path d="M847.62 43.2461L740.185 11.2001C734.133 9.39505 727.764 12.8371 725.959 18.8882L662.85 230.434C661.045 236.485 664.487 242.854 670.538 244.659L777.974 276.705C784.025 278.51 790.394 275.068 792.199 269.017L855.309 57.4708C857.114 51.4198 853.671 45.0511 847.62 43.2461Z" fill="white"/>
<path d="M824.624 42.8254C823.524 45.201 821.606 47.1012 819.22 48.1787C816.834 49.2561 814.14 49.4387 811.63 48.6931L766.957 35.3568C764.448 34.6025 762.293 32.9727 760.883 30.7636C759.474 28.5546 758.905 25.9131 759.279 23.3197L735.639 16.2702C734.336 15.8844 732.933 16.0303 731.738 16.676C730.542 17.3216 729.651 18.4144 729.259 19.7153L665.993 231.646C665.801 232.291 665.739 232.968 665.808 233.637C665.878 234.306 666.079 234.955 666.4 235.547C666.721 236.139 667.155 236.661 667.678 237.085C668.201 237.509 668.802 237.825 669.447 238.017L782.483 271.747C783.784 272.135 785.187 271.99 786.382 271.344C787.576 270.698 788.466 269.604 788.854 268.302L852.095 56.3713C852.288 55.7268 852.352 55.0505 852.283 54.3812C852.215 53.7119 852.014 53.0628 851.694 52.4709C851.374 51.8791 850.941 51.3563 850.418 50.9324C849.895 50.5085 849.294 50.1919 848.649 50.0007L824.624 42.8254Z" fill="#E0E0E0"/>
<path d="M803.689 39.4184L776.567 31.698C776.068 31.556 775.548 31.8452 775.407 32.3439C775.265 32.8426 775.554 33.3619 776.052 33.5039L803.175 41.2243C803.674 41.3662 804.193 41.0771 804.335 40.5784C804.477 40.0797 804.188 39.5603 803.689 39.4184Z" fill="#DBDBDB"/>
<path d="M810.524 43.3116C811.149 43.3116 811.655 42.8049 811.655 42.18C811.655 41.555 811.149 41.0483 810.524 41.0483C809.899 41.0483 809.392 41.555 809.392 42.18C809.392 42.8049 809.899 43.3116 810.524 43.3116Z" fill="#DBDBDB"/>
<path d="M767.207 67.98L731.646 58.1857L723.187 88.8949L758.748 98.6892L767.207 67.98Z" fill="white"/>
<path opacity="0.3" d="M754.953 112.428L719.393 102.634L710.933 133.343L746.494 143.137L754.953 112.428Z" fill="#FFCA28"/>
<path d="M742.718 156.871L707.157 147.077L698.698 177.786L734.259 187.58L742.718 156.871Z" fill="white"/>
<path opacity="0.3" d="M730.463 201.319L694.903 191.525L686.444 222.234L722.004 232.029L730.463 201.319Z" fill="#3AD29F"/>
<path d="M820.966 90.6058L774.09 77.6951L773.2 80.9276L820.075 93.8383L820.966 90.6058Z" fill="white"/>
<path d="M818.293 100.302L771.417 87.3915L770.527 90.624L817.402 103.535L818.293 100.302Z" fill="white"/>
<path d="M808.942 134.255L762.067 121.344L761.176 124.576L808.052 137.487L808.942 134.255Z" fill="white"/>
<path d="M806.272 143.943L759.396 131.032L758.506 134.265L805.381 147.175L806.272 143.943Z" fill="white"/>
<path d="M796.921 177.895L750.046 164.985L749.155 168.217L796.031 181.128L796.921 177.895Z" fill="white"/>
<path d="M794.249 187.592L747.373 174.681L746.483 177.914L793.358 190.824L794.249 187.592Z" fill="white"/>
<path d="M784.9 221.528L738.024 208.617L737.134 211.849L784.009 224.76L784.9 221.528Z" fill="white"/>
<path d="M782.227 231.232L735.352 218.322L734.462 221.554L781.337 234.465L782.227 231.232Z" fill="white"/>
<path d="M378.964 87.7396L395.156 159.38C395.214 159.639 395.168 159.911 395.026 160.136C394.884 160.36 394.659 160.52 394.4 160.578L277.944 186.924C277.816 186.953 277.683 186.957 277.554 186.934C277.424 186.912 277.3 186.864 277.189 186.794C277.078 186.724 276.982 186.632 276.906 186.525C276.83 186.417 276.777 186.296 276.748 186.168L260.556 114.527C260.527 114.399 260.523 114.266 260.545 114.137C260.568 114.007 260.615 113.883 260.685 113.772C260.755 113.661 260.847 113.564 260.954 113.488C261.061 113.412 261.182 113.358 261.311 113.329L377.762 86.9842C377.891 86.9546 378.024 86.9506 378.154 86.9726C378.284 86.9945 378.408 87.0419 378.52 87.1121C378.632 87.1823 378.728 87.2739 378.804 87.3815C378.881 87.4892 378.935 87.6109 378.964 87.7396Z" fill="#13A89E"/>
<path d="M378.89 87.4143L379.386 89.6087L260.979 116.396L260.483 114.202C260.443 114.029 260.475 113.848 260.569 113.698C260.664 113.548 260.814 113.442 260.987 113.403L378.091 86.9097C378.264 86.8706 378.446 86.9018 378.595 86.9964C378.745 87.091 378.851 87.2413 378.89 87.4143Z" fill="#CBCEDA"/>
<path d="M262.962 115.093C263.336 115.008 263.571 114.636 263.486 114.262C263.402 113.888 263.03 113.653 262.656 113.737C262.282 113.822 262.047 114.194 262.132 114.568C262.216 114.943 262.588 115.178 262.962 115.093Z" fill="#009688"/>
<path d="M264.859 114.664C265.233 114.579 265.468 114.207 265.383 113.833C265.299 113.458 264.927 113.224 264.553 113.308C264.179 113.393 263.944 113.765 264.028 114.139C264.113 114.514 264.485 114.748 264.859 114.664Z" fill="#009688"/>
<path d="M266.755 114.235C267.13 114.15 267.364 113.778 267.28 113.404C267.195 113.029 266.823 112.795 266.449 112.879C266.075 112.964 265.84 113.336 265.925 113.71C266.009 114.084 266.381 114.319 266.755 114.235Z" fill="#009688"/>
<path opacity="0.2" d="M339.811 106.042L303.773 114.195L304.202 116.092L340.24 107.94L339.811 106.042Z" fill="#009688"/>
<path opacity="0.2" d="M305.956 133.932L278.183 140.216L285.535 172.746L313.308 166.463L305.956 133.932Z" fill="white"/>
<path opacity="0.2" d="M339.961 126.239L312.188 132.522L319.54 165.053L347.313 158.77L339.961 126.239Z" fill="white"/>
<path opacity="0.2" d="M353.545 157.36L381.318 151.077L373.966 118.546L346.193 124.83L353.545 157.36Z" fill="white"/>
<path d="M294.564 153.889C294.592 154.397 294.178 154.814 293.764 155.108C293.351 155.403 292.876 155.677 292.674 156.143C292.402 156.774 292.743 157.514 293.234 157.994C293.793 158.545 294.527 158.879 295.243 159.202C295.56 159.367 295.902 159.475 296.255 159.521C296.518 159.529 296.781 159.498 297.035 159.43C297.861 159.243 298.668 158.983 299.447 158.653C300.446 158.227 301.474 157.596 301.823 156.565C302.105 155.722 301.868 154.802 301.628 153.945C301.128 154.014 300.629 153.846 300.153 153.681C299.591 153.487 298.978 153.251 298.692 152.73C298.392 152.183 298.497 151.402 297.995 151.035C297.654 150.788 297.186 150.855 296.775 150.937C296.216 151.048 295.659 151.166 295.104 151.29C294.722 151.377 293.833 151.41 293.576 151.736C293.102 152.329 294.528 153.244 294.564 153.889Z" fill="#A0616A"/>
<path opacity="0.1" d="M294.564 153.889C294.592 154.397 294.178 154.814 293.764 155.108C293.351 155.403 292.876 155.677 292.674 156.143C292.402 156.774 292.743 157.514 293.234 157.994C293.793 158.545 294.527 158.879 295.243 159.202C295.56 159.367 295.902 159.475 296.255 159.521C296.518 159.529 296.781 159.498 297.035 159.43C297.861 159.243 298.668 158.983 299.447 158.653C300.446 158.227 301.474 157.596 301.823 156.565C302.105 155.722 301.868 154.802 301.628 153.945C301.128 154.014 300.629 153.846 300.153 153.681C299.591 153.487 298.978 153.251 298.692 152.73C298.392 152.183 298.497 151.402 297.995 151.035C297.654 150.788 297.186 150.855 296.775 150.937C296.216 151.048 295.659 151.166 295.104 151.29C294.722 151.377 293.833 151.41 293.576 151.736C293.102 152.329 294.528 153.244 294.564 153.889Z" fill="black"/>
<path d="M296.393 153.181C298.588 152.685 299.965 150.502 299.468 148.307C298.972 146.111 296.791 144.734 294.596 145.23C292.402 145.727 291.025 147.909 291.521 150.105C292.018 152.3 294.199 153.678 296.393 153.181Z" fill="#A0616A"/>
<path d="M305.979 156.975C306.007 157.22 305.983 157.468 305.909 157.704C305.885 157.768 305.856 157.829 305.822 157.888C305.654 158.184 305.372 158.418 305.122 158.655C304.421 159.334 303.655 160.184 303.716 161.16C303.733 161.465 303.73 161.77 303.708 162.074C303.664 162.762 303.559 163.452 303.56 164.13C303.555 164.525 303.601 164.918 303.698 165.3C303.73 165.42 303.768 165.537 303.812 165.652C304.147 166.537 304.801 167.251 305.528 167.905C305.607 167.976 305.686 168.046 305.765 168.115L305.817 168.159L292.846 171.094C292.849 171.006 292.852 170.92 292.854 170.833C292.853 170.819 292.854 170.806 292.855 170.792C292.867 170.247 292.862 169.702 292.822 169.161C292.791 168.68 292.725 168.202 292.625 167.73C292.533 167.323 292.521 166.853 292.81 166.548C292.814 166.46 292.817 166.371 292.82 166.284C292.841 164.985 292.544 163.7 291.954 162.543C291.918 162.471 291.879 162.4 291.842 162.329C291.825 162.297 291.806 162.266 291.789 162.234C291.593 161.899 291.414 161.554 291.253 161.2C291.073 160.775 290.949 160.307 290.627 159.978C290.305 159.649 289.844 159.519 289.421 159.342C289.214 159.261 289.02 159.151 288.844 159.015C288.654 158.875 288.514 158.676 288.446 158.45C288.428 158.382 288.418 158.313 288.415 158.243C288.419 157.948 288.504 157.66 288.661 157.411C289.28 156.318 290.452 155.652 291.686 155.356C291.877 155.313 292.066 155.27 292.258 155.244C292.48 155.197 292.708 155.197 292.929 155.243C293.067 155.279 293.196 155.344 293.307 155.434C293.462 155.559 293.594 155.712 293.694 155.885C293.776 156.023 293.847 156.168 293.905 156.319C294.091 156.785 294.223 157.297 294.572 157.657C295.205 158.308 296.289 158.209 297.122 157.848C297.864 157.52 298.524 157.032 299.056 156.419C299.588 155.806 299.978 155.083 300.198 154.302C300.241 154.115 300.294 153.93 300.358 153.749C300.393 153.657 300.438 153.57 300.493 153.489C301.748 153.438 302.997 153.694 304.132 154.233C304.485 154.393 304.812 154.608 305.098 154.869C305.65 155.42 305.924 156.201 305.979 156.975Z" fill="#F2F2F2"/>
<path d="M308.235 165.069C308.211 165.472 308.125 165.87 307.979 166.247C307.897 166.557 307.758 166.85 307.571 167.111C307.175 167.598 306.508 167.741 305.885 167.845L305.836 167.856L305.527 167.907L303.755 168.198C303.288 168.286 302.815 168.341 302.34 168.363C302.212 168.366 302.085 168.364 301.957 168.358C301.238 168.33 300.515 168.209 299.805 168.328C299.599 168.362 299.399 168.42 299.192 168.467L299.135 168.48C298.999 168.511 298.861 168.532 298.722 168.545C298.493 168.562 298.259 168.541 298.03 168.582C297.443 168.683 297.01 169.147 296.587 169.576L296.471 169.691C296.168 169.995 295.834 170.267 295.475 170.503L293.126 171.035C293.079 171.013 293.035 170.988 292.993 170.958C292.943 170.922 292.896 170.882 292.855 170.837C292.845 170.826 292.836 170.815 292.828 170.804C292.714 170.658 292.634 170.488 292.594 170.308C292.553 170.127 292.552 169.94 292.591 169.759C292.636 169.551 292.713 169.352 292.818 169.167C292.934 168.965 293.064 168.771 293.208 168.588C293.949 167.62 294.854 166.74 295.971 166.253C296.049 166.22 296.129 166.188 296.208 166.159C296.777 165.959 297.362 165.806 297.956 165.702L298.51 165.588L300.83 165.113L300.894 165.098C301.826 164.906 302.803 164.692 303.558 164.132C303.654 164.061 303.746 163.984 303.833 163.902C303.91 163.839 303.969 163.758 304.006 163.666C304.036 163.545 304.03 163.418 303.991 163.299L303.707 162.081L303.159 159.733C303.028 159.156 302.894 158.58 302.757 158.005C302.694 157.831 302.67 157.646 302.689 157.462C302.708 157.278 302.769 157.101 302.866 156.944C303.108 156.444 303.591 154.76 304.168 154.604C304.27 154.575 304.379 154.58 304.478 154.619C305.049 154.838 305.335 156.091 305.443 156.511C305.562 156.975 305.687 157.437 305.82 157.897C306.363 159.782 307.019 161.632 307.784 163.437C308.006 163.955 308.243 164.497 308.235 165.069Z" fill="#A0616A"/>
<path opacity="0.1" d="M308.235 165.069C308.211 165.472 308.125 165.87 307.979 166.247C307.897 166.557 307.758 166.85 307.571 167.111C307.175 167.598 306.508 167.741 305.885 167.845L305.836 167.856L305.527 167.907L303.755 168.198C303.288 168.286 302.815 168.341 302.34 168.363C302.212 168.366 302.085 168.364 301.957 168.358C301.238 168.33 300.515 168.209 299.805 168.328C299.599 168.362 299.399 168.42 299.192 168.467L299.135 168.48C298.999 168.511 298.861 168.532 298.722 168.545C298.493 168.562 298.259 168.541 298.03 168.582C297.443 168.683 297.01 169.147 296.587 169.576L296.471 169.691C296.168 169.995 295.834 170.267 295.475 170.503L293.126 171.035C293.079 171.013 293.035 170.988 292.993 170.958C292.943 170.922 292.896 170.882 292.855 170.837C292.845 170.826 292.836 170.815 292.828 170.804C292.714 170.658 292.634 170.488 292.594 170.308C292.553 170.127 292.552 169.94 292.591 169.759C292.636 169.551 292.713 169.352 292.818 169.167C292.934 168.965 293.064 168.771 293.208 168.588C293.949 167.62 294.854 166.74 295.971 166.253C296.049 166.22 296.129 166.188 296.208 166.159C296.777 165.959 297.362 165.806 297.956 165.702L298.51 165.588L300.83 165.113L300.894 165.098C301.826 164.906 302.803 164.692 303.558 164.132C303.654 164.061 303.746 163.984 303.833 163.902C303.91 163.839 303.969 163.758 304.006 163.666C304.036 163.545 304.03 163.418 303.991 163.299L303.707 162.081L303.159 159.733C303.028 159.156 302.894 158.58 302.757 158.005C302.694 157.831 302.67 157.646 302.689 157.462C302.708 157.278 302.769 157.101 302.866 156.944C303.108 156.444 303.591 154.76 304.168 154.604C304.27 154.575 304.379 154.58 304.478 154.619C305.049 154.838 305.335 156.091 305.443 156.511C305.562 156.975 305.687 157.437 305.82 157.897C306.363 159.782 307.019 161.632 307.784 163.437C308.006 163.955 308.243 164.497 308.235 165.069Z" fill="black"/>
<path d="M291.453 143.494C291.12 143.623 290.76 143.801 290.64 144.137C290.545 144.397 290.621 144.684 290.631 144.961C290.646 145.405 290.494 145.84 290.205 146.178C289.968 146.453 289.651 146.648 289.401 146.911C289.152 147.174 288.964 147.555 289.083 147.898C289.186 148.198 289.485 148.377 289.665 148.641C289.998 149.122 289.88 149.768 289.765 150.341C289.649 150.914 289.568 151.577 289.949 152.019C290.352 152.485 291.127 152.52 291.46 153.036C291.87 153.656 291.371 154.528 291.619 155.232C291.826 155.809 292.508 156.101 293.119 156.053C293.412 156.03 293.719 155.93 293.892 155.693C294.065 155.456 294.063 155.133 294.008 154.845C293.795 153.733 292.939 152.863 292.51 151.814C292.369 151.469 292.274 151.086 292.368 150.724C292.427 150.495 292.554 150.29 292.598 150.056C292.681 149.572 292.353 149.083 292.45 148.601C292.518 148.384 292.606 148.173 292.711 147.972C292.796 147.761 292.825 147.499 292.681 147.322C293.081 147.466 293.433 147.72 293.694 148.056C293.939 147.946 293.807 147.398 294.076 147.42C294.152 147.427 294.209 147.492 294.268 147.54C294.384 147.622 294.52 147.668 294.662 147.673C294.803 147.678 294.943 147.642 295.063 147.568C295.303 147.416 295.495 147.199 295.617 146.943L296.165 147.377C296.183 147.277 296.232 147.184 296.304 147.112C296.375 147.04 296.468 146.991 296.568 146.973C296.77 146.941 296.976 146.964 297.167 147.038C298.09 147.341 298.924 148.199 298.815 149.164C298.766 149.577 298.566 149.952 298.466 150.356C298.367 150.76 298.431 151.259 298.785 151.475C298.858 151.521 298.944 151.55 299.01 151.603C299.28 151.806 299.232 152.219 299.367 152.52C299.611 153.076 300.349 153.153 300.956 153.158C301.384 153.158 301.883 153.118 302.1 152.756C302.338 152.361 302.079 151.86 301.798 151.493C301.517 151.126 301.192 150.702 301.303 150.255C301.414 149.809 301.974 149.534 302.092 149.067C302.243 148.473 301.633 147.997 301.314 147.473C300.877 146.757 300.972 145.821 300.578 145.075C300.358 144.704 300.07 144.377 299.73 144.11C298.905 143.402 297.97 142.792 296.918 142.511C295.924 142.246 295.011 142.372 294.059 142.712C293.204 143.022 292.305 143.163 291.453 143.494Z" fill="#3C354C"/>
<path d="M303.246 159.762C303.202 159.748 303.16 159.725 303.125 159.693C303.09 159.662 303.062 159.624 303.042 159.582C302.55 158.804 302.076 158.016 301.619 157.218C301.525 157.08 301.466 156.922 301.448 156.757C301.464 156.541 301.552 156.338 301.699 156.18C302.061 155.712 302.496 155.305 302.986 154.974C303.342 154.732 303.856 154.33 304.301 154.49C304.853 154.688 304.513 155.582 304.429 156.028C304.316 156.64 304.168 157.244 303.984 157.838C303.928 158.022 303.381 159.783 303.246 159.762Z" fill="#F2F2F2"/>
<path d="M305.886 167.844C305.867 167.918 305.838 167.989 305.8 168.055C305.789 168.076 305.777 168.096 305.762 168.114C305.748 168.138 305.731 168.16 305.713 168.181L303.357 168.714C302.932 168.656 302.514 168.554 302.109 168.409L301.955 168.356C301.389 168.151 300.798 167.918 300.225 168.079C300.001 168.141 299.799 168.261 299.584 168.344C299.453 168.393 299.32 168.432 299.184 168.463L299.127 168.476C298.922 168.522 298.718 168.558 298.513 168.615C297.822 168.812 297.222 169.233 296.584 169.568C296.471 169.628 296.357 169.685 296.241 169.737C295.802 169.922 295.352 170.076 294.892 170.198L292.866 170.784L292.817 170.795C292.211 170.969 291.548 171.128 290.98 170.859C290.698 170.704 290.447 170.499 290.24 170.254C289.946 169.977 289.697 169.655 289.502 169.301C289.244 168.79 289.229 168.197 289.204 167.626C289.096 165.188 288.806 162.761 288.336 160.365C288.253 159.938 287.971 158.68 288.396 158.24C288.443 158.189 288.502 158.149 288.568 158.125C288.6 158.114 288.634 158.106 288.668 158.102C289.256 157.995 290.417 159.306 290.85 159.654C291.005 159.754 291.136 159.888 291.232 160.045C291.328 160.203 291.387 160.381 291.405 160.565C291.531 161.121 291.653 161.68 291.772 162.24C291.778 162.265 291.784 162.291 291.789 162.315C292.051 163.504 292.312 164.693 292.571 165.881C292.586 166.005 292.635 166.123 292.714 166.219C292.741 166.247 292.771 166.27 292.804 166.289C292.857 166.317 292.914 166.34 292.972 166.358C293.993 166.685 295.098 166.429 296.14 166.173L296.203 166.158L298.503 165.588L299.052 165.453C299.633 165.291 300.226 165.178 300.826 165.112C300.91 165.105 300.995 165.1 301.08 165.096C302.02 165.084 302.952 165.274 303.812 165.655C304.074 165.764 304.332 165.883 304.585 166.013C304.98 166.209 305.379 166.449 305.646 166.804C305.759 166.95 305.839 167.118 305.881 167.298C305.922 167.477 305.924 167.664 305.886 167.844Z" fill="#A0616A"/>
<path d="M291.873 162.335C291.907 162.303 291.934 162.264 291.953 162.221C291.971 162.178 291.981 162.131 291.98 162.084C292.09 161.17 292.179 160.255 292.248 159.338C292.273 159.173 292.257 159.005 292.203 158.848C292.096 158.66 291.929 158.515 291.728 158.435C291.201 158.168 290.634 157.988 290.049 157.901C289.624 157.836 288.988 157.693 288.654 158.03C288.241 158.446 288.93 159.107 289.2 159.473C289.564 159.977 289.958 160.459 290.38 160.916C290.509 161.058 291.761 162.412 291.873 162.335Z" fill="#F2F2F2"/>
<path d="M361.696 130.366C362.458 129.988 363.386 131.181 364.161 130.839C364.587 130.651 364.812 130.045 365.272 129.982C365.796 129.911 366.174 130.563 366.553 131.017C367.21 131.803 368.255 132.133 369.119 131.824C369.315 131.393 369.134 130.838 368.888 130.409C368.641 129.981 368.323 129.582 368.207 129.093C368.053 128.445 368.247 127.646 367.805 127.189C367.465 126.839 366.951 126.921 366.522 126.754C366.187 126.625 365.908 126.345 365.604 126.133C365.114 125.785 364.515 125.624 363.917 125.681C363.425 125.735 362.966 125.947 362.515 126.158L360.407 127.139C360.282 127.183 360.173 127.266 360.098 127.376C360.038 127.534 360.012 127.702 360.021 127.87C359.967 128.606 359.382 129.078 358.93 129.582C358.479 130.086 358.139 130.958 358.581 131.534C358.831 131.861 359.278 131.996 359.412 132.396C359.532 132.754 359.335 133.113 359.181 133.433C358.526 134.787 360.71 134.919 361.025 134.03C361.377 133.05 360.607 130.909 361.696 130.366Z" fill="#3C354C"/>
<path d="M362.154 137.844C362.018 138.138 361.815 138.404 361.723 138.715C361.619 139.154 361.69 139.617 361.921 140.005C362.153 140.387 362.436 140.735 362.763 141.04C363.155 141.469 363.599 141.847 364.085 142.166C364.574 142.488 365.16 142.63 365.743 142.569C366.356 142.477 366.882 142.096 367.369 141.711C367.581 141.565 367.762 141.379 367.901 141.163C367.994 140.967 368.055 140.758 368.08 140.542L368.296 139.31C368.366 139.006 368.391 138.694 368.371 138.384C368.314 137.905 368.047 137.48 367.79 137.072L366.394 134.899C366.328 134.771 366.229 134.663 366.107 134.586C365.998 134.539 365.879 134.517 365.76 134.522C365.183 134.504 364.606 134.539 364.036 134.627C363.612 134.693 362.632 134.76 362.321 135.078C362.035 135.372 362.301 135.896 362.343 136.264C362.426 136.798 362.361 137.345 362.154 137.844Z" fill="#A0616A"/>
<path opacity="0.1" d="M362.154 137.844C362.018 138.138 361.815 138.404 361.723 138.715C361.619 139.154 361.69 139.617 361.921 140.005C362.153 140.387 362.436 140.735 362.763 141.04C363.155 141.469 363.599 141.847 364.085 142.166C364.574 142.488 365.16 142.63 365.743 142.569C366.356 142.477 366.882 142.096 367.369 141.711C367.581 141.565 367.762 141.379 367.901 141.163C367.994 140.967 368.055 140.758 368.08 140.542L368.296 139.31C368.366 139.006 368.391 138.694 368.371 138.384C368.314 137.905 368.047 137.48 367.79 137.072L366.394 134.899C366.328 134.771 366.229 134.663 366.107 134.586C365.998 134.539 365.879 134.517 365.76 134.522C365.183 134.504 364.606 134.539 364.036 134.627C363.612 134.693 362.632 134.76 362.321 135.078C362.035 135.372 362.301 135.896 362.343 136.264C362.426 136.798 362.361 137.345 362.154 137.844Z" fill="black"/>
<path d="M364.843 136.65C366.916 136.181 368.216 134.12 367.748 132.046C367.279 129.973 365.219 128.672 363.146 129.141C361.074 129.61 359.773 131.671 360.242 133.744C360.711 135.818 362.771 137.119 364.843 136.65Z" fill="#A0616A"/>
<path d="M374.43 140.39C374.672 141.423 374.501 142.511 374.305 143.552C374.109 144.594 373.799 145.649 373.618 146.714C373.603 146.8 373.59 146.887 373.577 146.974C373.29 148.914 373.089 150.863 372.974 152.822L372.965 152.967L361.327 155.6C361.399 153.446 361.395 151.31 359.804 150.195C359.755 150.161 359.705 150.125 359.657 150.086C358.597 149.27 357.913 147.985 356.73 147.355C356.458 147.21 356.154 147.096 355.953 146.861C355.835 146.715 355.753 146.543 355.714 146.359C355.677 146.198 355.65 146.034 355.635 145.87C355.533 144.967 355.45 144.014 355.821 143.183C355.993 142.818 356.223 142.482 356.501 142.189C357.109 141.517 357.841 140.968 358.658 140.574C359.577 140.132 360.64 139.858 361.295 139.073C361.426 138.882 361.577 138.704 361.745 138.544L361.794 138.508C361.877 138.443 361.977 138.402 362.083 138.389C362.188 138.377 362.295 138.394 362.392 138.439C362.52 138.529 362.619 138.655 362.679 138.801C362.941 139.294 363.204 139.788 363.467 140.281C363.575 140.53 363.742 140.748 363.954 140.917C364.428 141.229 365.15 141.016 365.553 141.411C365.795 141.651 366.191 141.218 366.337 140.911C366.691 140.17 366.967 139.395 367.159 138.597C367.215 138.285 367.314 137.983 367.455 137.699C367.56 137.513 367.717 137.362 367.906 137.264C367.999 137.217 368.101 137.191 368.205 137.187C368.511 137.181 368.78 137.374 369.029 137.551C370.522 138.613 372.183 139.415 373.943 139.923C374.079 139.947 374.205 140.011 374.305 140.106C374.353 140.167 374.387 140.237 374.405 140.313C374.417 140.34 374.425 140.365 374.43 140.39Z" fill="#3C354C"/>
<path d="M362.058 130.084C362.655 129.806 363.345 130.597 363.952 130.348C364.286 130.212 364.475 129.802 364.829 129.743C365.236 129.682 365.513 130.116 365.795 130.414C366.045 130.67 366.36 130.851 366.707 130.937C367.053 131.024 367.417 131.012 367.757 130.903C367.918 130.606 367.792 130.235 367.61 129.95C367.429 129.665 367.192 129.402 367.114 129.075C367.015 128.637 367.177 128.094 366.847 127.794C366.593 127.566 366.193 127.631 365.865 127.528C365.608 127.444 365.401 127.264 365.17 127.129C364.78 126.9 364.326 126.806 363.877 126.861C363.498 126.927 363.13 127.046 362.784 127.215L361.134 127.928C361.037 127.958 360.951 128.016 360.887 128.095C360.839 128.2 360.817 128.315 360.82 128.43C360.761 128.931 360.296 129.261 359.939 129.614C359.581 129.967 359.299 130.564 359.624 130.945C359.815 131.16 360.151 131.242 360.247 131.516C360.333 131.755 360.172 132.003 360.045 132.223C359.509 133.154 361.193 133.194 361.459 132.584C361.751 131.908 361.204 130.476 362.058 130.084Z" fill="#3C354C"/>
<path d="M378.824 151.641L375.655 152.358C375.413 151.048 374.587 149.849 374.223 148.539C374.086 148.047 374.013 147.532 373.803 147.067C373.748 146.946 373.686 146.828 373.616 146.714C373.48 146.482 373.327 146.257 373.194 146.022C372.751 145.237 372.559 144.341 372.372 143.459C372.168 142.487 371.964 141.514 371.762 140.543C371.705 140.291 371.546 139.936 371.751 139.779C372.214 139.423 372.857 139.775 373.401 139.976C373.728 140.101 374.087 140.177 374.409 140.317C374.6 140.394 374.775 140.504 374.926 140.642C375.11 140.838 375.261 141.064 375.371 141.309C376.086 142.689 376.755 144.092 377.376 145.519C377.658 146.136 377.897 146.773 378.092 147.423C378.488 148.792 378.516 150.258 378.824 151.641Z" fill="#3C354C"/>
<path d="M358.8 154.584C358.74 154.945 358.672 155.325 358.774 155.681C358.822 155.84 358.895 155.991 358.989 156.128L356.118 156.778C355.863 156.322 355.642 155.848 355.456 155.361C355.098 154.41 354.947 153.394 354.852 152.381C354.765 151.598 354.761 150.807 354.842 150.023C354.964 149.013 355.3 148.048 355.55 147.069C355.609 146.84 355.653 146.588 355.72 146.359C355.86 145.859 356.097 145.46 356.786 145.619C358.497 146.014 359.749 148.471 359.662 150.086C359.664 150.09 359.665 150.094 359.665 150.098C359.63 150.511 359.561 150.921 359.46 151.323C359.215 152.406 358.995 153.493 358.8 154.584Z" fill="#3C354C"/>
<path d="M328.158 135.959C328.49 136.002 328.797 136.162 329.022 136.411C329.203 136.639 329.266 136.939 329.412 137.193C329.719 137.726 330.338 137.981 330.783 138.407C331.386 138.983 331.634 139.835 331.787 140.655C331.939 141.475 332.022 142.328 332.404 143.073C332.587 143.436 332.834 143.765 332.989 144.141C333.176 144.598 333.222 145.109 333.449 145.547C333.652 145.947 333.987 146.262 334.315 146.567L335.717 147.87C335.22 147.865 334.724 147.83 334.231 147.766C334.471 148.175 334.821 148.51 335.24 148.733L334.27 147.983C334.067 147.805 333.833 147.665 333.58 147.569C333.265 147.474 332.929 147.524 332.6 147.53C331.97 147.545 331.296 147.373 330.877 146.896C330.32 146.261 330.373 145.293 329.967 144.55C329.675 144.006 329.168 143.618 328.774 143.146C327.878 142.076 327.594 140.64 327.094 139.337C326.881 138.784 326.625 138.245 326.492 137.667C326.395 137.24 326.254 136.42 326.652 136.1C326.998 135.83 327.763 135.888 328.158 135.959Z" fill="#3F3D56"/>
<path d="M330.814 145.55C331.037 146.243 331.374 147.044 332.086 147.195C332.488 147.281 332.898 147.122 333.308 147.098C334.082 147.05 334.82 147.487 335.325 148.081C335.829 148.675 336.115 149.414 336.362 150.15C336.677 151.069 336.942 152.085 336.602 152.996C336.329 153.735 335.694 154.29 334.998 154.657C334.296 155.02 333.523 155.225 332.734 155.256C331.944 155.287 331.157 155.143 330.429 154.836C329.715 154.529 329.078 154.069 328.455 153.606C327.098 152.598 325.707 151.471 325.116 149.886C325.049 149.706 325.001 149.485 325.134 149.335C325.226 149.252 325.341 149.2 325.464 149.188L326.498 148.974C326.76 148.914 327.055 148.848 327.188 148.611C327.321 148.374 327.254 148.13 327.195 147.897C326.944 146.909 326.692 145.919 326.441 144.926C326.401 144.824 326.401 144.711 326.44 144.608C326.492 144.534 326.567 144.48 326.654 144.453C327.2 144.229 327.815 144.191 328.336 143.91C328.831 143.646 329.52 142.852 330.053 143.387C330.499 143.834 330.628 144.959 330.814 145.55Z" fill="#FFC1C7"/>
<path opacity="0.1" d="M330.814 145.55C331.037 146.243 331.374 147.044 332.086 147.195C332.488 147.281 332.898 147.122 333.308 147.098C334.082 147.05 334.82 147.487 335.325 148.081C335.829 148.675 336.115 149.414 336.362 150.15C336.677 151.069 336.942 152.085 336.602 152.996C336.329 153.735 335.694 154.29 334.998 154.657C334.296 155.02 333.523 155.225 332.734 155.256C331.944 155.287 331.157 155.143 330.429 154.836C329.715 154.529 329.078 154.069 328.455 153.606C327.098 152.598 325.707 151.471 325.116 149.886C325.049 149.706 325.001 149.485 325.134 149.335C325.226 149.252 325.341 149.2 325.464 149.188L326.498 148.974C326.76 148.914 327.055 148.848 327.188 148.611C327.321 148.374 327.254 148.13 327.195 147.897C326.944 146.909 326.692 145.919 326.441 144.926C326.401 144.824 326.401 144.711 326.44 144.608C326.492 144.534 326.567 144.48 326.654 144.453C327.2 144.229 327.815 144.191 328.336 143.91C328.831 143.646 329.52 142.852 330.053 143.387C330.499 143.834 330.628 144.959 330.814 145.55Z" fill="black"/>
<path d="M328.177 145.942C330.351 145.451 331.714 143.289 331.223 141.114C330.731 138.94 328.571 137.576 326.397 138.067C324.223 138.559 322.86 140.721 323.351 142.895C323.843 145.07 326.003 146.434 328.177 145.942Z" fill="#FFC1C7"/>
<path d="M339.858 156.885C339.867 157.052 339.866 157.219 339.853 157.386C339.809 157.778 339.745 158.168 339.661 158.553C339.632 158.713 339.606 158.871 339.59 159.031C339.577 159.157 339.57 159.284 339.567 159.41C339.564 159.536 339.565 159.705 339.573 159.853C339.584 160.071 339.605 160.29 339.632 160.508L329.361 162.831C329.288 162.301 329.15 161.782 328.95 161.286C328.652 160.607 328.283 159.963 327.849 159.362C326.816 157.832 325.697 156.287 324.899 154.628C324.899 154.628 324.899 154.628 324.898 154.621C324.36 153.549 324.01 152.393 323.863 151.202C323.856 151.133 323.85 151.063 323.844 150.99C323.828 150.809 323.822 150.627 323.824 150.445C323.813 149.931 323.935 149.423 324.179 148.971C324.528 148.371 325.251 147.949 325.92 148.131C326.324 148.241 326.624 148.529 326.888 148.864C327.055 149.077 327.209 149.307 327.363 149.524C327.926 150.308 328.632 150.977 329.444 151.497C329.6 151.604 329.76 151.695 329.924 151.783C330.088 151.871 330.23 151.945 330.387 152.017C330.898 152.254 331.518 152.56 332.089 152.446C332.42 152.381 332.754 152.296 333.094 152.219C333.392 152.151 333.69 152.071 333.99 152.016C334.628 151.884 335.307 151.541 335.488 150.915C335.612 150.486 335.472 150.029 335.335 149.605C335.227 149.273 335.119 148.941 335.01 148.608C335.006 148.591 335.002 148.573 334.998 148.555C334.921 148.315 334.843 148.077 334.764 147.837C334.727 147.722 334.689 147.605 334.65 147.49L334.566 147.232C334.676 147.194 334.788 147.158 334.9 147.123C335.405 146.966 335.931 146.857 336.429 147.008C336.903 147.15 337.253 147.499 337.522 147.924C337.707 148.229 337.855 148.554 337.963 148.893C338.463 150.397 338.568 152.005 339.001 153.528C339.308 154.633 339.805 155.738 339.858 156.885Z" fill="#009688"/>
<path d="M342.971 159.752L339.865 160.455C339.759 160.108 339.659 159.761 339.567 159.41C339.501 159.168 339.438 158.925 339.378 158.682C339.216 158.027 339.073 157.37 338.95 156.71C339.64 156.917 340.369 156.958 341.077 156.828C341.433 157.082 341.744 157.394 341.997 157.75C342.138 157.945 342.266 158.15 342.379 158.363C342.381 158.366 342.382 158.369 342.382 158.373C342.616 158.815 342.813 159.277 342.971 159.752Z" fill="#FFC1C7"/>
<path d="M342.22 157.695C341.047 157.972 339.913 158.392 338.842 158.944C338.524 158.235 338.424 157.451 338.331 156.68L337.663 151.387C337.613 150.995 336.746 147.49 337.629 147.944C337.952 148.112 338.764 150.092 338.924 150.404C339.166 150.875 339.382 151.357 339.587 151.844C340.008 152.843 340.371 153.863 340.787 154.865C340.906 155.154 341.952 157.759 342.22 157.695Z" fill="#009688"/>
<path d="M327.655 136.659C327.633 136.534 327.577 136.418 327.494 136.323C327.429 136.27 327.353 136.232 327.272 136.21C327.19 136.188 327.106 136.183 327.022 136.196C326.435 136.237 325.862 136.601 325.291 136.463C324.99 136.388 324.724 136.163 324.419 136.074C323.698 135.857 322.972 136.402 322.512 136.999C321.779 137.952 321.348 139.102 321.275 140.302C321.219 141.229 321.348 142.27 320.752 142.985C320.505 143.28 320.154 143.492 319.999 143.846C319.884 144.117 319.912 144.426 319.945 144.713C320.02 145.392 320.112 146.083 320.429 146.687C320.673 147.134 321.021 147.511 321.283 147.947C321.648 148.564 321.829 149.273 321.805 149.989C321.781 150.706 321.553 151.401 321.147 151.992C321.446 152.097 321.775 152.08 322.062 151.946C322.088 152.087 322.074 152.231 322.023 152.364C322.937 152.126 323.535 151.047 324.48 151.04C325.202 151.034 325.746 151.657 326.369 152.023C327.171 152.496 328.256 152.524 329.003 151.967C329.751 151.411 330.017 150.248 329.476 149.49C328.855 148.633 327.537 148.531 326.895 147.686C326.398 147.03 326.452 146.123 326.2 145.341C325.984 144.669 325.544 144.097 325.209 143.477C324.874 142.856 324.644 142.111 324.893 141.448C325.153 140.745 325.862 140.334 326.502 139.944C327.951 139.087 328.072 138.226 327.655 136.659Z" fill="#3F3D56"/>
<path d="M329.887 151.034C329.877 150.466 329.854 149.848 329.538 149.369C328.948 148.473 327.675 148.441 326.699 147.999C326.134 147.742 325.651 147.331 325.306 146.814C325.065 146.451 324.92 145.904 325.247 145.619C325.377 145.519 325.531 145.454 325.693 145.433C326.998 145.169 328.347 145.606 329.532 146.216C330.22 146.571 330.896 147.004 331.342 147.637C331.659 148.085 331.847 148.61 332.025 149.128L332.627 150.844C332.989 151.824 333.297 152.823 333.55 153.837C333.683 154.42 333.778 155.012 333.835 155.609C333.875 156.027 333.888 156.474 333.73 156.865C333.422 157.594 332.589 157.931 331.822 158.127C331.534 158.21 331.238 158.257 330.938 158.268C329.592 158.28 328.213 156.702 328.933 155.373C329.232 154.809 329.856 154.655 329.944 153.956C330.064 153.028 329.906 151.974 329.887 151.034Z" fill="#FFC1C7"/>
<path d="M328.915 151.578L330.302 153.004C330.381 153.076 330.445 153.164 330.489 153.262C330.567 153.471 330.446 153.7 330.361 153.903C329.758 155.293 330.351 156.883 330.942 158.278C329.45 158.151 328.024 157.606 326.826 156.706C325.629 155.806 324.71 154.587 324.173 153.188C323.85 152.351 323.321 150.972 323.962 150.234C325.506 148.457 327.727 150.357 328.915 151.578Z" fill="#009688"/>
<path d="M333.309 147.098C332.898 147.122 332.496 147.282 332.086 147.195C331.374 147.044 331.038 146.243 330.814 145.55C330.799 145.484 330.774 145.416 330.754 145.339C330.931 145.049 331.132 144.774 331.356 144.518C331.565 144.322 331.796 144.151 332.045 144.007L332.703 143.593C332.812 143.769 332.907 143.952 332.989 144.141C333.176 144.598 333.222 145.109 333.45 145.547C333.652 145.947 333.987 146.262 334.315 146.567L335.717 147.87C335.516 147.868 335.315 147.859 335.114 147.848C334.625 147.377 333.978 147.056 333.309 147.098Z" fill="#3F3D56"/>
<path d="M274.932 177.745C274.643 177.822 274.34 177.831 274.046 177.771C273.753 177.711 273.477 177.584 273.241 177.401C273.004 177.217 272.813 176.981 272.683 176.711C272.553 176.441 272.487 176.145 272.489 175.846C272.492 175.546 272.564 175.251 272.7 174.984C272.835 174.717 273.031 174.485 273.271 174.305C273.511 174.126 273.789 174.005 274.083 173.951C274.378 173.897 274.681 173.912 274.969 173.994L274.841 174.992L275.382 174.171C275.829 174.427 276.156 174.849 276.292 175.346C276.341 175.52 276.365 175.7 276.364 175.881C276.361 176.305 276.22 176.717 275.961 177.054C275.703 177.39 275.341 177.633 274.932 177.745Z" fill="#009688"/>
<path opacity="0.1" d="M274.932 177.745C274.608 177.836 274.266 177.841 273.939 177.76C273.612 177.679 273.312 177.514 273.068 177.282C272.824 177.05 272.645 176.759 272.547 176.436C272.449 176.114 272.437 175.772 272.511 175.443C272.685 175.511 272.844 175.611 272.979 175.739C273.161 175.913 273.297 176.132 273.498 176.283C273.873 176.564 274.405 176.564 274.859 176.439C275.314 176.315 275.727 176.083 276.17 175.939C276.234 175.925 276.295 175.901 276.36 175.885C276.357 176.308 276.216 176.719 275.958 177.054C275.7 177.39 275.34 177.633 274.932 177.745Z" fill="black"/>
<defs>
<filter id="filter0_d" x="0.124512" y="44.3262" width="233.916" height="293.386" filterUnits="userSpaceOnUse" color-interpolation-filters="sRGB">
<feFlood flood-opacity="0" result="BackgroundImageFix"/>
<feColorMatrix in="SourceAlpha" type="matrix" values="0 0 0 0 0 0 0 0 0 0 0 0 0 0 0 0 0 0 127 0"/>
<feOffset dy="4"/>
<feGaussianBlur stdDeviation="2"/>
<feColorMatrix type="matrix" values="0 0 0 0 0 0 0 0 0 0 0 0 0 0 0 0 0 0 0.25 0"/>
<feBlend mode="normal" in2="BackgroundImageFix" result="effect1_dropShadow"/>
<feBlend mode="normal" in="SourceGraphic" in2="effect1_dropShadow" result="shape"/>
</filter>
<filter id="filter1_d" x="179.446" y="3.75085" width="233.916" height="293.386" filterUnits="userSpaceOnUse" color-interpolation-filters="sRGB">
<feFlood flood-opacity="0" result="BackgroundImageFix"/>
<feColorMatrix in="SourceAlpha" type="matrix" values="0 0 0 0 0 0 0 0 0 0 0 0 0 0 0 0 0 0 127 0"/>
<feOffset dy="4"/>
<feGaussianBlur stdDeviation="2"/>
<feColorMatrix type="matrix" values="0 0 0 0 0 0 0 0 0 0 0 0 0 0 0 0 0 0 0.25 0"/>
<feBlend mode="normal" in2="BackgroundImageFix" result="effect1_dropShadow"/>
<feBlend mode="normal" in="SourceGraphic" in2="effect1_dropShadow" result="shape"/>
</filter>
<filter id="filter2_d" x="241.615" y="64.5391" width="237.503" height="296.974" filterUnits="userSpaceOnUse" color-interpolation-filters="sRGB">
<feFlood flood-opacity="0" result="BackgroundImageFix"/>
<feColorMatrix in="SourceAlpha" type="matrix" values="0 0 0 0 0 0 0 0 0 0 0 0 0 0 0 0 0 0 127 0"/>
<feOffset dy="8"/>
<feGaussianBlur stdDeviation="4"/>
<feColorMatrix type="matrix" values="0 0 0 0 0 0 0 0 0 0 0 0 0 0 0 0 0 0 0.25 0"/>
<feBlend mode="normal" in2="BackgroundImageFix" result="effect1_dropShadow"/>
<feBlend mode="normal" in="SourceGraphic" in2="effect1_dropShadow" result="shape"/>
</filter>
<linearGradient id="paint0_linear" x1="605.033" y1="449.092" x2="605.033" y2="273.063" gradientUnits="userSpaceOnUse">
<stop stop-color="#808080" stop-opacity="0.25"/>
<stop offset="0.54" stop-color="#808080" stop-opacity="0.12"/>
<stop offset="1" stop-color="#808080" stop-opacity="0.1"/>
</linearGradient>
<linearGradient id="paint1_linear" x1="98418.8" y1="63955.5" x2="98418.8" y2="50858.1" gradientUnits="userSpaceOnUse">
<stop stop-color="#808080" stop-opacity="0.25"/>
<stop offset="0.54" stop-color="#808080" stop-opacity="0.12"/>
<stop offset="1" stop-color="#808080" stop-opacity="0.1"/>
</linearGradient>
<linearGradient id="paint2_linear" x1="66445.8" y1="105003" x2="48814.7" y2="27079.5" gradientUnits="userSpaceOnUse">
<stop stop-color="#808080" stop-opacity="0.25"/>
<stop offset="0.54" stop-color="#808080" stop-opacity="0.12"/>
<stop offset="1" stop-color="#808080" stop-opacity="0.1"/>
</linearGradient>
<linearGradient id="paint3_linear" x1="105103" y1="96214.7" x2="87471.5" y2="18291.1" gradientUnits="userSpaceOnUse">
<stop stop-color="#808080" stop-opacity="0.25"/>
<stop offset="0.54" stop-color="#808080" stop-opacity="0.12"/>
<stop offset="1" stop-color="#808080" stop-opacity="0.1"/>
</linearGradient>
<linearGradient id="paint4_linear" x1="120321" y1="115384" x2="102690" y2="37460.3" gradientUnits="userSpaceOnUse">
<stop stop-color="#808080" stop-opacity="0.25"/>
<stop offset="0.54" stop-color="#808080" stop-opacity="0.12"/>
<stop offset="1" stop-color="#808080" stop-opacity="0.1"/>
</linearGradient>
<linearGradient id="paint5_linear" x1="205592" y1="120438" x2="230067" y2="77735.1" gradientUnits="userSpaceOnUse">
<stop stop-color="#808080" stop-opacity="0.25"/>
<stop offset="0.54" stop-color="#808080" stop-opacity="0.12"/>
<stop offset="1" stop-color="#808080" stop-opacity="0.1"/>
</linearGradient>
</defs>
</svg>
